<svg width="8" height="13" viewBox="0 0 8 13" fill="none" xmlns="http://www.w3.org/2000/svg">
<path id="Vector" d="M7.41885 0.580263L7.41861 0.580029C7.32794 0.492001 7.21945 0.421549 7.09912 0.373275L7.21081 0.0948439L7.09912 0.373274C6.97876 0.324992 6.8493 0.3 6.71829 0.3C6.58727 0.3 6.45781 0.324992 6.33746 0.373275C6.21718 0.421523 6.10875 0.491926 6.01811 0.579889C6.01806 0.579936 6.01801 0.579982 6.01796 0.580029L0.588178 5.87013L0.588189 5.87014L0.586029 5.8722C0.494609 5.95951 0.422687 6.06277 0.373829 6.17569C0.324984 6.28859 0.3 6.40925 0.3 6.53083C0.3 6.65241 0.324984 6.77307 0.373828 6.88597C0.422687 6.99889 0.494609 7.10215 0.586031 7.18946L0.586915 7.19031L6.01708 12.4191L6.01708 12.4191L6.01796 12.42C6.10863 12.508 6.21712 12.5785 6.33746 12.6267C6.45781 12.675 6.58727 12.7 6.71829 12.7C6.8493 12.7 6.97876 12.675 7.09912 12.6267C7.21945 12.5785 7.32794 12.508 7.41861 12.42L7.41885 12.4197C7.60032 12.244 7.7 12.0086 7.7 11.7658C7.7 11.5231 7.60043 11.2879 7.41916 11.1122C7.41906 11.1121 7.41896 11.112 7.41885 11.1119L2.88582 6.74693L2.66297 6.53234L2.88431 6.31619L7.41798 1.88897L7.41885 1.88813C7.60032 1.71235 7.7 1.47702 7.7 1.23419C7.7 0.991371 7.60032 0.756041 7.41885 0.580263Z" fill="#4E5154" stroke="white" stroke-width="0.6"/>
</svg>
