<svg width="24" height="24" viewBox="0 0 24 24" fill="none" xmlns="http://www.w3.org/2000/svg">
<g id="angle-down">
<path id="Vector" d="M9.38998 6.40992L9.39009 6.4098C9.46609 6.32656 9.55582 6.26123 9.65374 6.21691C9.75162 6.17261 9.85611 6.15 9.96129 6.15C10.0665 6.15 10.1709 6.17261 10.2688 6.21691C10.3667 6.26121 10.4564 6.3265 10.5324 6.40968C10.5324 6.40972 10.5324 6.40976 10.5325 6.4098L14.6049 10.8862L14.6049 10.8862L14.6059 10.8873C14.6826 10.9698 14.744 11.0687 14.7861 11.1785C14.8282 11.2883 14.85 11.4065 14.85 11.5261C14.85 11.6457 14.8282 11.7639 14.7861 11.8737C14.744 11.9835 14.6826 12.0824 14.6059 12.1649L14.6055 12.1654L10.5329 16.5898L10.5329 16.5897L10.5325 16.5902C10.4565 16.6734 10.3668 16.7388 10.2688 16.7831C10.1709 16.8274 10.0665 16.85 9.96129 16.85C9.8561 16.85 9.75162 16.8274 9.65374 16.7831C9.55582 16.7388 9.46609 16.6734 9.39009 16.5902L9.38998 16.5901C9.23748 16.4234 9.15 16.1955 9.15 15.9557C9.15 15.7159 9.23742 15.4881 9.38983 15.3214C9.38988 15.3214 9.38993 15.3213 9.38998 15.3213L12.7899 11.6277L12.8828 11.5268L12.7906 11.4253L9.39038 7.67916L9.38998 7.67872C9.23748 7.51206 9.15 7.28417 9.15 7.04432C9.15 6.80447 9.23748 6.57658 9.38998 6.40992Z" fill="#4E5154" stroke="white" stroke-width="0.3"/>
</g>
</svg>
