<svg width="16" height="20" viewBox="0 0 16 20" fill="none" xmlns="http://www.w3.org/2000/svg">
<path id="Vector" d="M12.85 7V7.15H13C13.7559 7.15 14.4808 7.45027 15.0153 7.98475C15.5497 8.51922 15.85 9.24413 15.85 10V17C15.85 17.7559 15.5497 18.4808 15.0153 19.0153C14.4808 19.5497 13.7559 19.85 13 19.85H3C2.24413 19.85 1.51922 19.5497 0.984746 19.0153C0.450267 18.4808 0.15 17.7559 0.15 17V10C0.15 9.24413 0.450267 8.51922 0.984746 7.98475C1.51922 7.45027 2.24413 7.15 3 7.15H3.15V7V5C3.15 3.7137 3.66098 2.48008 4.57053 1.57053C5.48008 0.660981 6.7137 0.15 8 0.15C9.2863 0.15 10.5199 0.660981 11.4295 1.57053C12.339 2.48008 12.85 3.7137 12.85 5V7ZM11 7.15H11.15V7V5C11.15 4.16457 10.8181 3.36335 10.2274 2.77261C9.63665 2.18187 8.83543 1.85 8 1.85C7.16457 1.85 6.36335 2.18187 5.77261 2.77261C5.18187 3.36335 4.85 4.16457 4.85 5V7V7.15H5H11ZM7.39896 11.399C7.55837 11.2396 7.77457 11.15 8 11.15C8.22543 11.15 8.44164 11.2396 8.60104 11.399C8.76045 11.5584 8.85 11.7746 8.85 12V15C8.85 15.2254 8.76045 15.4416 8.60104 15.601C8.44164 15.7604 8.22543 15.85 8 15.85C7.77457 15.85 7.55836 15.7604 7.39896 15.601C7.23955 15.4416 7.15 15.2254 7.15 15V12C7.15 11.7746 7.23955 11.5584 7.39896 11.399ZM13.8132 17.8132C14.0288 17.5975 14.15 17.305 14.15 17V10C14.15 9.695 14.0288 9.40249 13.8132 9.18683C13.5975 8.97116 13.305 8.85 13 8.85H3C2.695 8.85 2.40249 8.97116 2.18683 9.18683C1.97116 9.40249 1.85 9.695 1.85 10V17C1.85 17.305 1.97116 17.5975 2.18683 17.8132C2.40249 18.0288 2.695 18.15 3 18.15H13C13.305 18.15 13.5975 18.0288 13.8132 17.8132Z" fill="#33AD43" stroke="#E4E5E5" stroke-width="0.3"/>
</svg>
