<svg width="13" height="19" viewBox="0 0 13 19" fill="none" xmlns="http://www.w3.org/2000/svg">
<g id="Group 1321316548 1" clip-path="url(#clip0_1634_9464)">
<path id="Vector" d="M4 3H5.99824C6.39143 3 6.71714 3.05337 6.97535 3.16011C7.23357 3.26124 7.43603 3.39045 7.58275 3.54775C7.73533 3.69944 7.84096 3.86517 7.89965 4.04494C7.9642 4.22472 7.99648 4.39045 7.99648 4.54214C7.99648 4.71067 7.96714 4.88483 7.90845 5.06461C7.84977 5.23876 7.75587 5.40169 7.62676 5.55337C7.49765 5.70506 7.3304 5.83146 7.125 5.93258C6.92547 6.03371 6.68486 6.0927 6.40317 6.10955V6.14326L6.4912 6.18539C6.56162 6.2191 6.62031 6.26124 6.66725 6.3118C6.72007 6.36236 6.78462 6.44382 6.86092 6.55618C6.94308 6.66854 7.05164 6.82865 7.18662 7.03652C7.3216 7.23876 7.51232 7.51124 7.7588 7.85393C7.84096 7.97191 7.92019 8.07865 7.99648 8.17416C8.07277 8.26405 8.15199 8.3427 8.23415 8.41011C8.31631 8.47191 8.40434 8.51966 8.49824 8.55337C8.59214 8.58708 8.7007 8.60393 8.82394 8.60393C8.85329 8.60393 8.88263 8.60393 8.91197 8.60393C8.94131 8.59831 8.97066 8.5927 9 8.58708V8.89888C8.91784 8.94382 8.83568 8.97191 8.75352 8.98315C8.67136 8.99438 8.56573 9 8.43662 9C8.26056 9 8.10798 8.97753 7.97887 8.93258C7.85563 8.88764 7.74413 8.82865 7.64437 8.75562C7.5446 8.67697 7.4507 8.58427 7.36268 8.47753C7.28052 8.37079 7.19542 8.25281 7.10739 8.1236L6.41197 7.13764C6.30634 6.98034 6.21538 6.84831 6.13908 6.74157C6.06279 6.63483 5.98063 6.54775 5.89261 6.48034C5.80458 6.41292 5.70481 6.36517 5.59331 6.33708C5.48768 6.30899 5.3527 6.29494 5.18838 6.29494H4.80106V8.89888H4V3ZM4.80106 3.37079V5.91573H5.70775C5.94249 5.91573 6.14789 5.8764 6.32394 5.79775C6.50587 5.7191 6.65845 5.61798 6.78169 5.49438C6.90493 5.36517 6.99589 5.22472 7.05458 5.07303C7.11913 4.91573 7.15141 4.76124 7.15141 4.60955C7.15141 4.42978 7.1162 4.26405 7.04577 4.11236C6.98122 3.96067 6.88439 3.83146 6.75528 3.72472C6.62617 3.61236 6.47066 3.52528 6.28873 3.46348C6.11268 3.40169 5.91315 3.37079 5.69014 3.37079H4.80106Z" fill="#4E5154"/>
<path id="Vector_2" d="M4 11H4.8125V14.8511C4.8125 14.9635 4.81548 15.0758 4.82143 15.1882C4.82738 15.3006 4.84821 15.4129 4.88393 15.5253C4.91964 15.632 4.97321 15.7416 5.04464 15.8539C5.11607 15.9663 5.22024 16.0787 5.35714 16.191C5.52976 16.3371 5.71131 16.4466 5.90179 16.5197C6.09821 16.5927 6.32143 16.6292 6.57143 16.6292C6.8631 16.6292 7.14286 16.5899 7.41071 16.5112C7.67857 16.4326 7.91964 16.2837 8.13393 16.0646C8.25298 15.941 8.34226 15.8174 8.40179 15.6938C8.46726 15.5702 8.51488 15.4466 8.54464 15.323C8.5744 15.1938 8.59226 15.0674 8.59821 14.9438C8.60417 14.8146 8.60714 14.6882 8.60714 14.5646V11H9V14.8427C9 15.1404 8.9494 15.4213 8.84821 15.6854C8.74702 15.9438 8.59524 16.1713 8.39286 16.368C8.19643 16.5646 7.9494 16.7191 7.65179 16.8315C7.36012 16.9438 7.02381 17 6.64286 17C6.03571 17 5.55655 16.9213 5.20536 16.764C4.85417 16.6011 4.58929 16.4017 4.41071 16.1657C4.23214 15.9242 4.11905 15.6657 4.07143 15.3904C4.02381 15.1096 4 14.8539 4 14.6236V11Z" fill="#4E5154"/>
<path id="Vector_3" d="M12 1H1V18.5H12V1Z" stroke="#4E5154" stroke-width="0.5"/>
</g>
<defs>
<clipPath id="clip0_1634_9464">
<rect width="13" height="19" fill="white"/>
</clipPath>
</defs>
</svg>
