<svg width="18" height="20" viewBox="0 0 18 20" fill="none" xmlns="http://www.w3.org/2000/svg">
<g id="Vector">
<mask id="path-1-outside-1_1633_9392" maskUnits="userSpaceOnUse" x="0" y="0" width="18" height="20" fill="black">
<rect fill="white" width="18" height="20"/>
<path d="M16.8457 18.452C16.7041 18.3714 16.5348 18.2868 16.3556 18.1973C16.0351 18.0372 15.4988 17.7693 15.4666 17.644C15.38 17.3066 15.6752 16.4672 15.8339 16.0162C15.8773 15.8928 15.9148 15.7861 15.9386 15.7088C16.3522 14.3674 16.1581 13.7523 16.0057 13.5051C15.6697 12.9603 13.9688 13.1134 13.3792 13.1844C13.7218 11.9222 13.587 11.0861 13.5444 10.8838C13.6009 10.7768 13.7208 10.4905 13.6188 10.1339C13.4997 9.71743 13.1258 9.35531 12.5072 9.05722C12.4995 9.05353 12.4428 9.02966 12.4281 9.02298C12.2005 8.92009 12.1194 8.74186 12.091 8.6149C12.2967 8.66032 12.6247 8.69229 12.7674 8.48411C12.8608 8.34768 12.8771 7.98652 12.8798 7.87907C12.8881 7.5561 12.8504 7.21348 12.7737 6.91428C12.6251 6.33468 12.3354 5.9177 11.9358 5.70833C11.8295 5.65271 11.7213 5.61128 11.614 5.58437C11.5795 5.41485 11.5312 5.24778 11.4677 5.08436C11.2359 4.48784 10.8965 3.64033 10.5853 2.96084L10.5898 2.94618C10.7651 2.36789 10.9308 1.82169 10.5479 1.16774C10.4953 1.07783 10.4042 1.01795 10.2982 1.0034C10.1908 0.988657 10.0851 1.02232 10.0079 1.09565C9.50552 1.57213 9.3043 2.34167 9.51862 2.96706L9.75535 3.65806C9.75618 3.6606 9.75721 3.66317 9.75823 3.66566C9.76466 3.68075 10.1991 4.71767 10.3733 5.98093C10.2233 6.13614 10.1018 6.3209 10.0357 6.49718C10.0343 6.50033 10.0277 6.51933 10.0256 6.52567C9.93953 6.47929 9.82018 6.42559 9.69072 6.39937C9.64941 6.391 9.60732 6.38678 9.56549 6.38678C9.34837 6.38678 9.15042 6.49722 9.03596 6.68229C8.55777 7.45556 9.70852 8.9644 9.75772 9.02824C9.7806 9.05791 9.81603 9.0743 9.85245 9.0743H9.85415C9.90445 9.0743 9.95101 9.04367 9.96565 8.99683C9.97267 8.9743 9.97326 8.95246 9.96841 8.93253C9.95196 8.79449 9.81299 7.61499 9.81299 7.15486C9.81299 6.93171 9.89909 6.84848 9.992 6.82341C10.0336 7.17644 10.2876 7.66501 10.3701 7.81634C10.2781 8.08978 9.90157 9.3846 10.6266 10.4269C10.6483 10.5048 10.6739 10.589 10.7009 10.6778C10.8746 11.25 11.1127 12.0337 10.8227 12.7546C10.6575 13.1656 10.3873 13.419 10.1705 13.5939C10.1045 13.6472 10.0396 13.6962 9.97693 13.7435C9.77232 13.898 9.59564 14.0314 9.52107 14.2125C9.40132 14.5038 9.38755 14.7733 9.39003 14.9079C9.07597 15.0297 7.92656 15.4865 7.20133 15.9233C6.76713 16.1847 6.31631 16.1116 5.89166 16.0143C5.83823 16.0021 5.7852 15.9894 5.73269 15.9768C5.4333 15.9053 5.15061 15.8377 4.88247 15.8684C4.35093 15.9293 3.07337 16.2955 2.54881 16.4502C2.42393 16.487 2.29136 16.4658 2.18507 16.3918C2.06536 16.3085 1.91208 16.2822 1.77489 16.3215C1.48324 16.4051 1.26265 16.6477 1.21285 16.9393L1.00816 18.134C0.998059 18.193 0.996599 18.2535 1.00796 18.3123C1.0138 18.3424 1.02311 18.3751 1.03783 18.4073C1.11441 18.5748 1.3036 18.8312 1.76227 18.8312C1.8089 18.8312 1.85846 18.8285 1.91082 18.8228C2.20401 18.7911 2.37232 18.7043 2.42531 18.5573C2.4944 18.3657 2.36684 18.2033 2.29712 18.1663C2.18314 18.1058 2.0355 18.0622 2.0355 18.0622L2.69089 17.6225C2.86323 17.5068 3.07321 17.448 3.28232 17.4572L7.33734 17.6334C7.33954 17.6335 7.34179 17.6335 7.344 17.6335C7.37726 17.6331 8.17039 17.621 9.18017 17.3428C10.0957 17.0905 11.3589 16.5626 12.2335 15.4776C12.6454 15.5977 13.5411 15.2974 14.4323 14.9745C14.4799 14.9572 14.5268 14.9402 14.5713 14.9243C14.4203 15.2595 14.3364 15.7658 14.3213 16.4361C14.308 17.0261 14.3544 17.5578 14.3644 17.6641L14.1986 18.3634C14.1824 18.4315 14.1828 18.5032 14.206 18.5693C14.2542 18.7066 14.3774 18.7991 14.5215 18.8139L16.6685 18.9983C16.6799 18.9995 16.6912 19 16.7023 19C16.8346 19 16.9475 18.9195 16.9875 18.7923C17.0282 18.6619 16.9666 18.5208 16.8457 18.452ZM9.57611 7.15478C9.57611 7.46708 9.63545 8.07731 9.68161 8.50465C9.35614 7.98487 8.98601 7.20953 9.23864 6.80099C9.3099 6.68579 9.43201 6.61703 9.56533 6.61703C9.59094 6.61703 9.6169 6.61964 9.64231 6.62479C9.69175 6.63481 9.74008 6.65032 9.78471 6.66801C9.63478 6.77769 9.57611 6.97635 9.57611 7.15478ZM10.2226 6.73105C10.2226 6.69519 10.2543 6.58605 10.2552 6.58337C10.2887 6.49131 10.3434 6.39338 10.4107 6.30006C10.4459 6.66137 10.4564 7.03509 10.4273 7.40408C10.3241 7.17766 10.2226 6.90748 10.2226 6.73105ZM10.6099 7.84574C10.6106 7.84382 10.6108 7.84183 10.6114 7.83987C10.6131 7.83461 10.6148 7.82939 10.6157 7.82379C10.6158 7.8231 10.6159 7.8224 10.616 7.82175L10.6161 7.8216C10.9216 5.92047 10.0757 3.81492 9.98364 3.59361C9.98009 3.58505 9.97689 3.57664 9.97389 3.56785L9.74308 2.89416C9.55646 2.34946 9.73326 1.6777 10.173 1.26053C10.1974 1.23738 10.2311 1.22671 10.2651 1.23143C10.2844 1.23408 10.3202 1.24413 10.3421 1.28172C10.6751 1.85049 10.5303 2.328 10.3626 2.88096L10.3458 2.93651C10.3378 2.96284 10.3397 2.99079 10.3512 3.01586C10.6648 3.69649 11.0111 4.56074 11.2462 5.16582C11.3852 5.52341 11.4498 5.89893 11.4382 6.2819L11.3823 8.13523C11.3718 8.48473 11.4074 8.83476 11.4883 9.17553C11.5009 9.22878 11.5496 9.26483 11.6035 9.26483C11.628 9.26483 11.6536 9.25745 11.6763 9.24076C11.714 9.21308 11.7285 9.16467 11.718 9.11991C11.6423 8.79952 11.609 8.47052 11.619 8.14203L11.6749 6.28869C11.6795 6.13721 11.6727 5.98684 11.6553 5.83809C11.7114 5.85789 11.7677 5.88196 11.8237 5.91125C12.2522 6.13579 12.4519 6.61097 12.544 6.97006C12.7126 7.62785 12.6281 8.27217 12.5704 8.35639C12.4981 8.46196 12.1863 8.41509 11.9985 8.35021C11.9637 8.33812 11.9252 8.34253 11.8943 8.36207C11.8633 8.38161 11.8435 8.41405 11.8407 8.44987C11.8254 8.64323 11.9119 9.04344 12.3313 9.23216C12.3684 9.39734 12.4513 9.93736 12.0434 10.2492C11.6101 10.5804 10.9594 10.3449 10.8155 10.2864C10.0982 9.23968 10.6046 7.8596 10.6099 7.84574ZM11.043 12.8384C11.3625 12.0441 11.1112 11.2166 10.9277 10.6124C10.9229 10.5966 10.9182 10.5812 10.9135 10.5657C11.0584 10.6094 11.2578 10.6537 11.473 10.6537C11.7112 10.6537 11.9681 10.5995 12.1895 10.4301C12.4436 10.2359 12.5853 9.94569 12.5997 9.59071C12.6031 9.50694 12.5989 9.42909 12.5917 9.36153C13.0317 9.6056 13.2998 9.884 13.3895 10.1911C13.4859 10.5216 13.3393 10.7717 13.3216 10.8003C13.3009 10.826 13.0951 11.0673 12.742 11.0068C12.6778 10.9958 12.6162 11.0375 12.6048 11.1002C12.5934 11.1628 12.6364 11.2225 12.7008 11.2336C12.7552 11.2429 12.8069 11.2471 12.8562 11.2471C13.0653 11.2471 13.2277 11.1716 13.339 11.0947C13.3836 11.4412 13.4217 12.2197 13.1038 13.2897C12.997 13.6491 12.8557 13.9999 12.6821 14.3391C11.1781 14.7502 10.5541 13.9654 10.3957 13.7096C10.6195 13.5198 10.8767 13.252 11.043 12.8384ZM2.55623 17.4328L1.71196 17.9993C1.66722 18.0293 1.6482 18.0861 1.66955 18.1377C1.68269 18.1695 1.71149 18.1927 1.74459 18.2044L2.08406 18.3245C2.13473 18.3425 2.17698 18.3797 2.19588 18.4288C2.20361 18.4489 2.20661 18.4675 2.2016 18.4812C2.18779 18.5189 2.09645 18.571 1.88442 18.5939C1.48265 18.6373 1.32376 18.4623 1.26229 18.3393C1.26016 18.3351 1.25775 18.3228 1.25531 18.3068C1.24351 18.2291 1.24513 18.1501 1.25838 18.0726L1.44611 16.9771C1.48115 16.7719 1.63637 16.6013 1.84157 16.5424C1.90936 16.523 1.98626 16.5367 2.04713 16.5791C2.21123 16.6933 2.42425 16.7275 2.61726 16.6706C3.13578 16.5177 4.39725 16.1558 4.90993 16.0972C5.13542 16.0714 5.39803 16.1341 5.67607 16.2005C5.69592 16.2052 5.71616 16.2099 5.73616 16.2147L5.61973 17.3282L3.29262 17.2271C3.03194 17.2155 2.77074 17.2889 2.55623 17.4328ZM7.34392 17.4031L5.85658 17.3385L5.96859 16.2673C6.38954 16.3547 6.86344 16.3975 7.32574 16.1191C8.13536 15.6314 9.54119 15.0973 9.55527 15.092C9.60511 15.0731 9.63572 15.0239 9.63008 14.9722C9.62973 14.969 9.5967 14.6482 9.74067 14.2981C9.79129 14.1751 9.9445 14.0594 10.1219 13.9254C10.1515 13.903 10.1817 13.8802 10.2123 13.8567C10.297 13.9846 10.4588 14.1868 10.7226 14.3603C11.0893 14.6015 11.4956 14.6845 11.8814 14.6845C12.1106 14.6845 12.332 14.6549 12.5341 14.612C12.4553 14.749 12.3711 14.884 12.2814 15.0165C12.2602 15.0483 12.1417 15.2149 12.1012 15.2675C10.5212 17.3128 7.45752 17.4007 7.34392 17.4031ZM14.3494 14.7586C13.8669 14.9334 12.8093 15.3165 12.3867 15.276C12.3949 15.2645 12.4579 15.1751 12.4796 15.1424C12.8438 14.6041 13.1224 14.0269 13.3091 13.4257C13.4844 13.4036 13.9458 13.3509 14.4298 13.3421C15.1839 13.3284 15.684 13.4311 15.8027 13.6235C16.0322 13.9957 15.948 14.6664 15.8407 15.1529C15.3249 15.234 14.9407 15.1083 14.7776 15.0383C14.8214 14.9364 14.8715 14.854 14.9276 14.7921C14.9608 14.7556 14.9666 14.7027 14.9423 14.6601C14.9181 14.6174 14.8686 14.5943 14.8194 14.6023C14.7523 14.6132 14.6195 14.6607 14.3494 14.7586ZM16.7602 18.7269C16.7554 18.7411 16.7385 18.7736 16.691 18.7689L14.544 18.5846C14.5051 18.5806 14.471 18.5613 14.4483 18.5303C14.4256 18.4993 14.4179 18.4617 14.4267 18.4246L14.5991 17.6978C14.602 17.6855 14.6028 17.6729 14.6016 17.6604C14.601 17.6547 14.5432 17.0821 14.5578 16.4389C14.5689 15.9503 14.618 15.553 14.7015 15.2579C14.8551 15.322 15.1331 15.4103 15.5031 15.4103C15.5911 15.4103 15.6849 15.4045 15.7828 15.393C15.7557 15.4963 15.7305 15.5824 15.7119 15.6426C15.6893 15.7157 15.6525 15.8204 15.6099 15.9416C15.4201 16.4812 15.1333 17.2965 15.237 17.6998C15.2913 17.9113 15.655 18.1062 16.2474 18.4022C16.4261 18.4915 16.5949 18.5758 16.7319 18.6541C16.772 18.677 16.765 18.7126 16.7602 18.7269Z"/>
</mask>
<path d="M16.8457 18.452C16.7041 18.3714 16.5348 18.2868 16.3556 18.1973C16.0351 18.0372 15.4988 17.7693 15.4666 17.644C15.38 17.3066 15.6752 16.4672 15.8339 16.0162C15.8773 15.8928 15.9148 15.7861 15.9386 15.7088C16.3522 14.3674 16.1581 13.7523 16.0057 13.5051C15.6697 12.9603 13.9688 13.1134 13.3792 13.1844C13.7218 11.9222 13.587 11.0861 13.5444 10.8838C13.6009 10.7768 13.7208 10.4905 13.6188 10.1339C13.4997 9.71743 13.1258 9.35531 12.5072 9.05722C12.4995 9.05353 12.4428 9.02966 12.4281 9.02298C12.2005 8.92009 12.1194 8.74186 12.091 8.6149C12.2967 8.66032 12.6247 8.69229 12.7674 8.48411C12.8608 8.34768 12.8771 7.98652 12.8798 7.87907C12.8881 7.5561 12.8504 7.21348 12.7737 6.91428C12.6251 6.33468 12.3354 5.9177 11.9358 5.70833C11.8295 5.65271 11.7213 5.61128 11.614 5.58437C11.5795 5.41485 11.5312 5.24778 11.4677 5.08436C11.2359 4.48784 10.8965 3.64033 10.5853 2.96084L10.5898 2.94618C10.7651 2.36789 10.9308 1.82169 10.5479 1.16774C10.4953 1.07783 10.4042 1.01795 10.2982 1.0034C10.1908 0.988657 10.0851 1.02232 10.0079 1.09565C9.50552 1.57213 9.3043 2.34167 9.51862 2.96706L9.75535 3.65806C9.75618 3.6606 9.75721 3.66317 9.75823 3.66566C9.76466 3.68075 10.1991 4.71767 10.3733 5.98093C10.2233 6.13614 10.1018 6.3209 10.0357 6.49718C10.0343 6.50033 10.0277 6.51933 10.0256 6.52567C9.93953 6.47929 9.82018 6.42559 9.69072 6.39937C9.64941 6.391 9.60732 6.38678 9.56549 6.38678C9.34837 6.38678 9.15042 6.49722 9.03596 6.68229C8.55777 7.45556 9.70852 8.9644 9.75772 9.02824C9.7806 9.05791 9.81603 9.0743 9.85245 9.0743H9.85415C9.90445 9.0743 9.95101 9.04367 9.96565 8.99683C9.97267 8.9743 9.97326 8.95246 9.96841 8.93253C9.95196 8.79449 9.81299 7.61499 9.81299 7.15486C9.81299 6.93171 9.89909 6.84848 9.992 6.82341C10.0336 7.17644 10.2876 7.66501 10.3701 7.81634C10.2781 8.08978 9.90157 9.3846 10.6266 10.4269C10.6483 10.5048 10.6739 10.589 10.7009 10.6778C10.8746 11.25 11.1127 12.0337 10.8227 12.7546C10.6575 13.1656 10.3873 13.419 10.1705 13.5939C10.1045 13.6472 10.0396 13.6962 9.97693 13.7435C9.77232 13.898 9.59564 14.0314 9.52107 14.2125C9.40132 14.5038 9.38755 14.7733 9.39003 14.9079C9.07597 15.0297 7.92656 15.4865 7.20133 15.9233C6.76713 16.1847 6.31631 16.1116 5.89166 16.0143C5.83823 16.0021 5.7852 15.9894 5.73269 15.9768C5.4333 15.9053 5.15061 15.8377 4.88247 15.8684C4.35093 15.9293 3.07337 16.2955 2.54881 16.4502C2.42393 16.487 2.29136 16.4658 2.18507 16.3918C2.06536 16.3085 1.91208 16.2822 1.77489 16.3215C1.48324 16.4051 1.26265 16.6477 1.21285 16.9393L1.00816 18.134C0.998059 18.193 0.996599 18.2535 1.00796 18.3123C1.0138 18.3424 1.02311 18.3751 1.03783 18.4073C1.11441 18.5748 1.3036 18.8312 1.76227 18.8312C1.8089 18.8312 1.85846 18.8285 1.91082 18.8228C2.20401 18.7911 2.37232 18.7043 2.42531 18.5573C2.4944 18.3657 2.36684 18.2033 2.29712 18.1663C2.18314 18.1058 2.0355 18.0622 2.0355 18.0622L2.69089 17.6225C2.86323 17.5068 3.07321 17.448 3.28232 17.4572L7.33734 17.6334C7.33954 17.6335 7.34179 17.6335 7.344 17.6335C7.37726 17.6331 8.17039 17.621 9.18017 17.3428C10.0957 17.0905 11.3589 16.5626 12.2335 15.4776C12.6454 15.5977 13.5411 15.2974 14.4323 14.9745C14.4799 14.9572 14.5268 14.9402 14.5713 14.9243C14.4203 15.2595 14.3364 15.7658 14.3213 16.4361C14.308 17.0261 14.3544 17.5578 14.3644 17.6641L14.1986 18.3634C14.1824 18.4315 14.1828 18.5032 14.206 18.5693C14.2542 18.7066 14.3774 18.7991 14.5215 18.8139L16.6685 18.9983C16.6799 18.9995 16.6912 19 16.7023 19C16.8346 19 16.9475 18.9195 16.9875 18.7923C17.0282 18.6619 16.9666 18.5208 16.8457 18.452ZM9.57611 7.15478C9.57611 7.46708 9.63545 8.07731 9.68161 8.50465C9.35614 7.98487 8.98601 7.20953 9.23864 6.80099C9.3099 6.68579 9.43201 6.61703 9.56533 6.61703C9.59094 6.61703 9.6169 6.61964 9.64231 6.62479C9.69175 6.63481 9.74008 6.65032 9.78471 6.66801C9.63478 6.77769 9.57611 6.97635 9.57611 7.15478ZM10.2226 6.73105C10.2226 6.69519 10.2543 6.58605 10.2552 6.58337C10.2887 6.49131 10.3434 6.39338 10.4107 6.30006C10.4459 6.66137 10.4564 7.03509 10.4273 7.40408C10.3241 7.17766 10.2226 6.90748 10.2226 6.73105ZM10.6099 7.84574C10.6106 7.84382 10.6108 7.84183 10.6114 7.83987C10.6131 7.83461 10.6148 7.82939 10.6157 7.82379C10.6158 7.8231 10.6159 7.8224 10.616 7.82175L10.6161 7.8216C10.9216 5.92047 10.0757 3.81492 9.98364 3.59361C9.98009 3.58505 9.97689 3.57664 9.97389 3.56785L9.74308 2.89416C9.55646 2.34946 9.73326 1.6777 10.173 1.26053C10.1974 1.23738 10.2311 1.22671 10.2651 1.23143C10.2844 1.23408 10.3202 1.24413 10.3421 1.28172C10.6751 1.85049 10.5303 2.328 10.3626 2.88096L10.3458 2.93651C10.3378 2.96284 10.3397 2.99079 10.3512 3.01586C10.6648 3.69649 11.0111 4.56074 11.2462 5.16582C11.3852 5.52341 11.4498 5.89893 11.4382 6.2819L11.3823 8.13523C11.3718 8.48473 11.4074 8.83476 11.4883 9.17553C11.5009 9.22878 11.5496 9.26483 11.6035 9.26483C11.628 9.26483 11.6536 9.25745 11.6763 9.24076C11.714 9.21308 11.7285 9.16467 11.718 9.11991C11.6423 8.79952 11.609 8.47052 11.619 8.14203L11.6749 6.28869C11.6795 6.13721 11.6727 5.98684 11.6553 5.83809C11.7114 5.85789 11.7677 5.88196 11.8237 5.91125C12.2522 6.13579 12.4519 6.61097 12.544 6.97006C12.7126 7.62785 12.6281 8.27217 12.5704 8.35639C12.4981 8.46196 12.1863 8.41509 11.9985 8.35021C11.9637 8.33812 11.9252 8.34253 11.8943 8.36207C11.8633 8.38161 11.8435 8.41405 11.8407 8.44987C11.8254 8.64323 11.9119 9.04344 12.3313 9.23216C12.3684 9.39734 12.4513 9.93736 12.0434 10.2492C11.6101 10.5804 10.9594 10.3449 10.8155 10.2864C10.0982 9.23968 10.6046 7.8596 10.6099 7.84574ZM11.043 12.8384C11.3625 12.0441 11.1112 11.2166 10.9277 10.6124C10.9229 10.5966 10.9182 10.5812 10.9135 10.5657C11.0584 10.6094 11.2578 10.6537 11.473 10.6537C11.7112 10.6537 11.9681 10.5995 12.1895 10.4301C12.4436 10.2359 12.5853 9.94569 12.5997 9.59071C12.6031 9.50694 12.5989 9.42909 12.5917 9.36153C13.0317 9.6056 13.2998 9.884 13.3895 10.1911C13.4859 10.5216 13.3393 10.7717 13.3216 10.8003C13.3009 10.826 13.0951 11.0673 12.742 11.0068C12.6778 10.9958 12.6162 11.0375 12.6048 11.1002C12.5934 11.1628 12.6364 11.2225 12.7008 11.2336C12.7552 11.2429 12.8069 11.2471 12.8562 11.2471C13.0653 11.2471 13.2277 11.1716 13.339 11.0947C13.3836 11.4412 13.4217 12.2197 13.1038 13.2897C12.997 13.6491 12.8557 13.9999 12.6821 14.3391C11.1781 14.7502 10.5541 13.9654 10.3957 13.7096C10.6195 13.5198 10.8767 13.252 11.043 12.8384ZM2.55623 17.4328L1.71196 17.9993C1.66722 18.0293 1.6482 18.0861 1.66955 18.1377C1.68269 18.1695 1.71149 18.1927 1.74459 18.2044L2.08406 18.3245C2.13473 18.3425 2.17698 18.3797 2.19588 18.4288C2.20361 18.4489 2.20661 18.4675 2.2016 18.4812C2.18779 18.5189 2.09645 18.571 1.88442 18.5939C1.48265 18.6373 1.32376 18.4623 1.26229 18.3393C1.26016 18.3351 1.25775 18.3228 1.25531 18.3068C1.24351 18.2291 1.24513 18.1501 1.25838 18.0726L1.44611 16.9771C1.48115 16.7719 1.63637 16.6013 1.84157 16.5424C1.90936 16.523 1.98626 16.5367 2.04713 16.5791C2.21123 16.6933 2.42425 16.7275 2.61726 16.6706C3.13578 16.5177 4.39725 16.1558 4.90993 16.0972C5.13542 16.0714 5.39803 16.1341 5.67607 16.2005C5.69592 16.2052 5.71616 16.2099 5.73616 16.2147L5.61973 17.3282L3.29262 17.2271C3.03194 17.2155 2.77074 17.2889 2.55623 17.4328ZM7.34392 17.4031L5.85658 17.3385L5.96859 16.2673C6.38954 16.3547 6.86344 16.3975 7.32574 16.1191C8.13536 15.6314 9.54119 15.0973 9.55527 15.092C9.60511 15.0731 9.63572 15.0239 9.63008 14.9722C9.62973 14.969 9.5967 14.6482 9.74067 14.2981C9.79129 14.1751 9.9445 14.0594 10.1219 13.9254C10.1515 13.903 10.1817 13.8802 10.2123 13.8567C10.297 13.9846 10.4588 14.1868 10.7226 14.3603C11.0893 14.6015 11.4956 14.6845 11.8814 14.6845C12.1106 14.6845 12.332 14.6549 12.5341 14.612C12.4553 14.749 12.3711 14.884 12.2814 15.0165C12.2602 15.0483 12.1417 15.2149 12.1012 15.2675C10.5212 17.3128 7.45752 17.4007 7.34392 17.4031ZM14.3494 14.7586C13.8669 14.9334 12.8093 15.3165 12.3867 15.276C12.3949 15.2645 12.4579 15.1751 12.4796 15.1424C12.8438 14.6041 13.1224 14.0269 13.3091 13.4257C13.4844 13.4036 13.9458 13.3509 14.4298 13.3421C15.1839 13.3284 15.684 13.4311 15.8027 13.6235C16.0322 13.9957 15.948 14.6664 15.8407 15.1529C15.3249 15.234 14.9407 15.1083 14.7776 15.0383C14.8214 14.9364 14.8715 14.854 14.9276 14.7921C14.9608 14.7556 14.9666 14.7027 14.9423 14.6601C14.9181 14.6174 14.8686 14.5943 14.8194 14.6023C14.7523 14.6132 14.6195 14.6607 14.3494 14.7586ZM16.7602 18.7269C16.7554 18.7411 16.7385 18.7736 16.691 18.7689L14.544 18.5846C14.5051 18.5806 14.471 18.5613 14.4483 18.5303C14.4256 18.4993 14.4179 18.4617 14.4267 18.4246L14.5991 17.6978C14.602 17.6855 14.6028 17.6729 14.6016 17.6604C14.601 17.6547 14.5432 17.0821 14.5578 16.4389C14.5689 15.9503 14.618 15.553 14.7015 15.2579C14.8551 15.322 15.1331 15.4103 15.5031 15.4103C15.5911 15.4103 15.6849 15.4045 15.7828 15.393C15.7557 15.4963 15.7305 15.5824 15.7119 15.6426C15.6893 15.7157 15.6525 15.8204 15.6099 15.9416C15.4201 16.4812 15.1333 17.2965 15.237 17.6998C15.2913 17.9113 15.655 18.1062 16.2474 18.4022C16.4261 18.4915 16.5949 18.5758 16.7319 18.6541C16.772 18.677 16.765 18.7126 16.7602 18.7269Z" fill="#4E5154"/>
<path d="M16.8457 18.452C16.7041 18.3714 16.5348 18.2868 16.3556 18.1973C16.0351 18.0372 15.4988 17.7693 15.4666 17.644C15.38 17.3066 15.6752 16.4672 15.8339 16.0162C15.8773 15.8928 15.9148 15.7861 15.9386 15.7088C16.3522 14.3674 16.1581 13.7523 16.0057 13.5051C15.6697 12.9603 13.9688 13.1134 13.3792 13.1844C13.7218 11.9222 13.587 11.0861 13.5444 10.8838C13.6009 10.7768 13.7208 10.4905 13.6188 10.1339C13.4997 9.71743 13.1258 9.35531 12.5072 9.05722C12.4995 9.05353 12.4428 9.02966 12.4281 9.02298C12.2005 8.92009 12.1194 8.74186 12.091 8.6149C12.2967 8.66032 12.6247 8.69229 12.7674 8.48411C12.8608 8.34768 12.8771 7.98652 12.8798 7.87907C12.8881 7.5561 12.8504 7.21348 12.7737 6.91428C12.6251 6.33468 12.3354 5.9177 11.9358 5.70833C11.8295 5.65271 11.7213 5.61128 11.614 5.58437C11.5795 5.41485 11.5312 5.24778 11.4677 5.08436C11.2359 4.48784 10.8965 3.64033 10.5853 2.96084L10.5898 2.94618C10.7651 2.36789 10.9308 1.82169 10.5479 1.16774C10.4953 1.07783 10.4042 1.01795 10.2982 1.0034C10.1908 0.988657 10.0851 1.02232 10.0079 1.09565C9.50552 1.57213 9.3043 2.34167 9.51862 2.96706L9.75535 3.65806C9.75618 3.6606 9.75721 3.66317 9.75823 3.66566C9.76466 3.68075 10.1991 4.71767 10.3733 5.98093C10.2233 6.13614 10.1018 6.3209 10.0357 6.49718C10.0343 6.50033 10.0277 6.51933 10.0256 6.52567C9.93953 6.47929 9.82018 6.42559 9.69072 6.39937C9.64941 6.391 9.60732 6.38678 9.56549 6.38678C9.34837 6.38678 9.15042 6.49722 9.03596 6.68229C8.55777 7.45556 9.70852 8.9644 9.75772 9.02824C9.7806 9.05791 9.81603 9.0743 9.85245 9.0743H9.85415C9.90445 9.0743 9.95101 9.04367 9.96565 8.99683C9.97267 8.9743 9.97326 8.95246 9.96841 8.93253C9.95196 8.79449 9.81299 7.61499 9.81299 7.15486C9.81299 6.93171 9.89909 6.84848 9.992 6.82341C10.0336 7.17644 10.2876 7.66501 10.3701 7.81634C10.2781 8.08978 9.90157 9.3846 10.6266 10.4269C10.6483 10.5048 10.6739 10.589 10.7009 10.6778C10.8746 11.25 11.1127 12.0337 10.8227 12.7546C10.6575 13.1656 10.3873 13.419 10.1705 13.5939C10.1045 13.6472 10.0396 13.6962 9.97693 13.7435C9.77232 13.898 9.59564 14.0314 9.52107 14.2125C9.40132 14.5038 9.38755 14.7733 9.39003 14.9079C9.07597 15.0297 7.92656 15.4865 7.20133 15.9233C6.76713 16.1847 6.31631 16.1116 5.89166 16.0143C5.83823 16.0021 5.7852 15.9894 5.73269 15.9768C5.4333 15.9053 5.15061 15.8377 4.88247 15.8684C4.35093 15.9293 3.07337 16.2955 2.54881 16.4502C2.42393 16.487 2.29136 16.4658 2.18507 16.3918C2.06536 16.3085 1.91208 16.2822 1.77489 16.3215C1.48324 16.4051 1.26265 16.6477 1.21285 16.9393L1.00816 18.134C0.998059 18.193 0.996599 18.2535 1.00796 18.3123C1.0138 18.3424 1.02311 18.3751 1.03783 18.4073C1.11441 18.5748 1.3036 18.8312 1.76227 18.8312C1.8089 18.8312 1.85846 18.8285 1.91082 18.8228C2.20401 18.7911 2.37232 18.7043 2.42531 18.5573C2.4944 18.3657 2.36684 18.2033 2.29712 18.1663C2.18314 18.1058 2.0355 18.0622 2.0355 18.0622L2.69089 17.6225C2.86323 17.5068 3.07321 17.448 3.28232 17.4572L7.33734 17.6334C7.33954 17.6335 7.34179 17.6335 7.344 17.6335C7.37726 17.6331 8.17039 17.621 9.18017 17.3428C10.0957 17.0905 11.3589 16.5626 12.2335 15.4776C12.6454 15.5977 13.5411 15.2974 14.4323 14.9745C14.4799 14.9572 14.5268 14.9402 14.5713 14.9243C14.4203 15.2595 14.3364 15.7658 14.3213 16.4361C14.308 17.0261 14.3544 17.5578 14.3644 17.6641L14.1986 18.3634C14.1824 18.4315 14.1828 18.5032 14.206 18.5693C14.2542 18.7066 14.3774 18.7991 14.5215 18.8139L16.6685 18.9983C16.6799 18.9995 16.6912 19 16.7023 19C16.8346 19 16.9475 18.9195 16.9875 18.7923C17.0282 18.6619 16.9666 18.5208 16.8457 18.452ZM9.57611 7.15478C9.57611 7.46708 9.63545 8.07731 9.68161 8.50465C9.35614 7.98487 8.98601 7.20953 9.23864 6.80099C9.3099 6.68579 9.43201 6.61703 9.56533 6.61703C9.59094 6.61703 9.6169 6.61964 9.64231 6.62479C9.69175 6.63481 9.74008 6.65032 9.78471 6.66801C9.63478 6.77769 9.57611 6.97635 9.57611 7.15478ZM10.2226 6.73105C10.2226 6.69519 10.2543 6.58605 10.2552 6.58337C10.2887 6.49131 10.3434 6.39338 10.4107 6.30006C10.4459 6.66137 10.4564 7.03509 10.4273 7.40408C10.3241 7.17766 10.2226 6.90748 10.2226 6.73105ZM10.6099 7.84574C10.6106 7.84382 10.6108 7.84183 10.6114 7.83987C10.6131 7.83461 10.6148 7.82939 10.6157 7.82379C10.6158 7.8231 10.6159 7.8224 10.616 7.82175L10.6161 7.8216C10.9216 5.92047 10.0757 3.81492 9.98364 3.59361C9.98009 3.58505 9.97689 3.57664 9.97389 3.56785L9.74308 2.89416C9.55646 2.34946 9.73326 1.6777 10.173 1.26053C10.1974 1.23738 10.2311 1.22671 10.2651 1.23143C10.2844 1.23408 10.3202 1.24413 10.3421 1.28172C10.6751 1.85049 10.5303 2.328 10.3626 2.88096L10.3458 2.93651C10.3378 2.96284 10.3397 2.99079 10.3512 3.01586C10.6648 3.69649 11.0111 4.56074 11.2462 5.16582C11.3852 5.52341 11.4498 5.89893 11.4382 6.2819L11.3823 8.13523C11.3718 8.48473 11.4074 8.83476 11.4883 9.17553C11.5009 9.22878 11.5496 9.26483 11.6035 9.26483C11.628 9.26483 11.6536 9.25745 11.6763 9.24076C11.714 9.21308 11.7285 9.16467 11.718 9.11991C11.6423 8.79952 11.609 8.47052 11.619 8.14203L11.6749 6.28869C11.6795 6.13721 11.6727 5.98684 11.6553 5.83809C11.7114 5.85789 11.7677 5.88196 11.8237 5.91125C12.2522 6.13579 12.4519 6.61097 12.544 6.97006C12.7126 7.62785 12.6281 8.27217 12.5704 8.35639C12.4981 8.46196 12.1863 8.41509 11.9985 8.35021C11.9637 8.33812 11.9252 8.34253 11.8943 8.36207C11.8633 8.38161 11.8435 8.41405 11.8407 8.44987C11.8254 8.64323 11.9119 9.04344 12.3313 9.23216C12.3684 9.39734 12.4513 9.93736 12.0434 10.2492C11.6101 10.5804 10.9594 10.3449 10.8155 10.2864C10.0982 9.23968 10.6046 7.8596 10.6099 7.84574ZM11.043 12.8384C11.3625 12.0441 11.1112 11.2166 10.9277 10.6124C10.9229 10.5966 10.9182 10.5812 10.9135 10.5657C11.0584 10.6094 11.2578 10.6537 11.473 10.6537C11.7112 10.6537 11.9681 10.5995 12.1895 10.4301C12.4436 10.2359 12.5853 9.94569 12.5997 9.59071C12.6031 9.50694 12.5989 9.42909 12.5917 9.36153C13.0317 9.6056 13.2998 9.884 13.3895 10.1911C13.4859 10.5216 13.3393 10.7717 13.3216 10.8003C13.3009 10.826 13.0951 11.0673 12.742 11.0068C12.6778 10.9958 12.6162 11.0375 12.6048 11.1002C12.5934 11.1628 12.6364 11.2225 12.7008 11.2336C12.7552 11.2429 12.8069 11.2471 12.8562 11.2471C13.0653 11.2471 13.2277 11.1716 13.339 11.0947C13.3836 11.4412 13.4217 12.2197 13.1038 13.2897C12.997 13.6491 12.8557 13.9999 12.6821 14.3391C11.1781 14.7502 10.5541 13.9654 10.3957 13.7096C10.6195 13.5198 10.8767 13.252 11.043 12.8384ZM2.55623 17.4328L1.71196 17.9993C1.66722 18.0293 1.6482 18.0861 1.66955 18.1377C1.68269 18.1695 1.71149 18.1927 1.74459 18.2044L2.08406 18.3245C2.13473 18.3425 2.17698 18.3797 2.19588 18.4288C2.20361 18.4489 2.20661 18.4675 2.2016 18.4812C2.18779 18.5189 2.09645 18.571 1.88442 18.5939C1.48265 18.6373 1.32376 18.4623 1.26229 18.3393C1.26016 18.3351 1.25775 18.3228 1.25531 18.3068C1.24351 18.2291 1.24513 18.1501 1.25838 18.0726L1.44611 16.9771C1.48115 16.7719 1.63637 16.6013 1.84157 16.5424C1.90936 16.523 1.98626 16.5367 2.04713 16.5791C2.21123 16.6933 2.42425 16.7275 2.61726 16.6706C3.13578 16.5177 4.39725 16.1558 4.90993 16.0972C5.13542 16.0714 5.39803 16.1341 5.67607 16.2005C5.69592 16.2052 5.71616 16.2099 5.73616 16.2147L5.61973 17.3282L3.29262 17.2271C3.03194 17.2155 2.77074 17.2889 2.55623 17.4328ZM7.34392 17.4031L5.85658 17.3385L5.96859 16.2673C6.38954 16.3547 6.86344 16.3975 7.32574 16.1191C8.13536 15.6314 9.54119 15.0973 9.55527 15.092C9.60511 15.0731 9.63572 15.0239 9.63008 14.9722C9.62973 14.969 9.5967 14.6482 9.74067 14.2981C9.79129 14.1751 9.9445 14.0594 10.1219 13.9254C10.1515 13.903 10.1817 13.8802 10.2123 13.8567C10.297 13.9846 10.4588 14.1868 10.7226 14.3603C11.0893 14.6015 11.4956 14.6845 11.8814 14.6845C12.1106 14.6845 12.332 14.6549 12.5341 14.612C12.4553 14.749 12.3711 14.884 12.2814 15.0165C12.2602 15.0483 12.1417 15.2149 12.1012 15.2675C10.5212 17.3128 7.45752 17.4007 7.34392 17.4031ZM14.3494 14.7586C13.8669 14.9334 12.8093 15.3165 12.3867 15.276C12.3949 15.2645 12.4579 15.1751 12.4796 15.1424C12.8438 14.6041 13.1224 14.0269 13.3091 13.4257C13.4844 13.4036 13.9458 13.3509 14.4298 13.3421C15.1839 13.3284 15.684 13.4311 15.8027 13.6235C16.0322 13.9957 15.948 14.6664 15.8407 15.1529C15.3249 15.234 14.9407 15.1083 14.7776 15.0383C14.8214 14.9364 14.8715 14.854 14.9276 14.7921C14.9608 14.7556 14.9666 14.7027 14.9423 14.6601C14.9181 14.6174 14.8686 14.5943 14.8194 14.6023C14.7523 14.6132 14.6195 14.6607 14.3494 14.7586ZM16.7602 18.7269C16.7554 18.7411 16.7385 18.7736 16.691 18.7689L14.544 18.5846C14.5051 18.5806 14.471 18.5613 14.4483 18.5303C14.4256 18.4993 14.4179 18.4617 14.4267 18.4246L14.5991 17.6978C14.602 17.6855 14.6028 17.6729 14.6016 17.6604C14.601 17.6547 14.5432 17.0821 14.5578 16.4389C14.5689 15.9503 14.618 15.553 14.7015 15.2579C14.8551 15.322 15.1331 15.4103 15.5031 15.4103C15.5911 15.4103 15.6849 15.4045 15.7828 15.393C15.7557 15.4963 15.7305 15.5824 15.7119 15.6426C15.6893 15.7157 15.6525 15.8204 15.6099 15.9416C15.4201 16.4812 15.1333 17.2965 15.237 17.6998C15.2913 17.9113 15.655 18.1062 16.2474 18.4022C16.4261 18.4915 16.5949 18.5758 16.7319 18.6541C16.772 18.677 16.765 18.7126 16.7602 18.7269Z" stroke="#4E5154" stroke-width="0.2" mask="url(#path-1-outside-1_1633_9392)"/>
</g>
</svg>
