<svg width="12" height="20" viewBox="0 0 12 20" fill="none" xmlns="http://www.w3.org/2000/svg">
<g id="Group">
<g id="Vector">
<mask id="path-1-outside-1_1633_9394" maskUnits="userSpaceOnUse" x="-0.489014" y="0" width="13" height="20" fill="black">
<rect fill="white" x="-0.489014" width="13" height="20"/>
<path d="M11.3795 18.2477L11.2893 18.0982L11.0493 17.6183L10.9298 17.3287C10.864 17.1708 10.7666 16.8725 10.7117 16.6634L10.609 16.2743L10.5463 16.0846C10.5082 15.9704 10.3869 15.7613 10.2708 15.6078L9.90164 15.1366C9.81646 15.0305 9.67729 14.7382 9.59897 14.4966C9.51659 14.2442 9.42329 13.8829 9.38959 13.6906C9.35433 13.4822 9.26914 13.1904 9.19643 13.0273L9.00047 12.6047C8.97707 12.557 8.94337 12.4169 8.94337 12.2983L8.94212 12.1554C8.94524 12.1426 8.94431 12.1308 8.94337 12.1217V12.0712C8.86786 11.1794 8.30712 10.2435 8.1926 10.1103C8.10742 10.0108 8.09057 9.7396 8.07528 9.49684C8.06404 9.3171 8.0032 8.94921 7.9489 8.62469L7.9436 8.59317C7.90896 8.38379 7.87557 8.18596 7.86871 8.10857C7.85061 7.90575 7.75762 7.47108 7.57477 7.10599C7.47741 6.91096 7.38099 6.55212 7.28894 6.03819L7.28207 6.00043C7.26709 5.91899 7.27458 5.4631 7.28457 5.16386L7.28363 4.78161C7.28363 4.57098 7.26179 4.27298 7.23495 4.11665L7.1869 3.83769C7.18565 3.83425 7.09953 3.48477 7.08393 3.40146C7.06739 3.31346 7.05397 3.19301 7.05397 3.1331C7.05397 3.06695 7.06801 2.8997 7.08549 2.75959L7.11794 2.49092L7.16475 1.85998L7.18815 1.6453C7.20406 1.5055 7.17598 1.29176 7.12449 1.15852C7.06989 1.0156 6.96754 1 6.92603 1C6.85458 1 6.7541 1.03869 6.68358 1.22248L6.5856 1.48179L6.43457 1.79196C6.35282 1.9589 6.21115 2.20416 6.11848 2.33896C5.9946 2.51932 5.94093 2.75834 5.99054 2.90687C6.03516 3.04074 6.16778 3.20768 6.29884 3.29505C6.32692 3.31596 6.42303 3.53563 6.44113 3.88886L6.44144 4.31043C6.4352 4.37034 6.37809 4.91329 6.2227 5.46435C6.03204 6.14366 6.34876 6.89162 6.487 7.12284C6.60339 7.3163 6.61244 7.39556 6.65581 7.77843C6.66423 7.85457 6.67453 7.94194 6.68701 8.04336C6.75254 8.58474 6.70043 9.93338 6.68795 10.2289C6.38465 10.6664 6.48887 11.0327 6.55128 11.2521C6.56532 11.3014 6.5831 11.3625 6.58154 11.3847C6.57405 11.5036 6.48731 11.5897 6.48824 11.5897C6.17589 11.8053 5.891 12.0122 5.57116 12.3639C5.33245 12.626 5.00574 13.0822 4.84223 13.3808C4.58418 13.8526 4.51335 14.1933 4.46155 14.4417C4.44875 14.5026 4.43752 14.5575 4.42441 14.6055C4.34734 14.8951 4.23189 15.2253 4.08211 15.6331C3.93888 16.0213 3.71421 16.4144 3.68082 16.4466C3.65149 16.4656 3.62185 16.4993 3.56131 16.572C3.49391 16.6525 3.38127 16.787 3.30513 16.8157C3.21495 16.8494 3.12571 16.9393 3.0246 17.0984C2.98934 17.1546 2.94722 17.2267 2.90197 17.3041L2.887 17.3293C2.82209 17.4414 2.74127 17.5818 2.67574 17.676C2.55218 17.8551 2.506 17.9019 2.49539 17.9119C2.44452 17.9319 2.39585 17.9803 2.36308 18.018C2.3506 18.0327 2.26354 18.0854 2.15277 18.1004C2.02389 18.1176 1.84416 18.1472 1.74961 18.1718C1.64289 18.1993 1.5134 18.2549 1.4513 18.292L1.25534 18.3999C1.20947 18.423 1.1299 18.4511 1.08684 18.4592L0.911473 18.4886C0.796642 18.5035 0.62034 18.6371 0.612851 18.6421C0.495524 18.7323 0.504262 18.824 0.520176 18.8702C0.536402 18.9189 0.588512 19 0.755453 19H2.10003C2.19583 19 2.31035 18.9457 2.37868 18.8683C2.41426 18.8271 2.50007 18.7526 2.56559 18.7045C2.62707 18.6593 2.69291 18.6349 2.70196 18.6337C2.78777 18.6337 2.90603 18.5744 2.98498 18.5148C3.05862 18.4592 3.2084 18.3241 3.3251 18.2071L3.53011 18.0027L4.09428 17.3874L4.26091 17.1842C4.28025 17.1612 4.29773 17.1393 4.31426 17.1206C4.36013 17.1792 4.40663 17.2248 4.4578 17.2616C4.58699 17.354 4.74363 17.4027 4.91088 17.4027C5.24289 17.4027 5.58614 17.2114 5.80675 16.9025C6.15218 16.4197 6.10912 15.7947 5.71033 15.5095C5.69098 15.4955 5.6707 15.4846 5.65073 15.4749C5.71095 15.3788 5.74653 15.3079 5.75589 15.264C5.76556 15.2184 5.84513 15.1145 5.87602 15.0745C5.93344 14.9993 5.97868 14.9507 5.98368 14.9463C5.99023 14.9422 6.018 14.9326 6.03766 14.9313L6.04172 14.9301C6.13096 14.9507 6.21146 14.9519 6.31475 14.9416C6.53037 14.9223 6.7566 14.7163 6.79872 14.501C6.81432 14.4205 6.81932 14.3462 6.81526 14.2689L7.04305 14.0317C7.08393 13.9902 7.13635 13.9247 7.16412 13.8801C7.1947 13.8311 7.22715 13.7421 7.24244 13.6679C7.25524 13.6045 7.26741 13.4944 7.27084 13.4173C7.27209 13.3848 7.27614 13.3424 7.28145 13.3009C7.32014 13.3546 7.38005 13.4444 7.42967 13.524C7.49051 13.6211 7.58381 13.7568 7.63686 13.8167L7.71175 13.9013L7.87276 14.1078C7.92581 14.1756 8.05562 14.3363 8.10804 14.3725C8.11459 14.3793 8.14954 14.4333 8.17856 14.5057C8.21351 14.5937 8.27685 14.7282 8.32335 14.8118L8.48655 15.1029C8.53647 15.1909 8.63227 15.3367 8.69936 15.4268L8.81512 15.5838L9.00515 15.8631L9.3278 16.4288L9.60614 16.8622L9.81958 17.1768L9.9472 17.4036L10.1407 17.7746C10.155 17.8008 10.1766 17.8483 10.1893 17.8813C10.2015 17.9129 10.2168 17.9653 10.224 17.9949C10.229 18.0149 10.2333 18.0399 10.2371 18.0604C10.209 18.0795 10.156 18.1098 10.1163 18.13L10.0274 18.1747L9.74001 18.2935L9.30908 18.4492C9.2941 18.4539 9.27757 18.458 9.25385 18.4642C9.19051 18.4808 9.12529 18.4979 9.0788 18.5357C9.03417 18.5713 9.01327 18.6224 9.02013 18.6755C9.02762 18.736 9.06881 18.7838 9.1412 18.8162L9.25291 18.8668C9.34746 18.9101 9.58024 18.9298 9.75592 18.9298H10.7236C10.8325 18.9298 10.9935 18.9179 11.0908 18.9026C11.1938 18.8864 11.3342 18.8324 11.3988 18.7522C11.4441 18.6961 11.489 18.6056 11.489 18.531C11.4899 18.4305 11.3841 18.2555 11.3795 18.2477ZM6.71634 6.98461C6.54816 6.70159 6.33378 6.05847 6.48044 5.53737C6.65425 4.92015 6.70823 4.33071 6.70886 4.32197V3.94409C6.70917 3.93941 6.71447 3.83457 6.70854 3.77341L6.68358 3.58587C6.6505 3.39678 6.58279 3.15307 6.45142 3.06601C6.37216 3.01265 6.27668 2.8947 6.25141 2.81888C6.23736 2.77613 6.25765 2.62323 6.34502 2.49529C6.44425 2.35113 6.59559 2.08964 6.68202 1.9124L6.83835 1.59131L6.90482 1.41657C6.91543 1.48834 6.91979 1.56261 6.91355 1.61378L6.88921 1.83346L6.84241 2.46409L6.81058 2.72683C6.79123 2.88815 6.77782 3.05884 6.77782 3.1331C6.77782 3.21018 6.79248 3.34779 6.8112 3.45263C6.81776 3.48633 6.83679 3.56122 6.86175 3.65265C6.89296 3.76717 6.93914 3.9831 6.96598 4.13381L6.99094 4.27798C7.00498 4.35567 7.0159 4.5844 7.0159 4.78816V5.15949C7.00997 5.33485 6.99344 5.91712 7.01777 6.04911L7.02495 6.08905C7.06115 6.28938 7.1713 6.8988 7.33449 7.22581C7.50019 7.55782 7.58537 7.94974 7.60129 8.13229C7.60909 8.22184 7.64279 8.4203 7.68117 8.65183L7.68335 8.66275C7.73359 8.9673 7.79694 9.34581 7.80692 9.51275C7.81191 9.59014 7.81691 9.67127 7.82471 9.74959C7.48927 9.67439 7.19345 9.72431 6.96785 9.89188C6.98626 9.34238 7.00498 8.44745 6.95193 8.01059C6.93976 7.90949 6.92978 7.82212 6.92073 7.74661C6.8758 7.34876 6.86238 7.22831 6.71634 6.98461ZM5.76525 16.1739C5.77274 16.3664 5.70783 16.5695 5.58239 16.7449C5.41171 16.9833 5.1549 17.1309 4.91151 17.1309C4.80105 17.1309 4.6987 17.0987 4.61569 17.0398C4.57232 17.0086 4.53456 16.9683 4.50024 16.9162C4.57544 16.831 4.70556 16.6759 4.87125 16.474L5.31778 15.9314C5.37551 15.8615 5.43605 15.7829 5.4944 15.7036C5.51374 15.7127 5.53215 15.723 5.54932 15.7348C5.681 15.8287 5.75776 15.9848 5.76525 16.1739ZM5.66914 14.9032L5.66165 14.9123C5.5877 15.0093 5.51343 15.1129 5.49346 15.2065C5.48878 15.2218 5.45383 15.2886 5.37645 15.4047L5.2482 15.5844C5.20639 15.6409 5.16083 15.6996 5.11059 15.7604L4.66437 16.303C4.52645 16.4709 4.41692 16.6007 4.34703 16.6825L4.19194 16.8494C4.14701 16.9 4.09116 16.9671 4.05215 17.0142L3.89083 17.2111L3.33446 17.8171L3.13413 18.0177C3.02773 18.1244 2.88481 18.2539 2.8224 18.301C2.7678 18.3416 2.70726 18.3638 2.69884 18.3656C2.61302 18.3656 2.49008 18.4271 2.40645 18.4883C2.32657 18.5469 2.22578 18.6358 2.17648 18.6911C2.15714 18.7129 2.11251 18.7323 2.09878 18.7323H1.08216L1.13708 18.7232C1.2051 18.7098 1.30714 18.6742 1.37548 18.6393L1.58766 18.5235C1.6326 18.4964 1.73931 18.4517 1.81576 18.4321C1.89845 18.4112 2.06976 18.3822 2.18771 18.3666C2.33812 18.3466 2.49726 18.2736 2.56591 18.1931C2.59087 18.164 2.60429 18.1572 2.60429 18.1572C2.65359 18.1381 2.70664 18.1023 2.89604 17.8292C2.96719 17.7263 3.04426 17.5927 3.11884 17.4641L3.13288 17.4398C3.17626 17.3658 3.21651 17.296 3.25021 17.2429C3.34788 17.0894 3.39812 17.0675 3.39874 17.0675C3.54197 17.0132 3.67177 16.8578 3.76663 16.7443C3.81531 16.6856 3.83185 16.6681 3.83466 16.6656C3.9498 16.5889 4.2166 16.0425 4.3333 15.7248C4.48526 15.3129 4.6029 14.9763 4.68341 14.6745C4.69714 14.6224 4.70931 14.5644 4.72366 14.496C4.73396 14.4455 4.74581 14.3909 4.75954 14.3325C5.08781 14.6658 5.45414 14.8224 5.67725 14.8926C5.67413 14.8967 5.67132 14.9001 5.66914 14.9032ZM6.55533 14.2926C6.54909 14.3425 6.54316 14.3993 6.53349 14.4511C6.51383 14.5534 6.39026 14.6664 6.28979 14.6764C6.17683 14.6864 6.0854 14.6729 6.04796 14.6673C6.03672 14.6658 6.02892 14.6648 6.0233 14.6648H6.02268C5.99553 14.6664 5.96433 14.6717 5.93375 14.6807C5.8676 14.6689 5.28377 14.5519 4.8466 14.0283C4.90652 13.8532 4.98203 13.6838 5.07689 13.51C5.10809 13.4535 5.14585 13.3895 5.19016 13.3196C5.63294 13.808 6.27418 14.0473 6.58123 14.1394C6.56937 14.1715 6.56313 14.2205 6.55533 14.2926ZM7.03463 13.1486C7.0184 13.2176 7.00311 13.3315 7.00092 13.4083C6.99812 13.4728 6.98813 13.5686 6.97783 13.6167C6.9691 13.6632 6.94569 13.7222 6.93415 13.7403C6.91792 13.7662 6.87923 13.8158 6.85083 13.8439L6.78187 13.9153C6.57936 13.8635 5.8055 13.6357 5.34431 13.0872C5.48753 12.8818 5.6448 12.6806 5.76837 12.5448C6.08946 12.1919 6.38371 11.9872 6.64458 11.8094C7.03962 12.1944 7.09766 12.8054 7.10608 13.0126C7.07207 13.0472 7.04742 13.094 7.03463 13.1486ZM7.37069 12.9517C7.34542 12.6556 7.21218 11.9932 6.80684 11.5756C6.83055 11.5176 6.84397 11.4605 6.84834 11.4021C6.85271 11.3344 6.83242 11.2636 6.80808 11.1775C6.75036 10.9747 6.67141 10.6963 6.92947 10.3481L6.94351 10.3231C6.94476 10.3194 7.08361 9.98549 7.53202 9.98549C7.63655 9.98549 7.75107 10.0039 7.87245 10.041C7.89991 10.1453 7.93892 10.2251 7.99009 10.2844C8.09431 10.4067 8.62478 11.311 8.67626 12.1298L8.67564 12.2983C8.67564 12.3099 8.67626 12.322 8.6772 12.3342C8.38669 12.3617 7.63187 12.4784 7.37069 12.9517ZM11.1913 18.5841C11.1823 18.5925 11.1198 18.6274 11.0499 18.6383C10.9651 18.6505 10.819 18.6614 10.7245 18.6614H9.75655C9.68415 18.6614 9.61114 18.6577 9.54779 18.6524L9.83643 18.5438L10.234 18.3709C10.263 18.3566 10.2951 18.3385 10.3251 18.3213L10.3575 18.4077L10.3454 18.3091C10.3666 18.2957 10.3862 18.2836 10.4009 18.2726C10.4599 18.2293 10.5154 18.1481 10.5061 18.0629C10.5026 18.0339 10.4933 17.9771 10.4833 17.9356C10.4736 17.891 10.4521 17.8245 10.4377 17.7852C10.4206 17.7419 10.3922 17.6813 10.3744 17.6476L10.0458 17.0376L9.5559 16.2918L9.23045 15.7223L8.91279 15.2689C8.85069 15.1847 8.76301 15.0521 8.71839 14.9722L8.55582 14.6826C8.5165 14.6121 8.45846 14.4888 8.4257 14.4074C8.4129 14.3756 8.3455 14.2146 8.26687 14.16C8.25532 14.1506 8.17981 14.0688 8.08027 13.9415L7.83594 13.6404C7.79943 13.5986 7.71487 13.4785 7.65621 13.3833C7.62376 13.3321 7.58787 13.2772 7.55573 13.2291C7.63561 12.7445 8.42507 12.6275 8.71808 12.6013C8.7315 12.6531 8.74616 12.6946 8.76208 12.7252L8.8326 12.8662L8.95304 13.1374C9.01701 13.28 9.09502 13.5487 9.12747 13.7365C9.16149 13.9387 9.26009 14.3172 9.34559 14.5806C9.43514 14.8561 9.58836 15.1747 9.69476 15.3058L9.8667 15.5189L10.0586 15.771C10.1544 15.8965 10.2633 16.0831 10.2933 16.1701L10.3529 16.3511L10.4527 16.7324C10.5107 16.9508 10.6137 17.2647 10.683 17.432L10.8062 17.7297L11.0549 18.2274L11.1501 18.3868C11.1891 18.4514 11.2135 18.5104 11.2213 18.5338C11.2147 18.5457 11.2041 18.5675 11.1913 18.5841Z"/>
</mask>
<path d="M11.3795 18.2477L11.2893 18.0982L11.0493 17.6183L10.9298 17.3287C10.864 17.1708 10.7666 16.8725 10.7117 16.6634L10.609 16.2743L10.5463 16.0846C10.5082 15.9704 10.3869 15.7613 10.2708 15.6078L9.90164 15.1366C9.81646 15.0305 9.67729 14.7382 9.59897 14.4966C9.51659 14.2442 9.42329 13.8829 9.38959 13.6906C9.35433 13.4822 9.26914 13.1904 9.19643 13.0273L9.00047 12.6047C8.97707 12.557 8.94337 12.4169 8.94337 12.2983L8.94212 12.1554C8.94524 12.1426 8.94431 12.1308 8.94337 12.1217V12.0712C8.86786 11.1794 8.30712 10.2435 8.1926 10.1103C8.10742 10.0108 8.09057 9.7396 8.07528 9.49684C8.06404 9.3171 8.0032 8.94921 7.9489 8.62469L7.9436 8.59317C7.90896 8.38379 7.87557 8.18596 7.86871 8.10857C7.85061 7.90575 7.75762 7.47108 7.57477 7.10599C7.47741 6.91096 7.38099 6.55212 7.28894 6.03819L7.28207 6.00043C7.26709 5.91899 7.27458 5.4631 7.28457 5.16386L7.28363 4.78161C7.28363 4.57098 7.26179 4.27298 7.23495 4.11665L7.1869 3.83769C7.18565 3.83425 7.09953 3.48477 7.08393 3.40146C7.06739 3.31346 7.05397 3.19301 7.05397 3.1331C7.05397 3.06695 7.06801 2.8997 7.08549 2.75959L7.11794 2.49092L7.16475 1.85998L7.18815 1.6453C7.20406 1.5055 7.17598 1.29176 7.12449 1.15852C7.06989 1.0156 6.96754 1 6.92603 1C6.85458 1 6.7541 1.03869 6.68358 1.22248L6.5856 1.48179L6.43457 1.79196C6.35282 1.9589 6.21115 2.20416 6.11848 2.33896C5.9946 2.51932 5.94093 2.75834 5.99054 2.90687C6.03516 3.04074 6.16778 3.20768 6.29884 3.29505C6.32692 3.31596 6.42303 3.53563 6.44113 3.88886L6.44144 4.31043C6.4352 4.37034 6.37809 4.91329 6.2227 5.46435C6.03204 6.14366 6.34876 6.89162 6.487 7.12284C6.60339 7.3163 6.61244 7.39556 6.65581 7.77843C6.66423 7.85457 6.67453 7.94194 6.68701 8.04336C6.75254 8.58474 6.70043 9.93338 6.68795 10.2289C6.38465 10.6664 6.48887 11.0327 6.55128 11.2521C6.56532 11.3014 6.5831 11.3625 6.58154 11.3847C6.57405 11.5036 6.48731 11.5897 6.48824 11.5897C6.17589 11.8053 5.891 12.0122 5.57116 12.3639C5.33245 12.626 5.00574 13.0822 4.84223 13.3808C4.58418 13.8526 4.51335 14.1933 4.46155 14.4417C4.44875 14.5026 4.43752 14.5575 4.42441 14.6055C4.34734 14.8951 4.23189 15.2253 4.08211 15.6331C3.93888 16.0213 3.71421 16.4144 3.68082 16.4466C3.65149 16.4656 3.62185 16.4993 3.56131 16.572C3.49391 16.6525 3.38127 16.787 3.30513 16.8157C3.21495 16.8494 3.12571 16.9393 3.0246 17.0984C2.98934 17.1546 2.94722 17.2267 2.90197 17.3041L2.887 17.3293C2.82209 17.4414 2.74127 17.5818 2.67574 17.676C2.55218 17.8551 2.506 17.9019 2.49539 17.9119C2.44452 17.9319 2.39585 17.9803 2.36308 18.018C2.3506 18.0327 2.26354 18.0854 2.15277 18.1004C2.02389 18.1176 1.84416 18.1472 1.74961 18.1718C1.64289 18.1993 1.5134 18.2549 1.4513 18.292L1.25534 18.3999C1.20947 18.423 1.1299 18.4511 1.08684 18.4592L0.911473 18.4886C0.796642 18.5035 0.62034 18.6371 0.612851 18.6421C0.495524 18.7323 0.504262 18.824 0.520176 18.8702C0.536402 18.9189 0.588512 19 0.755453 19H2.10003C2.19583 19 2.31035 18.9457 2.37868 18.8683C2.41426 18.8271 2.50007 18.7526 2.56559 18.7045C2.62707 18.6593 2.69291 18.6349 2.70196 18.6337C2.78777 18.6337 2.90603 18.5744 2.98498 18.5148C3.05862 18.4592 3.2084 18.3241 3.3251 18.2071L3.53011 18.0027L4.09428 17.3874L4.26091 17.1842C4.28025 17.1612 4.29773 17.1393 4.31426 17.1206C4.36013 17.1792 4.40663 17.2248 4.4578 17.2616C4.58699 17.354 4.74363 17.4027 4.91088 17.4027C5.24289 17.4027 5.58614 17.2114 5.80675 16.9025C6.15218 16.4197 6.10912 15.7947 5.71033 15.5095C5.69098 15.4955 5.6707 15.4846 5.65073 15.4749C5.71095 15.3788 5.74653 15.3079 5.75589 15.264C5.76556 15.2184 5.84513 15.1145 5.87602 15.0745C5.93344 14.9993 5.97868 14.9507 5.98368 14.9463C5.99023 14.9422 6.018 14.9326 6.03766 14.9313L6.04172 14.9301C6.13096 14.9507 6.21146 14.9519 6.31475 14.9416C6.53037 14.9223 6.7566 14.7163 6.79872 14.501C6.81432 14.4205 6.81932 14.3462 6.81526 14.2689L7.04305 14.0317C7.08393 13.9902 7.13635 13.9247 7.16412 13.8801C7.1947 13.8311 7.22715 13.7421 7.24244 13.6679C7.25524 13.6045 7.26741 13.4944 7.27084 13.4173C7.27209 13.3848 7.27614 13.3424 7.28145 13.3009C7.32014 13.3546 7.38005 13.4444 7.42967 13.524C7.49051 13.6211 7.58381 13.7568 7.63686 13.8167L7.71175 13.9013L7.87276 14.1078C7.92581 14.1756 8.05562 14.3363 8.10804 14.3725C8.11459 14.3793 8.14954 14.4333 8.17856 14.5057C8.21351 14.5937 8.27685 14.7282 8.32335 14.8118L8.48655 15.1029C8.53647 15.1909 8.63227 15.3367 8.69936 15.4268L8.81512 15.5838L9.00515 15.8631L9.3278 16.4288L9.60614 16.8622L9.81958 17.1768L9.9472 17.4036L10.1407 17.7746C10.155 17.8008 10.1766 17.8483 10.1893 17.8813C10.2015 17.9129 10.2168 17.9653 10.224 17.9949C10.229 18.0149 10.2333 18.0399 10.2371 18.0604C10.209 18.0795 10.156 18.1098 10.1163 18.13L10.0274 18.1747L9.74001 18.2935L9.30908 18.4492C9.2941 18.4539 9.27757 18.458 9.25385 18.4642C9.19051 18.4808 9.12529 18.4979 9.0788 18.5357C9.03417 18.5713 9.01327 18.6224 9.02013 18.6755C9.02762 18.736 9.06881 18.7838 9.1412 18.8162L9.25291 18.8668C9.34746 18.9101 9.58024 18.9298 9.75592 18.9298H10.7236C10.8325 18.9298 10.9935 18.9179 11.0908 18.9026C11.1938 18.8864 11.3342 18.8324 11.3988 18.7522C11.4441 18.6961 11.489 18.6056 11.489 18.531C11.4899 18.4305 11.3841 18.2555 11.3795 18.2477ZM6.71634 6.98461C6.54816 6.70159 6.33378 6.05847 6.48044 5.53737C6.65425 4.92015 6.70823 4.33071 6.70886 4.32197V3.94409C6.70917 3.93941 6.71447 3.83457 6.70854 3.77341L6.68358 3.58587C6.6505 3.39678 6.58279 3.15307 6.45142 3.06601C6.37216 3.01265 6.27668 2.8947 6.25141 2.81888C6.23736 2.77613 6.25765 2.62323 6.34502 2.49529C6.44425 2.35113 6.59559 2.08964 6.68202 1.9124L6.83835 1.59131L6.90482 1.41657C6.91543 1.48834 6.91979 1.56261 6.91355 1.61378L6.88921 1.83346L6.84241 2.46409L6.81058 2.72683C6.79123 2.88815 6.77782 3.05884 6.77782 3.1331C6.77782 3.21018 6.79248 3.34779 6.8112 3.45263C6.81776 3.48633 6.83679 3.56122 6.86175 3.65265C6.89296 3.76717 6.93914 3.9831 6.96598 4.13381L6.99094 4.27798C7.00498 4.35567 7.0159 4.5844 7.0159 4.78816V5.15949C7.00997 5.33485 6.99344 5.91712 7.01777 6.04911L7.02495 6.08905C7.06115 6.28938 7.1713 6.8988 7.33449 7.22581C7.50019 7.55782 7.58537 7.94974 7.60129 8.13229C7.60909 8.22184 7.64279 8.4203 7.68117 8.65183L7.68335 8.66275C7.73359 8.9673 7.79694 9.34581 7.80692 9.51275C7.81191 9.59014 7.81691 9.67127 7.82471 9.74959C7.48927 9.67439 7.19345 9.72431 6.96785 9.89188C6.98626 9.34238 7.00498 8.44745 6.95193 8.01059C6.93976 7.90949 6.92978 7.82212 6.92073 7.74661C6.8758 7.34876 6.86238 7.22831 6.71634 6.98461ZM5.76525 16.1739C5.77274 16.3664 5.70783 16.5695 5.58239 16.7449C5.41171 16.9833 5.1549 17.1309 4.91151 17.1309C4.80105 17.1309 4.6987 17.0987 4.61569 17.0398C4.57232 17.0086 4.53456 16.9683 4.50024 16.9162C4.57544 16.831 4.70556 16.6759 4.87125 16.474L5.31778 15.9314C5.37551 15.8615 5.43605 15.7829 5.4944 15.7036C5.51374 15.7127 5.53215 15.723 5.54932 15.7348C5.681 15.8287 5.75776 15.9848 5.76525 16.1739ZM5.66914 14.9032L5.66165 14.9123C5.5877 15.0093 5.51343 15.1129 5.49346 15.2065C5.48878 15.2218 5.45383 15.2886 5.37645 15.4047L5.2482 15.5844C5.20639 15.6409 5.16083 15.6996 5.11059 15.7604L4.66437 16.303C4.52645 16.4709 4.41692 16.6007 4.34703 16.6825L4.19194 16.8494C4.14701 16.9 4.09116 16.9671 4.05215 17.0142L3.89083 17.2111L3.33446 17.8171L3.13413 18.0177C3.02773 18.1244 2.88481 18.2539 2.8224 18.301C2.7678 18.3416 2.70726 18.3638 2.69884 18.3656C2.61302 18.3656 2.49008 18.4271 2.40645 18.4883C2.32657 18.5469 2.22578 18.6358 2.17648 18.6911C2.15714 18.7129 2.11251 18.7323 2.09878 18.7323H1.08216L1.13708 18.7232C1.2051 18.7098 1.30714 18.6742 1.37548 18.6393L1.58766 18.5235C1.6326 18.4964 1.73931 18.4517 1.81576 18.4321C1.89845 18.4112 2.06976 18.3822 2.18771 18.3666C2.33812 18.3466 2.49726 18.2736 2.56591 18.1931C2.59087 18.164 2.60429 18.1572 2.60429 18.1572C2.65359 18.1381 2.70664 18.1023 2.89604 17.8292C2.96719 17.7263 3.04426 17.5927 3.11884 17.4641L3.13288 17.4398C3.17626 17.3658 3.21651 17.296 3.25021 17.2429C3.34788 17.0894 3.39812 17.0675 3.39874 17.0675C3.54197 17.0132 3.67177 16.8578 3.76663 16.7443C3.81531 16.6856 3.83185 16.6681 3.83466 16.6656C3.9498 16.5889 4.2166 16.0425 4.3333 15.7248C4.48526 15.3129 4.6029 14.9763 4.68341 14.6745C4.69714 14.6224 4.70931 14.5644 4.72366 14.496C4.73396 14.4455 4.74581 14.3909 4.75954 14.3325C5.08781 14.6658 5.45414 14.8224 5.67725 14.8926C5.67413 14.8967 5.67132 14.9001 5.66914 14.9032ZM6.55533 14.2926C6.54909 14.3425 6.54316 14.3993 6.53349 14.4511C6.51383 14.5534 6.39026 14.6664 6.28979 14.6764C6.17683 14.6864 6.0854 14.6729 6.04796 14.6673C6.03672 14.6658 6.02892 14.6648 6.0233 14.6648H6.02268C5.99553 14.6664 5.96433 14.6717 5.93375 14.6807C5.8676 14.6689 5.28377 14.5519 4.8466 14.0283C4.90652 13.8532 4.98203 13.6838 5.07689 13.51C5.10809 13.4535 5.14585 13.3895 5.19016 13.3196C5.63294 13.808 6.27418 14.0473 6.58123 14.1394C6.56937 14.1715 6.56313 14.2205 6.55533 14.2926ZM7.03463 13.1486C7.0184 13.2176 7.00311 13.3315 7.00092 13.4083C6.99812 13.4728 6.98813 13.5686 6.97783 13.6167C6.9691 13.6632 6.94569 13.7222 6.93415 13.7403C6.91792 13.7662 6.87923 13.8158 6.85083 13.8439L6.78187 13.9153C6.57936 13.8635 5.8055 13.6357 5.34431 13.0872C5.48753 12.8818 5.6448 12.6806 5.76837 12.5448C6.08946 12.1919 6.38371 11.9872 6.64458 11.8094C7.03962 12.1944 7.09766 12.8054 7.10608 13.0126C7.07207 13.0472 7.04742 13.094 7.03463 13.1486ZM7.37069 12.9517C7.34542 12.6556 7.21218 11.9932 6.80684 11.5756C6.83055 11.5176 6.84397 11.4605 6.84834 11.4021C6.85271 11.3344 6.83242 11.2636 6.80808 11.1775C6.75036 10.9747 6.67141 10.6963 6.92947 10.3481L6.94351 10.3231C6.94476 10.3194 7.08361 9.98549 7.53202 9.98549C7.63655 9.98549 7.75107 10.0039 7.87245 10.041C7.89991 10.1453 7.93892 10.2251 7.99009 10.2844C8.09431 10.4067 8.62478 11.311 8.67626 12.1298L8.67564 12.2983C8.67564 12.3099 8.67626 12.322 8.6772 12.3342C8.38669 12.3617 7.63187 12.4784 7.37069 12.9517ZM11.1913 18.5841C11.1823 18.5925 11.1198 18.6274 11.0499 18.6383C10.9651 18.6505 10.819 18.6614 10.7245 18.6614H9.75655C9.68415 18.6614 9.61114 18.6577 9.54779 18.6524L9.83643 18.5438L10.234 18.3709C10.263 18.3566 10.2951 18.3385 10.3251 18.3213L10.3575 18.4077L10.3454 18.3091C10.3666 18.2957 10.3862 18.2836 10.4009 18.2726C10.4599 18.2293 10.5154 18.1481 10.5061 18.0629C10.5026 18.0339 10.4933 17.9771 10.4833 17.9356C10.4736 17.891 10.4521 17.8245 10.4377 17.7852C10.4206 17.7419 10.3922 17.6813 10.3744 17.6476L10.0458 17.0376L9.5559 16.2918L9.23045 15.7223L8.91279 15.2689C8.85069 15.1847 8.76301 15.0521 8.71839 14.9722L8.55582 14.6826C8.5165 14.6121 8.45846 14.4888 8.4257 14.4074C8.4129 14.3756 8.3455 14.2146 8.26687 14.16C8.25532 14.1506 8.17981 14.0688 8.08027 13.9415L7.83594 13.6404C7.79943 13.5986 7.71487 13.4785 7.65621 13.3833C7.62376 13.3321 7.58787 13.2772 7.55573 13.2291C7.63561 12.7445 8.42507 12.6275 8.71808 12.6013C8.7315 12.6531 8.74616 12.6946 8.76208 12.7252L8.8326 12.8662L8.95304 13.1374C9.01701 13.28 9.09502 13.5487 9.12747 13.7365C9.16149 13.9387 9.26009 14.3172 9.34559 14.5806C9.43514 14.8561 9.58836 15.1747 9.69476 15.3058L9.8667 15.5189L10.0586 15.771C10.1544 15.8965 10.2633 16.0831 10.2933 16.1701L10.3529 16.3511L10.4527 16.7324C10.5107 16.9508 10.6137 17.2647 10.683 17.432L10.8062 17.7297L11.0549 18.2274L11.1501 18.3868C11.1891 18.4514 11.2135 18.5104 11.2213 18.5338C11.2147 18.5457 11.2041 18.5675 11.1913 18.5841Z" fill="#4E5154"/>
<path d="M11.3795 18.2477L11.2893 18.0982L11.0493 17.6183L10.9298 17.3287C10.864 17.1708 10.7666 16.8725 10.7117 16.6634L10.609 16.2743L10.5463 16.0846C10.5082 15.9704 10.3869 15.7613 10.2708 15.6078L9.90164 15.1366C9.81646 15.0305 9.67729 14.7382 9.59897 14.4966C9.51659 14.2442 9.42329 13.8829 9.38959 13.6906C9.35433 13.4822 9.26914 13.1904 9.19643 13.0273L9.00047 12.6047C8.97707 12.557 8.94337 12.4169 8.94337 12.2983L8.94212 12.1554C8.94524 12.1426 8.94431 12.1308 8.94337 12.1217V12.0712C8.86786 11.1794 8.30712 10.2435 8.1926 10.1103C8.10742 10.0108 8.09057 9.7396 8.07528 9.49684C8.06404 9.3171 8.0032 8.94921 7.9489 8.62469L7.9436 8.59317C7.90896 8.38379 7.87557 8.18596 7.86871 8.10857C7.85061 7.90575 7.75762 7.47108 7.57477 7.10599C7.47741 6.91096 7.38099 6.55212 7.28894 6.03819L7.28207 6.00043C7.26709 5.91899 7.27458 5.4631 7.28457 5.16386L7.28363 4.78161C7.28363 4.57098 7.26179 4.27298 7.23495 4.11665L7.1869 3.83769C7.18565 3.83425 7.09953 3.48477 7.08393 3.40146C7.06739 3.31346 7.05397 3.19301 7.05397 3.1331C7.05397 3.06695 7.06801 2.8997 7.08549 2.75959L7.11794 2.49092L7.16475 1.85998L7.18815 1.6453C7.20406 1.5055 7.17598 1.29176 7.12449 1.15852C7.06989 1.0156 6.96754 1 6.92603 1C6.85458 1 6.7541 1.03869 6.68358 1.22248L6.5856 1.48179L6.43457 1.79196C6.35282 1.9589 6.21115 2.20416 6.11848 2.33896C5.9946 2.51932 5.94093 2.75834 5.99054 2.90687C6.03516 3.04074 6.16778 3.20768 6.29884 3.29505C6.32692 3.31596 6.42303 3.53563 6.44113 3.88886L6.44144 4.31043C6.4352 4.37034 6.37809 4.91329 6.2227 5.46435C6.03204 6.14366 6.34876 6.89162 6.487 7.12284C6.60339 7.3163 6.61244 7.39556 6.65581 7.77843C6.66423 7.85457 6.67453 7.94194 6.68701 8.04336C6.75254 8.58474 6.70043 9.93338 6.68795 10.2289C6.38465 10.6664 6.48887 11.0327 6.55128 11.2521C6.56532 11.3014 6.5831 11.3625 6.58154 11.3847C6.57405 11.5036 6.48731 11.5897 6.48824 11.5897C6.17589 11.8053 5.891 12.0122 5.57116 12.3639C5.33245 12.626 5.00574 13.0822 4.84223 13.3808C4.58418 13.8526 4.51335 14.1933 4.46155 14.4417C4.44875 14.5026 4.43752 14.5575 4.42441 14.6055C4.34734 14.8951 4.23189 15.2253 4.08211 15.6331C3.93888 16.0213 3.71421 16.4144 3.68082 16.4466C3.65149 16.4656 3.62185 16.4993 3.56131 16.572C3.49391 16.6525 3.38127 16.787 3.30513 16.8157C3.21495 16.8494 3.12571 16.9393 3.0246 17.0984C2.98934 17.1546 2.94722 17.2267 2.90197 17.3041L2.887 17.3293C2.82209 17.4414 2.74127 17.5818 2.67574 17.676C2.55218 17.8551 2.506 17.9019 2.49539 17.9119C2.44452 17.9319 2.39585 17.9803 2.36308 18.018C2.3506 18.0327 2.26354 18.0854 2.15277 18.1004C2.02389 18.1176 1.84416 18.1472 1.74961 18.1718C1.64289 18.1993 1.5134 18.2549 1.4513 18.292L1.25534 18.3999C1.20947 18.423 1.1299 18.4511 1.08684 18.4592L0.911473 18.4886C0.796642 18.5035 0.62034 18.6371 0.612851 18.6421C0.495524 18.7323 0.504262 18.824 0.520176 18.8702C0.536402 18.9189 0.588512 19 0.755453 19H2.10003C2.19583 19 2.31035 18.9457 2.37868 18.8683C2.41426 18.8271 2.50007 18.7526 2.56559 18.7045C2.62707 18.6593 2.69291 18.6349 2.70196 18.6337C2.78777 18.6337 2.90603 18.5744 2.98498 18.5148C3.05862 18.4592 3.2084 18.3241 3.3251 18.2071L3.53011 18.0027L4.09428 17.3874L4.26091 17.1842C4.28025 17.1612 4.29773 17.1393 4.31426 17.1206C4.36013 17.1792 4.40663 17.2248 4.4578 17.2616C4.58699 17.354 4.74363 17.4027 4.91088 17.4027C5.24289 17.4027 5.58614 17.2114 5.80675 16.9025C6.15218 16.4197 6.10912 15.7947 5.71033 15.5095C5.69098 15.4955 5.6707 15.4846 5.65073 15.4749C5.71095 15.3788 5.74653 15.3079 5.75589 15.264C5.76556 15.2184 5.84513 15.1145 5.87602 15.0745C5.93344 14.9993 5.97868 14.9507 5.98368 14.9463C5.99023 14.9422 6.018 14.9326 6.03766 14.9313L6.04172 14.9301C6.13096 14.9507 6.21146 14.9519 6.31475 14.9416C6.53037 14.9223 6.7566 14.7163 6.79872 14.501C6.81432 14.4205 6.81932 14.3462 6.81526 14.2689L7.04305 14.0317C7.08393 13.9902 7.13635 13.9247 7.16412 13.8801C7.1947 13.8311 7.22715 13.7421 7.24244 13.6679C7.25524 13.6045 7.26741 13.4944 7.27084 13.4173C7.27209 13.3848 7.27614 13.3424 7.28145 13.3009C7.32014 13.3546 7.38005 13.4444 7.42967 13.524C7.49051 13.6211 7.58381 13.7568 7.63686 13.8167L7.71175 13.9013L7.87276 14.1078C7.92581 14.1756 8.05562 14.3363 8.10804 14.3725C8.11459 14.3793 8.14954 14.4333 8.17856 14.5057C8.21351 14.5937 8.27685 14.7282 8.32335 14.8118L8.48655 15.1029C8.53647 15.1909 8.63227 15.3367 8.69936 15.4268L8.81512 15.5838L9.00515 15.8631L9.3278 16.4288L9.60614 16.8622L9.81958 17.1768L9.9472 17.4036L10.1407 17.7746C10.155 17.8008 10.1766 17.8483 10.1893 17.8813C10.2015 17.9129 10.2168 17.9653 10.224 17.9949C10.229 18.0149 10.2333 18.0399 10.2371 18.0604C10.209 18.0795 10.156 18.1098 10.1163 18.13L10.0274 18.1747L9.74001 18.2935L9.30908 18.4492C9.2941 18.4539 9.27757 18.458 9.25385 18.4642C9.19051 18.4808 9.12529 18.4979 9.0788 18.5357C9.03417 18.5713 9.01327 18.6224 9.02013 18.6755C9.02762 18.736 9.06881 18.7838 9.1412 18.8162L9.25291 18.8668C9.34746 18.9101 9.58024 18.9298 9.75592 18.9298H10.7236C10.8325 18.9298 10.9935 18.9179 11.0908 18.9026C11.1938 18.8864 11.3342 18.8324 11.3988 18.7522C11.4441 18.6961 11.489 18.6056 11.489 18.531C11.4899 18.4305 11.3841 18.2555 11.3795 18.2477ZM6.71634 6.98461C6.54816 6.70159 6.33378 6.05847 6.48044 5.53737C6.65425 4.92015 6.70823 4.33071 6.70886 4.32197V3.94409C6.70917 3.93941 6.71447 3.83457 6.70854 3.77341L6.68358 3.58587C6.6505 3.39678 6.58279 3.15307 6.45142 3.06601C6.37216 3.01265 6.27668 2.8947 6.25141 2.81888C6.23736 2.77613 6.25765 2.62323 6.34502 2.49529C6.44425 2.35113 6.59559 2.08964 6.68202 1.9124L6.83835 1.59131L6.90482 1.41657C6.91543 1.48834 6.91979 1.56261 6.91355 1.61378L6.88921 1.83346L6.84241 2.46409L6.81058 2.72683C6.79123 2.88815 6.77782 3.05884 6.77782 3.1331C6.77782 3.21018 6.79248 3.34779 6.8112 3.45263C6.81776 3.48633 6.83679 3.56122 6.86175 3.65265C6.89296 3.76717 6.93914 3.9831 6.96598 4.13381L6.99094 4.27798C7.00498 4.35567 7.0159 4.5844 7.0159 4.78816V5.15949C7.00997 5.33485 6.99344 5.91712 7.01777 6.04911L7.02495 6.08905C7.06115 6.28938 7.1713 6.8988 7.33449 7.22581C7.50019 7.55782 7.58537 7.94974 7.60129 8.13229C7.60909 8.22184 7.64279 8.4203 7.68117 8.65183L7.68335 8.66275C7.73359 8.9673 7.79694 9.34581 7.80692 9.51275C7.81191 9.59014 7.81691 9.67127 7.82471 9.74959C7.48927 9.67439 7.19345 9.72431 6.96785 9.89188C6.98626 9.34238 7.00498 8.44745 6.95193 8.01059C6.93976 7.90949 6.92978 7.82212 6.92073 7.74661C6.8758 7.34876 6.86238 7.22831 6.71634 6.98461ZM5.76525 16.1739C5.77274 16.3664 5.70783 16.5695 5.58239 16.7449C5.41171 16.9833 5.1549 17.1309 4.91151 17.1309C4.80105 17.1309 4.6987 17.0987 4.61569 17.0398C4.57232 17.0086 4.53456 16.9683 4.50024 16.9162C4.57544 16.831 4.70556 16.6759 4.87125 16.474L5.31778 15.9314C5.37551 15.8615 5.43605 15.7829 5.4944 15.7036C5.51374 15.7127 5.53215 15.723 5.54932 15.7348C5.681 15.8287 5.75776 15.9848 5.76525 16.1739ZM5.66914 14.9032L5.66165 14.9123C5.5877 15.0093 5.51343 15.1129 5.49346 15.2065C5.48878 15.2218 5.45383 15.2886 5.37645 15.4047L5.2482 15.5844C5.20639 15.6409 5.16083 15.6996 5.11059 15.7604L4.66437 16.303C4.52645 16.4709 4.41692 16.6007 4.34703 16.6825L4.19194 16.8494C4.14701 16.9 4.09116 16.9671 4.05215 17.0142L3.89083 17.2111L3.33446 17.8171L3.13413 18.0177C3.02773 18.1244 2.88481 18.2539 2.8224 18.301C2.7678 18.3416 2.70726 18.3638 2.69884 18.3656C2.61302 18.3656 2.49008 18.4271 2.40645 18.4883C2.32657 18.5469 2.22578 18.6358 2.17648 18.6911C2.15714 18.7129 2.11251 18.7323 2.09878 18.7323H1.08216L1.13708 18.7232C1.2051 18.7098 1.30714 18.6742 1.37548 18.6393L1.58766 18.5235C1.6326 18.4964 1.73931 18.4517 1.81576 18.4321C1.89845 18.4112 2.06976 18.3822 2.18771 18.3666C2.33812 18.3466 2.49726 18.2736 2.56591 18.1931C2.59087 18.164 2.60429 18.1572 2.60429 18.1572C2.65359 18.1381 2.70664 18.1023 2.89604 17.8292C2.96719 17.7263 3.04426 17.5927 3.11884 17.4641L3.13288 17.4398C3.17626 17.3658 3.21651 17.296 3.25021 17.2429C3.34788 17.0894 3.39812 17.0675 3.39874 17.0675C3.54197 17.0132 3.67177 16.8578 3.76663 16.7443C3.81531 16.6856 3.83185 16.6681 3.83466 16.6656C3.9498 16.5889 4.2166 16.0425 4.3333 15.7248C4.48526 15.3129 4.6029 14.9763 4.68341 14.6745C4.69714 14.6224 4.70931 14.5644 4.72366 14.496C4.73396 14.4455 4.74581 14.3909 4.75954 14.3325C5.08781 14.6658 5.45414 14.8224 5.67725 14.8926C5.67413 14.8967 5.67132 14.9001 5.66914 14.9032ZM6.55533 14.2926C6.54909 14.3425 6.54316 14.3993 6.53349 14.4511C6.51383 14.5534 6.39026 14.6664 6.28979 14.6764C6.17683 14.6864 6.0854 14.6729 6.04796 14.6673C6.03672 14.6658 6.02892 14.6648 6.0233 14.6648H6.02268C5.99553 14.6664 5.96433 14.6717 5.93375 14.6807C5.8676 14.6689 5.28377 14.5519 4.8466 14.0283C4.90652 13.8532 4.98203 13.6838 5.07689 13.51C5.10809 13.4535 5.14585 13.3895 5.19016 13.3196C5.63294 13.808 6.27418 14.0473 6.58123 14.1394C6.56937 14.1715 6.56313 14.2205 6.55533 14.2926ZM7.03463 13.1486C7.0184 13.2176 7.00311 13.3315 7.00092 13.4083C6.99812 13.4728 6.98813 13.5686 6.97783 13.6167C6.9691 13.6632 6.94569 13.7222 6.93415 13.7403C6.91792 13.7662 6.87923 13.8158 6.85083 13.8439L6.78187 13.9153C6.57936 13.8635 5.8055 13.6357 5.34431 13.0872C5.48753 12.8818 5.6448 12.6806 5.76837 12.5448C6.08946 12.1919 6.38371 11.9872 6.64458 11.8094C7.03962 12.1944 7.09766 12.8054 7.10608 13.0126C7.07207 13.0472 7.04742 13.094 7.03463 13.1486ZM7.37069 12.9517C7.34542 12.6556 7.21218 11.9932 6.80684 11.5756C6.83055 11.5176 6.84397 11.4605 6.84834 11.4021C6.85271 11.3344 6.83242 11.2636 6.80808 11.1775C6.75036 10.9747 6.67141 10.6963 6.92947 10.3481L6.94351 10.3231C6.94476 10.3194 7.08361 9.98549 7.53202 9.98549C7.63655 9.98549 7.75107 10.0039 7.87245 10.041C7.89991 10.1453 7.93892 10.2251 7.99009 10.2844C8.09431 10.4067 8.62478 11.311 8.67626 12.1298L8.67564 12.2983C8.67564 12.3099 8.67626 12.322 8.6772 12.3342C8.38669 12.3617 7.63187 12.4784 7.37069 12.9517ZM11.1913 18.5841C11.1823 18.5925 11.1198 18.6274 11.0499 18.6383C10.9651 18.6505 10.819 18.6614 10.7245 18.6614H9.75655C9.68415 18.6614 9.61114 18.6577 9.54779 18.6524L9.83643 18.5438L10.234 18.3709C10.263 18.3566 10.2951 18.3385 10.3251 18.3213L10.3575 18.4077L10.3454 18.3091C10.3666 18.2957 10.3862 18.2836 10.4009 18.2726C10.4599 18.2293 10.5154 18.1481 10.5061 18.0629C10.5026 18.0339 10.4933 17.9771 10.4833 17.9356C10.4736 17.891 10.4521 17.8245 10.4377 17.7852C10.4206 17.7419 10.3922 17.6813 10.3744 17.6476L10.0458 17.0376L9.5559 16.2918L9.23045 15.7223L8.91279 15.2689C8.85069 15.1847 8.76301 15.0521 8.71839 14.9722L8.55582 14.6826C8.5165 14.6121 8.45846 14.4888 8.4257 14.4074C8.4129 14.3756 8.3455 14.2146 8.26687 14.16C8.25532 14.1506 8.17981 14.0688 8.08027 13.9415L7.83594 13.6404C7.79943 13.5986 7.71487 13.4785 7.65621 13.3833C7.62376 13.3321 7.58787 13.2772 7.55573 13.2291C7.63561 12.7445 8.42507 12.6275 8.71808 12.6013C8.7315 12.6531 8.74616 12.6946 8.76208 12.7252L8.8326 12.8662L8.95304 13.1374C9.01701 13.28 9.09502 13.5487 9.12747 13.7365C9.16149 13.9387 9.26009 14.3172 9.34559 14.5806C9.43514 14.8561 9.58836 15.1747 9.69476 15.3058L9.8667 15.5189L10.0586 15.771C10.1544 15.8965 10.2633 16.0831 10.2933 16.1701L10.3529 16.3511L10.4527 16.7324C10.5107 16.9508 10.6137 17.2647 10.683 17.432L10.8062 17.7297L11.0549 18.2274L11.1501 18.3868C11.1891 18.4514 11.2135 18.5104 11.2213 18.5338C11.2147 18.5457 11.2041 18.5675 11.1913 18.5841Z" stroke="#4E5154" stroke-width="0.2" mask="url(#path-1-outside-1_1633_9394)"/>
</g>
</g>
</svg>
