<svg width="18" height="14" viewBox="0 0 18 14" fill="none" xmlns="http://www.w3.org/2000/svg">
<g id="Vector">
<mask id="path-1-outside-1_1633_9384" maskUnits="userSpaceOnUse" x="0" y="-0.852051" width="18" height="15" fill="black">
<rect fill="white" y="-0.852051" width="18" height="15"/>
<path d="M16.6593 11.3082C15.5004 8.85338 14.797 6.3773 14.5483 5.42635C14.5033 5.25448 14.4272 5.09202 14.3257 4.94649L14.3245 4.37239C14.3238 4.08718 14.1853 3.81839 13.954 3.65331C13.8254 3.56151 13.6974 3.46592 13.5735 3.36888C11.8363 0.838123 10.7805 0.193143 10.7363 0.166883C10.7237 0.159447 10.71 0.154161 10.6957 0.151324C10.6596 0.143932 10.4675 0.123517 10.204 0.418479C9.66966 0.957002 8.59838 3.24261 8.50872 3.81053C8.4443 4.21861 7.81522 5.15086 7.56208 5.50573C7.55499 5.50771 7.54815 5.5096 7.54102 5.51162C6.91976 5.68633 6.13338 6.09454 5.96173 6.66985C5.87426 6.96297 5.94999 7.25741 6.18676 7.54558C6.19192 7.95379 6.26245 8.82244 6.49883 9.75477C6.46341 9.80729 6.42989 9.85723 6.39873 9.90378C6.28144 10.079 6.11744 10.2221 5.92429 10.3175C5.71812 10.4194 5.54079 10.5378 5.39716 10.6695C5.28713 10.7704 5.11689 10.9539 4.91971 11.1665C4.84226 11.25 4.75957 11.3391 4.67383 11.4306C4.524 11.4296 4.109 11.4343 3.66912 11.5005C2.90637 11.6152 2.46344 11.8561 2.35255 12.2165C2.24816 12.5557 2.25215 12.8176 2.36446 12.995C2.3697 13.0033 2.37529 13.0107 2.38079 13.0184C1.97318 13.156 1.53574 13.2775 1.16376 13.3628C1.06104 13.3864 0.992493 13.4798 1.00066 13.5848C1.00887 13.69 1.09121 13.7717 1.19643 13.779C1.6765 13.8127 2.42819 13.8369 2.4462 13.8369C2.78569 13.8369 3.12079 13.7512 3.41868 13.5877C3.42788 13.5827 3.43759 13.5773 3.44692 13.5722C3.73599 13.6752 4.0377 13.7281 4.34513 13.7281C4.34878 13.7281 10.5462 13.7032 10.5462 13.7032C10.6722 13.7027 10.7832 13.6313 10.8359 13.5168C10.8367 13.515 10.8372 13.513 10.838 13.5112C13.2423 13.8083 14.6933 13.8518 15.5103 13.8518C15.7144 13.8518 15.879 13.8491 16.0091 13.847C16.0238 13.8467 16.0382 13.8465 16.0519 13.8463C16.1882 13.8441 16.3227 13.8067 16.437 13.7324C16.6717 13.58 16.8349 13.3698 16.9232 13.1052C17.1846 12.3222 16.6981 11.3811 16.6593 11.3082ZM15.7163 9.78464C15.3349 9.74549 14.9045 9.91835 14.6625 10.0365C14.6147 9.34789 14.3067 7.91159 14.292 7.84338C14.2839 7.8056 14.2592 7.77346 14.2248 7.75579L13.607 7.439C13.5064 7.38742 13.44 7.28806 13.4319 7.17249C13.426 7.08739 13.4574 7.00379 13.5116 6.93795L13.6878 6.72413C13.8805 6.48999 13.9384 6.17843 13.8425 5.89065L13.7848 5.71775C13.7458 5.60063 13.736 5.47578 13.7562 5.35397L13.8496 4.79413L13.9947 4.94649C14.1404 5.09945 14.2455 5.28792 14.2988 5.49155C14.4937 6.23684 14.9661 7.91228 15.7163 9.78464ZM6.28707 12.3681C6.14752 12.2983 5.94961 12.2321 5.69693 12.1704C5.94694 11.9891 6.18543 11.8027 6.39886 11.6162L7.17149 11.4591C7.25908 11.6027 7.35144 11.7335 7.44806 11.85C7.66983 12.116 8.06523 12.5559 8.23276 12.7414C7.78827 12.706 6.75318 12.6015 6.28707 12.3681ZM6.99695 11.1424C7.01053 11.1695 7.02407 11.1967 7.03791 11.2231L6.84412 11.2625C6.9033 11.2231 6.95393 11.1827 6.99695 11.1424ZM7.59074 11.6151C7.44015 11.4206 7.30064 11.1866 7.17467 10.9179C7.20617 10.8605 7.22405 10.8111 7.23389 10.7761C7.42691 10.6038 8.39956 9.72881 9.1124 8.96418C9.07858 9.03411 9.0512 9.09337 9.03225 9.14086C8.97625 9.2808 8.98643 9.43179 9.06164 9.5774C9.13587 9.72112 9.27465 9.86007 9.46113 9.98552C9.24276 10.3069 8.52867 11.2681 7.59074 11.6151ZM9.29076 9.45908C9.24981 9.3797 9.24353 9.30693 9.27172 9.23658C9.30422 9.15522 9.36929 9.02499 9.45172 8.86004C9.56841 8.62663 9.71359 8.33622 9.84996 8.01762C9.85297 8.01104 9.86552 7.98087 9.86866 7.97249C9.91537 7.86199 9.96377 7.75549 10.0106 7.65247C10.1357 7.37711 10.2491 7.12693 10.3003 6.87417C10.4143 7.02073 10.5671 7.169 10.7685 7.28032C11.049 7.43539 11.3672 7.48614 11.7178 7.43332C11.6169 7.67233 11.5093 8.04341 11.5093 8.54058C11.5093 9.4531 12.021 10.3101 12.0428 10.3462C12.0664 10.3852 12.1085 10.4084 12.1531 10.4084C12.16 10.4084 12.1669 10.4079 12.1738 10.4068C12.2258 10.3983 12.2674 10.3592 12.2789 10.3078C12.2906 10.2556 12.5662 9.0231 12.5302 8.46133C12.504 8.05454 12.3069 7.56501 12.1902 7.30641C12.676 7.12156 13.0106 6.82273 13.1848 6.41666C13.4333 5.83731 13.281 5.2051 13.1658 4.95174C13.0137 4.61706 12.1399 3.6463 11.073 3.44323C10.9234 3.41469 10.7688 3.46124 10.6597 3.56761C10.5739 3.65129 10.4862 3.7397 10.3933 3.83322C10.2432 3.98455 10.0841 4.14477 9.91735 4.30044L9.91486 4.16441C9.91258 4.04992 9.93089 3.93705 9.9694 3.82871C10.3377 2.78596 10.6914 1.99979 10.9036 1.74179C11.8327 2.5629 12.5421 3.41504 12.6694 3.57083L12.716 3.83305C12.7429 3.98605 12.8166 4.12332 12.9291 4.22995L13.5793 4.84777L13.502 5.31151C13.4748 5.47479 13.4879 5.64223 13.5403 5.79923L13.598 5.97218C13.6652 6.17388 13.624 6.39599 13.4888 6.56013L13.306 6.78198C13.1852 6.92867 13.1435 7.1228 13.1949 7.30787C13.2396 7.46844 13.3556 7.59978 13.5039 7.67581L14.0526 7.95719C14.1202 8.2782 14.4343 9.79934 14.4098 10.2415C14.3874 10.645 14.4523 11.2543 14.6848 11.8051L11.6814 11.1122C11.592 10.9112 11.275 10.3323 10.5288 10.1519C9.92728 10.0067 9.42971 9.72821 9.29076 9.45908ZM8.7513 6.00742C7.99492 6.09037 7.7456 5.95052 7.66428 5.85828C7.63325 5.82309 7.62057 5.78754 7.61576 5.7584C7.71792 5.72969 7.81234 5.70369 7.90041 5.67945C8.53404 5.505 8.85208 5.41741 9.39537 5.05532C9.83367 4.76319 10.2282 4.36568 10.5763 4.01502C10.6685 3.92218 10.7555 3.83451 10.8399 3.7522C10.8886 3.70471 10.9573 3.68387 11.0241 3.69659C12.0098 3.8838 12.8112 4.79487 12.9311 5.05858C13.0107 5.23346 13.1688 5.80018 12.9479 6.3151C12.7949 6.67191 12.4868 6.93258 12.0324 7.08988C11.5951 7.24108 11.2132 7.22995 10.897 7.05674C10.5689 6.87697 10.3911 6.57238 10.3116 6.39818C10.3011 6.3751 10.2531 6.26078 10.2363 6.22094C10.2339 6.21531 10.2315 6.20989 10.2287 6.20443C10.1501 6.04679 10.0351 5.91188 9.89113 5.8141C9.69313 5.67954 9.48915 5.63338 9.28427 5.67726C9.1011 5.71641 8.92282 5.82708 8.7513 6.00742ZM11.9817 7.47295C12.0888 7.71896 12.2511 8.14058 12.2728 8.47796C12.2952 8.82562 12.1814 9.48538 12.1013 9.8948C11.9565 9.57684 11.7672 9.06153 11.7672 8.54063C11.7672 8.03704 11.8852 7.68036 11.9817 7.47295ZM8.76346 3.85067C8.84568 3.33007 9.88709 1.10003 10.3891 0.598044C10.3909 0.596282 10.3926 0.594434 10.3943 0.592543C10.5154 0.456215 10.5998 0.419339 10.6363 0.409325C10.8248 0.537702 11.8329 1.2854 13.372 3.53099C13.3794 3.54178 13.3884 3.55141 13.3987 3.55949C13.5306 3.66307 13.667 3.76527 13.8042 3.86317C13.968 3.98008 14.0661 4.17064 14.0666 4.3729L14.0672 4.64869L14.0142 4.59304C13.943 4.51834 13.8335 4.49621 13.7371 4.54043C13.7138 4.55113 13.6932 4.56596 13.6751 4.58324L13.1066 4.04295C13.0344 3.97453 12.9872 3.88651 12.9699 3.78818L12.9175 3.49296C12.9137 3.47177 12.9047 3.45183 12.8912 3.43498C12.8831 3.42488 12.0694 2.41174 10.984 1.46944C10.939 1.43033 10.873 1.42723 10.8245 1.46187C10.6784 1.56627 10.3414 2.00138 9.72622 3.74258C9.67731 3.88015 9.65402 4.02383 9.65699 4.1694L9.66356 4.52694C9.53046 4.64001 9.39327 4.74669 9.2523 4.84064C8.78224 5.15395 8.50198 5.24507 7.96831 5.39304C8.23074 5.00383 8.698 4.26502 8.76346 3.85067ZM6.44433 7.49792C6.44433 7.46676 6.43307 7.43668 6.41261 7.41321C6.21311 7.18426 6.14456 6.95892 6.20885 6.74352C6.32391 6.35791 6.84128 6.02852 7.36962 5.8374C7.38475 5.89727 7.41354 5.96096 7.464 6.02074C7.61533 6.20005 7.90848 6.29018 8.33823 6.29018C8.39934 6.29018 8.4639 6.2879 8.53051 6.28425C8.50305 6.32426 8.47576 6.36573 8.44877 6.40957C8.26856 6.702 8.1297 7.03495 8.03609 7.3992C7.98675 7.59131 7.8677 7.95233 7.625 8.21235C7.40843 8.44444 7.0178 8.99474 6.69494 9.46617C6.52328 8.70867 6.44433 7.93678 6.44433 7.49792ZM2.57896 12.8514C2.51445 12.7425 2.52159 12.544 2.59903 12.2922C2.73665 11.845 3.79543 11.7146 4.42511 11.6919C4.34852 11.7711 4.27103 11.8499 4.19354 11.9265C4.01114 11.9067 3.89557 11.8972 3.89024 11.8968C3.81946 11.8911 3.75705 11.9438 3.75125 12.0148C3.74549 12.0858 3.79831 12.148 3.86931 12.1538C3.86996 12.1538 3.89824 12.1562 3.94796 12.1608C3.77613 12.3185 3.61114 12.4548 3.46673 12.5467C3.26946 12.6722 2.97948 12.8013 2.6531 12.9221C2.63243 12.912 2.60277 12.8917 2.57896 12.8514ZM2.3991 13.5783C2.1824 13.5725 1.87257 13.5616 1.52122 13.5413C2.28018 13.3473 3.15187 13.0527 3.60512 12.7643C4.05489 12.4781 4.66399 11.8214 5.10877 11.3418C5.30209 11.1333 5.4691 10.9533 5.57139 10.8595C5.69702 10.7443 5.85424 10.6397 6.03853 10.5486C6.27203 10.4332 6.47068 10.2598 6.61298 10.0471C6.94207 9.55535 7.5356 8.68594 7.81337 8.38827C8.081 8.10156 8.21797 7.72704 8.28571 7.46337C8.37287 7.12414 8.5015 6.81512 8.66813 6.54483C8.88745 6.18909 9.11911 5.97626 9.33813 5.92937C9.47308 5.90066 9.60653 5.93251 9.74608 6.02732C9.90102 6.13257 10.0128 6.29598 10.0608 6.48749C10.0645 6.50219 10.0673 6.51388 10.0682 6.51964C10.0951 6.84275 9.94709 7.16853 9.77565 7.5458C9.72773 7.65135 9.61044 7.92152 9.60894 7.92509C9.34672 8.48372 7.6724 10.0421 7.03181 10.6106C7.00791 10.6318 6.99304 10.6588 6.98952 10.6905C6.98797 10.7009 6.9471 10.9459 6.54662 11.1349C6.53321 11.1412 6.52096 11.1498 6.51048 11.1603C6.18895 11.4818 5.76626 11.8116 5.31984 12.1222C5.31425 12.1254 5.30905 12.1291 5.30398 12.1331C4.58624 12.6312 3.80966 13.0788 3.29447 13.3615C3.021 13.5117 2.71151 13.5866 2.3991 13.5783ZM4.35497 13.4701C4.3517 13.4701 4.34844 13.4701 4.34513 13.4701C4.14648 13.4701 3.9505 13.4454 3.75933 13.3976C4.23923 13.1255 4.84153 12.7652 5.41327 12.3708C5.75147 12.4411 6.00384 12.5165 6.16407 12.5951C6.02056 12.7742 5.80034 13.1052 5.7822 13.4643L4.35497 13.4701ZM10.6017 13.4089C10.5966 13.4197 10.5811 13.4451 10.5451 13.4453L6.04046 13.4633C6.06255 13.1393 6.3053 12.8241 6.41511 12.6971C7.14084 12.9406 8.37025 13.0104 8.42848 13.0136C8.45724 13.0153 8.48491 13.0074 8.50834 12.9913C8.69972 12.8603 9.03182 12.7123 9.13174 12.7873C9.15018 12.8011 9.17197 12.8097 9.19484 12.8123C9.36387 12.8312 9.69029 12.8058 9.93428 12.7811C10.0397 12.7706 10.1429 12.8123 10.2112 12.8929L10.5925 13.3422C10.6158 13.3697 10.6066 13.3979 10.6017 13.4089ZM16.6787 13.0234C16.6183 13.2044 16.5123 13.3535 16.3626 13.4689C16.2611 13.5472 16.135 13.587 16.0069 13.589C16.0062 13.589 16.0056 13.589 16.0049 13.5891C15.3572 13.5997 13.8457 13.6244 10.8372 13.2512C10.825 13.2244 10.8091 13.1988 10.7892 13.1754L10.4078 12.7261C10.2846 12.5808 10.0982 12.5051 9.90841 12.5246C9.60653 12.555 9.37608 12.5668 9.25243 12.5586C9.11851 12.4817 8.9279 12.4962 8.68498 12.6018C8.6261 12.6274 8.57104 12.6554 8.52347 12.6815C8.51676 12.6729 8.06179 12.1699 7.76429 11.8241C8.75284 11.4199 9.46822 10.4408 9.68415 10.1172C9.90716 10.233 10.1737 10.3315 10.4682 10.4026C11.217 10.5836 11.4557 11.2376 11.4653 11.265C11.4798 11.307 11.5149 11.3385 11.5581 11.3484L14.8324 12.1038C14.8409 12.1187 14.8488 12.134 14.8577 12.1487L15.2015 12.7218C15.2425 12.7901 15.3368 12.8067 15.3991 12.7506C15.4455 12.7089 15.4521 12.6382 15.42 12.5847L15.0788 12.016C14.7515 11.4706 14.652 10.7813 14.6646 10.3249C14.9201 10.1844 15.4779 9.94555 15.8331 10.0719C16.0159 10.516 16.214 10.9689 16.4275 11.4211C16.4285 11.4232 16.4296 11.4252 16.4306 11.4272C16.5973 11.7369 16.8638 12.4689 16.6787 13.0234Z"/>
</mask>
<path d="M16.6593 11.3082C15.5004 8.85338 14.797 6.3773 14.5483 5.42635C14.5033 5.25448 14.4272 5.09202 14.3257 4.94649L14.3245 4.37239C14.3238 4.08718 14.1853 3.81839 13.954 3.65331C13.8254 3.56151 13.6974 3.46592 13.5735 3.36888C11.8363 0.838123 10.7805 0.193143 10.7363 0.166883C10.7237 0.159447 10.71 0.154161 10.6957 0.151324C10.6596 0.143932 10.4675 0.123517 10.204 0.418479C9.66966 0.957002 8.59838 3.24261 8.50872 3.81053C8.4443 4.21861 7.81522 5.15086 7.56208 5.50573C7.55499 5.50771 7.54815 5.5096 7.54102 5.51162C6.91976 5.68633 6.13338 6.09454 5.96173 6.66985C5.87426 6.96297 5.94999 7.25741 6.18676 7.54558C6.19192 7.95379 6.26245 8.82244 6.49883 9.75477C6.46341 9.80729 6.42989 9.85723 6.39873 9.90378C6.28144 10.079 6.11744 10.2221 5.92429 10.3175C5.71812 10.4194 5.54079 10.5378 5.39716 10.6695C5.28713 10.7704 5.11689 10.9539 4.91971 11.1665C4.84226 11.25 4.75957 11.3391 4.67383 11.4306C4.524 11.4296 4.109 11.4343 3.66912 11.5005C2.90637 11.6152 2.46344 11.8561 2.35255 12.2165C2.24816 12.5557 2.25215 12.8176 2.36446 12.995C2.3697 13.0033 2.37529 13.0107 2.38079 13.0184C1.97318 13.156 1.53574 13.2775 1.16376 13.3628C1.06104 13.3864 0.992493 13.4798 1.00066 13.5848C1.00887 13.69 1.09121 13.7717 1.19643 13.779C1.6765 13.8127 2.42819 13.8369 2.4462 13.8369C2.78569 13.8369 3.12079 13.7512 3.41868 13.5877C3.42788 13.5827 3.43759 13.5773 3.44692 13.5722C3.73599 13.6752 4.0377 13.7281 4.34513 13.7281C4.34878 13.7281 10.5462 13.7032 10.5462 13.7032C10.6722 13.7027 10.7832 13.6313 10.8359 13.5168C10.8367 13.515 10.8372 13.513 10.838 13.5112C13.2423 13.8083 14.6933 13.8518 15.5103 13.8518C15.7144 13.8518 15.879 13.8491 16.0091 13.847C16.0238 13.8467 16.0382 13.8465 16.0519 13.8463C16.1882 13.8441 16.3227 13.8067 16.437 13.7324C16.6717 13.58 16.8349 13.3698 16.9232 13.1052C17.1846 12.3222 16.6981 11.3811 16.6593 11.3082ZM15.7163 9.78464C15.3349 9.74549 14.9045 9.91835 14.6625 10.0365C14.6147 9.34789 14.3067 7.91159 14.292 7.84338C14.2839 7.8056 14.2592 7.77346 14.2248 7.75579L13.607 7.439C13.5064 7.38742 13.44 7.28806 13.4319 7.17249C13.426 7.08739 13.4574 7.00379 13.5116 6.93795L13.6878 6.72413C13.8805 6.48999 13.9384 6.17843 13.8425 5.89065L13.7848 5.71775C13.7458 5.60063 13.736 5.47578 13.7562 5.35397L13.8496 4.79413L13.9947 4.94649C14.1404 5.09945 14.2455 5.28792 14.2988 5.49155C14.4937 6.23684 14.9661 7.91228 15.7163 9.78464ZM6.28707 12.3681C6.14752 12.2983 5.94961 12.2321 5.69693 12.1704C5.94694 11.9891 6.18543 11.8027 6.39886 11.6162L7.17149 11.4591C7.25908 11.6027 7.35144 11.7335 7.44806 11.85C7.66983 12.116 8.06523 12.5559 8.23276 12.7414C7.78827 12.706 6.75318 12.6015 6.28707 12.3681ZM6.99695 11.1424C7.01053 11.1695 7.02407 11.1967 7.03791 11.2231L6.84412 11.2625C6.9033 11.2231 6.95393 11.1827 6.99695 11.1424ZM7.59074 11.6151C7.44015 11.4206 7.30064 11.1866 7.17467 10.9179C7.20617 10.8605 7.22405 10.8111 7.23389 10.7761C7.42691 10.6038 8.39956 9.72881 9.1124 8.96418C9.07858 9.03411 9.0512 9.09337 9.03225 9.14086C8.97625 9.2808 8.98643 9.43179 9.06164 9.5774C9.13587 9.72112 9.27465 9.86007 9.46113 9.98552C9.24276 10.3069 8.52867 11.2681 7.59074 11.6151ZM9.29076 9.45908C9.24981 9.3797 9.24353 9.30693 9.27172 9.23658C9.30422 9.15522 9.36929 9.02499 9.45172 8.86004C9.56841 8.62663 9.71359 8.33622 9.84996 8.01762C9.85297 8.01104 9.86552 7.98087 9.86866 7.97249C9.91537 7.86199 9.96377 7.75549 10.0106 7.65247C10.1357 7.37711 10.2491 7.12693 10.3003 6.87417C10.4143 7.02073 10.5671 7.169 10.7685 7.28032C11.049 7.43539 11.3672 7.48614 11.7178 7.43332C11.6169 7.67233 11.5093 8.04341 11.5093 8.54058C11.5093 9.4531 12.021 10.3101 12.0428 10.3462C12.0664 10.3852 12.1085 10.4084 12.1531 10.4084C12.16 10.4084 12.1669 10.4079 12.1738 10.4068C12.2258 10.3983 12.2674 10.3592 12.2789 10.3078C12.2906 10.2556 12.5662 9.0231 12.5302 8.46133C12.504 8.05454 12.3069 7.56501 12.1902 7.30641C12.676 7.12156 13.0106 6.82273 13.1848 6.41666C13.4333 5.83731 13.281 5.2051 13.1658 4.95174C13.0137 4.61706 12.1399 3.6463 11.073 3.44323C10.9234 3.41469 10.7688 3.46124 10.6597 3.56761C10.5739 3.65129 10.4862 3.7397 10.3933 3.83322C10.2432 3.98455 10.0841 4.14477 9.91735 4.30044L9.91486 4.16441C9.91258 4.04992 9.93089 3.93705 9.9694 3.82871C10.3377 2.78596 10.6914 1.99979 10.9036 1.74179C11.8327 2.5629 12.5421 3.41504 12.6694 3.57083L12.716 3.83305C12.7429 3.98605 12.8166 4.12332 12.9291 4.22995L13.5793 4.84777L13.502 5.31151C13.4748 5.47479 13.4879 5.64223 13.5403 5.79923L13.598 5.97218C13.6652 6.17388 13.624 6.39599 13.4888 6.56013L13.306 6.78198C13.1852 6.92867 13.1435 7.1228 13.1949 7.30787C13.2396 7.46844 13.3556 7.59978 13.5039 7.67581L14.0526 7.95719C14.1202 8.2782 14.4343 9.79934 14.4098 10.2415C14.3874 10.645 14.4523 11.2543 14.6848 11.8051L11.6814 11.1122C11.592 10.9112 11.275 10.3323 10.5288 10.1519C9.92728 10.0067 9.42971 9.72821 9.29076 9.45908ZM8.7513 6.00742C7.99492 6.09037 7.7456 5.95052 7.66428 5.85828C7.63325 5.82309 7.62057 5.78754 7.61576 5.7584C7.71792 5.72969 7.81234 5.70369 7.90041 5.67945C8.53404 5.505 8.85208 5.41741 9.39537 5.05532C9.83367 4.76319 10.2282 4.36568 10.5763 4.01502C10.6685 3.92218 10.7555 3.83451 10.8399 3.7522C10.8886 3.70471 10.9573 3.68387 11.0241 3.69659C12.0098 3.8838 12.8112 4.79487 12.9311 5.05858C13.0107 5.23346 13.1688 5.80018 12.9479 6.3151C12.7949 6.67191 12.4868 6.93258 12.0324 7.08988C11.5951 7.24108 11.2132 7.22995 10.897 7.05674C10.5689 6.87697 10.3911 6.57238 10.3116 6.39818C10.3011 6.3751 10.2531 6.26078 10.2363 6.22094C10.2339 6.21531 10.2315 6.20989 10.2287 6.20443C10.1501 6.04679 10.0351 5.91188 9.89113 5.8141C9.69313 5.67954 9.48915 5.63338 9.28427 5.67726C9.1011 5.71641 8.92282 5.82708 8.7513 6.00742ZM11.9817 7.47295C12.0888 7.71896 12.2511 8.14058 12.2728 8.47796C12.2952 8.82562 12.1814 9.48538 12.1013 9.8948C11.9565 9.57684 11.7672 9.06153 11.7672 8.54063C11.7672 8.03704 11.8852 7.68036 11.9817 7.47295ZM8.76346 3.85067C8.84568 3.33007 9.88709 1.10003 10.3891 0.598044C10.3909 0.596282 10.3926 0.594434 10.3943 0.592543C10.5154 0.456215 10.5998 0.419339 10.6363 0.409325C10.8248 0.537702 11.8329 1.2854 13.372 3.53099C13.3794 3.54178 13.3884 3.55141 13.3987 3.55949C13.5306 3.66307 13.667 3.76527 13.8042 3.86317C13.968 3.98008 14.0661 4.17064 14.0666 4.3729L14.0672 4.64869L14.0142 4.59304C13.943 4.51834 13.8335 4.49621 13.7371 4.54043C13.7138 4.55113 13.6932 4.56596 13.6751 4.58324L13.1066 4.04295C13.0344 3.97453 12.9872 3.88651 12.9699 3.78818L12.9175 3.49296C12.9137 3.47177 12.9047 3.45183 12.8912 3.43498C12.8831 3.42488 12.0694 2.41174 10.984 1.46944C10.939 1.43033 10.873 1.42723 10.8245 1.46187C10.6784 1.56627 10.3414 2.00138 9.72622 3.74258C9.67731 3.88015 9.65402 4.02383 9.65699 4.1694L9.66356 4.52694C9.53046 4.64001 9.39327 4.74669 9.2523 4.84064C8.78224 5.15395 8.50198 5.24507 7.96831 5.39304C8.23074 5.00383 8.698 4.26502 8.76346 3.85067ZM6.44433 7.49792C6.44433 7.46676 6.43307 7.43668 6.41261 7.41321C6.21311 7.18426 6.14456 6.95892 6.20885 6.74352C6.32391 6.35791 6.84128 6.02852 7.36962 5.8374C7.38475 5.89727 7.41354 5.96096 7.464 6.02074C7.61533 6.20005 7.90848 6.29018 8.33823 6.29018C8.39934 6.29018 8.4639 6.2879 8.53051 6.28425C8.50305 6.32426 8.47576 6.36573 8.44877 6.40957C8.26856 6.702 8.1297 7.03495 8.03609 7.3992C7.98675 7.59131 7.8677 7.95233 7.625 8.21235C7.40843 8.44444 7.0178 8.99474 6.69494 9.46617C6.52328 8.70867 6.44433 7.93678 6.44433 7.49792ZM2.57896 12.8514C2.51445 12.7425 2.52159 12.544 2.59903 12.2922C2.73665 11.845 3.79543 11.7146 4.42511 11.6919C4.34852 11.7711 4.27103 11.8499 4.19354 11.9265C4.01114 11.9067 3.89557 11.8972 3.89024 11.8968C3.81946 11.8911 3.75705 11.9438 3.75125 12.0148C3.74549 12.0858 3.79831 12.148 3.86931 12.1538C3.86996 12.1538 3.89824 12.1562 3.94796 12.1608C3.77613 12.3185 3.61114 12.4548 3.46673 12.5467C3.26946 12.6722 2.97948 12.8013 2.6531 12.9221C2.63243 12.912 2.60277 12.8917 2.57896 12.8514ZM2.3991 13.5783C2.1824 13.5725 1.87257 13.5616 1.52122 13.5413C2.28018 13.3473 3.15187 13.0527 3.60512 12.7643C4.05489 12.4781 4.66399 11.8214 5.10877 11.3418C5.30209 11.1333 5.4691 10.9533 5.57139 10.8595C5.69702 10.7443 5.85424 10.6397 6.03853 10.5486C6.27203 10.4332 6.47068 10.2598 6.61298 10.0471C6.94207 9.55535 7.5356 8.68594 7.81337 8.38827C8.081 8.10156 8.21797 7.72704 8.28571 7.46337C8.37287 7.12414 8.5015 6.81512 8.66813 6.54483C8.88745 6.18909 9.11911 5.97626 9.33813 5.92937C9.47308 5.90066 9.60653 5.93251 9.74608 6.02732C9.90102 6.13257 10.0128 6.29598 10.0608 6.48749C10.0645 6.50219 10.0673 6.51388 10.0682 6.51964C10.0951 6.84275 9.94709 7.16853 9.77565 7.5458C9.72773 7.65135 9.61044 7.92152 9.60894 7.92509C9.34672 8.48372 7.6724 10.0421 7.03181 10.6106C7.00791 10.6318 6.99304 10.6588 6.98952 10.6905C6.98797 10.7009 6.9471 10.9459 6.54662 11.1349C6.53321 11.1412 6.52096 11.1498 6.51048 11.1603C6.18895 11.4818 5.76626 11.8116 5.31984 12.1222C5.31425 12.1254 5.30905 12.1291 5.30398 12.1331C4.58624 12.6312 3.80966 13.0788 3.29447 13.3615C3.021 13.5117 2.71151 13.5866 2.3991 13.5783ZM4.35497 13.4701C4.3517 13.4701 4.34844 13.4701 4.34513 13.4701C4.14648 13.4701 3.9505 13.4454 3.75933 13.3976C4.23923 13.1255 4.84153 12.7652 5.41327 12.3708C5.75147 12.4411 6.00384 12.5165 6.16407 12.5951C6.02056 12.7742 5.80034 13.1052 5.7822 13.4643L4.35497 13.4701ZM10.6017 13.4089C10.5966 13.4197 10.5811 13.4451 10.5451 13.4453L6.04046 13.4633C6.06255 13.1393 6.3053 12.8241 6.41511 12.6971C7.14084 12.9406 8.37025 13.0104 8.42848 13.0136C8.45724 13.0153 8.48491 13.0074 8.50834 12.9913C8.69972 12.8603 9.03182 12.7123 9.13174 12.7873C9.15018 12.8011 9.17197 12.8097 9.19484 12.8123C9.36387 12.8312 9.69029 12.8058 9.93428 12.7811C10.0397 12.7706 10.1429 12.8123 10.2112 12.8929L10.5925 13.3422C10.6158 13.3697 10.6066 13.3979 10.6017 13.4089ZM16.6787 13.0234C16.6183 13.2044 16.5123 13.3535 16.3626 13.4689C16.2611 13.5472 16.135 13.587 16.0069 13.589C16.0062 13.589 16.0056 13.589 16.0049 13.5891C15.3572 13.5997 13.8457 13.6244 10.8372 13.2512C10.825 13.2244 10.8091 13.1988 10.7892 13.1754L10.4078 12.7261C10.2846 12.5808 10.0982 12.5051 9.90841 12.5246C9.60653 12.555 9.37608 12.5668 9.25243 12.5586C9.11851 12.4817 8.9279 12.4962 8.68498 12.6018C8.6261 12.6274 8.57104 12.6554 8.52347 12.6815C8.51676 12.6729 8.06179 12.1699 7.76429 11.8241C8.75284 11.4199 9.46822 10.4408 9.68415 10.1172C9.90716 10.233 10.1737 10.3315 10.4682 10.4026C11.217 10.5836 11.4557 11.2376 11.4653 11.265C11.4798 11.307 11.5149 11.3385 11.5581 11.3484L14.8324 12.1038C14.8409 12.1187 14.8488 12.134 14.8577 12.1487L15.2015 12.7218C15.2425 12.7901 15.3368 12.8067 15.3991 12.7506C15.4455 12.7089 15.4521 12.6382 15.42 12.5847L15.0788 12.016C14.7515 11.4706 14.652 10.7813 14.6646 10.3249C14.9201 10.1844 15.4779 9.94555 15.8331 10.0719C16.0159 10.516 16.214 10.9689 16.4275 11.4211C16.4285 11.4232 16.4296 11.4252 16.4306 11.4272C16.5973 11.7369 16.8638 12.4689 16.6787 13.0234Z" fill="#4E5154"/>
<path d="M16.6593 11.3082C15.5004 8.85338 14.797 6.3773 14.5483 5.42635C14.5033 5.25448 14.4272 5.09202 14.3257 4.94649L14.3245 4.37239C14.3238 4.08718 14.1853 3.81839 13.954 3.65331C13.8254 3.56151 13.6974 3.46592 13.5735 3.36888C11.8363 0.838123 10.7805 0.193143 10.7363 0.166883C10.7237 0.159447 10.71 0.154161 10.6957 0.151324C10.6596 0.143932 10.4675 0.123517 10.204 0.418479C9.66966 0.957002 8.59838 3.24261 8.50872 3.81053C8.4443 4.21861 7.81522 5.15086 7.56208 5.50573C7.55499 5.50771 7.54815 5.5096 7.54102 5.51162C6.91976 5.68633 6.13338 6.09454 5.96173 6.66985C5.87426 6.96297 5.94999 7.25741 6.18676 7.54558C6.19192 7.95379 6.26245 8.82244 6.49883 9.75477C6.46341 9.80729 6.42989 9.85723 6.39873 9.90378C6.28144 10.079 6.11744 10.2221 5.92429 10.3175C5.71812 10.4194 5.54079 10.5378 5.39716 10.6695C5.28713 10.7704 5.11689 10.9539 4.91971 11.1665C4.84226 11.25 4.75957 11.3391 4.67383 11.4306C4.524 11.4296 4.109 11.4343 3.66912 11.5005C2.90637 11.6152 2.46344 11.8561 2.35255 12.2165C2.24816 12.5557 2.25215 12.8176 2.36446 12.995C2.3697 13.0033 2.37529 13.0107 2.38079 13.0184C1.97318 13.156 1.53574 13.2775 1.16376 13.3628C1.06104 13.3864 0.992493 13.4798 1.00066 13.5848C1.00887 13.69 1.09121 13.7717 1.19643 13.779C1.6765 13.8127 2.42819 13.8369 2.4462 13.8369C2.78569 13.8369 3.12079 13.7512 3.41868 13.5877C3.42788 13.5827 3.43759 13.5773 3.44692 13.5722C3.73599 13.6752 4.0377 13.7281 4.34513 13.7281C4.34878 13.7281 10.5462 13.7032 10.5462 13.7032C10.6722 13.7027 10.7832 13.6313 10.8359 13.5168C10.8367 13.515 10.8372 13.513 10.838 13.5112C13.2423 13.8083 14.6933 13.8518 15.5103 13.8518C15.7144 13.8518 15.879 13.8491 16.0091 13.847C16.0238 13.8467 16.0382 13.8465 16.0519 13.8463C16.1882 13.8441 16.3227 13.8067 16.437 13.7324C16.6717 13.58 16.8349 13.3698 16.9232 13.1052C17.1846 12.3222 16.6981 11.3811 16.6593 11.3082ZM15.7163 9.78464C15.3349 9.74549 14.9045 9.91835 14.6625 10.0365C14.6147 9.34789 14.3067 7.91159 14.292 7.84338C14.2839 7.8056 14.2592 7.77346 14.2248 7.75579L13.607 7.439C13.5064 7.38742 13.44 7.28806 13.4319 7.17249C13.426 7.08739 13.4574 7.00379 13.5116 6.93795L13.6878 6.72413C13.8805 6.48999 13.9384 6.17843 13.8425 5.89065L13.7848 5.71775C13.7458 5.60063 13.736 5.47578 13.7562 5.35397L13.8496 4.79413L13.9947 4.94649C14.1404 5.09945 14.2455 5.28792 14.2988 5.49155C14.4937 6.23684 14.9661 7.91228 15.7163 9.78464ZM6.28707 12.3681C6.14752 12.2983 5.94961 12.2321 5.69693 12.1704C5.94694 11.9891 6.18543 11.8027 6.39886 11.6162L7.17149 11.4591C7.25908 11.6027 7.35144 11.7335 7.44806 11.85C7.66983 12.116 8.06523 12.5559 8.23276 12.7414C7.78827 12.706 6.75318 12.6015 6.28707 12.3681ZM6.99695 11.1424C7.01053 11.1695 7.02407 11.1967 7.03791 11.2231L6.84412 11.2625C6.9033 11.2231 6.95393 11.1827 6.99695 11.1424ZM7.59074 11.6151C7.44015 11.4206 7.30064 11.1866 7.17467 10.9179C7.20617 10.8605 7.22405 10.8111 7.23389 10.7761C7.42691 10.6038 8.39956 9.72881 9.1124 8.96418C9.07858 9.03411 9.0512 9.09337 9.03225 9.14086C8.97625 9.2808 8.98643 9.43179 9.06164 9.5774C9.13587 9.72112 9.27465 9.86007 9.46113 9.98552C9.24276 10.3069 8.52867 11.2681 7.59074 11.6151ZM9.29076 9.45908C9.24981 9.3797 9.24353 9.30693 9.27172 9.23658C9.30422 9.15522 9.36929 9.02499 9.45172 8.86004C9.56841 8.62663 9.71359 8.33622 9.84996 8.01762C9.85297 8.01104 9.86552 7.98087 9.86866 7.97249C9.91537 7.86199 9.96377 7.75549 10.0106 7.65247C10.1357 7.37711 10.2491 7.12693 10.3003 6.87417C10.4143 7.02073 10.5671 7.169 10.7685 7.28032C11.049 7.43539 11.3672 7.48614 11.7178 7.43332C11.6169 7.67233 11.5093 8.04341 11.5093 8.54058C11.5093 9.4531 12.021 10.3101 12.0428 10.3462C12.0664 10.3852 12.1085 10.4084 12.1531 10.4084C12.16 10.4084 12.1669 10.4079 12.1738 10.4068C12.2258 10.3983 12.2674 10.3592 12.2789 10.3078C12.2906 10.2556 12.5662 9.0231 12.5302 8.46133C12.504 8.05454 12.3069 7.56501 12.1902 7.30641C12.676 7.12156 13.0106 6.82273 13.1848 6.41666C13.4333 5.83731 13.281 5.2051 13.1658 4.95174C13.0137 4.61706 12.1399 3.6463 11.073 3.44323C10.9234 3.41469 10.7688 3.46124 10.6597 3.56761C10.5739 3.65129 10.4862 3.7397 10.3933 3.83322C10.2432 3.98455 10.0841 4.14477 9.91735 4.30044L9.91486 4.16441C9.91258 4.04992 9.93089 3.93705 9.9694 3.82871C10.3377 2.78596 10.6914 1.99979 10.9036 1.74179C11.8327 2.5629 12.5421 3.41504 12.6694 3.57083L12.716 3.83305C12.7429 3.98605 12.8166 4.12332 12.9291 4.22995L13.5793 4.84777L13.502 5.31151C13.4748 5.47479 13.4879 5.64223 13.5403 5.79923L13.598 5.97218C13.6652 6.17388 13.624 6.39599 13.4888 6.56013L13.306 6.78198C13.1852 6.92867 13.1435 7.1228 13.1949 7.30787C13.2396 7.46844 13.3556 7.59978 13.5039 7.67581L14.0526 7.95719C14.1202 8.2782 14.4343 9.79934 14.4098 10.2415C14.3874 10.645 14.4523 11.2543 14.6848 11.8051L11.6814 11.1122C11.592 10.9112 11.275 10.3323 10.5288 10.1519C9.92728 10.0067 9.42971 9.72821 9.29076 9.45908ZM8.7513 6.00742C7.99492 6.09037 7.7456 5.95052 7.66428 5.85828C7.63325 5.82309 7.62057 5.78754 7.61576 5.7584C7.71792 5.72969 7.81234 5.70369 7.90041 5.67945C8.53404 5.505 8.85208 5.41741 9.39537 5.05532C9.83367 4.76319 10.2282 4.36568 10.5763 4.01502C10.6685 3.92218 10.7555 3.83451 10.8399 3.7522C10.8886 3.70471 10.9573 3.68387 11.0241 3.69659C12.0098 3.8838 12.8112 4.79487 12.9311 5.05858C13.0107 5.23346 13.1688 5.80018 12.9479 6.3151C12.7949 6.67191 12.4868 6.93258 12.0324 7.08988C11.5951 7.24108 11.2132 7.22995 10.897 7.05674C10.5689 6.87697 10.3911 6.57238 10.3116 6.39818C10.3011 6.3751 10.2531 6.26078 10.2363 6.22094C10.2339 6.21531 10.2315 6.20989 10.2287 6.20443C10.1501 6.04679 10.0351 5.91188 9.89113 5.8141C9.69313 5.67954 9.48915 5.63338 9.28427 5.67726C9.1011 5.71641 8.92282 5.82708 8.7513 6.00742ZM11.9817 7.47295C12.0888 7.71896 12.2511 8.14058 12.2728 8.47796C12.2952 8.82562 12.1814 9.48538 12.1013 9.8948C11.9565 9.57684 11.7672 9.06153 11.7672 8.54063C11.7672 8.03704 11.8852 7.68036 11.9817 7.47295ZM8.76346 3.85067C8.84568 3.33007 9.88709 1.10003 10.3891 0.598044C10.3909 0.596282 10.3926 0.594434 10.3943 0.592543C10.5154 0.456215 10.5998 0.419339 10.6363 0.409325C10.8248 0.537702 11.8329 1.2854 13.372 3.53099C13.3794 3.54178 13.3884 3.55141 13.3987 3.55949C13.5306 3.66307 13.667 3.76527 13.8042 3.86317C13.968 3.98008 14.0661 4.17064 14.0666 4.3729L14.0672 4.64869L14.0142 4.59304C13.943 4.51834 13.8335 4.49621 13.7371 4.54043C13.7138 4.55113 13.6932 4.56596 13.6751 4.58324L13.1066 4.04295C13.0344 3.97453 12.9872 3.88651 12.9699 3.78818L12.9175 3.49296C12.9137 3.47177 12.9047 3.45183 12.8912 3.43498C12.8831 3.42488 12.0694 2.41174 10.984 1.46944C10.939 1.43033 10.873 1.42723 10.8245 1.46187C10.6784 1.56627 10.3414 2.00138 9.72622 3.74258C9.67731 3.88015 9.65402 4.02383 9.65699 4.1694L9.66356 4.52694C9.53046 4.64001 9.39327 4.74669 9.2523 4.84064C8.78224 5.15395 8.50198 5.24507 7.96831 5.39304C8.23074 5.00383 8.698 4.26502 8.76346 3.85067ZM6.44433 7.49792C6.44433 7.46676 6.43307 7.43668 6.41261 7.41321C6.21311 7.18426 6.14456 6.95892 6.20885 6.74352C6.32391 6.35791 6.84128 6.02852 7.36962 5.8374C7.38475 5.89727 7.41354 5.96096 7.464 6.02074C7.61533 6.20005 7.90848 6.29018 8.33823 6.29018C8.39934 6.29018 8.4639 6.2879 8.53051 6.28425C8.50305 6.32426 8.47576 6.36573 8.44877 6.40957C8.26856 6.702 8.1297 7.03495 8.03609 7.3992C7.98675 7.59131 7.8677 7.95233 7.625 8.21235C7.40843 8.44444 7.0178 8.99474 6.69494 9.46617C6.52328 8.70867 6.44433 7.93678 6.44433 7.49792ZM2.57896 12.8514C2.51445 12.7425 2.52159 12.544 2.59903 12.2922C2.73665 11.845 3.79543 11.7146 4.42511 11.6919C4.34852 11.7711 4.27103 11.8499 4.19354 11.9265C4.01114 11.9067 3.89557 11.8972 3.89024 11.8968C3.81946 11.8911 3.75705 11.9438 3.75125 12.0148C3.74549 12.0858 3.79831 12.148 3.86931 12.1538C3.86996 12.1538 3.89824 12.1562 3.94796 12.1608C3.77613 12.3185 3.61114 12.4548 3.46673 12.5467C3.26946 12.6722 2.97948 12.8013 2.6531 12.9221C2.63243 12.912 2.60277 12.8917 2.57896 12.8514ZM2.3991 13.5783C2.1824 13.5725 1.87257 13.5616 1.52122 13.5413C2.28018 13.3473 3.15187 13.0527 3.60512 12.7643C4.05489 12.4781 4.66399 11.8214 5.10877 11.3418C5.30209 11.1333 5.4691 10.9533 5.57139 10.8595C5.69702 10.7443 5.85424 10.6397 6.03853 10.5486C6.27203 10.4332 6.47068 10.2598 6.61298 10.0471C6.94207 9.55535 7.5356 8.68594 7.81337 8.38827C8.081 8.10156 8.21797 7.72704 8.28571 7.46337C8.37287 7.12414 8.5015 6.81512 8.66813 6.54483C8.88745 6.18909 9.11911 5.97626 9.33813 5.92937C9.47308 5.90066 9.60653 5.93251 9.74608 6.02732C9.90102 6.13257 10.0128 6.29598 10.0608 6.48749C10.0645 6.50219 10.0673 6.51388 10.0682 6.51964C10.0951 6.84275 9.94709 7.16853 9.77565 7.5458C9.72773 7.65135 9.61044 7.92152 9.60894 7.92509C9.34672 8.48372 7.6724 10.0421 7.03181 10.6106C7.00791 10.6318 6.99304 10.6588 6.98952 10.6905C6.98797 10.7009 6.9471 10.9459 6.54662 11.1349C6.53321 11.1412 6.52096 11.1498 6.51048 11.1603C6.18895 11.4818 5.76626 11.8116 5.31984 12.1222C5.31425 12.1254 5.30905 12.1291 5.30398 12.1331C4.58624 12.6312 3.80966 13.0788 3.29447 13.3615C3.021 13.5117 2.71151 13.5866 2.3991 13.5783ZM4.35497 13.4701C4.3517 13.4701 4.34844 13.4701 4.34513 13.4701C4.14648 13.4701 3.9505 13.4454 3.75933 13.3976C4.23923 13.1255 4.84153 12.7652 5.41327 12.3708C5.75147 12.4411 6.00384 12.5165 6.16407 12.5951C6.02056 12.7742 5.80034 13.1052 5.7822 13.4643L4.35497 13.4701ZM10.6017 13.4089C10.5966 13.4197 10.5811 13.4451 10.5451 13.4453L6.04046 13.4633C6.06255 13.1393 6.3053 12.8241 6.41511 12.6971C7.14084 12.9406 8.37025 13.0104 8.42848 13.0136C8.45724 13.0153 8.48491 13.0074 8.50834 12.9913C8.69972 12.8603 9.03182 12.7123 9.13174 12.7873C9.15018 12.8011 9.17197 12.8097 9.19484 12.8123C9.36387 12.8312 9.69029 12.8058 9.93428 12.7811C10.0397 12.7706 10.1429 12.8123 10.2112 12.8929L10.5925 13.3422C10.6158 13.3697 10.6066 13.3979 10.6017 13.4089ZM16.6787 13.0234C16.6183 13.2044 16.5123 13.3535 16.3626 13.4689C16.2611 13.5472 16.135 13.587 16.0069 13.589C16.0062 13.589 16.0056 13.589 16.0049 13.5891C15.3572 13.5997 13.8457 13.6244 10.8372 13.2512C10.825 13.2244 10.8091 13.1988 10.7892 13.1754L10.4078 12.7261C10.2846 12.5808 10.0982 12.5051 9.90841 12.5246C9.60653 12.555 9.37608 12.5668 9.25243 12.5586C9.11851 12.4817 8.9279 12.4962 8.68498 12.6018C8.6261 12.6274 8.57104 12.6554 8.52347 12.6815C8.51676 12.6729 8.06179 12.1699 7.76429 11.8241C8.75284 11.4199 9.46822 10.4408 9.68415 10.1172C9.90716 10.233 10.1737 10.3315 10.4682 10.4026C11.217 10.5836 11.4557 11.2376 11.4653 11.265C11.4798 11.307 11.5149 11.3385 11.5581 11.3484L14.8324 12.1038C14.8409 12.1187 14.8488 12.134 14.8577 12.1487L15.2015 12.7218C15.2425 12.7901 15.3368 12.8067 15.3991 12.7506C15.4455 12.7089 15.4521 12.6382 15.42 12.5847L15.0788 12.016C14.7515 11.4706 14.652 10.7813 14.6646 10.3249C14.9201 10.1844 15.4779 9.94555 15.8331 10.0719C16.0159 10.516 16.214 10.9689 16.4275 11.4211C16.4285 11.4232 16.4296 11.4252 16.4306 11.4272C16.5973 11.7369 16.8638 12.4689 16.6787 13.0234Z" stroke="#4E5154" stroke-width="0.2" mask="url(#path-1-outside-1_1633_9384)"/>
</g>
</svg>
