<svg width="24" height="20" viewBox="0 0 24 20" fill="none" xmlns="http://www.w3.org/2000/svg">
<g id="Group 1321316549 1" clip-path="url(#clip0_1634_9468)">
<path id="Vector" d="M7.35294 7.35303H3.11765L1 12.6471H23.2353L21.1176 7.35303H17.9412" stroke="#4E5154" stroke-width="0.6" stroke-linecap="round" stroke-linejoin="round"/>
<path id="Vector_2" d="M9.47058 7.35303H11.5882" stroke="#4E5154" stroke-width="0.6" stroke-linecap="round"/>
<path id="Vector_3" d="M13.7059 7.35303H15.8236" stroke="#4E5154" stroke-width="0.6" stroke-linecap="round"/>
<path id="Vector_4" d="M14.7646 1C16.1764 2.76471 18.3646 7.24706 15.8235 11.0588" stroke="#4E5154" stroke-width="0.6" stroke-linecap="round"/>
<path id="Vector_5" d="M10.5294 1C11.9412 2.76471 14.1294 7.24706 11.5882 11.0588" stroke="#4E5154" stroke-width="0.6" stroke-linecap="round"/>
<path id="Vector_6" d="M6.29407 1C7.70583 2.76471 9.89407 7.24706 7.35289 11.0588" stroke="#4E5154" stroke-width="0.6" stroke-linecap="round"/>
<path id="Vector_7" d="M15.2941 13.7061C15.2941 14.7649 15.7176 17.3061 17.4117 19.0002" stroke="#4E5154" stroke-width="0.6" stroke-linecap="round"/>
<path id="Vector_8" d="M11.0588 13.7061C11.0588 14.7649 11.4824 17.3061 13.1765 19.0002" stroke="#4E5154" stroke-width="0.6" stroke-linecap="round"/>
<path id="Vector_9" d="M6.82349 13.7061C6.82349 14.7649 7.24702 17.3061 8.94113 19.0002" stroke="#4E5154" stroke-width="0.6" stroke-linecap="round"/>
</g>
<defs>
<clipPath id="clip0_1634_9468">
<rect width="24" height="20" fill="white"/>
</clipPath>
</defs>
</svg>
