<svg width="14" height="18" viewBox="0 0 14 18" fill="none" xmlns="http://www.w3.org/2000/svg">
<g id="Group 1321316550 1" clip-path="url(#clip0_1634_9459)">
<path id="Vector" d="M2 11.5V1H10.5M10.5 1L13.5 4M10.5 1V4H13.5M13.5 4V17H2V15.5" stroke="#4E5154" stroke-width="0.5"/>
<path id="Vector_2" d="M4 3.5H7M4 4.5H6M4 6.5H11.5M4 7.5H11.5M4 8.5H11.5M4 10H11.5M8 12.5H11.5M9.5 13.5H11.5" stroke="#4E5154" stroke-width="0.3"/>
<path id="Vector_3" d="M2.5 15.75C3.74264 15.75 4.75 14.7426 4.75 13.5C4.75 12.2574 3.74264 11.25 2.5 11.25C1.25736 11.25 0.25 12.2574 0.25 13.5C0.25 14.7426 1.25736 15.75 2.5 15.75Z" stroke="#4E5154" stroke-width="0.5"/>
<path id="Vector_4" d="M2.5 14.75C3.19036 14.75 3.75 14.1904 3.75 13.5C3.75 12.8096 3.19036 12.25 2.5 12.25C1.80964 12.25 1.25 12.8096 1.25 13.5C1.25 14.1904 1.80964 14.75 2.5 14.75Z" stroke="#4E5154" stroke-width="0.5"/>
</g>
<defs>
<clipPath id="clip0_1634_9459">
<rect width="14" height="18" fill="white"/>
</clipPath>
</defs>
</svg>
