<svg width="23" height="21" viewBox="0 0 23 21" fill="none" xmlns="http://www.w3.org/2000/svg">
<g id="Group 1321315969">
<path id="Vector" d="M22.7141 7.66941C22.6515 7.60381 22.6148 7.54388 22.563 7.46052C22.536 7.41835 22.5069 7.37282 22.4745 7.32394C22.5641 7.2173 22.6396 7.09399 22.6968 6.95853L22.9256 6.42207L22.3623 6.33872C22.2674 6.32431 22.1141 6.28322 21.935 6.23434C21.5897 6.14102 21.1462 6.0211 20.6628 5.96887C20.8279 5.89449 20.9682 5.76008 21.0663 5.57792L21.1592 5.40577C21.1592 5.40577 21.1343 5.16472 21.0437 5.08925C21.0783 5.01477 21.1052 4.93259 21.1236 4.84263L21.2002 4.45833L20.8397 4.33173C20.7837 4.31171 20.7276 4.29729 20.6725 4.28842C20.652 4.21841 20.6218 4.144 20.5808 4.06516L20.3671 3.66196L19.9819 3.8941C19.8859 3.95188 19.805 4.01849 19.7391 4.09293C19.6819 4.08179 19.6204 4.07626 19.5557 4.07626C19.5557 4.07626 19.3356 4.0507 19.0928 4.14178L18.782 3.80969L18.414 3.4054C18.0698 3.02663 17.6037 2.91448 17.1289 3.10108C16.9476 2.91448 16.6649 2.76006 16.2257 2.76006C16.0768 2.76006 15.9462 2.77895 15.8696 2.78896C15.8696 2.78896 15.2654 2.90225 14.9254 3.23434L14.5133 3.03221C14.237 3.47981 13.7644 3.622 13.7644 3.622C13.732 3.49091 13.677 3.36874 13.5982 3.25655L13.6252 3.09882C13.6252 3.09438 13.718 2.56014 14.0007 2.10696L14.4928 1.31838L13.7957 1.39945C13.7979 1.32839 13.7946 1.24397 13.7849 1.14401L13.7223 0.530888L13.1763 0.785226C13.1159 0.813005 13.0652 0.840783 13.0177 0.866338L12.9098 0.629758L12.6595 0.763023C12.6346 0.699723 12.6022 0.627539 12.558 0.544207L12.2699 0L11.861 0.454264C11.8189 0.50089 11.7833 0.544207 11.753 0.585305L11.5049 0.330966L11.2546 0.586441C11.2232 0.545343 11.1887 0.502021 11.1466 0.455348L10.7333 0L10.4442 0.546427C10.3999 0.629758 10.3686 0.700811 10.3438 0.76416L10.0946 0.630847L9.98662 0.867426C9.93915 0.841867 9.88846 0.814137 9.828 0.785226L9.27989 0.53202L9.21943 1.14732C9.20969 1.2462 9.20648 1.32948 9.20864 1.40058L8.51049 1.31951L9.0036 2.10809C9.28742 2.56014 9.37804 3.09438 9.37804 3.09882L9.40394 3.25655C9.3252 3.36983 9.2691 3.49204 9.23774 3.62309C9.23774 3.62309 8.79104 3.42647 8.49217 3.03221L8.07131 3.23879C7.59114 2.90555 7.29333 2.77564 6.77538 2.76006C6.3362 2.74787 6.05349 2.91448 5.8722 3.10108C5.39634 2.91557 4.93127 3.02776 4.58815 3.40649C4.58815 3.40649 4.36264 3.65861 4.22018 3.81082C4.07772 3.96406 3.86732 4.09071 3.86732 4.09071C3.86732 4.09071 3.56844 4.02184 3.2609 4.09402C3.19511 4.01962 3.11307 3.95296 3.01597 3.8941L2.62964 3.66196L2.41708 4.06738C2.37608 4.14513 2.34693 4.21841 2.32751 4.28842C2.27251 4.29729 2.2164 4.31171 2.1603 4.33173L1.80202 4.46055L1.87649 4.84263C1.89481 4.93486 1.9207 5.01699 1.95628 5.09147C1.93581 5.13255 1.91749 5.17586 1.90238 5.22139L1.84196 5.40686L1.93365 5.57901C2.03079 5.76008 2.16999 5.89557 2.33614 5.97C1.85165 6.02224 1.40927 6.14215 1.06287 6.23547C0.884839 6.28322 0.731603 6.3254 0.636639 6.33985L0.0712239 6.42429L0.199616 6.72419L0.302157 6.96297C0.360384 7.09621 0.437023 7.21952 0.525513 7.32616C0.492038 7.37504 0.349595 7.60495 0.285949 7.6705L0 7.96926L0.274098 8.28026C0.308631 8.318 0.616161 8.65015 1.11357 8.65123C1.24955 8.65123 1.38443 8.62682 1.51821 8.57794C1.65094 8.79122 1.8085 9.00776 1.95197 9.11436C1.68762 9.43428 1.38659 9.71198 0.958221 9.9219L0.599953 10.0974L0.754242 10.5183C0.854626 10.7727 1.04993 11.0515 1.42759 11.1581C1.34665 11.4069 1.30781 11.6423 1.27328 11.8523C1.19237 12.351 1.15784 12.5576 0.731603 12.712L0.348537 12.8497L0.458609 13.2518C0.547095 13.5794 0.679807 13.796 0.823308 13.9393L0.568678 14.2281C0.568678 14.2281 1.17295 14.6946 1.7653 14.7512C1.77397 14.7523 2.27894 14.7856 2.50555 14.488C2.59622 14.8256 2.73969 15.1366 2.8703 15.4187C3.13786 15.9985 3.28032 16.3418 3.10118 16.6549L2.69653 17.3614L3.49182 17.3269C3.83927 17.3125 4.16192 17.2903 4.44137 17.2192C4.44137 17.2347 4.44032 17.2492 4.43922 17.2636L4.37448 17.8701L5.07153 17.719C5.14494 17.6968 5.21399 17.6668 5.27656 17.6324C5.70816 18.1522 6.44194 18.5576 7.43037 18.5576H7.48757L6.35131 19.0374L7.17892 19.4806C7.72387 19.7727 8.32923 20.017 9.01981 20.2248L8.92377 20.5657L9.3392 20.6912C9.57876 20.7634 10.4453 21 11.5005 21C12.5559 21 13.4213 20.7634 13.6619 20.6912L14.0763 20.5657L13.9802 20.2259C14.6719 20.0182 15.2773 19.7738 15.8222 19.4817L16.6498 19.0385L15.5125 18.5587H15.5697C16.5581 18.5587 17.2907 18.1533 17.7224 17.6335C17.785 17.6679 17.854 17.6979 17.9274 17.7201L18.6244 17.8712L18.5608 17.2659C18.5597 17.2514 18.5586 17.2359 18.5586 17.2203C18.837 17.2914 19.1608 17.3125 19.5071 17.328L20.3024 17.3624L19.8999 16.6571C19.7197 16.344 19.8632 16.0008 20.1298 15.421C20.2603 15.1389 20.4038 14.8278 20.4945 14.4902C20.6477 14.6101 20.8128 14.6824 20.9768 14.7201C20.9768 14.7201 21.1042 14.759 21.2261 14.7623C21.5778 14.7734 21.7537 14.6702 21.9954 14.5135L22.4346 14.2292L22.1778 13.9404C22.3213 13.7982 22.454 13.5817 22.5425 13.2551L22.6537 12.8519L22.2695 12.7142C21.8422 12.5598 21.8087 12.3532 21.7278 11.8545C21.6933 11.6446 21.6555 11.408 21.5735 11.1603C21.9512 11.0526 22.1454 10.7738 22.2458 10.5205L22.399 10.0985L22.0407 9.92299C21.6123 9.71306 21.3113 9.43536 21.0459 9.11549C21.1904 9.00889 21.348 8.7923 21.4818 8.57907C21.6145 8.6279 21.7494 8.65123 21.8865 8.65237C22.3839 8.65237 22.6925 8.32026 22.726 8.28248L23 7.97148L22.7141 7.66941Z" fill="white"/>
<path id="Vector_2" fill-rule="evenodd" clip-rule="evenodd" d="M8.18371 13.3384V9.9272C8.18371 9.60958 8.10004 9.29195 8 9H10.4157C10.6372 9.33332 11.0392 9.55698 11.5005 9.55698C11.9598 9.55698 12.3619 9.33332 12.5844 9H15C14.8979 9.29304 14.8153 9.60958 14.8153 9.9272V13.3384H8.18371ZM11.4995 18C11.1617 17.6321 10.9208 17.5918 10.0105 17.5918C8.9226 17.5918 8.18371 16.8927 8.18371 15.7755V13.5386H14.8143V15.7755C14.8143 16.8927 14.0764 17.5918 12.9864 17.5918C12.0771 17.5907 11.8363 17.6321 11.4995 18Z" fill="#FFDD2D"/>
<path id="Vector_3" d="M8.54144 18V18.8852L8 19.1948C8.45752 19.4899 9.02561 19.7834 9.69294 20L10 18.5799C9.34495 18.3895 8.88843 18.1904 8.54144 18Z" fill="white"/>
<path id="Vector_4" d="M12 19.0913C11.255 19.0913 10.6281 19.0388 10.3778 19L10 19.8286C10.5935 19.9273 11.2884 20 12 20C12.7091 20 13.404 19.9281 14 19.8286L13.621 19C13.3707 19.0396 12.7461 19.0913 12 19.0913Z" fill="white"/>
<path id="Vector_5" d="M14.4586 18C14.1106 18.1902 13.6551 18.3878 13 18.581L13.3081 20C13.9765 19.7836 14.5425 19.4902 15 19.1953L14.4596 18.8859V18H14.4586Z" fill="white"/>
<path id="Vector_6" d="M6.91712 7.6766C7.80408 7.19007 9.97209 6.11907 8.50242 4.9643C8.30212 4.80755 8.08149 4.66608 7.89614 4.49087C7.66695 4.67043 7.98187 5.1167 8.06112 5.27997C8.06112 5.27997 7.57157 5.33 7.45485 5.33C6.69859 5.32676 5.90592 4.87179 6.30761 4C6.0066 4.0631 5.97018 4.357 5.87812 4.60841C5.68529 4.4756 5.35001 4.19044 5.09187 4.23072C5.30179 4.91316 6.18552 5.52808 6.87104 5.66742C6.178 6.05053 4.89262 6.33566 4.21671 5.51068C3.74219 6.44344 4.40307 6.83307 5.05117 7.32178C2.58425 8.46567 2.94847 9.74887 1.32995 10.7589C1.53987 10.8591 2.47606 10.6577 2.55964 10.6457C2.20826 11.1083 2.04438 11.3042 1.94156 11.5295C1.84299 11.7406 1.7991 11.979 1.70161 12.4927C1.62555 12.8987 1.48628 13.3036 1 13.5724C1.19068 13.9229 1.61379 13.6486 1.79053 13.6018C1.76697 13.6388 1.70695 14.0611 1.54844 14.2646C2.37967 14.2102 1.99511 12.4296 2.82634 12.8584C3.06091 12.9782 3.13164 13.259 3.0234 13.4886C2.47711 14.6336 3.71863 15.6426 3.6511 16.6461C3.95644 16.6439 4.27245 16.6351 4.47165 16.2161C4.57556 16.4251 4.73621 16.719 4.82618 17.002L5.07474 16.572C5.22787 17.2838 5.88131 17.9413 6.76394 18C6.34297 17.323 6.84752 16.399 5.82457 15.4162C5.95199 15.3117 6.24658 15.1103 6.35154 14.9732C5.09616 15.1234 3.78608 14.1145 4.3806 13.6356C4.76944 13.3232 4.93975 13.9719 5.53959 13.863L5.30502 13.6573C5.38747 13.5746 5.48176 13.4669 5.5792 13.3852C5.3243 13.3536 5.0458 13.1882 5.0458 13.1882L5.19788 12.9324C3.7272 12.9303 3.68969 11.7875 4.2874 11.7417C4.56805 11.7211 4.93118 12.2468 5.83633 12.1368C5.72062 11.9954 5.67458 11.781 5.6199 11.6231C5.83847 11.6025 6.09555 11.6046 6.30228 11.5023C5.85989 11.4446 5.74846 11.2933 5.37999 11.0103L5.80739 10.8515C5.18717 10.5369 5.22468 9.98943 5.2054 9.41912C5.52998 9.6085 5.9113 9.90233 6.31832 9.76627C6.41475 9.73364 6.47687 9.68792 6.47901 9.58559C5.89844 9.34943 5.52569 8.44063 6.91712 7.6766ZM5.85775 7.76583C5.08116 8.60932 5.41746 9.11437 5.57387 9.27001C5.28465 9.20684 4.85302 8.83244 4.95151 8.47002C4.85944 8.58211 4.76515 8.70406 4.66876 8.8292C4.47594 9.09044 4.30349 9.34619 4.15031 9.59429C3.91465 10.3061 4.34633 11.0408 5.08116 11.3662C4.26493 11.2443 3.8986 10.5064 3.90075 10.0362C3.51082 10.785 3.32442 11.4686 3.34155 12.0422C3.34907 12.2555 3.36726 12.4546 3.3951 12.6429C3.58259 13.0043 3.88361 13.137 4.4202 13.2035C3.93288 13.2351 3.67466 13.2122 3.4626 12.9858C3.79465 14.4366 5.34786 15.6926 5.97984 16.7679C5.34677 15.9321 4.03674 14.6869 3.57831 13.7868C3.54295 14.1123 3.62863 14.946 4.02708 15.4586C3.44009 14.872 3.39405 13.9839 3.43261 13.4636C3.28376 13.0892 3.18947 12.6712 3.17662 12.1956C3.16482 11.7581 3.19481 11.3782 3.26016 11.0376C2.88951 11.573 2.35396 11.7798 2.09041 12.5951C2.14186 11.5436 2.9142 11.5273 3.49263 10.2506C3.71649 9.69231 4.04208 9.21012 4.40202 8.66375C3.94464 8.81615 3.60187 8.92499 3.07267 9.51381C3.44866 8.61043 5.62099 7.59492 6.61614 6.61213C6.31727 6.67632 5.09721 6.70793 4.59056 6.36398C5.50856 6.61648 7.55124 6.32807 8.32249 5.79257C7.79013 6.5708 6.63114 6.61541 5.22039 8.1631C5.40032 8.01727 5.64031 7.87033 5.85775 7.76583Z" fill="white"/>
<path id="Vector_7" d="M21.2995 12.496C21.202 11.9823 21.1591 11.7439 21.0606 11.5328C20.9589 11.3075 20.7939 11.1116 20.4415 10.649C20.525 10.6609 21.4634 10.8623 21.6722 10.7622C20.0538 9.75216 20.418 8.46896 17.9501 7.32507C18.5981 6.83636 19.259 6.44673 18.7845 5.51286C18.1086 6.33895 16.8232 6.05382 16.1302 5.66961C16.8168 5.5303 17.6994 4.91641 17.9094 4.23294C17.6501 4.19266 17.3149 4.47782 17.1221 4.60952C17.03 4.35807 16.9946 4.06421 16.6936 4C17.0953 4.87286 16.3016 5.32783 15.5443 5.33112C15.4286 5.33112 14.9402 5.281 14.9402 5.281C15.0184 5.11781 15.3333 4.67155 15.103 4.49194C14.9177 4.66826 14.6992 4.80867 14.4978 4.96542C13.0272 6.12019 15.1973 7.19225 16.0842 7.67768C17.4734 8.44175 17.1039 9.35054 16.5223 9.58347C16.5244 9.68579 16.5865 9.73147 16.684 9.76414C17.0889 9.90127 17.4724 9.60739 17.7948 9.41691C17.7765 9.98726 17.8151 10.5358 17.1949 10.8493L17.6212 11.0082C17.2528 11.2912 17.1424 11.4425 16.7001 11.5001C16.9057 11.6024 17.1649 11.6002 17.3824 11.621C17.3267 11.7787 17.2785 11.9932 17.1649 12.1346C18.0711 12.2435 18.4353 11.7189 18.7138 11.7396C19.3093 11.7853 19.274 12.9281 17.8022 12.9303L17.9544 13.186C17.9544 13.186 17.6759 13.3515 17.4198 13.383C17.5174 13.4636 17.6127 13.5724 17.6951 13.6551L17.4606 13.8609C18.0593 13.9697 18.2307 13.321 18.6195 13.6334C19.214 14.1122 17.9051 15.1212 16.6487 14.971C16.7547 15.1082 17.0492 15.3106 17.1767 15.4151C16.1527 16.3968 16.6561 17.322 16.2373 18C17.1178 17.9402 17.7712 17.2828 17.9265 16.5709L18.175 17.0009C18.2639 16.7179 18.4267 16.424 18.5285 16.215C18.7266 16.6341 19.0448 16.6428 19.3511 16.6449C19.2815 15.6415 20.5219 14.6325 19.9777 13.4875C19.8685 13.259 19.9391 12.9782 20.1737 12.8573C21.0071 12.4285 20.6204 14.2091 21.4527 14.2635C21.293 14.06 21.2342 13.6377 21.2116 13.6008C21.3873 13.6475 21.8094 13.9218 22 13.5702C21.5169 13.3069 21.3777 12.902 21.2995 12.496ZM19.7431 11.0397C19.8085 11.3815 19.8417 11.7602 19.8267 12.1978C19.8128 12.6734 19.7196 13.0914 19.5707 13.4658C19.6081 13.986 19.5632 14.8742 18.9762 15.4608C19.3736 14.9471 19.4604 14.1144 19.425 13.789C18.9644 14.6892 17.6555 15.9342 17.0214 16.7701C17.6544 15.6948 19.2076 14.4377 19.5407 12.988C19.3264 13.2133 19.0705 13.2372 18.582 13.2056C19.1176 13.1393 19.4186 13.0064 19.606 12.6451C19.6339 12.4579 19.6521 12.2576 19.6596 12.0443C19.6778 11.4707 19.4904 10.7872 19.1005 10.0384C19.1037 10.5086 18.7373 11.2466 17.9201 11.3684C18.6527 11.0419 19.0855 10.3072 18.8509 9.59652C18.6988 9.34837 18.5274 9.09151 18.3325 8.83138C18.236 8.70619 18.1418 8.58434 18.0486 8.4722C18.1472 8.83462 17.7155 9.20906 17.4263 9.27219C17.5838 9.11655 17.919 8.61155 17.1435 7.76801C17.361 7.87251 17.6009 8.01945 17.7819 8.1631C16.3712 6.61542 15.2134 6.57187 14.6788 5.79257C15.4511 6.32807 17.4938 6.6176 18.4106 6.36403C17.9051 6.70789 16.684 6.67637 16.3852 6.61214C17.3802 7.59497 19.5546 8.61044 19.9295 9.51381C19.4004 8.925 19.0566 8.81615 18.6013 8.66376C18.9623 9.21124 19.2858 9.69232 19.5096 10.2506C20.0891 11.5273 20.8625 11.5426 20.9128 12.5951C20.6493 11.782 20.1148 11.5752 19.7431 11.0397Z" fill="white"/>
<path id="Vector_8" d="M12.575 9C12.3528 9.3072 11.9483 9.5134 11.4885 9.5134C11.381 9.5134 11.2775 9.50104 11.1793 9.48246C11.2069 9.60927 11.2714 9.74021 11.4056 9.85256C11.3513 10.2206 11.509 10.565 11.9012 10.6546C11.9432 10.8423 12.0579 10.9835 12.2525 11.0505L11.979 11.368C11.8735 11.4897 11.7363 11.5288 11.6258 11.5144L10.4051 11.3752C10.4583 11.2392 10.317 11.0814 9.92989 11.1485L10.4092 9.79794L10.1173 9.17214L9.5633 9.64846L9.52234 11.0649L9.28375 10.9484C8.9765 10.8144 8.88536 11.3783 9.17827 11.3804L9.29604 11.3814C9.28785 11.4392 9.30628 11.5031 9.35233 11.5237C9.29704 11.5464 9.28066 11.6505 9.34928 11.6876C9.27966 11.7216 9.26942 11.8288 9.32571 11.8752C9.26528 11.9794 9.254 12.2051 9.4681 12.2618C9.64421 12.3082 9.75479 12.1186 9.79064 12.0082L11.6902 12.6C11.9575 12.6773 12.1501 12.634 12.3733 12.4371L12.869 12.001C12.8064 12.2866 12.9078 12.5433 13.1239 12.6289C13.1239 12.6289 13.0901 12.8907 13.1035 12.9989L13.7681 13H14.8146V9.85567C14.8146 9.56289 14.8976 9.27011 15 9H13.7681H12.575Z" fill="white"/>
<path id="Vector_9" d="M9.21079 14.8058L9.24876 14.8488C9.3015 14.9081 9.33314 14.8938 9.39328 14.8622L9.48188 14.8191C9.5378 14.7808 9.90174 14.9072 9.92176 14.6325C9.96188 14.8373 9.69286 15.2689 9.85533 15.51L10.0737 15.8345L9.36056 15.844C9.28251 15.844 9.2414 15.8871 9.2203 15.9254L9.03355 16.2766C8.985 16.3694 8.98818 16.4651 9.0494 16.5292L9.17596 16.6584C9.17596 16.6584 9.27937 16.579 9.31308 16.4746L9.2572 16.422C9.21079 16.3819 9.21079 16.3435 9.2361 16.2938L9.35105 16.0775C9.39539 15.9923 9.44076 15.9742 9.54202 15.9962L10.119 16.1091C10.1612 16.1187 10.2298 16.1369 10.2709 16.0727C10.3416 15.9588 10.4661 15.9512 10.5927 15.9694C10.9091 16.0124 11.6402 16.0814 11.9008 15.8048C12.2066 16.1732 12.8048 16.1732 12.7658 16.3665L12.6392 17H12.829L12.9451 16.3522C12.9577 16.2766 13.0094 16.1732 12.9198 16.1149C12.8829 16.089 12.866 16.0756 12.7826 15.9455C12.674 15.7732 12.6793 15.5148 12.5748 15.2919C12.674 15.1856 12.7816 15.1493 12.8755 15.1694C13.0864 15.2162 13.1434 15.5464 13.443 15.8153C13.4093 15.6957 13.3945 15.5646 13.3238 15.4507C13.3238 15.4507 13.5316 15.5971 13.5854 15.7685C13.6192 15.8756 13.654 15.9541 13.7605 16.0038C13.8312 16.0268 13.9156 15.9962 14 15.9043C14 15.9043 13.8027 15.6498 13.6582 15.4833C13.4599 15.2545 13.1951 15.0249 12.8343 15.0517C12.7204 15.0603 12.6107 15.1072 12.5063 15.1636C12.0959 14.955 11.7773 15.1761 11.6507 15.1761L10.8828 15.1349C10.732 15.1263 10.6127 14.9675 10.6127 14.9675C10.5937 14.378 10.0716 14.1435 9.89119 14.1435C9.89119 14.1435 9.90807 14.0373 9.86059 14L9.70023 14.1827L9.25509 14.0354L9.60427 14.2947L9.22556 14.6938C9.18655 14.733 9.19181 14.7846 9.21079 14.8058Z" fill="white"/>
<path id="Vector_10" d="M9.07184 15.4191C8.97988 15.5269 8.98438 15.6769 9.03941 15.8446L9.0944 16L9.23781 15.835L9.20535 15.7286C9.1819 15.6537 9.18282 15.5774 9.22338 15.5296L9.42904 15.2951C9.48679 15.231 9.50483 15.2242 9.56616 15.2378L10 15.3755C10 15.3755 9.93418 15.231 9.9125 15.0837L9.50391 15.0019C9.44619 14.991 9.411 15.0278 9.3605 15.0864L9.07184 15.4191Z" fill="white"/>
<path id="Vector_11" d="M12 17H12.3576L12.9312 16.2244C12.9509 16.1974 12.9784 16.1855 13 16.1629C12.7426 16.1068 12.5914 16.068 12.3772 16C12.5206 16.1057 12.6326 16.151 12.5736 16.2492L12 17Z" fill="white"/>
<path id="Vector_12" d="M12.7361 6.39037L13 4L12 4.5356V7L12.7361 6.39037ZM12.1691 4.7775L12.8324 4.39245C12.8324 4.39245 12.7032 4.55785 12.5489 4.7244C12.4119 4.87374 12.1691 5.03294 12.1691 5.03294V4.7775ZM12.1691 5.35623L12.776 5.01442C12.776 5.01442 12.7032 5.13532 12.5497 5.30192C12.4127 5.45005 12.1699 5.60925 12.1699 5.60925V5.35623H12.1691ZM12.1691 5.97079L12.7032 5.6475C12.7032 5.6475 12.7032 5.74988 12.5489 5.91528C12.4119 6.06461 12.1691 6.22382 12.1691 6.22382V5.97079Z" fill="white"/>
<path id="Vector_13" d="M10.0576 8.28622L10.0903 8.32646H10.398L10.4015 8.36761C10.405 8.40698 10.4167 8.44722 10.4343 8.48837C10.4822 8.60015 10.577 8.71734 10.7291 8.81219C10.9057 8.92127 11.1607 9 11.5 9C12.2358 9 12.5681 8.63598 12.5997 8.36761L12.602 8.32646H12.9108L12.9436 8.28622C13.2337 7.93917 13.5882 7.55362 14 7.4982L12.8769 7L11.5 7.57241L10.1219 7L9 7.4982C9.41182 7.55275 9.7663 7.93917 10.0576 8.28622Z" fill="white"/>
<path id="Vector_14" d="M11 7V4.5356L10 4L10.2627 6.39037L11 7ZM10.8314 6.22628C10.8314 6.22628 10.5882 6.06582 10.451 5.91774C10.2965 5.75235 10.2965 5.64871 10.2965 5.64871L10.8322 5.972V6.22628H10.8314ZM10.8314 4.7775V5.03294C10.8314 5.03294 10.5882 4.87374 10.451 4.7244C10.2957 4.55785 10.1655 4.39245 10.1655 4.39245L10.8314 4.7775ZM10.8314 5.35623V5.61046C10.8314 5.61046 10.5882 5.45126 10.451 5.30318C10.2957 5.13658 10.2235 5.01568 10.2235 5.01568L10.8314 5.35623Z" fill="white"/>
<path id="Vector_15" d="M11.5011 3C10.7166 3 10.1281 3.22339 10 3.48505L11.5011 4L13 3.48505C12.873 3.22339 12.2855 3 11.5011 3Z" fill="white"/>
<path id="Vector_16" d="M12.0012 1.71009C12.6537 1.71009 13.3074 1.83643 13.7472 2C13.819 1.84883 13.8955 1.74108 14 1.61784L13.599 1.65737L13.2746 1.21549L12.6683 1.42093L12.0012 1L11.3329 1.42093L10.7278 1.21549L10.401 1.65737L10 1.61784C10.1045 1.74108 10.1798 1.84883 10.254 2C10.6951 1.83643 11.3463 1.71009 12.0012 1.71009Z" fill="white"/>
<path id="Vector_17" d="M21.4543 7.60877C21.6127 7.58121 21.7403 7.50927 21.8961 7.35115C21.5608 7.23009 20.8584 6.88376 20.259 7.03958C20.061 7.0755 19.951 7.18459 20.0213 7.24686C20.3435 7.53801 20.7413 8.21272 21.0309 9C21.2853 8.5698 21.1788 8.0054 21.1251 7.84362C21.632 8.25945 21.765 8.46194 22 8.38286C21.8741 8.1204 21.6972 7.88433 21.4543 7.60877Z" fill="white"/>
<path id="Vector_18" d="M1.96832 9C2.25768 8.21255 2.65518 7.53778 2.97795 7.24652C3.05009 7.18419 2.93837 7.07508 2.74225 7.03914C2.14243 6.88452 1.43888 7.2297 1.10379 7.35079C1.26122 7.50899 1.38609 7.5809 1.54616 7.60847C1.30257 7.88531 1.12576 8.12025 1 8.38277C1.2366 8.46187 1.3685 8.25928 1.87418 7.84341C1.82231 8.0064 1.715 8.56976 1.96832 9Z" fill="white"/>
<path id="Vector_19" fill-rule="evenodd" clip-rule="evenodd" d="M6.80694 15.0961C7.10171 14.8613 7.34641 14.744 7.3342 14.175C6.89143 14.403 5.63553 14.3908 5.11045 13.6642C4.9625 13.4574 5.12048 13.3535 5.26394 13.5167C5.62327 13.9258 6.28849 13.7402 6.53101 13.6229C6.4921 13.482 6.38419 13.2987 6.29408 13.2205C6.38533 13.131 6.64228 12.9969 6.69454 12.7667C6.55775 12.6918 6.02486 12.6381 6.02486 12.6381C6.11053 12.5554 6.21731 12.4403 6.15284 12.1329C5.60883 12.3006 4.9358 12.0725 4.7834 11.8702C4.63322 11.6713 4.78676 11.4846 4.91351 11.6165C5.18499 11.9026 6.52211 12.2302 7.01941 11.7328C6.83473 11.6813 6.63116 11.5159 6.59443 11.4131C7.055 11.3661 7.42209 11.0934 7.45214 10.7536C7.19737 10.7536 6.71678 10.7346 6.55217 10.6116C6.77244 10.53 6.91258 10.4496 6.98268 10.2014C6.14058 10.15 6.0738 9.52182 6.06935 9.41788C6.61781 9.73532 7.58339 9.59449 7.33306 8.81204C6.87699 8.78747 6.41756 8.04641 7.67128 7.36567C8.81155 6.74533 10.1075 6.0769 9.99291 4.97592C9.91837 4.2717 8.76479 3.79108 8.61797 3.43453C8.13625 3.66476 8.03951 3.93194 8.25642 4.38015C8.25642 4.38015 7.18293 4.48743 7.09835 3.8235C7.06167 3.52618 7.25965 3.24788 7.47216 3.03438C7.35199 3.03438 6.54322 2.81641 6.29962 3.47812C5.84686 3.1674 5.45865 3.17857 5.15385 3.50717C5.64107 3.79778 5.94256 4.79484 6.74797 5.08884C6.17504 5.40063 5.24837 5.26988 4.70772 4.31081C4.19604 5.08547 3.90122 5.85224 4.99922 6.67153C3.00238 7.58473 3.01686 9.33071 1.27922 10.1623C1.45497 10.6374 1.82651 10.6374 2.30047 10.5635C1.54954 11.5438 2.1892 12.5699 1 12.9891C1.11125 13.3892 1.33484 13.7089 1.77317 13.5916C1.64855 13.7872 1.56624 13.7827 1.37267 13.9973C2.02232 14.4086 2.79327 14.1113 2.96792 12.7912C2.99906 12.5554 3.32166 12.703 3.21039 12.9343C2.46949 14.4735 4.3429 15.6315 3.67986 16.7604C4.26386 16.7358 4.70995 16.69 4.95251 16.4921C5.0715 16.7291 5.14386 16.9638 5.11717 17.1952C5.43972 17.1293 5.55767 16.9381 5.57991 16.7168C5.79129 17.3372 6.54772 18 7.75808 18C7.11615 17.079 7.71355 16.1456 6.80694 15.0961ZM5.61215 16.2306L5.3541 16.6721C5.26172 16.3815 5.09374 16.0797 4.98588 15.8651C4.77786 16.2954 4.44968 16.3043 4.13375 16.3066C4.2038 15.276 2.91453 14.2399 3.48183 13.064C3.59532 12.8292 3.52078 12.5409 3.27713 12.4168C2.41279 11.9764 2.81325 13.8051 1.95004 13.8609C2.1147 13.652 2.17694 13.2182 2.20141 13.1802C2.01787 13.2283 1.57846 13.51 1.38047 13.1501C1.88553 12.874 2.03012 12.4581 2.10912 12.0412C2.20922 11.5136 2.25594 11.2689 2.35717 11.052C2.46395 10.8207 2.63415 10.6194 2.99906 10.1444C2.9123 10.1567 1.94114 10.3635 1.722 10.2607C3.40288 9.2234 3.02462 7.90554 5.58659 6.73075C4.91465 6.22894 4.22827 5.82876 4.72002 4.87083C5.42193 5.71811 6.75578 5.42525 7.47661 5.03177C6.76467 4.88875 5.84686 4.2583 5.62994 3.55637C5.89802 3.51501 6.24623 3.80786 6.44539 3.94421C6.54213 3.68492 6.57999 3.38423 6.89256 3.31939C6.4754 4.21471 7.29861 4.68191 8.084 4.68529C8.20635 4.68529 8.71363 4.63386 8.71363 4.63386C8.63241 4.46618 8.30423 4.00795 8.54229 3.8235C8.73474 4.00458 8.96391 4.14877 9.17192 4.30972C10.6993 5.49678 8.44664 6.59667 7.52551 7.09628C6.08048 7.88097 6.46763 8.81541 7.07057 9.05348C7.06835 9.15857 7.00383 9.20552 6.90369 9.23903C6.48098 9.37986 6.08493 9.07696 5.74789 8.88248C5.76791 9.46817 5.72782 10.0315 6.37307 10.3534L5.92917 10.5155C6.31074 10.8073 6.42759 10.9615 6.88698 11.0219C6.67229 11.1269 6.40644 11.1247 6.1784 11.1459C6.23624 11.308 6.28295 11.5282 6.40312 11.6735C5.4631 11.7853 5.08598 11.2465 4.79452 11.2678C4.17379 11.3147 4.2127 12.4884 5.74012 12.4906L5.58214 12.7533C5.58214 12.7533 5.87133 12.9232 6.13727 12.9556C6.03599 13.0383 5.93811 13.1501 5.85244 13.235L6.09605 13.4463C5.472 13.558 5.29622 12.8919 4.89127 13.2126C4.27389 13.7045 5.63439 14.7406 6.93814 14.5864C6.82919 14.7272 6.52211 14.9351 6.39087 15.0424C7.45323 16.0506 6.92925 17.0007 7.36648 17.6971C6.44984 17.6367 5.77127 16.9605 5.61215 16.2306Z" fill="black"/>
<path id="Vector_20" fill-rule="evenodd" clip-rule="evenodd" d="M3.32027 12.2104C3.52552 12.4363 3.77311 12.4603 4.24238 12.4286C3.72563 12.3621 3.43582 12.229 3.25532 11.8668C3.22952 11.6792 3.212 11.4785 3.20476 11.2647C3.18826 10.6898 3.36775 10.0048 3.74319 9.25428C3.74112 9.72447 4.09282 10.464 4.87984 10.5872C4.17229 10.26 3.75661 9.52368 3.9835 8.81137C4.13104 8.5627 4.29706 8.30528 4.48273 8.04451C4.57555 7.91913 4.6663 7.79692 4.75504 7.68453C4.66012 8.0478 5.07583 8.42305 5.35432 8.48636C5.20371 8.33033 4.87984 7.8253 5.62768 6.97987C5.41928 7.08461 5.18822 7.23187 5.0129 7.37589C6.37034 5.82469 7.48734 5.78105 8 5C7.25734 5.5367 5.29038 5.82687 4.40641 5.57274C4.89428 5.91741 6.06912 5.88578 6.35687 5.8214C5.3997 6.8064 3.30789 7.82419 2.94484 8.72959C3.45438 8.13834 3.78444 8.03036 4.22588 7.87874C3.87831 8.42741 3.5658 8.90956 3.35016 9.46917C2.79317 10.7476 2.04849 10.764 2 11.8177C2.25378 11.0007 2.76947 10.7934 3.12635 10.2567C3.06346 10.5993 3.03353 10.9789 3.04489 11.4174C3.05727 11.8941 3.14802 12.313 3.29139 12.6882C3.25532 13.2097 3.29859 14.0998 3.86387 14.6877C3.48014 14.1739 3.39764 13.3383 3.43169 13.0122C3.87418 13.9143 5.13565 15.1623 5.74525 16C5.13565 14.9233 3.64107 13.6645 3.32027 12.2104Z" fill="black"/>
<path id="Vector_21" fill-rule="evenodd" clip-rule="evenodd" d="M17.7746 7.87704C18.2127 8.02975 18.5436 8.13771 19.0527 8.7288C18.692 7.82358 16.5986 6.80608 15.642 5.82124C15.9296 5.88449 17.1046 5.91723 17.5912 5.57258C16.7088 5.82666 14.7432 5.53659 14 5C14.5134 5.78089 15.6286 5.82448 16.9861 7.37537C16.8119 7.23142 16.581 7.08414 16.3718 6.97947C17.1181 7.82473 16.7954 8.33072 16.6439 8.48672C16.9222 8.42347 17.3376 8.0483 17.2428 7.6851C17.3325 7.79742 17.4232 7.91957 17.5159 8.04501C17.7025 8.30674 17.8674 8.56305 18.0148 8.81171C18.2416 9.52499 17.8252 10.2611 17.1201 10.5872C17.9066 10.4651 18.2591 9.72458 18.255 9.25449C18.6312 10.0049 18.8105 10.6897 18.794 11.2645C18.7868 11.4783 18.7693 11.6779 18.7425 11.8665C18.5611 12.2286 18.2715 12.3617 17.7561 12.4282C18.2261 12.4587 18.4725 12.4358 18.6786 12.2101C18.358 13.6639 16.8645 14.9225 16.2543 16C16.8645 15.1624 18.123 13.9147 18.5673 13.0128C18.6013 13.3389 18.5188 14.1743 18.1354 14.6879C18.7002 14.1001 18.7436 13.2101 18.7074 12.6889C18.8497 12.3137 18.9394 11.8949 18.9538 11.4183C18.9672 10.9799 18.9353 10.5992 18.8734 10.2579C19.2311 10.7945 19.7454 11.0017 20 11.8186C19.9516 10.7639 19.2074 10.7476 18.6497 9.46938C18.4333 8.90663 18.122 8.42453 17.7746 7.87704Z" fill="black"/>
<path id="Vector_22" fill-rule="evenodd" clip-rule="evenodd" d="M20.7035 10.5636C21.1765 10.6385 21.5482 10.6385 21.7251 10.1634C19.9869 9.33162 20.0014 7.58656 18.0038 6.67209C19.1022 5.85377 18.8062 5.08575 18.2954 4.31103C17.7557 5.27023 16.8254 5.401 16.2545 5.08912C17.0579 4.79512 17.3618 3.7979 17.8491 3.50725C17.5442 3.1786 17.1548 3.16743 16.7018 3.47819C16.457 2.81639 15.6491 3.03439 15.5278 3.03439C15.7392 3.24678 15.9395 3.52517 15.9017 3.82362C15.8182 4.48766 14.7444 4.38033 14.7444 4.38033C14.9614 3.93208 14.8645 3.66491 14.3827 3.43459C14.2358 3.7912 13.0829 4.27195 13.0072 4.97623C12.8915 6.07737 14.1901 6.74586 15.3297 7.36633C16.5838 8.04713 16.1243 8.78944 15.6691 8.81292C15.4165 9.59548 16.3824 9.73629 16.9322 9.41885C16.93 9.5228 16.8598 10.1511 16.0174 10.2025C16.0886 10.4506 16.2277 10.5312 16.4481 10.6128C16.2834 10.7368 15.8027 10.7548 15.5489 10.7548C15.579 11.0946 15.9473 11.3685 16.408 11.4143C16.3713 11.5172 16.1666 11.6826 15.9829 11.734C16.4803 12.2315 17.818 11.904 18.0895 11.6178C18.2141 11.4859 18.3666 11.6726 18.2175 11.8716C18.0639 12.075 17.3918 12.303 16.8465 12.1342C16.7842 12.4406 16.8888 12.5569 16.9745 12.6395C16.9745 12.6395 16.4414 12.6932 16.3034 12.7681C16.3557 12.9984 16.6139 13.1315 16.704 13.222C16.6128 13.3003 16.5048 13.4836 16.4659 13.6244C16.7107 13.743 17.3762 13.9274 17.7334 13.5183C17.8781 13.3562 18.0361 13.459 17.8881 13.6658C17.3628 14.3924 16.1064 14.4036 15.6624 14.1767C15.6502 14.7457 15.895 14.8631 16.1899 15.0978C15.2818 16.1476 15.8816 17.0811 15.2395 18C16.4492 18 17.2059 17.337 17.4174 16.7166C17.4419 16.9368 17.5576 17.1291 17.8792 17.1951C17.8547 16.9636 17.9259 16.7289 18.0439 16.4919C18.2887 16.6898 18.735 16.7356 19.3192 16.7602C18.6571 15.6311 20.5311 14.473 19.7877 12.9336C19.6775 12.7021 20.0003 12.5546 20.0314 12.7905C20.205 14.1107 20.9773 14.4081 21.6283 13.9967C21.4325 13.7821 21.3512 13.7866 21.2266 13.5909C21.6651 13.7083 21.8876 13.3885 22 12.9883C20.816 12.5703 21.4558 11.544 20.7035 10.5636ZM20.8037 13.184C20.8271 13.222 20.8883 13.6558 21.0541 13.8648C20.1895 13.8089 20.5901 11.9799 19.7254 12.4204C19.4817 12.5434 19.4094 12.8319 19.5217 13.0677C20.087 14.2438 18.7984 15.2801 18.8707 16.3108C18.5525 16.3086 18.222 16.2996 18.0161 15.8692C17.9103 16.0839 17.7401 16.3857 17.6477 16.6764L17.3895 16.2347C17.2293 16.9659 16.5505 17.6411 15.6357 17.7026C16.0708 17.0073 15.5478 16.057 16.6117 15.0476C16.4781 14.9402 16.1721 14.7323 16.0619 14.5915C17.3673 14.7457 18.7271 13.7094 18.1096 13.2175C17.7056 12.8967 17.5275 13.5629 16.9054 13.4511L17.1492 13.2399C17.0635 13.1549 16.9645 13.0442 16.8631 12.9604C17.1292 12.928 17.4185 12.7581 17.4185 12.7581L17.2604 12.4953C18.7884 12.4931 18.8251 11.3193 18.2075 11.2723C17.917 11.2511 17.5387 11.791 16.5983 11.6781C16.7174 11.5328 16.7664 11.3126 16.8242 11.1505C16.5972 11.1292 16.329 11.1315 16.1154 11.0264C16.5749 10.9672 16.6907 10.8118 17.0724 10.5211L16.6295 10.3579C17.2738 10.0348 17.2326 9.47247 17.2527 8.88669C16.9166 9.08121 16.5182 9.38305 16.0986 9.24335C15.9985 9.20979 15.9329 9.16282 15.9306 9.05777C16.5349 8.81848 16.9199 7.88504 15.4755 7.10023C14.5552 6.60055 12.3006 5.50054 13.8274 4.3144C14.0366 4.1534 14.2636 4.00811 14.455 3.82809C14.6943 4.01257 14.3671 4.47093 14.2859 4.63859C14.2859 4.63859 14.7933 4.69002 14.9135 4.69002C15.7003 4.68665 16.5249 4.21938 16.1075 3.32281C16.4203 3.38766 16.457 3.69058 16.5527 3.94886C16.753 3.81245 17.1002 3.5207 17.3707 3.56202C17.1514 4.26297 16.2355 4.89461 15.5222 5.03769C16.2422 5.43119 17.5776 5.7241 18.2798 4.87669C18.7717 5.83476 18.0862 6.23496 17.4129 6.73692C19.9769 7.91075 19.5974 9.2299 21.28 10.2673C21.063 10.3702 20.0882 10.1634 20.0014 10.1511C20.3686 10.6262 20.54 10.8274 20.6446 11.0588C20.747 11.2757 20.7915 11.5194 20.8927 12.0482C20.9729 12.4652 21.1186 12.881 21.6216 13.1571C21.4247 13.5138 20.9863 13.2321 20.8037 13.184Z" fill="black"/>
<path id="Vector_23" fill-rule="evenodd" clip-rule="evenodd" d="M9.20972 15.9307L9.57657 15.6071L9.52083 15.4911C9.48065 15.4077 9.50185 15.403 9.54426 15.3705L9.73829 15.2209C9.78284 15.1826 9.82966 15.1873 9.88431 15.2012L10.4652 15.3427H9.85196C9.71035 15.352 9.66912 15.4088 9.61784 15.5178L9.57548 15.6071L9.41826 15.9434C9.36475 16.0594 9.33686 16.2137 9.47733 16.3877L9.58886 16.5256L9.36361 17H9.55318L9.70926 16.6706C9.72154 16.659 9.95234 16.4398 10.0014 16.2137C9.9345 16.1569 9.88764 16.1174 9.92449 16.0386L9.99471 15.8808C10.0181 15.8286 10.0259 15.8078 10.0928 15.8205L10.7016 15.9574C10.7775 15.9794 10.8889 16.0142 10.9704 15.8866C11.054 15.7544 11.0651 15.7683 11.2591 15.7881L11.5702 15.8228C11.9951 15.8646 12.4199 15.7544 12.5849 15.6176C12.6429 15.7544 12.7577 15.86 12.8113 15.9667C12.8313 16.0061 12.7979 16.0618 12.7723 16.1313L12.4232 16.9988H12.9617L13.2662 16.2079C13.2941 16.1325 13.3353 16.0722 13.3665 16.042L13.1915 17H13.7144L13.8527 16.0525C13.8828 15.8414 13.8649 15.7742 13.7679 15.6872C13.5505 15.4958 13.5549 15.0945 13.4847 14.851C13.5215 14.829 13.565 14.8174 13.6163 14.8243C13.73 14.8347 13.8159 15.1374 13.9497 15.3323C14.2173 15.7231 14.5819 16.1546 15 15.5468C14.9599 15.4772 14.9164 15.4146 14.8651 15.3543L14.748 15.2117C14.68 15.1328 14.3567 14.7477 14.2217 14.6097C13.9151 14.2885 13.4446 14.3372 13.2572 14.4938C12.8324 14.2618 12.3842 14.5054 12.2783 14.4961L11.5468 14.4497C11.5134 14.4474 11.4632 14.4358 11.4275 14.3766L11.5635 14.3302C11.4365 13.7794 11.1164 13.3189 10.5578 13.2389C10.5578 13.2389 10.5254 13.0649 10.4396 13.0313L10.2723 13.2354C10.2255 13.2424 10.1742 13.2574 10.1319 13.276L9.41826 13L9.95348 13.5625C9.95348 13.5625 9.67581 13.9719 9.59664 14.0554C9.54426 14.1319 9.54872 14.191 9.60779 14.2642L9.71149 14.4056C9.76505 14.4787 9.82411 14.4764 9.90993 14.4311L10.0271 14.3673C10.0783 14.3233 10.25 14.4102 10.3236 14.3407C10.2768 14.5007 10.2534 14.655 10.2422 14.7767L9.76168 14.7164C9.65684 14.7013 9.60892 14.7164 9.54535 14.7686L9.13504 15.0968C9.00122 15.2035 8.95999 15.3879 9.04249 15.5677L9.20972 15.9307ZM13.1792 16.0246L12.8536 16.8597H12.6507L12.9763 16.0513C13.0097 15.9469 12.9461 15.8982 12.8648 15.7846C12.9852 15.8553 13.0722 15.9017 13.2182 15.9597C13.206 15.9829 13.1904 15.9957 13.1792 16.0246ZM10.0393 14.2166L9.94679 14.2676C9.88208 14.3059 9.84973 14.3233 9.79399 14.2514L9.7539 14.198C9.73383 14.1725 9.72714 14.111 9.76837 14.0623L10.1675 13.5787L9.79958 13.2644L10.2679 13.4442L10.4396 13.2215C10.4897 13.2656 10.4719 13.3943 10.4719 13.3943C10.6615 13.3943 11.2134 13.6796 11.2346 14.394C11.2346 14.394 11.3595 14.5853 11.5189 14.5958L12.3318 14.6468C12.4667 14.6468 12.8035 14.3801 13.2361 14.6318C13.3453 14.5634 13.4624 14.5089 13.5829 14.4949C13.9641 14.466 14.2452 14.7419 14.4537 15.0203C14.6064 15.2221 14.8161 15.5305 14.8161 15.5305C14.7257 15.6419 14.6377 15.679 14.5629 15.6512C14.4504 15.5909 14.4135 15.497 14.3778 15.3659C14.321 15.1583 14.1013 14.9808 14.1013 14.9808C14.176 15.12 14.1916 15.2778 14.2273 15.4227C13.9095 15.0956 13.8493 14.6967 13.6275 14.6411C13.5293 14.6156 13.4145 14.6596 13.3085 14.7871C13.4201 15.0574 13.4145 15.3705 13.5293 15.5805C13.6163 15.737 13.6352 15.7509 13.6743 15.7857C13.7679 15.8553 13.7155 15.9818 13.701 16.0733L13.5806 16.8585H13.3777L13.5115 16.0907C13.5527 15.8565 12.9205 15.8565 12.5972 15.41C12.3217 15.7451 11.5491 15.6616 11.2145 15.6094C11.0796 15.5886 10.9481 15.5979 10.8744 15.7358C10.831 15.8136 10.7585 15.7904 10.7139 15.7788L10.104 15.6419C9.99693 15.6164 9.95011 15.6384 9.90324 15.7405L9.78175 16.0026C9.75499 16.0641 9.75613 16.1093 9.80514 16.1592L9.86311 16.223C9.82857 16.3482 9.71822 16.4445 9.71822 16.4445L9.58549 16.289C9.52083 16.2102 9.5175 16.0965 9.56879 15.9852L9.76614 15.5561C9.78953 15.5085 9.83189 15.4575 9.91439 15.4575L10.6682 15.4459L10.4374 15.0551C10.2656 14.7616 10.5511 14.2386 10.5076 13.9916C10.4842 14.3221 10.0995 14.1714 10.0393 14.2166ZM9.22087 15.2024L9.57771 14.9194C9.64123 14.8695 9.6836 14.837 9.75613 14.8463L10.2601 14.9159C10.2879 15.0412 10.3682 15.1641 10.3682 15.1641L9.83189 15.047C9.75613 15.0377 9.73383 15.0412 9.66243 15.0945L9.40821 15.294C9.35806 15.3346 9.35583 15.3996 9.38482 15.4633L9.42604 15.5549L9.24876 15.6941L9.18073 15.5619C9.11161 15.4216 9.1072 15.2929 9.22087 15.2024Z" fill="black"/>
<path id="Vector_24" fill-rule="evenodd" clip-rule="evenodd" d="M10.2899 6.46471C10.5461 6.72376 11 7 11 7V6.55886L10 6C10 6 10 6.17991 10.2899 6.46471Z" fill="black"/>
<path id="Vector_25" fill-rule="evenodd" clip-rule="evenodd" d="M11 6V5.57355L10 5C10 5 10.1187 5.20292 10.3742 5.48243C10.6 5.73087 11 6 11 6Z" fill="black"/>
<path id="Vector_26" fill-rule="evenodd" clip-rule="evenodd" d="M11 5V4.60118L10 4C10 4 10.1955 4.25823 10.4288 4.51835C10.6349 4.75143 11 5 11 5Z" fill="black"/>
<path id="Vector_27" fill-rule="evenodd" clip-rule="evenodd" d="M14 8.28105H15C14.9585 8.14107 14.803 8 14.5115 8C14.2351 8 14.0692 8.1533 14 8.28105Z" fill="black"/>
<path id="Vector_28" fill-rule="evenodd" clip-rule="evenodd" d="M13 4L12 4.60118V5C12 5 12.366 4.75143 12.5726 4.51835C12.8052 4.25823 13 4 13 4Z" fill="black"/>
<path id="Vector_29" fill-rule="evenodd" clip-rule="evenodd" d="M13 6L12 6.55987V7C12 7 12.4545 6.72216 12.7111 6.46583C13 6.17953 13 6 13 6Z" fill="black"/>
<path id="Vector_30" fill-rule="evenodd" clip-rule="evenodd" d="M13 5L12 5.57355V6C12 6 12.4012 5.7329 12.6258 5.48454C12.8813 5.20292 13 5 13 5Z" fill="black"/>
<path id="Vector_31" fill-rule="evenodd" clip-rule="evenodd" d="M8.48788 8C8.19677 8 8.04142 8.14107 8 8.28105H9C8.92862 8.1533 8.76524 8 8.48788 8Z" fill="black"/>
<path id="Vector_32" fill-rule="evenodd" clip-rule="evenodd" d="M13.4542 3.99952C13.4542 3.47221 12.5247 3 11.4989 3C10.473 3 9.54363 3.47221 9.54363 3.99952L9.56514 4.12917L9.97318 6.36911L8.03488 7.44639C7.82862 7.56203 7.57017 7.87974 7.53733 8.19957H7.89097C7.94991 7.87974 8.21399 7.52532 8.70937 7.54692C9.1571 7.56961 9.4223 7.82889 9.68528 8.19957L9.75332 8.29679L9.85079 8.44267H7C7.20973 8.84354 7.40809 9.26927 7.40809 9.73066V15.3808C7.40809 16.8341 8.57901 17.5268 9.84736 17.5268C10.8267 17.5268 10.9594 17.4846 11.5 18C12.0384 17.4846 12.171 17.5268 13.1526 17.5268C14.4199 17.5268 15.592 16.8341 15.592 15.3808V9.73176C15.592 9.27033 15.7903 8.84464 16 8.44377H13.147L13.2456 8.29789L13.3136 8.20067C13.5754 7.82999 13.8418 7.57067 14.2896 7.54797C14.7826 7.52638 15.049 7.8808 15.1068 8.20067H15.4593C15.4276 7.8808 15.168 7.56203 14.9628 7.44749L13.0246 6.37021L13.4338 4.13027L13.4542 3.99952ZM9.94034 4.25665L11.3867 4.72564V6.88346L10.3211 6.34967L9.94034 4.25665ZM10.2963 8.8349C10.4866 9.08342 10.795 9.26711 11.16 9.33842C11.1906 9.46918 11.2654 9.61285 11.4105 9.7285C11.3504 10.1143 11.5238 10.4741 11.9591 10.5692C12.0044 10.7658 12.1325 10.9139 12.3467 10.9841L12.0441 11.3169C11.9285 11.4444 11.7778 11.4854 11.653 11.4703L10.3019 11.3245C10.3609 11.1818 10.2044 11.0165 9.7771 11.0868L10.3087 9.67125L9.98452 9.01533L9.37017 9.51457L9.32483 10.9992L9.06412 10.8771C8.7207 10.7367 8.62093 11.3277 8.94737 11.3299L9.07657 11.3309C9.06866 11.3914 9.08795 11.4585 9.13781 11.479C9.07657 11.5038 9.05843 11.614 9.13555 11.653C9.05732 11.6875 9.0471 11.7999 9.1095 11.8485C9.04146 11.9576 9.03123 12.1943 9.26812 12.2537C9.46199 12.3023 9.58328 12.1035 9.62292 11.9879L11.7244 12.6081C12.0226 12.6892 12.2334 12.6438 12.4805 12.4374L13.0291 11.9804C12.96 12.2797 13.0733 12.5487 13.3125 12.6384C13.3125 12.6384 13.2785 12.9075 13.2887 13.0274H7.81728V9.73176C7.81728 9.42484 7.72435 9.11802 7.61324 8.8349H10.2963ZM12.5564 10.0851C12.4408 10.2958 12.4522 10.5379 12.5882 10.7572L12.4975 10.8414C12.103 10.795 11.9478 10.2342 11.9478 10.2342C11.9398 10.285 11.9353 10.3336 11.9364 10.3833C11.7063 10.3023 11.5612 10.1078 11.5726 9.84088C11.6598 9.88733 11.7573 9.91977 11.8616 9.93704L11.8888 9.77279C11.6134 9.72744 11.4524 9.56318 11.3912 9.3687C11.3776 9.3676 11.3663 9.36438 11.3538 9.36328C11.4026 9.36654 11.4513 9.37086 11.5011 9.37086C11.6644 9.37086 11.8197 9.3471 11.9647 9.30603C12.0792 9.46164 12.2822 9.57292 12.4862 9.59452C12.4533 9.72418 12.4692 9.88517 12.5564 10.0851ZM13.1402 11.5676C13.1005 11.6184 13.0688 11.6767 13.0484 11.7404L12.8285 11.9328C12.8727 11.6259 12.6562 11.264 12.459 11.1159L12.6925 10.8977L12.7389 10.9431C12.6607 11.1386 12.8137 11.5222 13.1402 11.5676ZM12.0781 11.4714L12.2595 11.3018C12.4431 11.4552 12.6857 11.7977 12.6097 12.124L12.4125 12.2969C12.3717 12.3348 12.3298 12.3618 12.2867 12.3866C12.4102 12.096 12.2527 11.6486 12.0781 11.4714ZM11.6882 11.6151H11.6938C11.7596 11.6248 11.8299 11.614 11.8934 11.5892C12.0316 11.7772 12.1393 12.2051 11.9738 12.472C11.8798 12.4741 11.7879 12.4579 11.7018 12.4342L11.6338 12.4147C11.7732 12.2084 11.7539 11.8431 11.6882 11.6151ZM11.2314 11.5611L11.4864 11.5914C11.5272 11.7934 11.5 12.1425 11.3651 12.3413L11.0682 12.2591C11.1985 12.0905 11.2597 11.7437 11.2314 11.5611ZM10.6998 11.4995L11.0092 11.5341C11.0398 11.6962 10.982 12.0408 10.8653 12.2051L10.5502 12.1186C10.6759 11.9598 10.7213 11.68 10.6998 11.4995ZM9.44723 11.4206C9.30332 11.465 9.23981 11.3655 9.2455 11.2813C9.52777 11.1829 9.65354 11.2466 9.7363 11.2964C9.81225 11.3417 9.87572 11.4714 9.97772 11.5524C9.96074 11.6627 9.92563 11.8226 9.88363 11.9296C9.59461 11.8593 9.5799 11.6162 9.68754 11.4682C9.62745 11.4012 9.56403 11.3839 9.44723 11.4206ZM9.2455 11.9576C9.2455 11.9576 9.33163 11.9922 9.44043 11.9998C9.42799 12.0571 9.3815 12.1111 9.30785 12.096C9.24661 12.083 9.21941 12.0117 9.2455 11.9576ZM8.96097 11.1688C8.88959 11.1235 8.92132 11.0241 9.00066 11.0241C9.08795 11.0262 9.20354 11.1202 9.31803 11.1667C9.31803 11.1667 9.01763 11.2056 8.96097 11.1688ZM9.25457 11.7415C9.31692 11.7988 9.50394 11.7772 9.50394 11.7772L9.51074 11.8129C9.4291 11.9166 9.20243 11.8701 9.25457 11.7415ZM9.50621 11.6238C9.37243 11.6746 9.23528 11.6054 9.27719 11.5233C9.33959 11.5773 9.51301 11.5503 9.51301 11.5503L9.50621 11.6238ZM9.70345 10.1402L9.44723 11.0294L9.53457 9.59452L9.93127 9.27143L10.1331 9.69394L9.62292 11.0878L9.75785 10.1499C9.7703 10.0829 9.71479 10.0754 9.70345 10.1402ZM9.72159 11.2186C9.72159 11.2186 10.0072 11.2056 10.0877 11.2348C10.1467 11.2586 10.1069 11.3536 10.0299 11.3428C9.94941 11.3331 9.72159 11.2186 9.72159 11.2186ZM10.1693 11.4347L10.4799 11.4714C10.5037 11.6335 10.4594 11.908 10.3484 12.0614L10.048 11.9782C10.1274 11.7977 10.1467 11.6281 10.1693 11.4347ZM15.1828 15.3819C15.1828 16.0691 14.8495 16.591 14.2953 16.8806L14.4936 16.4959H14.3009L14.0458 16.9886C13.7817 17.0837 13.4825 17.1366 13.1515 17.1366C12.1404 17.1366 11.873 17.1756 11.4989 17.5311C11.1237 17.1756 10.8562 17.1366 9.84625 17.1366C9.51754 17.1366 9.2183 17.0859 8.95532 16.9908H8.96212L9.21714 16.4959H9.02559L8.8023 16.9292C8.74901 16.9054 8.69688 16.8795 8.64697 16.8514L8.83061 16.4959H8.64017L8.50421 16.7606C8.07119 16.457 7.81613 15.9816 7.81613 15.3819V13.2208H15.1805V15.3819H15.1828ZM15.3879 8.8349C15.2734 9.11802 15.1816 9.42484 15.1816 9.73176V13.0274H14.7792C14.5967 12.8588 14.4425 12.2969 14.4425 12.2969C14.3429 12.499 14.4573 12.9086 14.5639 13.0274H14.0458C13.9178 12.8621 13.8067 12.2764 13.8067 12.2764C13.6514 12.445 13.75 12.8999 13.8463 13.0274H13.5018C13.4802 12.7929 13.5505 12.5379 13.5505 12.5379C13.3703 12.5066 13.1787 12.4158 13.1798 12.2256C13.2705 12.3066 13.308 12.3056 13.4338 12.3034L13.58 12.1932C13.0949 12.2084 13.0722 11.7005 13.4576 11.4628C13.0733 11.4746 12.7865 11.2564 12.926 10.8674C12.6528 10.7324 12.5564 10.2915 12.7582 10.098C12.612 9.94678 12.5882 9.64965 12.6811 9.44754C12.4873 9.44754 12.2697 9.37407 12.1484 9.24763C12.1393 9.252 12.128 9.25521 12.1178 9.25847C12.3603 9.16447 12.5655 9.01749 12.7038 8.83596H15.3879V8.8349ZM13.9212 7.24868C13.5222 7.31461 13.1787 7.78027 12.8976 8.20067L12.8659 8.24928H12.5655L12.5644 8.29895C12.5338 8.62314 12.2107 9.06289 11.4989 9.06289C11.1702 9.06289 10.9219 8.96672 10.7519 8.83596C10.6046 8.72142 10.5116 8.57991 10.4662 8.44483C10.4493 8.39622 10.439 8.3465 10.4345 8.29895L10.4322 8.24928H10.1342L10.1024 8.20067C9.82016 7.78138 9.4767 7.31567 9.07883 7.24868L10.1659 6.64684L11.5011 7.33837L12.8341 6.64684L13.9212 7.24868ZM12.6766 6.34967L11.6122 6.88346V4.72564L13.0586 4.25665L12.6766 6.34967ZM11.5 4.49008L9.91883 3.89469C10.0525 3.59216 10.6726 3.33388 11.5 3.33388C12.3263 3.33388 12.9452 3.59216 13.079 3.89469L11.5 4.49008Z" fill="black"/>
<path id="Vector_33" fill-rule="evenodd" clip-rule="evenodd" d="M14.9951 11L15 10.7866C14.2273 10.7713 14.0493 10 14.0493 10C13.8235 10.5676 14.4134 10.9916 14.9951 11Z" fill="black"/>
<path id="Vector_34" fill-rule="evenodd" clip-rule="evenodd" d="M14 11.9693L13.9306 11.7617C13.3393 11.9077 13.0332 11 13.0332 11C12.844 11.66 13.5033 12.1268 14 11.9693Z" fill="black"/>
<path id="Vector_35" fill-rule="evenodd" clip-rule="evenodd" d="M14.6311 11.4197C14.1892 11.4861 14.008 11 14.008 11C13.959 11.2649 14.1402 11.5333 14.4333 11.5613C14.3667 11.9067 14.706 12.0842 15 11.9609L14.9575 11.8402C14.7023 11.9215 14.4629 11.6828 14.6311 11.4197Z" fill="black"/>
<path id="Vector_36" fill-rule="evenodd" clip-rule="evenodd" d="M14.9934 10L15 9.78662C13.9614 9.60527 14.0486 9 14.0486 9C13.8248 9.5704 14.414 9.99164 14.9934 10Z" fill="black"/>
<path id="Vector_37" fill-rule="evenodd" clip-rule="evenodd" d="M10.2438 17L10 18H10.1834L10.4262 17H10.2438Z" fill="black"/>
<path id="Vector_38" fill-rule="evenodd" clip-rule="evenodd" d="M10.2428 17L10 18H10.1845L10.4251 17H10.2428Z" fill="black"/>
<path id="Vector_39" fill-rule="evenodd" clip-rule="evenodd" d="M11.2428 17L11 18H11.1824L11.4262 17H11.2428Z" fill="black"/>
<path id="Vector_40" fill-rule="evenodd" clip-rule="evenodd" d="M12.2449 17L12 18H12.1845L12.4262 17H12.2449Z" fill="black"/>
<path id="Vector_41" fill-rule="evenodd" clip-rule="evenodd" d="M11.2438 17L11 18H11.1834L11.4262 17H11.2438Z" fill="black"/>
<path id="Vector_42" fill-rule="evenodd" clip-rule="evenodd" d="M14 18H14.1834L14.4262 17H14.2428L14 18Z" fill="black"/>
<path id="Vector_43" fill-rule="evenodd" clip-rule="evenodd" d="M10.2428 17L10 18H10.1834L10.4262 17H10.2428Z" fill="black"/>
<path id="Vector_44" fill-rule="evenodd" clip-rule="evenodd" d="M11.2428 17L11 18H11.1845L11.4273 17H11.2428Z" fill="black"/>
<path id="Vector_45" fill-rule="evenodd" clip-rule="evenodd" d="M10.0626 14C10.0292 14 10 14.0333 10 14.0767C10 14.1189 10.0292 14.1533 10.0626 14.1533C10.0971 14.1533 10.1274 14.1189 10.1274 14.0767C10.1263 14.0333 10.0971 14 10.0626 14Z" fill="black"/>
<path id="Vector_46" fill-rule="evenodd" clip-rule="evenodd" d="M11.4996 2.49261C12.255 2.49261 12.8603 2.7503 13.1937 3.02684C13.1937 3.02684 13.2941 2.40932 13.6318 1.86729L13.0232 1.93725L12.7049 1.23975L12.0931 1.56741L11.4996 0.960938L10.9061 1.56741L10.2921 1.23975L9.97381 1.93725L9.36523 1.86729C9.70409 2.40932 9.80331 3.02684 9.80331 3.02684C10.1378 2.7503 10.7443 2.49261 11.4996 2.49261ZM10.0785 2.21493L10.3688 1.58182L10.9061 1.87617L11.4996 1.27305L12.0931 1.87617L12.6305 1.58182L12.9175 2.21493L13.2747 2.15829C13.1829 2.33487 13.1139 2.48925 13.0502 2.70585C12.6596 2.47149 12.079 2.29047 11.4996 2.29047C10.918 2.29047 10.3386 2.47149 9.94792 2.70585C9.88319 2.48925 9.81519 2.33487 9.72241 2.15829L10.0785 2.21493Z" fill="black"/>
<path id="Vector_47" fill-rule="evenodd" clip-rule="evenodd" d="M12.1213 1.24476C12.2097 1.25255 12.2885 1.18368 12.2961 1.09373C12.3047 1.00265 12.1752 0.760498 12.1752 0.760498C12.1752 0.760498 11.9821 0.974875 11.9756 1.06595C11.967 1.15481 12.0339 1.23588 12.1213 1.24476Z" fill="black"/>
<path id="Vector_48" fill-rule="evenodd" clip-rule="evenodd" d="M13.1181 1.61718C13.1969 1.6605 13.293 1.62828 13.3351 1.54718C13.3782 1.46724 13.3501 1.19287 13.3501 1.19287C13.3501 1.19287 13.0933 1.31173 13.0513 1.39279C13.0103 1.47277 13.0405 1.57273 13.1181 1.61718Z" fill="black"/>
<path id="Vector_49" fill-rule="evenodd" clip-rule="evenodd" d="M10.8768 1.24476C10.9664 1.23588 11.0322 1.1559 11.0247 1.06595C11.016 0.974875 10.8251 0.760498 10.8251 0.760498C10.8251 0.760498 10.6966 1.00374 10.7042 1.09373C10.7107 1.18368 10.7894 1.25255 10.8768 1.24476Z" fill="black"/>
<path id="Vector_50" fill-rule="evenodd" clip-rule="evenodd" d="M9.88071 1.61718C9.95949 1.57273 9.9886 1.47277 9.9476 1.39279C9.9066 1.31173 9.64869 1.19287 9.64869 1.19287C9.64869 1.19287 9.62173 1.46724 9.66493 1.54718C9.70483 1.62828 9.80193 1.6605 9.88071 1.61718Z" fill="black"/>
<path id="Vector_51" fill-rule="evenodd" clip-rule="evenodd" d="M21.8421 7.25968C22.0547 7.1819 22.2186 6.9731 22.3007 6.77985C21.7601 6.69989 20.3238 6.07898 19.1434 6.58437C19.5858 6.15233 19.9829 6.09679 20.0206 5.47475C20.2041 5.61029 20.5138 5.6869 20.6886 5.36371C20.5667 4.99387 20.2591 5.29372 20.216 5.19157C20.1555 5.04937 20.6033 5.23488 20.6994 4.75391C20.3508 4.63068 20.2472 4.92388 20.1847 4.85611C20.1275 4.79169 20.4058 4.66842 20.2009 4.28076C19.8383 4.49958 20.0271 4.74503 19.9505 4.7728C19.8577 4.81058 19.9311 4.50959 19.5297 4.524C19.4897 4.96719 19.9063 4.98159 19.8383 5.05159C19.7552 5.13711 19.6473 4.79722 19.3441 4.96941C19.3495 5.32702 19.6311 5.52363 19.9214 5.43923C19.8739 6.11898 19.2675 5.99237 18.8164 6.75874C19.7725 7.26303 20.2052 8.1427 20.7932 8.75134C20.9875 8.60918 21.3198 7.97831 21.3198 7.97831C21.9564 8.48587 22.4042 7.98053 22.4042 7.98053C22.1852 7.74949 22.1766 7.57403 21.8421 7.25968ZM20.9141 7.38299C20.9799 7.5329 21.1105 8.05604 20.7986 8.45479C20.4436 7.72502 19.9559 7.09972 19.561 6.82986C19.4746 6.77206 19.6084 6.67103 19.8523 6.63765C20.5871 6.4944 21.4493 6.81428 21.8594 6.92644C21.6684 7.07309 21.513 7.13972 21.3177 7.16414C21.6155 7.42186 21.8335 7.63954 21.9867 7.88168C21.6986 7.95611 21.5356 7.76838 20.9141 7.38299Z" fill="black"/>
<path id="Vector_52" fill-rule="evenodd" clip-rule="evenodd" d="M14.7754 18.7275V17.8967C14.1517 18.1911 13.3586 18.4298 12.3378 18.5242L12.2915 18.8208C12.3777 18.833 12.4878 18.8441 12.6346 18.8541C12.2569 18.9074 11.7681 18.933 11.5005 18.933C11.2318 18.933 10.7441 18.9074 10.3653 18.8541C10.511 18.8441 10.6211 18.833 10.7074 18.8208L10.661 18.5242C9.64019 18.4298 8.846 18.1911 8.22342 17.8967V18.7275L7.37744 19.0851C8.00438 19.4206 8.72517 19.6938 9.5582 19.9148L9.4589 20.2625C9.9359 20.4069 10.6987 20.5535 11.4983 20.5535C12.2979 20.5535 13.0597 20.4058 13.5377 20.2625L13.4395 19.9148C14.2715 19.6938 14.9945 19.4206 15.6214 19.0851L14.7754 18.7275ZM7.82956 19.104L8.4004 18.8675V18.1911C8.76727 18.3365 9.24849 18.4876 9.93911 18.6353L9.6154 19.7205C8.91074 19.5539 8.31189 19.3295 7.82956 19.104ZM11.4994 20.3547C10.8552 20.3547 10.2261 20.2559 9.68877 20.1192L10.0308 18.9808C10.2574 19.0352 10.825 19.1062 11.4994 19.1062C12.1749 19.1062 12.7392 19.0341 12.9669 18.9808L13.3101 20.1192C12.7705 20.2559 12.1425 20.3547 11.4994 20.3547ZM13.3845 19.7205L13.0608 18.6353C13.7514 18.4887 14.2326 18.3365 14.5995 18.1911V18.8675L15.1693 19.104C14.687 19.3295 14.0902 19.5539 13.3845 19.7205Z" fill="black"/>
<path id="Vector_53" fill-rule="evenodd" clip-rule="evenodd" d="M1.67919 7.97831C1.67919 7.97831 2.01153 8.60918 2.20472 8.75134C2.79388 8.14379 3.22763 7.26412 4.1826 6.75874C3.73044 5.99237 3.12402 6.1212 3.0787 5.43923C3.36895 5.52363 3.64954 5.32593 3.65602 4.96941C3.35168 4.79722 3.24384 5.13933 3.1618 5.05159C3.09381 4.97937 3.50924 4.96719 3.4704 4.524C3.06901 4.51068 3.14238 4.81058 3.04849 4.7728C2.97293 4.74503 3.1618 4.49849 2.79819 4.28076C2.59426 4.66951 2.87371 4.79169 2.81545 4.85611C2.75389 4.92388 2.64816 4.63177 2.30072 4.75391C2.39456 5.23488 2.84456 5.04937 2.7841 5.19157C2.74095 5.29372 2.43454 4.99387 2.31366 5.36371C2.48633 5.68803 2.79709 5.61138 2.9794 5.47588C3.01829 6.09901 3.4143 6.15119 3.85779 6.58437C2.67621 6.07898 1.24002 6.69989 0.697221 6.78094C0.780338 6.97311 0.944364 7.1819 1.15693 7.25746C0.822402 7.57512 0.813767 7.75057 0.594727 7.98053C0.594727 7.98053 1.04144 8.48587 1.67919 7.97831ZM1.01017 7.88276C1.16446 7.64067 1.38133 7.42186 1.68135 7.16523C1.48495 7.13972 1.33065 7.07309 1.13856 6.92644C1.54968 6.81428 2.41296 6.49331 3.14885 6.63765C3.39057 6.67103 3.52651 6.77206 3.43804 6.82986C3.04312 7.09972 2.55428 7.72502 2.19926 8.45479C1.88854 8.05604 2.02016 7.53399 2.08384 7.38404C1.46337 7.76838 1.30154 7.95611 1.01017 7.88276Z" fill="black"/>
<path id="Vector_54" fill-rule="evenodd" clip-rule="evenodd" d="M10.9824 7.51489V7.8803C11.1043 7.72813 11.3418 7.75816 11.3418 7.75816V8.2857C11.3418 8.2857 11.3331 8.54564 11.2446 8.65672H11.5003H11.7561C11.6665 8.54564 11.6589 8.2857 11.6589 8.2857V7.75925C11.6589 7.75925 11.8952 7.72922 12.0172 7.88143V7.51598H11.5003H10.9824V7.51489Z" fill="black"/>
</g>
</svg>
