<svg width="62" height="62" viewBox="0 0 62 62" fill="none" xmlns="http://www.w3.org/2000/svg">
<path d="M46.7237 23.7309L45.9693 24.3233L46.7262 24.9126L54.894 31.2709C55.1073 31.4539 55.2738 31.6853 55.3798 31.9457C55.4876 32.2104 55.5295 32.4973 55.502 32.7817L55.501 32.7925L55.5002 32.8033C55.4807 33.0935 55.3898 33.3743 55.2357 33.6209C55.0817 33.8673 54.8693 34.0719 54.6173 34.2167C54.6171 34.2168 54.6169 34.2169 54.6167 34.217L46.0343 39.1248L45.6566 39.3408V39.7759L45.6566 46.0153C45.6566 46.0155 45.6566 46.0158 45.6566 46.0161C45.6552 46.3178 45.5766 46.6141 45.4282 46.8768C45.2797 47.1398 45.0663 47.3603 44.8084 47.5173L44.8055 47.5191L32.003 55.3917C31.7364 55.5438 31.4347 55.6238 31.1277 55.6238C30.8206 55.6238 30.5189 55.5438 30.2523 55.3917L17.4498 47.5191L17.4469 47.5173C17.189 47.3603 16.9756 47.1398 16.8271 46.8768C16.6788 46.6143 16.6002 46.3182 16.5987 46.0167V39.8011V39.3715L16.2282 39.1541L7.64477 34.1199L7.64478 34.1199L7.63863 34.1163C7.3864 33.9716 7.17379 33.7668 7.01966 33.5202C6.86564 33.2738 6.77477 32.9932 6.75511 32.7032C6.736 32.4129 6.78887 32.1223 6.90904 31.8574C7.02928 31.5922 7.21315 31.3609 7.44431 31.184L7.44458 31.1838L15.6252 24.9161L16.3928 24.3281L15.6323 23.7309L7.42648 17.2871L7.42626 17.2869C7.19832 17.108 7.01786 16.8759 6.90076 16.6109C6.78487 16.3486 6.73456 16.0621 6.75412 15.7761C6.78401 15.4846 6.88031 15.2037 7.03568 14.9551C7.19065 14.7072 7.40024 14.498 7.64837 14.3435L20.5711 6.977C20.5716 6.97669 20.5722 6.97638 20.5727 6.97607C20.8913 6.79728 21.2575 6.72163 21.6209 6.75955C21.985 6.79753 22.3282 6.94761 22.6033 7.18906L22.605 7.19059L30.685 14.2385L31.178 14.6686L31.671 14.2385L39.751 7.19059L39.7527 7.18905C40.0278 6.94761 40.371 6.79753 40.7351 6.75955C41.0984 6.72163 41.4646 6.79726 41.7832 6.97601C41.7837 6.97634 41.7843 6.97667 41.7849 6.977L54.7076 14.3435C54.9558 14.498 55.1654 14.7072 55.3203 14.9551C55.4757 15.2037 55.572 15.4846 55.6019 15.7761C55.6214 16.0621 55.5711 16.3486 55.4552 16.6109C55.3381 16.8759 55.1577 17.108 54.9297 17.2869L54.9295 17.2871L46.7237 23.7309ZM41.6177 10.9325L41.1577 10.6704L40.7568 11.0161L34.9171 16.0503L34.1393 16.7208L35.0146 17.2577L42.566 21.8892L43.0106 22.1619L43.421 21.84L49.8397 16.8058L50.7183 16.1167L49.748 15.564L41.6177 10.9325ZM38.9276 25.0899L39.8777 24.437L38.8958 23.833L31.571 19.3273L31.178 19.0856L30.7851 19.3273L23.4602 23.833L22.4783 24.437L23.4284 25.0899L30.7532 30.1241L31.178 30.4161L31.6028 30.1241L38.9276 25.0899ZM12.6566 15.565L11.6966 16.1152L12.5633 16.8031L18.9064 21.8374L19.3175 22.1636L19.7648 21.8892L27.3162 17.2577L28.1896 16.722L27.415 16.0514L21.6004 11.0171L21.1982 10.6688L20.7365 10.9334L12.6566 15.565ZM12.5727 31.7052L11.6821 32.3892L12.6551 32.9499L20.9113 37.7073L21.3486 37.9593L21.7467 37.649L27.3347 33.2944L28.1391 32.6675L27.3011 32.0864L19.7497 26.8508L19.2997 26.5389L18.8655 26.8724L12.5727 31.7052ZM41.842 45.1714L42.1925 44.9549L42.1978 44.543L42.223 42.6048L42.2341 41.7476L41.383 41.8505C41.2422 41.8675 41.0998 41.8675 40.9589 41.8505L40.9153 41.8452L40.8713 41.8451C40.4808 41.8439 40.1018 41.7134 39.7933 41.474L39.7916 41.4727L31.6362 35.1799L31.178 34.8264L30.7198 35.1799L22.5644 41.4727L22.5638 41.4731C22.3535 41.6357 22.1092 41.7487 21.8491 41.8038C21.5891 41.8589 21.3199 41.8546 21.0618 41.7912L20.133 41.5632V42.5196V44.5333V44.9521L20.4895 45.1718L30.7846 51.515L31.1785 51.7577L31.5721 51.5145L41.842 45.1714ZM40.6156 37.5784L41.0075 37.8771L41.4372 37.636L49.6934 33.0045L50.6818 32.45L49.7851 31.757L43.4671 26.8738L43.0325 26.5379L42.5811 26.8508L35.0298 32.0864L34.1823 32.674L35.0024 33.2992L40.6156 37.5784Z" fill="#94BADF" stroke="white" stroke-width="1.5"/>
</svg>
