<svg width="60" height="60" viewBox="0 0 60 60" fill="none" xmlns="http://www.w3.org/2000/svg">
<g id="exchange">
<path id="Vector" d="M13.0971 21.585L12.0675 22.6102H13.5205H42.4955C42.9994 22.6102 43.4827 22.8104 43.839 23.1667C44.1953 23.523 44.3955 24.0063 44.3955 24.5102C44.3955 25.0141 44.1953 25.4974 43.839 25.8537C43.4827 26.2101 42.9994 26.4102 42.4955 26.4102H7.49721C7.12254 26.4081 6.75685 26.2953 6.44612 26.0859C6.13505 25.8762 5.893 25.5792 5.75046 25.2322L5.75048 25.2322L5.74855 25.2277C5.60305 24.8816 5.5633 24.5003 5.63431 24.1317C5.7052 23.7638 5.88331 23.425 6.14621 23.158C6.14666 23.1576 6.14711 23.1571 6.14755 23.1566L16.1447 13.1595C16.503 12.8013 16.9888 12.6 17.4955 12.6C18.0021 12.6 18.488 12.8013 18.8462 13.1595C19.2044 13.5177 19.4057 14.0036 19.4057 14.5102C19.4057 15.0166 19.2046 15.5023 18.8467 15.8605C18.8465 15.8607 18.8464 15.8608 18.8462 15.861L13.0971 21.585ZM54.2405 33.7882L54.2424 33.7928C54.3879 34.1388 54.4276 34.5202 54.3566 34.8888C54.2857 35.2567 54.1077 35.5954 53.8448 35.8623C53.8443 35.8628 53.8439 35.8633 53.8434 35.8638L43.8462 45.861L43.8445 45.8627C43.6678 46.0408 43.4577 46.1821 43.2262 46.2786C42.9946 46.3751 42.7463 46.4247 42.4955 46.4247C42.2446 46.4247 41.9963 46.3751 41.7648 46.2786C41.5332 46.1821 41.3231 46.0408 41.1465 45.8627L41.143 45.8592C40.9649 45.6826 40.8235 45.4725 40.7271 45.2409C40.6306 45.0094 40.581 44.7611 40.581 44.5102C40.581 44.2594 40.6306 44.0111 40.7271 43.7795C40.8235 43.548 40.9649 43.3379 41.143 43.1612L41.1438 43.1604L46.8938 37.4354L47.9235 36.4102H46.4705H17.4955C16.9916 36.4102 16.5083 36.2101 16.152 35.8537C15.7956 35.4974 15.5955 35.0141 15.5955 34.5102C15.5955 34.0063 15.7956 33.523 16.152 33.1667C16.5083 32.8104 16.9916 32.6102 17.4955 32.6102H52.4939C52.8685 32.6124 53.2341 32.7252 53.5448 32.9346C53.8559 33.1442 54.0979 33.4412 54.2405 33.7882Z" fill="#94BADF" stroke="white" stroke-width="1.2"/>
</g>
</svg>
