<svg width="33" height="33" viewBox="0 0 33 33" fill="none" xmlns="http://www.w3.org/2000/svg">
<path d="M17.8679 9.91561C17.5922 10.0266 17.2975 10.0832 17.0012 10.0833H17C16.8521 10.0833 16.7037 10.0693 16.5571 10.0409C16.1167 9.95575 15.7149 9.74599 15.4015 9.44132C15.0883 9.13686 14.8776 8.75157 14.7924 8.33535C14.7073 7.91928 14.7508 7.48778 14.9184 7.09447C15.086 6.70092 15.3715 6.36111 15.7419 6.12049C16.1125 5.87973 16.5504 5.75 17 5.75C17.6034 5.75 18.1781 5.98326 18.5985 6.39202C19.0182 6.80008 19.25 7.34896 19.25 7.91667C19.25 8.34041 19.1209 8.75645 18.8763 9.11228C18.6316 9.46838 18.2815 9.74905 17.8679 9.91561ZM15.8258 12.0545C16.1337 11.7551 16.5557 11.5833 17 11.5833C17.4443 11.5833 17.8663 11.7551 18.1742 12.0545C18.4814 12.3532 18.65 12.7537 18.65 13.1667H18.65L18.65 13.1727L18.7444 25C18.7444 25.0009 18.7444 25.0018 18.7444 25.0027C18.7437 25.4147 18.5752 25.8142 18.2687 26.1122C17.9607 26.4115 17.5387 26.5833 17.0944 26.5833C16.6501 26.5833 16.2281 26.4115 15.9202 26.1122C15.613 25.8135 15.4444 25.413 15.4444 25L15.4444 24.994L15.35 13.1667C15.35 13.1658 15.35 13.1649 15.35 13.164C15.3507 12.7519 15.5192 12.3525 15.8258 12.0545Z" fill="#94BADF" stroke="white" stroke-width="1.5"/>
<circle cx="16.5" cy="16.5" r="16" stroke="#94BADF"/>
</svg>
