<svg width="40" height="41" viewBox="0 0 40 41" fill="none" xmlns="http://www.w3.org/2000/svg">
<path d="M33.8747 25.4843L33.8747 25.4843C33.6836 25.4347 33.4846 25.4233 33.2891 25.4508C33.0936 25.4782 32.9055 25.544 32.7355 25.6443C32.5654 25.7447 32.4169 25.8776 32.2984 26.0354C32.1799 26.1932 32.0938 26.3727 32.0448 26.5637C31.2526 29.6883 29.4419 32.4599 26.8986 34.4405C24.3552 36.4212 21.2243 37.4978 18.0007 37.5003H18.0003H6.82028H5.5996L6.46952 36.644L7.74568 35.3878C7.74626 35.3872 7.74684 35.3866 7.74742 35.386C8.0257 35.1052 8.18186 34.7258 8.18186 34.3303C8.18186 33.9343 8.02526 33.5544 7.74624 33.2734L33.8747 25.4843ZM33.8747 25.4843L33.8802 25.4857M33.8747 25.4843L33.8802 25.4857M33.8802 25.4857C34.0763 25.5342 34.2607 25.6219 34.4221 25.7434C34.5836 25.865 34.7188 26.0179 34.8197 26.1931C34.9205 26.3682 34.985 26.5619 35.0091 26.7625C35.0333 26.9632 35.0166 27.1666 34.9602 27.3607L34.9581 27.3679L34.9562 27.3753C33.9858 31.1336 31.7934 34.4627 28.7239 36.8387C25.6545 39.2147 21.8822 40.5028 18.0006 40.5003H18.0003H2.00138C1.70573 40.4985 1.41718 40.4095 1.17198 40.2442C0.926402 40.0787 0.735305 39.8442 0.622791 39.5703L0.621186 39.5665C0.506317 39.2933 0.474933 38.9922 0.530994 38.7013C0.586787 38.4117 0.726704 38.145 0.933208 37.9345L4.34962 34.598L4.67404 34.2812M33.8802 25.4857L4.67404 34.2812M4.67404 34.2812L4.39032 33.9275M4.67404 34.2812L4.39032 33.9275M4.39032 33.9275C2.56349 31.6498 1.33556 28.9513 0.818381 26.0778C0.301206 23.2042 0.511224 20.2469 1.4293 17.4753C2.34738 14.7037 3.94435 12.2058 6.07472 10.2092C8.2049 8.21277 10.8007 6.78102 13.6257 6.04432C13.8167 5.99518 14.0155 5.9841 14.2107 6.01171C14.4062 6.03934 14.5944 6.10522 14.7644 6.20556C15.1078 6.40821 15.3566 6.73898 15.4561 7.12509C15.5054 7.31627 15.5165 7.51528 15.4889 7.71077C15.4612 7.90625 15.3954 8.09438 15.295 8.2644C15.1947 8.43443 15.0618 8.58303 14.904 8.70171C14.7463 8.82037 14.5668 8.9068 14.3756 8.95608L4.39032 33.9275ZM30.0032 4.5003H30.0003L24.0003 11.0003L23.5003 10.9981C23.5003 10.9986 23.5003 10.999 23.5003 10.9994C23.4962 11.9731 23.7109 12.9352 24.1286 13.8148L24.4327 14.455L24.9338 13.9539L32.9338 5.95385L33.4309 5.45676L32.7982 5.15031C31.9266 4.72812 30.9717 4.50605 30.0032 4.5003ZM34.5848 15.6027L34.5849 15.6028L34.5936 15.5941C35.8121 14.3771 36.4979 12.7262 36.5003 11.0041C36.514 10.0256 36.3066 9.05651 35.8936 8.16926L35.592 7.5215L35.0867 8.02674L27.0867 16.0267L26.5772 16.5362L27.2328 16.8352C28.4414 17.3864 29.7873 17.5636 31.0974 17.3439C32.4075 17.1243 33.622 16.5179 34.5848 15.6027ZM30.944 1.52943C33.1308 1.74774 35.1743 2.71746 36.7263 4.2734C37.6079 5.15727 38.3067 6.20623 38.7827 7.36032C39.2587 8.51442 39.5025 9.75101 39.5003 10.9994C39.4964 13.1971 38.7306 15.3254 37.3335 17.0218C35.9364 18.7182 33.9944 19.8778 31.8382 20.303C29.6821 20.7281 27.4452 20.3926 25.5087 19.3536C23.5722 18.3145 22.0558 16.6362 21.2179 14.6046C20.38 12.5729 20.2724 10.3136 20.9134 8.21148C21.5544 6.10938 22.9044 4.29454 24.7334 3.07613C26.5624 1.85772 28.7572 1.31112 30.944 1.52943Z" fill="#4E5154" stroke="#E5EDF4"/>
</svg>
