<svg width="231" height="134" viewBox="0 0 231 134" fill="none" xmlns="http://www.w3.org/2000/svg">
<g id="Group 1321316456">
<g id="Group 1321316260">
<rect id="Rectangle 12452" width="230.126" height="134" rx="15" fill="url(#paint0_linear_1544_13326)"/>
<g id="Mask group">
<mask id="mask0_1544_13326" style="mask-type:alpha" maskUnits="userSpaceOnUse" x="0" y="0" width="230" height="134">
<rect id="Rectangle 12455" width="229.895" height="134" rx="15" fill="#C6D6E7"/>
</mask>
<g mask="url(#mask0_1544_13326)">
<path id="Vector" d="M251.302 -28.8636C248.141 -33.9935 244.717 -38.9383 241.046 -43.6761C226.27 -62.6913 207.673 -78.0114 186.6 -88.5308C165.526 -99.0503 142.5 -104.507 119.184 -104.507C95.867 -104.507 72.8413 -99.0503 51.7675 -88.5308C30.6938 -78.0114 12.0976 -62.6913 -2.6794 -43.6761C-6.34354 -38.933 -9.76676 -33.9886 -12.9346 -28.8636C-28.364 -3.79474 -37.0914 25.199 -38.1966 55.0605C-39.3018 84.922 -32.7437 114.545 -19.214 140.805C-5.68432 167.065 14.3157 188.99 38.6772 204.267C63.0386 219.544 90.8587 227.608 119.204 227.608C147.549 227.608 175.369 219.544 199.731 204.267C224.092 188.99 244.092 167.065 257.622 140.805C271.152 114.545 277.71 84.922 276.605 55.0605C275.5 25.199 266.772 -3.79474 251.343 -28.8636H251.302ZM260.531 61.5464C260.531 66.5343 260.306 71.4646 259.855 76.3372H127.234V46.5176C149.159 45.3597 170.612 39.3741 190.21 28.946C209.809 18.518 227.119 3.87857 241.026 -14.0296C253.821 8.85454 260.557 34.9391 260.531 61.5031V61.5464ZM119.173 -8.75333C113.376 -8.74905 107.709 -10.5572 102.886 -13.949C98.0642 -17.3409 94.3043 -22.1641 92.0822 -27.8088C89.8601 -33.4536 89.2756 -39.6663 90.4025 -45.6612C91.5294 -51.6562 94.3172 -57.1643 98.4133 -61.4889C102.509 -65.8134 107.73 -68.7602 113.415 -69.9567C119.099 -71.1532 124.993 -70.5456 130.35 -68.2108C135.707 -65.8759 140.287 -61.9187 143.511 -56.8395C146.735 -51.7603 148.458 -45.7872 148.462 -39.6756C148.465 -35.6177 147.709 -31.599 146.239 -27.8488C144.769 -24.0987 142.612 -20.6906 139.892 -17.8192C137.172 -14.9478 133.943 -12.6693 130.388 -11.1138C126.833 -9.55824 123.022 -8.75617 119.173 -8.75333ZM231.571 -28.9069C219.214 -11.805 203.488 2.27014 185.476 12.3493C167.464 22.4284 147.594 28.2722 127.234 29.478V7.48633C138.381 5.34129 148.366 -1.11852 155.229 -10.6254C162.092 -20.1323 165.337 -32 164.327 -43.8994C163.318 -55.7989 158.127 -66.871 149.773 -74.943C141.419 -83.0151 130.505 -87.5043 119.173 -87.5296C140.93 -87.5478 162.396 -82.2619 181.894 -72.0849C201.392 -61.908 218.393 -47.1156 231.571 -28.8636V-28.9069ZM119.173 -87.5296C107.84 -87.5096 96.9227 -83.0242 88.565 -74.9539C80.2072 -66.8836 75.0123 -55.8111 74.0001 -43.9101C72.9879 -32.0091 76.2315 -20.139 83.0941 -10.6298C89.9568 -1.12059 99.9429 5.34091 111.092 7.48633V29.5212C90.7325 28.3154 70.8624 22.4717 52.8505 12.3926C34.8385 2.31343 19.1125 -11.7617 6.75536 -28.8636C19.9369 -47.116 36.9424 -61.9084 56.4437 -72.0853C75.9449 -82.2621 97.4138 -87.5478 119.173 -87.5296ZM-22.2054 61.5031C-22.2565 34.8878 -15.5195 8.74745 -2.69993 -14.1809C11.2072 3.72725 28.5172 18.3666 48.1157 28.7946C67.7141 39.2227 89.1667 45.2084 111.092 46.3663V210.168C75.078 207.994 41.2141 191.389 16.4334 163.751C-8.34724 136.114 -22.1702 99.5348 -22.2054 61.5031ZM127.234 210.32V93.2904H257.311C250.705 125.086 234.418 153.731 210.934 174.86C187.449 195.989 158.056 208.441 127.234 210.32Z" fill="#DBEAF9"/>
</g>
</g>
</g>
</g>
<defs>
<linearGradient id="paint0_linear_1544_13326" x1="7.91438" y1="6.41148" x2="202.145" y2="114.638" gradientUnits="userSpaceOnUse">
<stop stop-color="#C6D6E7"/>
<stop offset="1" stop-color="#C6D6E7" stop-opacity="0.43"/>
</linearGradient>
</defs>
</svg>
