<svg width="43" height="43" viewBox="0 0 43 43" fill="none" xmlns="http://www.w3.org/2000/svg">
<g id="percentage">
<path id="Vector" d="M13.8988 11.858L13.8986 11.858C13.3573 11.8584 12.8382 12.0736 12.4554 12.4564C12.0727 12.8391 11.8575 13.3582 11.8571 13.8995V13.8997C11.8571 14.3035 11.9768 14.6982 12.2012 15.034C12.4255 15.3697 12.7444 15.6314 13.1175 15.7859C13.4905 15.9405 13.901 15.9809 14.2971 15.9021C14.6931 15.8233 15.0569 15.6289 15.3425 15.3434C15.628 15.0578 15.8224 14.694 15.9012 14.298C15.98 13.902 15.9396 13.4914 15.785 13.1184C15.6305 12.7453 15.3688 12.4264 15.0331 12.2021C14.6973 11.9778 14.3026 11.858 13.8988 11.858ZM29.1 31.1425H29.1001C29.6414 31.1422 30.1605 30.927 30.5433 30.5442C30.9261 30.1614 31.1413 29.6424 31.1416 29.101V29.1009C31.1416 28.6971 31.0219 28.3023 30.7975 27.9666C30.5732 27.6308 30.2543 27.3691 29.8813 27.2146C29.5082 27.0601 29.0977 27.0197 28.7016 27.0984C28.3056 27.1772 27.9418 27.3717 27.6563 27.6572C27.3707 27.9427 27.1763 28.3065 27.0975 28.7026C27.0187 29.0986 27.0592 29.5091 27.2137 29.8822C27.3682 30.2552 27.6299 30.5741 27.9657 30.7985C28.3014 31.0228 28.6961 31.1425 29.1 31.1425ZM35.1309 7.86863L35.131 7.86872C35.2742 8.01182 35.3877 8.18173 35.4652 8.36874C35.5427 8.55575 35.5826 8.75619 35.5826 8.95861C35.5826 9.16103 35.5427 9.36148 35.4652 9.54848C35.3877 9.73549 35.2742 9.9054 35.131 10.0485L35.131 10.0485L10.0476 35.1319L10.0465 35.133C9.90371 35.2776 9.73372 35.3926 9.54631 35.4712C9.35891 35.5499 9.1578 35.5907 8.95456 35.5914C8.75131 35.592 8.54994 35.5525 8.36205 35.475C8.17415 35.3975 8.00343 35.2836 7.85971 35.1399C7.71599 34.9962 7.60211 34.8255 7.52463 34.6376C7.44714 34.4497 7.40758 34.2483 7.40821 34.0451C7.40885 33.8419 7.44967 33.6407 7.52833 33.4533C7.60699 33.2659 7.72193 33.0959 7.86655 32.9531L7.86766 32.952L32.951 7.86868L32.951 7.86863C33.0941 7.72545 33.2641 7.61187 33.4511 7.53437C33.6381 7.45688 33.8385 7.41699 34.041 7.41699C34.2434 7.41699 34.4439 7.45688 34.6309 7.53437C34.8179 7.61187 34.9878 7.72545 35.1309 7.86863ZM16.7461 18.161C15.9033 18.7241 14.9124 19.0247 13.8988 19.0247C12.54 19.0231 11.2374 18.4827 10.2766 17.5219C9.31574 16.5611 8.77529 15.2583 8.77377 13.8995C8.77381 12.886 9.07438 11.8951 9.63749 11.0524C10.2006 10.2096 11.001 9.5527 11.9375 9.16481C12.874 8.77691 13.9045 8.67541 14.8986 8.87316C15.8928 9.07091 16.806 9.55902 17.5227 10.2758C18.2394 10.9925 18.7275 11.9057 18.9253 12.8999C19.123 13.894 19.0216 14.9245 18.6337 15.8609C18.2458 16.7974 17.5889 17.5978 16.7461 18.161ZM26.2527 24.8396C27.0954 24.2765 28.0861 23.9759 29.0997 23.9759C30.4585 23.9774 31.7613 24.5178 32.7222 25.4787C33.683 26.4395 34.2235 27.7423 34.225 29.1011C34.2249 30.1147 33.9243 31.1054 33.3612 31.9482C32.7981 32.791 31.9977 33.4479 31.0612 33.8357C30.1247 34.2236 29.0943 34.3251 28.1001 34.1274C27.106 33.9296 26.1928 33.4415 25.476 32.7248C24.7593 32.008 24.2712 31.0949 24.0734 30.1007C23.8757 29.1066 23.9772 28.0761 24.3651 27.1396C24.753 26.2031 25.4099 25.4027 26.2527 24.8396Z" fill="#4E5154" stroke="white" stroke-width="0.5"/>
</g>
</svg>
