<svg width="43" height="43" viewBox="0 0 43 43" fill="none" xmlns="http://www.w3.org/2000/svg">
<g id="invoice">
<path id="Vector" d="M32.0007 21.5V21.75H32.2507H37.6257C38.0345 21.75 38.4267 21.9124 38.7158 22.2015C39.0049 22.4906 39.1673 22.8828 39.1673 23.2916V34.0416C39.1673 35.4009 38.6274 36.7044 37.6663 37.6656C36.7051 38.6267 35.4016 39.1666 34.0423 39.1666H8.959C7.59976 39.1666 6.2962 38.6267 5.33508 37.6656C4.37395 36.7044 3.834 35.4009 3.834 34.0416V5.37496H3.834L3.834 5.37397C3.83292 5.10231 3.90364 4.83519 4.039 4.59966C4.17437 4.36413 4.36956 4.16854 4.60483 4.03272L4.60483 4.03272C4.83919 3.89741 5.10505 3.82617 5.37567 3.82617C5.64628 3.82617 5.91214 3.89741 6.1465 4.03272L6.14715 4.03309L11.5222 7.11476L11.6465 7.18605L11.7708 7.11476L17.1458 4.03309L17.1465 4.03272C17.3809 3.89741 17.6467 3.82617 17.9173 3.82617C18.188 3.82617 18.4538 3.89741 18.6882 4.03272L18.6888 4.03309L24.0638 7.11476L24.1882 7.18605L24.3125 7.11476L29.6875 4.03309L29.6882 4.03272C29.9225 3.89741 30.1884 3.82617 30.459 3.82617C30.7296 3.82617 30.9955 3.89741 31.2298 4.03272C31.4651 4.16854 31.6603 4.36413 31.7957 4.59966C31.931 4.83519 32.0017 5.10231 32.0007 5.37397V5.37496V21.5ZM7.29113 8.25735L6.91733 8.04428V8.47454V34.0416C6.91733 34.5831 7.13244 35.1024 7.51532 35.4853C7.89821 35.8682 8.41752 36.0833 8.959 36.0833H28.9898H29.3466L29.2248 35.748C29.0261 35.2005 28.9221 34.6232 28.9173 34.0408V8.47454V8.04428L28.5435 8.25735L24.9643 10.2975C24.7246 10.4219 24.4584 10.4869 24.1882 10.4869C23.9181 10.4869 23.652 10.422 23.4123 10.2976L18.0417 7.21849L17.9173 7.1472L17.793 7.21849L12.4224 10.2976C12.1827 10.422 11.9166 10.4869 11.6465 10.4869C11.3763 10.4869 11.1101 10.4219 10.8703 10.2975L7.29113 8.25735ZM32.2507 24.8333H32.0007V25.0833V34.0416C32.0007 34.5831 32.2158 35.1024 32.5987 35.4853C32.9815 35.8682 33.5008 36.0833 34.0423 36.0833C34.5838 36.0833 35.1031 35.8682 35.486 35.4853C35.8689 35.1024 36.084 34.5831 36.084 34.0416V25.0833V24.8333H35.834H32.2507ZM11.4522 29.3682C11.7413 29.0791 12.1335 28.9166 12.5423 28.9166H23.2923C23.7012 28.9166 24.0933 29.0791 24.3825 29.3682C24.6716 29.6573 24.834 30.0494 24.834 30.4583C24.834 30.8672 24.6716 31.2593 24.3825 31.5484C24.0933 31.8375 23.7012 32 23.2923 32H12.5423C12.1335 32 11.7413 31.8375 11.4522 31.5484C11.1631 31.2593 11.0007 30.8672 11.0007 30.4583C11.0007 30.0494 11.1631 29.6573 11.4522 29.3682ZM19.709 17.6666H16.1257C15.7168 17.6666 15.3247 17.5042 15.0355 17.2151C14.7464 16.926 14.584 16.5338 14.584 16.125C14.584 15.7161 14.7464 15.324 15.0355 15.0348C15.3247 14.7457 15.7168 14.5833 16.1257 14.5833H19.709C20.1179 14.5833 20.51 14.7457 20.7991 15.0348C21.0882 15.324 21.2507 15.7161 21.2507 16.125C21.2507 16.5338 21.0882 16.926 20.7991 17.2151C20.51 17.5042 20.1179 17.6666 19.709 17.6666ZM12.5423 21.75H23.2923C23.7012 21.75 24.0933 21.9124 24.3825 22.2015C24.6716 22.4906 24.834 22.8828 24.834 23.2916C24.834 23.7005 24.6716 24.0926 24.3825 24.3817C24.0933 24.6709 23.7012 24.8333 23.2923 24.8333H12.5423C12.1335 24.8333 11.7413 24.6709 11.4522 24.3817C11.1631 24.0926 11.0007 23.7005 11.0007 23.2916C11.0007 22.8828 11.1631 22.4906 11.4522 22.2015C11.7413 21.9124 12.1335 21.75 12.5423 21.75Z" fill="#4E5154" stroke="white" stroke-width="0.5"/>
</g>
</svg>
