<svg width="42" height="43" viewBox="0 0 42 43" fill="none" xmlns="http://www.w3.org/2000/svg">
<g id="money-stack">
<path id="Vector" d="M2.44141 31.1581C2.72319 30.8696 3.1041 30.7087 3.5 30.7087H38.5C38.8959 30.7087 39.2768 30.8696 39.5586 31.1581C39.8406 31.4468 40 31.8396 40 32.2503C40 32.6611 39.8406 33.0539 39.5586 33.3425C39.2768 33.631 38.8959 33.792 38.5 33.792H3.5C3.1041 33.792 2.72319 33.631 2.44141 33.3425C2.15943 33.0539 2 32.6611 2 32.2503C2 31.8396 2.15943 31.4468 2.44141 31.1581ZM2.44141 38.3248C2.72319 38.0363 3.1041 37.8753 3.5 37.8753H38.5C38.8959 37.8753 39.2768 38.0363 39.5586 38.3248C39.8406 38.6135 40 39.0062 40 39.417C40 39.8277 39.8406 40.2205 39.5586 40.5092C39.2768 40.7977 38.8959 40.9587 38.5 40.9587H3.5C3.1041 40.9587 2.72319 40.7977 2.44141 40.5092C2.15943 40.2205 2 39.8277 2 39.417C2 39.0062 2.15943 38.6135 2.44141 38.3248ZM9.66891 13.0503C9.91544 12.8816 10.2047 12.792 10.5 12.792C10.8959 12.792 11.2768 12.953 11.5586 13.2414C11.8406 13.5301 12 13.9229 12 14.3337C12 14.6399 11.9113 14.9387 11.7457 15.1924C11.5802 15.4461 11.3455 15.6428 11.0721 15.7588C10.7987 15.8747 10.4983 15.9049 10.2085 15.8459C9.91864 15.7869 9.65158 15.6411 9.44141 15.4259C9.23117 15.2106 9.08736 14.9357 9.02904 14.6355C8.97071 14.3353 9.0007 14.0242 9.11496 13.7418C9.22921 13.4594 9.42229 13.219 9.66891 13.0503ZM7 2.04199H35C36.3242 2.04199 37.5953 2.58048 38.5335 3.54098C39.4718 4.50167 40 5.80588 40 7.16699V21.5003C40 22.8614 39.4718 24.1656 38.5335 25.1263C37.5953 26.0868 36.3242 26.6253 35 26.6253H7C5.67584 26.6253 4.40469 26.0868 3.46653 25.1263C2.52818 24.1656 2 22.8614 2 21.5003V7.16699C2 5.80588 2.52818 4.50167 3.46653 3.54098C4.40469 2.58048 5.67584 2.04199 7 2.04199ZM36.4163 22.9419C36.7907 22.5586 37 22.0399 37 21.5003V7.16699C37 6.62738 36.7907 6.10872 36.4163 5.72541C36.0417 5.34189 35.5324 5.12533 35 5.12533H7C6.46764 5.12533 5.95831 5.34189 5.58372 5.72541C5.20932 6.10872 5 6.62738 5 7.16699V21.5003C5 22.0399 5.20932 22.5586 5.58372 22.9419C5.95831 23.3254 6.46764 23.542 7 23.542H35C35.5324 23.542 36.0417 23.3254 36.4163 22.9419ZM18.2244 10.0708C19.0465 9.50845 20.0124 9.20866 21 9.20866C22.3242 9.20866 23.5953 9.74715 24.5335 10.7076C25.4718 11.6683 26 12.9726 26 14.3337C26 15.3486 25.706 16.3402 25.1559 17.1832C24.6057 18.0261 23.8245 18.6822 22.9115 19.0694C21.9986 19.4565 20.9944 19.5577 20.0257 19.3604C19.0569 19.1631 18.1662 18.676 17.4665 17.9597C16.7668 17.2433 16.2897 16.3299 16.0963 15.3346C15.9029 14.3393 16.0022 13.3077 16.3814 12.3705C16.7605 11.4333 17.4022 10.6333 18.2244 10.0708ZM19.8866 16.0297C20.2156 16.2548 20.6031 16.3753 21 16.3753C21.5324 16.3753 22.0417 16.1588 22.4163 15.7752C22.7907 15.3919 23 14.8733 23 14.3337C23 13.9311 22.8834 13.5372 22.6644 13.2016C22.4454 12.866 22.1334 12.6035 21.7673 12.4482C21.4011 12.2929 20.9978 12.2522 20.6087 12.3314C20.2196 12.4107 19.863 12.6061 19.5837 12.8921C19.3045 13.178 19.1149 13.5415 19.0382 13.9364C18.9615 14.3313 19.0008 14.7407 19.1515 15.1131C19.3021 15.4854 19.5576 15.8047 19.8866 16.0297ZM30.6689 13.0503C30.9154 12.8816 31.2047 12.792 31.5 12.792C31.8959 12.792 32.2768 12.953 32.5586 13.2414C32.8406 13.5301 33 13.9229 33 14.3337C33 14.6399 32.9113 14.9387 32.7457 15.1924C32.5802 15.4461 32.3455 15.6428 32.0721 15.7588C31.7987 15.8747 31.4983 15.9049 31.2085 15.8459C30.9186 15.7869 30.6516 15.6411 30.4414 15.4259C30.2312 15.2106 30.0874 14.9357 30.029 14.6355C29.9707 14.3353 30.0007 14.0242 30.115 13.7418C30.2292 13.4594 30.4223 13.219 30.6689 13.0503Z" fill="#4E5154" stroke="white" stroke-width="0.5"/>
</g>
</svg>
