<svg width="295" height="186" viewBox="0 0 295 186" fill="none" xmlns="http://www.w3.org/2000/svg">
<path d="M23.2189 40.6387L111.766 45.9345C111.766 45.9345 121.08 130.411 132.292 162.304C132.292 162.304 109.238 169.047 95.529 168.586L18.3114 160.47L20.0931 113.751L8.05917 115.584C8.05917 115.584 4.45325 67.6646 23.2189 40.6387Z" fill="#C6D6E7"/>
<path d="M116.948 31.0139C113.903 59.1028 112.119 87.2858 111.595 115.563C111.387 128.11 111.681 140.644 111.595 153.191C111.473 163.319 111.055 173.95 114.321 183.698C114.886 185.405 117.623 184.668 117.046 182.937C113.67 172.858 114.333 161.858 114.444 151.374C114.579 138.606 114.284 125.838 114.53 113.071C115.078 85.6448 116.846 58.2925 119.833 31.0139C120.029 29.2093 117.194 29.2216 117.009 31.0139H116.948Z" fill="#4E5154"/>
<path d="M117.606 31.5047C121.535 57.1055 125.467 82.6981 129.404 108.283C131.319 120.756 133.296 133.216 135.137 145.702C136.635 155.768 138.12 165.418 143.448 174.269C143.637 174.595 143.948 174.832 144.312 174.929C144.675 175.026 145.063 174.974 145.388 174.785C145.714 174.596 145.951 174.286 146.048 173.922C146.144 173.558 146.093 173.171 145.904 172.845C140.318 163.576 139.139 153.362 137.568 142.866C135.677 130.27 133.701 117.686 131.761 105.091L120.344 30.7558C120.062 28.9634 117.348 29.7246 117.618 31.5047H117.606Z" fill="#4E5154"/>
<path d="M115.621 184.729C121.284 184.677 126.885 183.539 132.121 181.378C136.552 179.487 140.579 176.749 145.048 174.92C146.705 174.245 145.981 171.507 144.299 172.195C134.392 176.258 126.817 181.599 115.621 181.906C115.246 181.906 114.887 182.054 114.622 182.319C114.358 182.584 114.209 182.943 114.209 183.317C114.209 183.692 114.358 184.051 114.622 184.316C114.887 184.58 115.246 184.729 115.621 184.729Z" fill="#4E5154"/>
<path d="M118.973 29.6383C86.5749 27.6741 54.2874 23.6105 21.779 24.077C21.4046 24.077 21.0455 24.2258 20.7807 24.4905C20.5159 24.7553 20.3672 25.1144 20.3672 25.4888C20.3672 25.8633 20.5159 26.2224 20.7807 26.4871C21.0455 26.7519 21.4046 26.9006 21.779 26.9006C54.2874 26.4341 86.5749 30.4977 118.973 32.4619C120.79 32.5724 120.778 29.7365 118.973 29.6383Z" fill="#4E5154"/>
<path d="M20.5633 24.7278C1.8906 68.9235 0.675213 118.19 0 165.418C0 165.792 0.148738 166.151 0.413504 166.416C0.678269 166.681 1.03737 166.829 1.4118 166.829C1.78624 166.829 2.14533 166.681 2.4101 166.416C2.67487 166.151 2.8236 165.792 2.8236 165.418C3.48654 118.767 4.54233 69.8075 23.0063 26.1519C23.7061 24.4945 21.2753 23.0581 20.551 24.7278H20.5633Z" fill="#4E5154"/>
<path d="M14.7323 173.078C46.5287 184.655 82.0941 186.705 115.621 184.728C117.426 184.618 117.438 181.794 115.621 181.905C82.3028 183.869 47.0812 181.905 15.4812 170.353C13.7625 169.726 13.0259 172.452 14.7323 173.078Z" fill="#4E5154"/>
<path d="M115.547 164.682C115.547 164.301 118.788 164.313 122.324 164.804C125.283 165.21 128.209 165.834 131.077 166.67C133.853 167.557 136.557 168.652 139.167 169.948C142.285 171.458 144.863 173.189 144.679 173.533C144.495 173.877 141.672 172.71 138.467 171.581C135.263 170.452 131.727 169.347 130.377 168.941C129.027 168.536 125.38 167.382 121.992 166.56C118.604 165.737 115.547 165.099 115.547 164.682Z" fill="#4E5154"/>
<path d="M121.744 169.494C122.063 169.739 121.401 171.028 120.75 172.465C120.099 173.901 119.449 175.448 119.203 176.025C118.957 176.602 118.221 178.087 117.632 179.487C117.042 180.886 116.514 182.188 116.109 182.126C115.704 182.065 115.655 180.604 115.913 178.996C116.129 177.648 116.499 176.33 117.018 175.067C117.619 173.803 118.364 172.612 119.24 171.519C120.283 170.206 121.45 169.248 121.744 169.494Z" fill="#4E5154"/>
<path d="M117.671 102.476C117.266 102.537 116.099 95.8094 115.927 88.2225C115.756 80.6356 116.038 72.3611 116.124 69.3043C116.345 63.1659 117.72 37.0413 118.506 37.0782C119.291 37.115 118.727 63.2887 118.506 69.3902C118.42 72.4593 117.879 80.7338 117.708 88.2102C117.536 95.6867 118.002 102.414 117.671 102.476Z" fill="#4E5154"/>
<path d="M12.7786 72.8764C12.9627 72.8764 13.0855 74.104 12.6926 75.9946C12.1236 78.2818 11.3933 80.5259 10.5074 82.71C9.0308 86.8109 7.80094 90.9965 6.82439 95.2444C5.80604 99.3865 5.02724 103.584 4.49185 107.816C3.82891 112.849 3.69387 117.428 3.26419 117.44C2.83451 117.453 2.4171 112.837 2.68718 107.619C3.04248 98.7601 5.12776 90.0562 8.82549 81.9979C9.93038 79.5426 11.0475 77.3696 11.6614 75.6632C12.2752 73.9567 12.5699 72.8518 12.7786 72.8764Z" fill="#4E5154"/>
<path d="M77.8824 155.768C77.5387 155.989 73.4014 150.06 68.233 143.921C63.0645 137.783 56.9508 131.424 54.6182 129.189C52.2857 126.955 46.1474 120.915 40.1073 115.967C37.386 113.79 34.841 111.401 32.4958 108.822C30.6911 106.723 29.8318 105.139 29.9791 105.041C30.1264 104.943 31.2681 106.269 33.2447 108.11C35.7907 110.404 38.4543 112.563 41.2245 114.58C52.0292 122.546 61.6013 132.06 69.6325 142.816C74.5432 149.274 78.2016 155.572 77.8824 155.768Z" fill="#4E5154"/>
<path d="M58.9504 138.25C58.6066 138.458 57.3299 136.936 55.8198 135.364C54.3098 133.793 52.6157 132.148 51.9896 131.534C51.3634 130.92 49.7306 129.288 48.1592 127.851C46.5878 126.415 45.1024 125.212 45.2988 124.868C45.4952 124.524 47.3367 125.249 49.215 126.415C50.8035 127.386 52.2884 128.518 53.6469 129.791C54.9849 131.146 56.1857 132.631 57.2316 134.223C58.4839 136.162 59.2696 138.053 58.9504 138.25Z" fill="#4E5154"/>
<path d="M112.401 43.3391C111.689 43.0076 113.482 38.2075 113.973 37.2008C114.464 36.1941 116.919 31.8359 117.656 32.1674C118.392 32.4988 116.649 37.1517 116.158 38.2075C115.667 39.2633 113.089 43.6705 112.401 43.3391Z" fill="#4E5154"/>
<path d="M27.6565 163.306C27.6565 163.699 25.4467 163.699 23.0773 163.723H17.1478L11.3532 163.564C9.04519 163.49 6.95817 163.429 6.90907 163.036C6.85996 162.643 8.91015 162.103 11.2427 161.808C13.2066 161.523 15.1879 161.376 17.1723 161.366C19.1963 161.414 21.2145 161.603 23.2124 161.931C25.6063 162.324 27.7179 162.925 27.6565 163.306Z" fill="#4E5154"/>
<path d="M110.638 176.43C110.441 176.786 108.182 175.865 105.727 174.994C103.272 174.122 100.485 173.238 99.4782 172.919C98.4716 172.6 95.7953 171.691 93.3399 171.004C90.8846 170.316 88.6257 169.776 88.6626 169.347C88.6994 168.917 91.1179 168.917 93.696 169.261C95.9046 169.542 98.0853 170.01 100.215 170.66C102.369 171.386 104.459 172.29 106.464 173.361C108.808 174.638 110.773 176.099 110.638 176.43Z" fill="#4E5154"/>
<path d="M50.5786 33.5791C53.8442 22.3338 57.5027 4.4836 71.8295 2.99814C79.3305 2.21243 85.5302 7.81055 87.5926 14.7837C89.7779 22.1496 87.7277 29.8716 85.0514 36.8816C84.4007 38.588 87.1384 39.3369 87.7768 37.6427C92.6138 25.0346 93.645 2.48252 75.3406 0.162243C57.3922 -2.10893 51.5976 20.0012 47.8532 32.8917C47.7539 33.2531 47.8023 33.6391 47.9876 33.9649C48.173 34.2907 48.4801 34.5295 48.8415 34.6288C49.2029 34.7281 49.589 34.6798 49.9148 34.4945C50.2405 34.3091 50.4793 34.002 50.5786 33.6405V33.5791Z" fill="#4E5154"/>
<path d="M58.7149 25.4893C60.2986 15.0665 68.1188 6.04321 78.8485 4.43497C85.1955 3.4774 91.1252 5.57669 94.4889 11.2976C97.644 16.7484 96.9442 22.899 96.269 28.8654C96.0726 30.6701 98.8963 30.6578 99.0927 28.8654C99.9029 21.3276 100.32 13.7161 95.3238 7.4673C93.6413 5.44687 91.5154 3.84188 89.1115 2.77723C86.7075 1.71258 84.0902 1.21698 81.4635 1.32899C68.4871 1.40265 57.8433 12.4516 55.9895 24.7282C55.7194 26.5083 58.4448 27.2817 58.7149 25.4771V25.4893Z" fill="#4E5154"/>
<path d="M48.8961 32.7942C48.8961 32.6224 49.3626 32.5241 49.8782 32.8556C50.2012 33.0826 50.4647 33.3841 50.6463 33.7346C50.828 34.0851 50.9224 34.4742 50.9217 34.869C50.9371 35.3746 50.8049 35.8737 50.5411 36.3053C50.248 36.7617 49.8184 37.114 49.3135 37.312C48.6523 37.581 47.9173 37.6071 47.2387 37.3857C46.5679 37.164 46.0006 36.7059 45.6428 36.0967C45.3834 35.651 45.2637 35.1378 45.299 34.6234C45.3412 34.1339 45.5199 33.6661 45.8147 33.273C46.0331 32.9617 46.321 32.7054 46.6555 32.5243C46.9899 32.3432 47.3619 32.2423 47.7421 32.2295C48.3559 32.2295 48.6383 32.5487 48.5769 32.7206C48.5155 32.8925 48.2454 33.0152 47.9876 33.2362C47.6906 33.4803 47.4692 33.8039 47.3492 34.1692C47.3033 34.2905 47.2939 34.4226 47.3222 34.5492C47.3506 34.6757 47.4155 34.7912 47.5088 34.8812C47.6505 34.9941 47.8133 35.0776 47.9876 35.1268C48.1627 35.1975 48.3518 35.227 48.5401 35.2127C48.7365 35.2127 48.9574 35.1023 49.0925 34.7217C49.2153 34.3468 49.2153 33.9425 49.0925 33.5677C49.0188 33.2239 48.8224 32.9907 48.8961 32.7942Z" fill="#4E5154"/>
<path d="M86.6481 37.1887C86.6481 37.0169 87.0901 36.9186 87.5935 37.1887C87.9051 37.3919 88.1665 37.6633 88.3579 37.9823C88.5493 38.3013 88.6657 38.6596 88.6983 39.0302C88.7437 39.5076 88.6544 39.9882 88.4405 40.4175C88.2229 40.8615 87.8763 41.2295 87.4461 41.4733C86.8685 41.8128 86.1903 41.9398 85.529 41.8322C84.8676 41.7246 84.2647 41.3892 83.8245 40.884C83.5209 40.5212 83.3236 40.0815 83.2543 39.6135C83.1849 39.1455 83.2463 38.6675 83.4317 38.2322C83.5682 37.8987 83.7764 37.5993 84.0416 37.3553C84.3069 37.1113 84.6225 36.9287 84.9662 36.8204C85.5187 36.6977 85.8502 36.8941 85.8624 37.0782C85.8747 37.2624 85.6415 37.4588 85.4696 37.7289C85.2706 38.0286 85.1561 38.3763 85.1381 38.7356C85.1264 38.8547 85.1491 38.9747 85.2035 39.0813C85.2579 39.1879 85.3417 39.2767 85.445 39.3371C85.5879 39.4197 85.7471 39.47 85.9115 39.4844C86.0812 39.5233 86.2575 39.5233 86.4272 39.4844C86.5468 39.4595 86.6562 39.3995 86.7415 39.312C86.8268 39.2245 86.8841 39.1136 86.906 38.9934C87.011 38.6409 87.011 38.2655 86.906 37.913C86.7709 37.6184 86.5867 37.3852 86.6481 37.1887Z" fill="#4E5154"/>
<path d="M78.3607 33.1494C78.2625 33.53 76.2124 33.2721 73.9657 33.1494C71.7191 33.0266 69.2638 32.867 68.3553 32.8179C67.4468 32.7688 65.0652 32.5847 62.88 32.5356C60.6947 32.4864 58.6937 32.4619 58.6323 32.0568C58.5709 31.6517 60.5229 31.0624 62.7695 30.7555C64.6631 30.4784 66.5777 30.3716 68.4904 30.4363C70.4427 30.5804 72.3781 30.9009 74.2727 31.3938C76.5438 31.9217 78.4712 32.7688 78.3607 33.1494Z" fill="#4E5154"/>
<path d="M74.1724 34.6718C74.0497 35.0523 72.6256 34.8927 71.1156 34.6718C69.6056 34.4508 67.9728 34.2912 67.4326 34.2421C66.2706 34.0681 65.0963 33.9901 63.9215 34.0088C62.522 34.0088 61.2575 34.3648 61.061 34.0088C60.8646 33.6528 62.0064 32.6952 63.6146 32.2533C64.9381 31.8762 66.3199 31.7472 67.6904 31.8727C69.0361 32.0666 70.3519 32.4296 71.6066 32.9531C73.0553 33.5669 74.2829 34.2912 74.1724 34.6718Z" fill="#4E5154"/>
<path d="M128.981 40.9476C183.624 44.5078 238.881 42.9241 293.561 40.9476C295.378 40.874 295.378 38.0503 293.561 38.124C238.881 40.1005 183.624 41.6842 128.981 38.124C127.164 38.0012 127.176 40.8248 128.981 40.9476Z" fill="#4E5154"/>
<path d="M136.395 66.3349C186.226 68.8639 236.364 67.7713 286.17 66.1508C287.987 66.0894 287.987 63.2658 286.17 63.3272C236.327 64.9477 186.189 66.0403 136.395 63.5113C134.578 63.4131 134.591 66.249 136.395 66.3349Z" fill="#4E5154"/>
<path d="M143.788 91.6251C188.769 93.4298 233.886 92.6564 278.83 91.3305C279.205 91.3305 279.564 91.1817 279.829 90.9169C280.094 90.6522 280.242 90.2931 280.242 89.9186C280.242 89.5442 280.094 89.1851 279.829 88.9203C279.564 88.6556 279.205 88.5068 278.83 88.5068C233.849 89.8204 188.732 90.5939 143.788 88.8015C141.971 88.7278 141.983 91.5637 143.788 91.6251Z" fill="#4E5154"/>
<path d="M151.166 116.853C191.225 118.081 231.369 117.553 271.477 116.497C273.282 116.497 273.294 113.624 271.477 113.673C231.406 114.729 191.262 115.282 151.166 114.03C149.337 113.968 149.349 116.792 151.166 116.853Z" fill="#4E5154"/>
<path d="M127.618 39.9033C132.651 57.1397 137.689 74.3719 142.73 91.6001C147.383 107.56 151.017 124.379 158.137 139.479C158.911 141.124 161.342 139.688 160.593 138.055C153.227 122.5 149.544 104.969 144.793 88.5187C140.042 72.068 135.18 55.6174 130.368 39.1667C130.268 38.8053 130.03 38.4981 129.704 38.3128C129.378 38.1275 128.992 38.0791 128.631 38.1784C128.269 38.2777 127.962 38.5165 127.777 38.8423C127.591 39.1681 127.543 39.5542 127.642 39.9156L127.618 39.9033Z" fill="#4E5154"/>
<path d="M292.199 39.179C287.387 55.6296 282.578 72.0803 277.774 88.5309C272.974 104.982 269.303 122.513 261.974 138.067C261.201 139.7 263.632 141.136 264.429 139.491C271.55 124.403 275.184 107.572 279.837 91.6123C284.886 74.4251 289.924 57.1929 294.949 39.9156C294.998 39.7366 295.012 39.5497 294.989 39.3656C294.966 39.1815 294.907 39.0036 294.815 38.8423C294.723 38.681 294.6 38.5394 294.454 38.4254C294.307 38.3115 294.14 38.2276 293.961 38.1784C293.782 38.1293 293.595 38.1158 293.411 38.1389C293.227 38.1619 293.049 38.221 292.888 38.3128C292.726 38.4046 292.585 38.5272 292.471 38.6737C292.357 38.8202 292.273 38.9877 292.224 39.1667L292.199 39.179Z" fill="#4E5154"/>
<path d="M158.986 140.118C176.975 143.228 195.202 144.752 213.457 144.672C230.252 144.439 246.948 142.45 263.558 140.118C265.363 139.86 264.589 137.134 262.809 137.392C228.066 142.303 194.465 143.039 159.686 137.392C157.906 137.098 157.132 139.847 158.937 140.118H158.986Z" fill="#4E5154"/>
<path d="M144.745 78.6973C144.364 78.7832 143.37 75.5422 142.289 71.9329C141.209 68.3235 140.055 64.3459 139.638 62.9095C139.22 61.4732 138.25 57.6306 137.293 54.009C136.335 50.3874 135.599 47.2937 135.979 47.1587C136.36 47.0236 137.71 50.0314 138.999 53.4811C140.288 56.9308 141.516 60.8471 141.921 62.2712C142.326 63.6953 143.345 67.7956 144.02 71.5155C144.696 75.2353 145.125 78.6236 144.745 78.6973Z" fill="#4E5154"/>
<path d="M263.496 120.696C264.294 120.917 262.833 126.933 262.269 128.234C261.704 129.536 259.249 134.974 258.487 134.63C257.726 134.287 259.617 128.738 260.022 127.436C260.427 126.135 262.772 120.5 263.496 120.696Z" fill="#4E5154"/>
<path d="M243.891 45.6737C243.891 46.0543 236.881 46.8277 229.024 47.3065C221.167 47.7852 212.5 47.994 209.296 47.9817C206.092 47.9694 197.658 47.8098 190.022 47.2942C182.386 46.7786 175.597 46.0665 175.621 45.6737C175.646 45.2808 182.472 45.4404 190.095 45.5141C197.719 45.5877 206.116 45.6123 209.296 45.6C212.476 45.5878 221.118 45.6 228.938 45.5264C236.759 45.4527 243.867 45.3177 243.891 45.6737Z" fill="#4E5154"/>
<path d="M181.967 114.3C180.015 102.625 177.879 89.8086 177.056 85.0821C176.234 80.3556 173.987 67.8948 171.961 56.5758C170.857 50.4375 169.813 44.6184 169.003 40.6162H167.566C167.886 44.692 168.524 50.6339 169.322 56.9441C170.746 68.3613 172.71 80.908 173.545 85.6468C174.38 90.3856 176.762 103.215 179.315 114.779C181.869 126.344 184.496 136.656 185.061 136.533C185.625 136.411 183.894 125.963 181.967 114.3Z" fill="#4E5154"/>
<path d="M211.701 91.1462C211.578 85.99 211.283 72.363 211.013 59.9636C210.841 52.5976 210.706 45.7964 210.498 41.4014H209.196C208.84 45.7841 208.521 52.6345 208.349 59.9636C208.006 72.3507 208.03 86.0268 208.128 91.2076C208.227 96.3883 208.632 110.433 209.356 123.127C210.08 135.821 211.185 147.275 211.811 147.238C212.437 147.201 212.216 135.759 212.081 123.028C211.946 110.298 211.762 96.3146 211.701 91.1462Z" fill="#4E5154"/>
<path d="M258.316 40.6281C257.445 45.0108 256.34 51.235 255.137 57.8153C252.915 70.2761 250.472 83.989 249.539 89.1698C248.606 94.3505 246.31 108.481 244.174 121.334C242.038 134.188 240.061 145.679 240.65 145.802C241.24 145.925 244.088 134.569 246.789 121.826C249.49 109.082 252.141 94.9889 253.05 89.7836C253.958 84.5783 256.143 70.7794 257.776 58.2327C258.672 51.456 259.397 45.0722 259.777 40.6035L258.316 40.6281Z" fill="#4E5154"/>
<path d="M244.775 37.6577C242.85 32.6846 239.925 28.1594 236.181 24.3621C231.835 20.1319 226.392 17.202 220.467 15.9035C216.398 15.0308 212.24 14.6435 208.08 14.7495C203.989 14.8609 199.929 15.4962 196 16.6401C193.259 17.4366 190.619 18.5446 188.131 19.9425C186.799 20.6722 185.537 21.5229 184.362 22.4838C183.195 23.4383 182.107 24.4852 181.108 25.6143C177.696 29.4982 175.133 34.0518 173.583 38.9835C173.315 39.884 173.093 40.7978 172.92 41.7212L174.221 41.6598C174.454 40.9969 174.725 40.2848 175.056 39.5114C176.981 35.0386 179.692 30.9472 183.06 27.4312C184.019 26.4676 185.044 25.5732 186.13 24.755C187.216 23.9525 188.37 23.246 189.579 22.6434C191.926 21.4505 194.396 20.5161 196.945 19.8566C200.63 18.9096 204.412 18.3946 208.215 18.322C212.098 18.1928 215.983 18.4809 219.804 19.1814C225.221 20.1979 230.261 22.6628 234.389 26.3141C238.088 29.7494 241.148 33.8148 243.424 38.3206C243.952 39.3273 244.419 40.2235 244.824 41.0215L246.052 40.8987C245.634 39.9657 245.254 38.8853 244.775 37.6577Z" fill="#4E5154"/>
</svg>
