<svg width="48" height="48" viewBox="0 0 48 48" fill="none" xmlns="http://www.w3.org/2000/svg">
<path d="M32.867 34.6933C32.6842 34.8725 32.5391 35.0856 32.4401 35.3205C32.3411 35.5553 32.2901 35.8072 32.2901 36.0616C32.2901 36.316 32.3411 36.5679 32.4401 36.8028C32.5391 37.0376 32.6842 37.2508 32.867 37.4299V34.6933ZM32.867 34.6933L37.0987 30.53L32.867 34.6933ZM11.4718 18.5385L11.0366 18.9667H11.6472H34.2518C34.7037 18.9667 35.1365 19.1441 35.4552 19.459C35.7737 19.7738 35.9521 20.2001 35.9521 20.6439C35.9521 21.0878 35.7737 21.5141 35.4552 21.8289C35.1365 22.1437 34.7037 22.3211 34.2518 22.3211H6.94749C6.61133 22.3194 6.28346 22.2194 6.00516 22.034C5.72673 21.8486 5.51053 21.5863 5.38334 21.2803L5.38334 21.2803L5.38253 21.2784C5.2527 20.9733 5.21728 20.6372 5.2806 20.3125C5.34387 19.988 5.503 19.6888 5.73839 19.4528C5.73858 19.4527 5.73878 19.4525 5.73897 19.4523L13.5392 11.7446C13.8594 11.4283 14.2942 11.25 14.7482 11.25C15.2023 11.25 15.6371 11.4283 15.9573 11.7446C16.2773 12.0609 16.4566 12.4891 16.4566 12.9351C16.4566 13.3809 16.2774 13.809 15.9576 14.1253C15.9575 14.1254 15.9574 14.1255 15.9573 14.1256L11.4718 18.5385ZM43.6167 27.7164L43.6175 27.7183C43.7473 28.0234 43.7827 28.3595 43.7194 28.6842C43.6561 29.0087 43.497 29.3079 43.2616 29.5438C43.2614 29.544 43.2612 29.5442 43.261 29.5444L35.4608 37.2521L35.4601 37.2528C35.3021 37.4102 35.1141 37.5352 34.9067 37.6206C34.6992 37.706 34.4767 37.75 34.2518 37.75C34.0269 37.75 33.8043 37.706 33.5969 37.6206C33.3895 37.5352 33.2014 37.4102 33.0435 37.2528L33.042 37.2514C32.8828 37.0953 32.7565 36.9098 32.6705 36.7057C32.5844 36.5015 32.5401 36.2826 32.5401 36.0616C32.5401 35.8406 32.5844 35.6217 32.6705 35.4176C32.7565 35.2134 32.8828 35.0279 33.042 34.8718L33.0423 34.8715L37.5282 30.4582L37.9634 30.03H37.3528H14.7482C14.2963 30.03 13.8635 29.8526 13.5448 29.5377C13.2263 29.2229 13.0479 28.7966 13.0479 28.3528C13.0479 27.9089 13.2263 27.4826 13.5448 27.1679C13.8635 26.853 14.2963 26.6756 14.7482 26.6756H42.0525C42.3887 26.6773 42.7165 26.7773 42.9948 26.9627C43.2733 27.1481 43.4895 27.4105 43.6167 27.7164Z" fill="#4E5154" stroke="#E5EDF4" stroke-width="0.5"/>
</svg>
