<svg width="334" height="269" viewBox="0 0 334 269" fill="none" xmlns="http://www.w3.org/2000/svg">
<path d="M155.446 58.8154C153.941 104.547 152.435 150.287 150.929 196.033C150.911 196.377 151.031 196.713 151.262 196.969C151.493 197.224 151.815 197.377 152.159 197.394C152.503 197.412 152.839 197.292 153.094 197.061C153.349 196.83 153.502 196.508 153.52 196.164C155.033 150.418 156.543 104.678 158.048 58.9465C158.035 58.6208 157.9 58.312 157.67 58.0806C157.44 57.8492 157.133 57.7118 156.807 57.6954C156.481 57.679 156.161 57.7847 155.91 57.9919C155.658 58.1991 155.493 58.4928 155.446 58.8154Z" fill="#4E5154"/>
<path d="M163.28 62.008L170.785 53.1173L239.305 56.5686L251.003 70.6502L254.926 73.6916C254.926 73.6916 240.534 140.491 249.472 181.977L231.054 199.06L159.489 180.973L163.28 62.008Z" fill="#C6D6E7"/>
<path d="M35.2382 68.5987L54.6112 69.5746L115.405 54.5416L132.571 55.4063C132.571 55.4063 122.529 168.843 129.093 190.744L53.1539 203.687L28.2291 192.068C28.2291 192.068 42.085 134.246 35.2382 68.5987Z" fill="#C6D6E7"/>
<path d="M251.601 64.6525C245.348 113.014 241.324 161.585 239.529 210.367C239.512 210.711 239.632 211.047 239.862 211.302C240.093 211.557 240.416 211.71 240.759 211.728C241.103 211.745 241.439 211.625 241.695 211.394C241.95 211.164 242.103 210.841 242.12 210.497C243.92 161.761 247.944 113.19 254.192 64.783C254.411 63.1226 251.819 63.0033 251.601 64.6525Z" fill="#4E5154"/>
<path d="M265.356 67.1186C257.795 110.28 255.537 154.203 258.632 197.912C258.753 199.556 261.343 199.709 261.223 198.043C258.128 154.334 260.386 110.41 267.947 67.2491C268.232 65.6146 265.641 65.4954 265.356 67.1186Z" fill="#4E5154"/>
<path d="M241.689 211.391C247.309 206.371 253.66 202.235 260.524 199.126C262.06 198.457 260.855 196.149 259.331 196.807C252.267 200.011 245.731 204.271 239.947 209.439C238.696 210.506 240.438 212.468 241.69 211.368L241.689 211.391Z" fill="#4E5154"/>
<path d="M152.136 197.394C168.493 199.347 184.976 200.821 201.021 204.701C214.667 207.997 226.711 213.505 241.077 211.699C242.737 211.489 242.164 208.953 240.516 209.164C224.82 211.14 210.581 203.917 195.524 200.821C181.252 197.844 166.728 196.502 152.268 194.791C150.605 194.606 150.486 197.197 152.136 197.394Z" fill="#4E5154"/>
<path d="M157.35 60.0294C164.359 56.9943 174.708 59.5937 182.112 60.1473L205.643 61.8182C221.397 62.9618 237.068 64.1803 252.753 65.5689C254.416 65.7205 254.547 63.1182 252.883 62.9779C235.703 61.4462 218.502 60.1167 201.295 58.8999L176.627 57.1605C169.93 56.6989 162.525 55.0497 156.143 57.7663C154.608 58.4118 155.814 60.72 157.348 60.0857L157.35 60.0294Z" fill="#4E5154"/>
<path d="M252.11 65.3222C254.213 66.6252 256.084 68.2667 258.187 69.5698C259.6 70.4428 261.03 68.2787 259.607 67.3825C257.505 66.0795 255.633 64.438 253.531 63.1349C252.118 62.2619 250.687 64.4373 252.11 65.3222Z" fill="#4E5154"/>
<path d="M259.17 69.7434C261.733 69.0932 264.375 69.1021 266.927 68.4513C267.263 68.3769 267.556 68.172 267.741 67.8816C267.926 67.5912 267.988 67.2392 267.914 66.903C267.839 66.5668 267.634 66.2739 267.344 66.0887C267.054 65.9036 266.702 65.8414 266.365 65.9159C263.814 66.5666 261.16 66.5684 258.609 67.2079C256.996 67.6236 257.546 70.1585 259.17 69.7434Z" fill="#4E5154"/>
<path d="M184.837 63.8985C185.193 45.8464 183.057 13.7999 208.772 12.7009C237.645 11.4673 234.954 51.2102 230.084 69.4302C229.652 71.0461 232.118 71.8592 232.55 70.2434C237.811 50.541 240.095 12.1554 211.365 10.0984C200.821 9.34146 191.292 15.57 186.899 24.9823C181.337 36.7526 182.544 51.1227 182.302 63.7708C182.275 65.4409 184.866 65.5714 184.893 63.9014L184.837 63.8985Z" fill="#4E5154"/>
<path d="M194.791 58.8544C195.897 41.8338 198.852 16.7975 219.926 13.4431C229.831 11.864 237.851 18.7957 241.467 27.4822C245.881 38.0722 243.408 50.1675 241.229 60.9224C240.899 62.5433 243.364 63.3678 243.695 61.7355C246.04 50.1533 248.501 37.6169 243.775 26.2883C240.208 17.7286 232.569 10.6466 222.906 10.5552C198.224 10.4413 193.408 40.1161 192.19 58.7008C192.204 59.0265 192.339 59.3353 192.568 59.5667C192.798 59.7981 193.106 59.9355 193.431 59.9519C193.757 59.9683 194.077 59.8625 194.329 59.6553C194.58 59.4482 194.746 59.1545 194.792 58.8318L194.791 58.8544Z" fill="#4E5154"/>
<path d="M174.403 195.217C174.42 194.867 178.6 194.852 183.197 195.513C187.05 196.035 190.856 196.857 194.581 197.972C198.199 199.124 201.721 200.555 205.118 202.252C209.174 204.241 212.503 206.521 212.33 206.817C212.157 207.113 208.575 205.363 204.444 203.743C200.313 202.123 195.704 200.581 193.934 200.063C192.164 199.544 187.383 198.05 182.912 197.125C178.442 196.199 174.384 195.588 174.403 195.217Z" fill="#4E5154"/>
<path d="M247.332 200.054C247.555 200.347 246.69 201.377 245.829 202.542C244.968 203.707 244.079 204.995 243.739 205.474C243.398 205.954 242.524 207.164 241.698 208.331C240.871 209.497 240.228 210.606 239.883 210.498C239.538 210.39 239.72 209.033 240.243 207.614C240.667 206.413 241.244 205.273 241.961 204.222C242.735 203.173 243.641 202.228 244.655 201.41C245.857 200.409 247.11 199.749 247.332 200.054Z" fill="#4E5154"/>
<path d="M250.522 197.075C250.311 196.793 251.041 195.971 252.178 195.373C253.115 194.902 254.14 194.63 255.188 194.576C256.219 194.597 257.234 194.833 258.169 195.269C259.273 195.776 260.011 196.592 259.815 196.888C259.62 197.183 258.684 196.932 257.695 196.837C256.03 196.718 254.358 196.748 252.698 196.924C251.675 197.054 250.733 197.379 250.522 197.075Z" fill="#4E5154"/>
<path d="M248.685 187.834C248.504 187.825 248.247 185.079 247.979 180.762C247.711 176.446 247.521 170.575 247.492 164.418C247.324 152.066 248.009 138.469 248.352 133.46C248.534 130.951 248.888 126.406 249.42 120.989C249.953 115.572 250.698 109.308 251.573 103.366C252.448 97.4245 253.374 91.8243 254.158 87.6851C254.943 83.5459 255.569 80.9799 255.749 80.9889C255.929 80.998 255.614 83.6813 255.1 87.8229C254.587 91.9644 253.852 97.5856 253.179 103.537C252.507 109.489 251.921 115.739 251.446 121.136C250.971 126.533 250.696 131.082 250.517 133.513C250.176 138.499 249.314 152.03 249.111 164.342C248.959 170.5 248.959 176.339 248.911 180.651C248.863 184.963 248.866 187.82 248.685 187.834Z" fill="#4E5154"/>
<path d="M247.207 78.3342C246.875 78.1932 247.209 76.7306 247.617 75.1361C248.025 73.5416 248.497 71.7922 248.697 71.1812C248.897 70.5701 249.498 68.9628 250.072 67.4219C250.647 65.881 251.208 64.5992 251.566 64.6736C251.923 64.7481 251.883 66.2256 251.655 67.8404C251.459 69.1967 251.165 70.537 250.775 71.8505C250.324 73.1737 249.779 74.4634 249.146 75.71C248.381 77.2188 247.539 78.4751 247.207 78.3342Z" fill="#4E5154"/>
<path d="M185.522 123.836C185.147 123.885 184.46 120.71 183.263 117.33C182.298 114.511 181.154 111.756 179.839 109.082C178.616 106.451 177.236 103.896 175.707 101.431C173.879 98.4706 171.914 96.0112 172.187 95.7539C172.459 95.4966 174.847 97.6385 177.04 100.516C178.903 102.896 180.519 105.46 181.861 108.167C183.172 110.971 184.19 113.903 184.899 116.915C185.714 120.468 185.863 123.785 185.522 123.836Z" fill="#4E5154"/>
<path d="M187.058 116.866C186.692 116.961 185.871 114.864 184.867 112.6C183.863 110.336 182.677 107.881 182.248 106.979C181.819 106.076 180.709 103.671 179.609 101.527C178.508 99.3819 177.475 97.4664 177.769 97.244C178.063 97.0216 179.585 98.6455 180.984 100.681C182.196 102.378 183.269 104.169 184.193 106.038C185.077 107.98 185.811 109.988 186.386 112.044C187.098 114.508 187.401 116.782 187.058 116.866Z" fill="#4E5154"/>
<path d="M204.475 194.834C204.822 194.683 205.989 196.616 207.612 198.482C208.918 200.039 210.357 201.479 211.912 202.787C213.411 204.106 215.017 205.298 216.713 206.349C218.738 207.637 220.751 208.484 220.644 208.806C220.538 209.128 218.295 208.801 215.965 207.757C213.987 206.908 212.142 205.776 210.487 204.398C208.831 202.946 207.394 201.26 206.222 199.395C204.863 197.226 204.208 194.979 204.475 194.834Z" fill="#4E5154"/>
<path d="M183.38 62.9671C183.366 63.2487 182.907 63.395 182.539 63.7491C182.09 64.1344 181.785 64.6605 181.673 65.2415C181.62 65.4387 181.63 65.6479 181.704 65.8385C181.778 66.0292 181.91 66.1913 182.083 66.3012C182.334 66.4486 182.615 66.5362 182.906 66.5572C183.183 66.5937 183.464 66.5733 183.733 66.4972C183.919 66.4242 184.078 66.2962 184.19 66.1303C184.301 65.9644 184.359 65.7684 184.356 65.5686C184.391 64.9969 184.246 64.4286 183.941 63.944C183.691 63.5136 183.343 63.2476 183.38 62.9671C183.417 62.6866 183.936 62.4643 184.757 62.7654C185.263 62.9886 185.71 63.3278 186.061 63.7555C186.412 64.1832 186.658 64.6874 186.779 65.2276C186.943 65.9143 186.907 66.6337 186.674 67.3004C186.442 68.0095 185.992 68.6271 185.388 69.0652C184.554 69.656 183.532 69.9218 182.516 69.8127C181.493 69.6968 180.547 69.2161 179.851 68.4588C179.339 67.89 179.02 67.1745 178.937 66.4138C178.87 65.6822 179.021 64.9471 179.371 64.3011C179.632 63.795 180.009 63.358 180.471 63.0259C180.934 62.6938 181.468 62.4762 182.031 62.3909C182.973 62.3141 183.438 62.7215 183.38 62.9671Z" fill="#4E5154"/>
<path d="M230.086 68.2C230.099 67.9522 230.689 67.6769 231.611 67.9831C232.183 68.2048 232.697 68.5535 233.115 69.003C233.532 69.4525 233.842 69.991 234.021 70.5779C234.269 71.3361 234.283 72.1515 234.061 72.9177C233.826 73.7272 233.32 74.4313 232.628 74.9123C231.687 75.5575 230.533 75.815 229.407 75.631C228.848 75.5363 228.313 75.3313 227.834 75.028C227.355 74.7247 226.941 74.329 226.616 73.8641C226.123 73.1503 225.917 72.277 226.039 71.4182C226.131 70.9099 226.329 70.4267 226.621 70C226.912 69.5734 227.29 69.2129 227.729 68.942C228.169 68.6711 228.661 68.496 229.173 68.428C229.685 68.36 230.206 68.4006 230.701 68.5472C231.663 68.9571 231.775 69.6629 231.61 69.7901C231.446 69.9173 230.943 69.813 230.472 69.9587C229.865 70.1067 229.34 70.4853 229.007 71.0143C228.672 71.6185 228.875 71.8433 229.09 72.0575C229.347 72.2397 229.643 72.359 229.954 72.4059C230.295 72.4643 230.645 72.4393 230.974 72.333C231.2 72.2308 231.386 72.0568 231.503 71.8381C231.62 71.6194 231.662 71.3682 231.622 71.1234C231.591 70.4235 231.326 69.7541 230.871 69.2221C230.489 68.7285 230.061 68.4811 230.086 68.2Z" fill="#4E5154"/>
<path d="M217.649 68.7366C217.519 69.0801 215.125 68.3949 212.454 67.8424C209.783 67.29 206.859 66.8039 205.738 66.6458C204.617 66.4877 201.772 66.0056 199.131 65.7596C196.489 65.5136 194.101 65.3821 194.075 65.008C194.049 64.634 196.453 64.2017 199.179 64.1357C201.482 64.0512 203.789 64.1674 206.073 64.483C208.394 64.8783 210.676 65.4732 212.895 66.2609C215.572 67.1524 217.791 68.3936 217.649 68.7366Z" fill="#4E5154"/>
<path d="M256.627 76.5275C256.309 76.3421 256.538 75.3936 256.737 74.3533C256.936 73.313 257.138 72.2164 257.227 71.803C257.315 71.3896 257.54 70.5087 257.836 69.3491C258.089 68.3567 258.283 67.4178 258.646 67.3909C259.009 67.364 259.356 68.3188 259.469 69.4426C259.557 70.3871 259.509 71.3393 259.326 72.2702C259.084 73.2098 258.712 74.1109 258.22 74.9476C257.639 75.9573 256.935 76.7011 256.627 76.5275Z" fill="#4E5154"/>
<path d="M30.39 54.5042C30.9238 100.858 29.5021 147.17 26.1249 193.44C26.1076 193.784 26.2275 194.12 26.4582 194.375C26.6889 194.631 27.0115 194.784 27.3551 194.801C27.6987 194.818 28.0351 194.698 28.2903 194.468C28.5455 194.237 28.6986 193.914 28.7159 193.571C32.0908 147.346 33.5125 101.034 32.981 54.6347C32.963 52.9736 30.3613 52.8313 30.39 54.5042Z" fill="#4E5154"/>
<path d="M50.9737 56.4211L49.6103 208.152C49.5945 209.812 52.1962 209.954 52.2126 208.283C52.6594 157.71 53.1101 107.132 53.5647 56.5516C53.5805 54.8922 50.9901 54.7504 50.9737 56.4211Z" fill="#4E5154"/>
<path d="M26.7115 194.599C33.9637 200.396 42.0709 204.916 49.9324 209.829C51.3447 210.713 52.7644 208.537 51.3526 207.642C43.4912 202.728 35.384 198.209 28.1317 192.412C26.818 191.363 25.409 193.551 26.7115 194.599Z" fill="#4E5154"/>
<path d="M31.6571 55.629C38.5531 55.4378 45.4524 55.8685 52.2712 56.9158C53.9175 57.1907 54.0368 54.5992 52.4017 54.3248C45.5829 53.2775 38.6836 52.8469 31.7876 53.038C30.1259 53.0673 29.9729 55.6571 31.6571 55.629Z" fill="#4E5154"/>
<path d="M52.6012 56.8764C83.4709 53.1078 114.61 52.031 145.666 53.6585C146.01 53.6758 146.346 53.5558 146.601 53.3251C146.856 53.0944 147.01 52.7718 147.027 52.4282C147.044 52.0846 146.924 51.7482 146.694 51.493C146.463 51.2378 146.14 51.0847 145.797 51.0674C114.51 49.4561 83.1421 50.5704 52.0484 54.3978C50.4008 54.5972 50.962 57.1327 52.6209 56.9339L52.6012 56.8764Z" fill="#4E5154"/>
<path d="M144.434 52.2746C143.207 76.6412 142.058 101.012 140.91 125.383C140.35 137.401 139.769 149.388 139.166 161.345C138.599 172.61 137.487 183.927 140 195.019C140.074 195.356 140.279 195.649 140.57 195.834C140.86 196.019 141.212 196.081 141.548 196.007C141.885 195.932 142.177 195.727 142.363 195.437C142.548 195.146 142.61 194.794 142.535 194.458C139.837 182.554 141.319 170.183 141.926 158.118C142.512 146.492 143.075 134.873 143.614 123.26C144.721 99.723 145.822 76.0615 147.014 52.4045C147.031 52.0609 146.911 51.7245 146.681 51.4694C146.45 51.2142 146.127 51.0611 145.784 51.0438C145.44 51.0265 145.104 51.1464 144.849 51.3771C144.593 51.6078 144.44 51.9304 144.423 52.274L144.434 52.2746Z" fill="#4E5154"/>
<path d="M50.5783 210.032C81.0855 207.514 111.522 201.909 141.555 196.036C143.185 195.723 142.624 193.187 140.982 193.5C126.542 196.33 111.97 198.634 97.4818 201.281C82.002 204.116 66.411 206.169 50.7088 207.441C49.064 207.584 48.911 210.174 50.5783 210.032Z" fill="#4E5154"/>
<path d="M31.9725 55.6459C40.0986 54.6322 47.8257 52.5707 56.0452 51.9457C64.2647 51.3206 72.4683 51.0111 80.6944 50.9285C95.8048 50.7183 111.109 50.9132 126.089 53.0795C127.748 53.3212 127.867 50.7296 126.219 50.4885C110.668 48.237 94.7175 48.0886 79.0506 48.3611C70.9005 48.5039 62.7409 48.8383 54.6104 49.4904C46.6725 50.1296 39.2208 52.1034 31.4101 53.1329C29.7506 53.343 30.3231 55.8791 31.9713 55.6684L31.9725 55.6459Z" fill="#4E5154"/>
<path d="M80.8224 63.8658C79.6475 54.4554 78.5089 44.5498 79.595 35.0951C80.732 25.0783 86.4501 13.3498 98.0143 12.9158C110.031 12.4595 114.143 25.677 114.673 35.3373C115.16 44.2614 114.897 53.2945 114.887 62.2387C114.883 63.8987 117.485 64.041 117.478 62.3692C117.461 47.6864 122.283 9.13507 97.7865 10.2616C88.3572 10.6901 81.2593 18.6449 78.562 27.1262C74.8429 38.8538 76.7885 52.4705 78.2892 64.382C78.4992 66.0415 81.0353 65.469 80.8247 63.8207L80.8224 63.8658Z" fill="#4E5154"/>
<path d="M70.4158 50.0377C70.0026 35.8205 69.6575 13.7463 87.5518 9.83651C96.6871 7.8459 103.581 15.1614 105.791 23.2914C108.135 31.9249 106.558 41.4791 105.935 50.2569C105.918 50.6005 106.038 50.9369 106.268 51.1921C106.499 51.4473 106.822 51.6003 107.165 51.6176C107.509 51.635 107.845 51.5151 108.1 51.2844C108.356 51.0536 108.509 50.731 108.526 50.3874C109.262 40.0455 111.282 28.413 106.851 18.6126C103.651 11.5283 96.9649 6.14326 88.8918 7.00152C68.1812 9.19965 67.3366 34.2632 67.8248 49.9071C67.8766 51.5699 70.467 51.7117 70.4158 50.0377Z" fill="#4E5154"/>
<path d="M40.1562 191.82C40.138 192.18 38.8035 192.441 37.3006 192.681C35.7977 192.922 34.1608 193.133 33.5598 193.182C32.9588 193.23 31.2954 193.293 29.8714 193.312C28.4475 193.331 27.05 193.272 26.9893 192.907C26.9286 192.543 28.1618 192.051 29.6597 191.686C30.8804 191.37 32.1223 191.142 33.3758 191.004C34.6659 190.932 35.9593 190.948 37.2472 191.052C38.7882 191.175 40.1631 191.459 40.1562 191.82Z" fill="#4E5154"/>
<path d="M43.2 193.736C43.471 193.512 44.8129 194.675 46.0211 196.25C47.035 197.561 47.9027 198.98 48.6089 200.48C49.2456 201.952 49.7173 203.491 50.0153 205.068C50.3718 206.961 50.3525 208.688 50.0112 208.738C49.6698 208.789 49.1279 207.214 48.4341 205.519C47.7402 203.824 46.937 202.056 46.6236 201.328C46.3101 200.601 45.5109 198.754 44.6464 197.084C43.7818 195.414 42.9166 193.981 43.2 193.736Z" fill="#4E5154"/>
<path d="M40.6937 133.177C40.3332 133.158 39.9729 125.065 39.9419 116.04C39.9108 107.015 39.9832 97.0571 40.0888 93.3919C40.1943 89.7268 40.5578 80.0437 41.1345 71.2862C41.7111 62.5286 42.3984 54.714 42.7589 54.7322C43.1194 54.7504 42.9475 62.6474 42.7685 71.3572C42.5895 80.067 42.3477 89.8014 42.2658 93.4451C42.1839 97.0889 41.8553 106.977 41.5787 116.055C41.3022 125.132 41.0548 133.183 40.6937 133.177Z" fill="#4E5154"/>
<path d="M130.786 153.966C131.151 153.905 132.111 157.94 133.264 162.403C134.417 166.865 135.741 171.743 136.238 173.541C136.734 175.34 137.962 180.122 139.179 184.419C140.397 188.715 141.535 192.579 141.19 192.708C140.845 192.837 139.178 189.162 137.629 184.928C136.081 180.694 134.604 175.932 134.119 174.112C133.635 172.292 132.429 167.319 131.657 162.694C130.884 158.07 130.445 154.016 130.786 153.966Z" fill="#4E5154"/>
<path d="M106.618 104.185C106.926 104.348 104.764 108.926 101.624 113.635C99.0408 117.58 96.1527 121.316 92.9864 124.81C92.2099 125.652 90.7674 127.16 88.9648 128.865C87.1623 130.57 84.9885 132.471 82.8266 134.135C78.5326 137.544 74.2976 140.008 74.1085 139.727C73.9193 139.446 77.7935 136.524 81.7715 132.885C83.7926 131.101 85.8014 129.112 87.5363 127.404C89.2713 125.696 90.613 124.171 91.3782 123.329C94.5314 119.94 97.5038 116.388 100.283 112.687C103.667 108.283 106.288 103.999 106.618 104.185Z" fill="#4E5154"/>
<path d="M99.8753 110.701C100.044 110.709 99.9454 111.551 99.6357 112.767C99.2006 114.3 98.6073 115.784 97.8654 117.195C96.4767 119.876 94.6767 122.324 92.5308 124.448C91.6478 125.286 90.7145 126.068 89.7361 126.792C88.3381 127.806 86.8534 128.695 85.2993 129.448C83.9224 130.127 82.4802 130.663 80.9948 131.05C79.8524 131.309 79.0463 131.392 78.9872 131.22C78.9282 131.047 79.6138 130.664 80.6662 130.175C81.7186 129.686 83.1124 128.92 84.513 128.02C85.8942 127.162 87.2172 126.213 88.4733 125.181C89.6509 124.224 90.5186 123.364 91.0167 122.892C93.0633 120.933 94.8853 118.752 96.4491 116.39C97.4128 114.97 98.163 113.528 98.747 112.474C99.3309 111.419 99.6973 110.647 99.8753 110.701Z" fill="#4E5154"/>
<path d="M56.5493 73.135C56.2147 73.2762 55.2149 71.5996 54.3539 69.6363C53.6292 67.9761 53.0246 66.2661 52.5448 64.5194C52.1311 62.7923 51.8421 61.0378 51.6799 59.2694C51.492 57.1705 51.5648 55.2769 51.8825 55.2477C52.2001 55.2185 52.7087 57.006 53.2526 58.9872C53.7966 60.9684 54.3849 63.189 54.5942 63.9675C54.8034 64.7461 55.3147 66.9289 55.8371 69.1124C56.3596 71.2958 56.884 72.9937 56.5493 73.135Z" fill="#4E5154"/>
<path d="M78.6028 63.5397C78.668 63.8141 78.4049 64.1057 78.2594 64.5275C78.0676 64.9738 78.019 65.4685 78.1203 65.9436C78.2548 66.4134 78.5087 66.5278 78.7104 66.5606C78.9202 66.6134 79.1384 66.6244 79.3525 66.5929C79.5553 66.5739 79.7532 66.5188 79.9367 66.4304C80.1096 66.36 80.3226 66.1675 80.3358 65.6825C80.3106 65.2103 80.1579 64.7538 79.8941 64.3614C79.6633 64.011 79.3479 63.7692 79.3621 63.4876C79.3763 63.206 79.796 62.9448 80.5113 63.0937C80.991 63.2197 81.4354 63.4538 81.8106 63.778C82.1858 64.1023 82.4818 64.5082 82.6758 64.9646C82.9259 65.5407 83.0187 66.1728 82.945 66.7965C82.848 67.4539 82.5663 68.0703 82.1327 68.5738C81.5283 69.2598 80.6987 69.7073 79.7935 69.8357C78.8884 69.964 77.9671 69.7648 77.1959 69.2738C76.6315 68.9206 76.1839 68.4087 75.9091 67.8022C75.6342 67.1957 75.5445 66.5216 75.651 65.8644C75.7198 65.3639 75.9057 64.8867 76.1935 64.4714C76.4812 64.0562 76.8628 63.7146 77.3073 63.4745C78.0487 63.1052 78.5589 63.289 78.6028 63.5397Z" fill="#4E5154"/>
<path d="M117.107 61.673C117.231 61.4533 117.774 61.4355 118.415 61.9309C118.811 62.2686 119.13 62.6868 119.352 63.1575C119.573 63.6282 119.692 64.1407 119.7 64.661C119.724 65.3244 119.574 65.9826 119.265 66.5703C118.937 67.1872 118.437 67.6956 117.825 68.0337C116.989 68.5073 116.013 68.6701 115.069 68.4934C114.11 68.3176 113.251 67.7912 112.659 67.0168C112.242 66.4505 112.012 65.7685 112.001 65.0657C111.99 64.3628 112.198 63.6739 112.596 63.0947C112.892 62.6462 113.296 62.279 113.77 62.0267C114.245 61.7744 114.775 61.645 115.312 61.6503C116.179 61.694 116.502 62.2298 116.402 62.4393C116.301 62.6488 115.887 62.7861 115.557 63.0631C115.168 63.3662 114.889 63.7885 114.762 64.2654C114.71 64.4494 114.724 64.6461 114.802 64.8208C114.863 64.9193 114.943 65.0041 115.038 65.0699C115.238 65.1898 115.461 65.2665 115.693 65.2948C115.949 65.3688 116.219 65.3824 116.482 65.3346C116.673 65.2798 116.847 65.1752 116.985 65.0314C117.124 64.8876 117.221 64.7097 117.268 64.5158C117.436 63.9693 117.446 63.3863 117.296 62.8345C117.154 62.2965 116.959 61.914 117.107 61.673Z" fill="#4E5154"/>
<path d="M95.8827 56.7981C95.8645 57.1586 94.7193 57.4736 93.5729 57.8112C92.4265 58.1487 91.0306 58.5075 90.5281 58.6178C90.0256 58.728 88.7266 58.9562 87.5071 59.1771C86.2875 59.398 85.1722 59.5677 85.0309 59.2331C84.8897 58.8984 85.8283 58.2003 86.9866 57.6262C88.9497 56.5772 91.1604 56.0797 93.3837 56.1866C94.6814 56.2068 95.867 56.4359 95.8827 56.7981Z" fill="#4E5154"/>
<path d="M40.5894 175.557C41.3104 175.593 41.3959 181.967 41.3238 183.398C41.2518 184.828 40.5702 190.961 39.8154 190.922C39.0607 190.884 38.9987 184.715 39.0708 183.284C39.1429 181.854 39.8684 175.52 40.5894 175.557Z" fill="#4E5154"/>
<path d="M50.5999 76.8334C50.2281 76.8146 50.4898 72.9654 50.7144 68.7302C50.939 64.495 51.1627 59.8307 51.2489 58.1183C51.3352 56.406 51.5605 51.9338 51.771 47.7544C51.9815 43.575 52.1648 39.9363 52.5061 39.8857C52.8475 39.8352 53.2697 43.5608 53.4107 47.7127C53.5516 51.8646 53.4902 56.4468 53.3916 58.1811C53.2929 59.9154 52.9318 64.618 52.3124 68.8446C51.6929 73.0711 50.9114 76.9281 50.5999 76.8334Z" fill="#4E5154"/>
<path d="M272.512 103.766C272.494 104.127 270.466 104.025 268.291 103.938L262.85 103.664L257.54 103.249C255.425 103.075 253.513 102.922 253.486 102.559C253.459 102.197 255.365 101.796 257.519 101.633C259.335 101.463 261.16 101.419 262.981 101.502C264.836 101.64 266.679 101.906 268.497 102.299C270.676 102.77 272.586 103.42 272.512 103.766Z" fill="#4E5154"/>
<path d="M95.382 238.252C95.0117 238.878 79.0405 230.167 75.4616 228.124C71.8828 226.08 56.8215 217.02 57.1467 216.393C57.4719 215.766 72.9836 224.182 76.5512 226.225C80.1187 228.268 95.741 237.627 95.382 238.252Z" fill="#4E5154"/>
<path d="M89.6677 230.217C89.4603 230.523 87.0326 229.17 84.3401 227.69C81.6477 226.21 78.7322 224.448 77.6702 223.785C76.6081 223.122 73.8295 221.333 71.3258 219.693C68.8221 218.054 66.6068 216.519 66.7815 216.189C66.9563 215.859 69.4439 216.922 72.1426 218.278C74.8413 219.633 77.7409 221.259 78.8143 221.923C79.8876 222.587 82.7405 224.47 85.2334 226.323C87.7263 228.177 89.8757 229.9 89.6677 230.217Z" fill="#4E5154"/>
<path d="M94.4059 226.684C94.0136 227.297 86.4201 222.894 84.743 221.883C83.066 220.873 76.1063 215.993 76.4873 215.38C76.8683 214.767 84.2118 218.976 85.9091 220.033C87.6064 221.09 94.7869 226.071 94.4059 226.684Z" fill="#4E5154"/>
<path d="M94.6565 221.682C94.2518 222.317 89.9747 219.786 89.1414 219.066C88.308 218.347 84.7442 215.107 85.2362 214.533C85.7281 213.959 89.5658 216.693 90.4601 217.326C91.3543 217.958 95.0358 221.102 94.6565 221.682Z" fill="#4E5154"/>
<path d="M97.8269 218.849C97.4025 219.426 94.4184 217.683 93.7979 217.223C93.1773 216.762 90.706 214.481 91.1416 213.904C91.5772 213.327 94.4746 214.998 95.0952 215.458C95.7157 215.919 98.2648 218.227 97.8269 218.849Z" fill="#4E5154"/>
<path d="M101.859 215.924C101.424 216.489 99.6164 215.596 99.3135 215.332C99.0105 215.069 97.7054 213.625 98.154 213.015C98.6026 212.405 100.308 213.293 100.656 213.57C101.003 213.848 102.306 215.348 101.859 215.924Z" fill="#4E5154"/>
<path d="M105.099 213.715C104.652 214.291 103.348 213.729 103.109 213.536C102.871 213.343 102.045 212.24 102.503 211.664C102.962 211.089 104.211 211.626 104.461 211.819C104.711 212.013 105.546 213.15 105.099 213.715Z" fill="#4E5154"/>
<path d="M204.623 240.819C204.412 240.526 207.587 237.806 211.277 234.953C214.967 232.101 219.137 229.126 220.659 228.062C222.181 226.998 226.428 224.298 230.327 222.01C234.225 219.722 237.82 217.87 238.009 218.151C238.198 218.431 234.905 220.806 231.217 223.399L221.855 229.873L212.159 236.285C208.349 238.826 204.846 241.112 204.623 240.819Z" fill="#4E5154"/>
<path d="M198.786 239.214C198.552 238.943 200.96 236.421 203.824 233.821C206.688 231.221 209.977 228.484 211.234 227.52C212.491 226.555 215.855 224.127 219.028 222.107C222.202 220.087 225.165 218.441 225.364 218.745C225.563 219.048 222.918 221.117 219.977 223.443L212.569 229.258L204.868 235.071C201.793 237.378 199.033 239.486 198.786 239.214Z" fill="#4E5154"/>
<path d="M192.965 234.799C192.73 234.539 194.842 232.285 197.343 229.938C199.845 227.59 202.735 225.15 203.828 224.29C204.922 223.43 207.89 221.231 210.681 219.406C213.472 217.582 216.065 216.097 216.265 216.39C216.465 216.682 214.2 218.612 211.656 220.675L205.188 225.996L198.399 231.177C195.672 233.298 193.211 235.072 192.965 234.799Z" fill="#4E5154"/>
<path d="M194.53 224.33C194.119 223.733 199.276 219.791 200.446 218.981C201.616 218.17 207.009 214.929 207.397 215.525C207.784 216.12 202.87 219.961 201.666 220.781C200.461 221.602 194.94 224.938 194.53 224.33Z" fill="#4E5154"/>
<path d="M192.607 218.597C192.221 217.979 195.486 215.478 196.268 214.976C197.05 214.473 200.609 212.664 200.995 213.283C201.382 213.901 198.222 216.328 197.429 216.819C196.636 217.309 192.995 219.204 192.607 218.597Z" fill="#4E5154"/>
<path d="M188.143 215.266C187.979 214.942 188.446 214.401 188.97 213.874C189.39 213.432 189.837 213.017 190.309 212.631C190.801 212.292 191.314 211.986 191.846 211.714C192.484 211.374 193.119 211.09 193.389 211.34C193.659 211.591 193.399 212.267 192.948 212.922C192.577 213.468 192.13 213.959 191.621 214.38C191.064 214.754 190.46 215.054 189.826 215.272C189.056 215.527 188.307 215.591 188.143 215.266Z" fill="#4E5154"/>
<path d="M186.766 212.137C186.345 211.539 186.954 210.655 187.142 210.518C187.329 210.381 188.348 210.104 188.771 210.69C189.193 211.276 188.606 212.162 188.419 212.288C188.232 212.414 187.189 212.723 186.766 212.137Z" fill="#4E5154"/>
<path d="M268.882 208.085C270.428 204.526 273.425 200.408 277.837 200.71C282.249 201.011 283.163 207.065 281.263 210.256C280.312 211.642 279.198 212.909 277.945 214.03C274.587 217.249 271.784 220.203 270.357 224.761C270.249 225.088 270.276 225.445 270.431 225.752C270.586 226.06 270.857 226.293 271.184 226.401C271.511 226.509 271.867 226.482 272.175 226.327C272.482 226.172 272.716 225.902 272.823 225.575C274.747 219.437 280.209 216.832 283.428 211.675C285.442 208.468 286.302 204.163 283.786 200.987C277.851 193.471 269.093 201.195 266.416 207.272C265.74 208.808 268.217 209.622 268.882 208.085Z" fill="#4E5154"/>
<path d="M271.053 223.543L238.425 233.193C229.058 235.963 218.517 237.837 210.016 242.717C208.573 243.548 209.755 245.866 211.209 245.036C220.085 239.904 231.373 237.988 241.152 235.104L271.612 226.124C273.205 225.662 272.656 223.115 271.051 223.588L271.053 223.543Z" fill="#4E5154"/>
<path d="M270.69 225.783L295.584 247.253C303.163 253.745 312.335 260.001 318.159 268.143C319.129 269.502 321.048 267.747 320.088 266.399C314.255 258.2 305.001 252.008 297.513 245.509L272.619 224.04C271.374 222.961 269.435 224.692 270.701 225.784L270.69 225.783Z" fill="#4E5154"/>
<path d="M210.212 245.042C246.289 253.251 282.542 260.656 318.717 268.475C320.338 268.817 321.163 266.34 319.531 266.009C283.366 258.191 247.102 250.796 211.026 242.575C209.406 242.211 208.58 244.711 210.212 245.042Z" fill="#4E5154"/>
<path d="M3.13389 216.948C11.4314 226.209 14.6921 238.604 22.2172 248.402C23.2796 249.732 25.1525 247.974 24.1459 246.658C16.6096 236.86 13.3815 224.489 5.06261 215.204C4.83138 214.948 4.50801 214.795 4.16365 214.777C3.81929 214.76 3.48214 214.88 3.22638 215.111C2.97061 215.343 2.81718 215.666 2.79983 216.01C2.78249 216.355 2.90265 216.692 3.13389 216.948Z" fill="#4E5154"/>
<path d="M5.42229 216.363C7.74062 210.89 9.64421 205.252 11.117 199.494C11.5479 197.889 9.08221 197.065 8.65072 198.681C7.17794 204.439 5.27435 210.077 2.95602 215.549C2.28066 217.074 4.74636 217.898 5.42229 216.363Z" fill="#4E5154"/>
<path d="M25.7896 204.604C32.0607 214.633 38.0581 224.716 45.7812 233.722C46.847 234.984 48.7864 233.252 47.7099 231.978C40.1591 223.139 34.2321 213.229 28.131 203.412C27.2534 202.002 24.9463 203.184 25.8121 204.606L25.7896 204.604Z" fill="#4E5154"/>
<path d="M23.7842 248.685C31.5159 243.619 39.1541 238.391 47.3006 234.058C47.6081 233.9 47.8401 233.626 47.9457 233.297C48.0512 232.967 48.0216 232.61 47.8634 232.302C47.7051 231.995 47.4312 231.762 47.1019 231.657C46.7725 231.551 46.4148 231.581 46.1073 231.739C37.9799 236.141 30.3197 241.357 22.5797 246.365C21.201 247.279 22.4174 249.587 23.7842 248.685Z" fill="#4E5154"/>
<path d="M13.7218 204.742C13.7298 204.584 14.0155 204.294 14.657 204.337C15.0582 204.387 15.4425 204.529 15.7799 204.752C16.1174 204.974 16.3989 205.272 16.6026 205.621C16.8659 206.064 17.0007 206.571 16.9919 207.086C16.9714 207.617 16.7879 208.128 16.4664 208.551C16.0301 209.125 15.4064 209.53 14.7035 209.693C13.9951 209.846 13.2552 209.741 12.6178 209.396C12.1607 209.144 11.7872 208.764 11.5435 208.303C11.3234 207.857 11.2275 207.361 11.2657 206.866C11.2876 206.474 11.3984 206.092 11.5898 205.749C11.7813 205.407 12.0482 205.112 12.3705 204.888C12.9063 204.565 13.3197 204.654 13.3568 204.814C13.3939 204.974 13.2012 205.213 13.0479 205.566C12.8695 205.964 12.8195 206.408 12.9049 206.835C13.1298 207.75 13.8717 207.595 14.2018 207.544C14.4399 207.498 14.6627 207.393 14.8497 207.238C14.9768 207.125 15.0674 206.977 15.1099 206.812C15.1524 206.647 15.1449 206.473 15.0883 206.313C14.962 205.883 14.6997 205.505 14.3407 205.236C14.0698 205.008 13.7572 204.936 13.7218 204.742Z" fill="#4E5154"/>
<path d="M10.9265 171.001C11.0662 170.918 11.6918 171.503 12.3104 172.675C13.0809 174.187 13.5026 175.852 13.5444 177.548C13.5794 179.47 13.1982 181.378 12.4271 183.139C11.7714 184.721 11.1575 185.921 10.8086 186.57C10.2532 187.603 9.75831 188.668 9.32662 189.759C8.7191 191.218 8.48391 192.805 8.64222 194.377C8.86861 195.779 9.50676 197.08 10.4754 198.118C11.2445 198.992 11.9113 199.432 11.8121 199.608C11.7129 199.784 10.9221 199.563 9.84092 198.831C8.44895 197.83 7.45791 196.367 7.04467 194.704C6.6431 192.831 6.76068 190.884 7.38471 189.074C7.779 187.863 8.27265 186.686 8.86065 185.557C9.47174 184.187 11.7379 180.902 11.9075 177.533C12.0068 176.021 11.8426 174.504 11.422 173.048C11.1205 171.858 10.7631 171.106 10.9265 171.001Z" fill="#4E5154"/>
<path d="M9.82826 200.143C15.5484 201.869 21.4612 202.711 27.0469 204.846C28.6108 205.447 29.4111 203.122 27.8586 202.521C22.2729 200.386 16.3596 199.556 10.6399 197.818C10.3099 197.716 9.95062 197.739 9.64114 197.885C9.48791 197.957 9.3515 198.056 9.23973 198.178C9.12796 198.299 9.04301 198.44 8.98971 198.593C8.93642 198.746 8.91583 198.907 8.92913 199.067C8.94243 199.228 8.98934 199.384 9.06721 199.528C9.22447 199.819 9.49823 200.04 9.82826 200.143Z" fill="#4E5154"/>
</svg>
