<svg width="48" height="48" viewBox="0 0 48 48" fill="none" xmlns="http://www.w3.org/2000/svg">
<path d="M31.1686 8.16666L31.2864 8.5H31.64H34C35.4587 8.5 36.8576 9.07946 37.8891 10.1109C38.9205 11.1424 39.5 12.5413 39.5 14V38C39.5 39.4587 38.9205 40.8576 37.8891 41.8891C36.8576 42.9205 35.4587 43.5 34 43.5H14C12.5413 43.5 11.1424 42.9205 10.1109 41.8891C9.07946 40.8576 8.5 39.4587 8.5 38V14C8.5 12.5413 9.07946 11.1424 10.1109 10.1109C11.1424 9.07946 12.5413 8.5 14 8.5H16.36H16.7136L16.8314 8.16666C17.2096 7.09682 17.9095 6.17016 18.8351 5.51372C19.7605 4.85741 20.8662 4.50333 22.0007 4.5H25.9993C27.1338 4.50333 28.2395 4.85741 29.1649 5.51372C30.0905 6.17016 30.7904 7.09682 31.1686 8.16666ZM28 12.5H28.5V12V10C28.5 9.33696 28.2366 8.70107 27.7678 8.23223C27.2989 7.76339 26.663 7.5 26 7.5H22C21.337 7.5 20.7011 7.76339 20.2322 8.23223C19.7634 8.70107 19.5 9.33696 19.5 10V12V12.5H20H28ZM16.5 12V11.5H16H14C13.337 11.5 12.7011 11.7634 12.2322 12.2322C11.7634 12.7011 11.5 13.337 11.5 14V38C11.5 38.663 11.7634 39.2989 12.2322 39.7678C12.7011 40.2366 13.337 40.5 14 40.5H34C34.663 40.5 35.2989 40.2366 35.7678 39.7678C36.2366 39.2989 36.5 38.663 36.5 38V14C36.5 13.337 36.2366 12.7011 35.7678 12.2322C35.2989 11.7634 34.663 11.5 34 11.5H32H31.5V12V14C31.5 14.3978 31.342 14.7794 31.0607 15.0607C30.7794 15.342 30.3978 15.5 30 15.5H18C17.6022 15.5 17.2206 15.342 16.9393 15.0607C16.658 14.7794 16.5 14.3978 16.5 14V12ZM16.9393 28.9393C17.2206 28.658 17.6022 28.5 18 28.5H26C26.3978 28.5 26.7794 28.658 27.0607 28.9393C27.342 29.2206 27.5 29.6022 27.5 30C27.5 30.3978 27.342 30.7794 27.0607 31.0607C26.7794 31.342 26.3978 31.5 26 31.5H18C17.6022 31.5 17.2206 31.342 16.9393 31.0607C16.658 30.7794 16.5 30.3978 16.5 30C16.5 29.6022 16.658 29.2206 16.9393 28.9393ZM18 20.5H30C30.3978 20.5 30.7794 20.658 31.0607 20.9393C31.342 21.2206 31.5 21.6022 31.5 22C31.5 22.3978 31.342 22.7794 31.0607 23.0607C30.7794 23.342 30.3978 23.5 30 23.5H18C17.6022 23.5 17.2206 23.342 16.9393 23.0607C16.658 22.7794 16.5 22.3978 16.5 22C16.5 21.6022 16.658 21.2206 16.9393 20.9393C17.2206 20.658 17.6022 20.5 18 20.5Z" fill="#4E5154" stroke="#E5EDF4"/>
</svg>
