<svg width="8" height="11" viewBox="0 0 8 11" fill="none" xmlns="http://www.w3.org/2000/svg">
<mask id="path-1-inside-1_544_4167" fill="white">
<path d="M0.744959 10.907C0.574516 11.031 0.298211 11.031 0.127768 10.907C-0.0425892 10.7831 -0.0425892 10.5822 0.127768 10.4583L0.744959 10.907ZM7.56364 5.5L7.87219 5.2756C7.95402 5.33513 8 5.41585 8 5.5C8 5.58415 7.95402 5.66488 7.87219 5.72434L7.56364 5.5ZM0.127768 0.541678C-0.0425892 0.417757 -0.0425892 0.216851 0.127768 0.0929361C0.298211 -0.0309787 0.574516 -0.0309787 0.744959 0.0929361L0.127768 0.541678ZM0.127768 10.4583L7.25508 5.2756L7.87219 5.72434L0.744959 10.907L0.127768 10.4583ZM7.25508 5.72434L0.127768 0.541678L0.744959 0.0929361L7.87219 5.2756L7.25508 5.72434Z"/>
</mask>
<path d="M0.744959 10.907C0.574516 11.031 0.298211 11.031 0.127768 10.907C-0.0425892 10.7831 -0.0425892 10.5822 0.127768 10.4583L0.744959 10.907ZM7.56364 5.5L7.87219 5.2756C7.95402 5.33513 8 5.41585 8 5.5C8 5.58415 7.95402 5.66488 7.87219 5.72434L7.56364 5.5ZM0.127768 0.541678C-0.0425892 0.417757 -0.0425892 0.216851 0.127768 0.0929361C0.298211 -0.0309787 0.574516 -0.0309787 0.744959 0.0929361L0.127768 0.541678ZM0.127768 10.4583L7.25508 5.2756L7.87219 5.72434L0.744959 10.907L0.127768 10.4583ZM7.25508 5.72434L0.127768 0.541678L0.744959 0.0929361L7.87219 5.2756L7.25508 5.72434Z" fill="#E4E5E5"/>
<path d="M70.1068 -85.791L70.724 -85.3423L-69.2341 107.156L-69.8513 106.708L70.1068 -85.791ZM70.7247 96.3418L70.1075 96.7905L-69.852 -95.7072L-69.2348 -96.1559L70.7247 96.3418ZM0.744959 10.907L140.717 203.396L140.716 203.396L0.744959 10.907ZM0.127768 10.907L-139.843 203.396L-139.867 203.379L-139.89 203.362L0.127768 10.907ZM0.127768 10.4583L-139.89 -181.997L-139.867 -182.014L-139.843 -182.031L0.127768 10.4583ZM7.56364 5.5L-132.395 197.999L-397.12 5.527L-132.42 -186.98L7.56364 5.5ZM7.87219 5.2756L147.843 -187.214L147.858 -187.203L147.872 -187.192L7.87219 5.2756ZM0.127768 0.541678L-139.842 193.032L-139.859 193.019L-139.876 193.007L0.127768 0.541678ZM0.127768 0.0929361L-139.871 -192.376L-139.848 -192.393L-139.824 -192.41L0.127768 0.0929361ZM0.744959 0.0929361L140.697 -192.41L140.707 -192.403L140.716 -192.396L0.744959 0.0929361ZM7.25508 5.2756L-132.716 -187.214L7.25421 -288.995L147.225 -187.215L7.25508 5.2756ZM7.25508 5.72434L147.225 198.215L7.25481 299.994L-132.715 198.214L7.25508 5.72434ZM140.716 203.396C92.8243 238.221 41.2446 249 0.436363 249C-40.3719 249 -91.9516 238.221 -139.843 203.396L140.099 -181.582C92.3776 -216.283 41.0213 -227 0.436363 -227C-40.1485 -227 -91.5049 -216.283 -139.226 -181.582L140.716 203.396ZM-139.89 203.362C-190.29 166.695 -238 99.811 -238 10.6827C-238 -78.4456 -190.29 -145.329 -139.89 -181.997L140.146 202.913C190.375 166.37 238 99.6486 238 10.6827C238 -78.2832 190.375 -145.005 140.146 -181.548L-139.89 203.362ZM-132.42 -186.98L-132.112 -187.204L147.856 197.756L147.547 197.98L-132.42 -186.98ZM147.872 -187.192C195.442 -152.591 246 -86.6091 246 5.5H-230C-230 97.4408 -179.534 163.261 -132.128 197.744L147.872 -187.192ZM246 5.5C246 97.6007 195.446 163.624 147.775 198.263L-132.03 -186.815C-179.538 -152.294 -230 -86.4324 -230 5.5H246ZM-132.086 198.223L-132.395 197.999L147.522 -186.999L147.83 -186.774L-132.086 198.223ZM-139.876 193.007C-190.3 156.327 -238 89.4338 -238 0.317305C-238 -88.8002 -190.299 -155.696 -139.871 -192.376L140.127 192.562C190.384 156.005 238 89.2724 238 0.317305C238 -88.6368 190.385 -155.368 140.132 -191.924L-139.876 193.007ZM-139.824 -192.41C-91.9344 -227.227 -40.3616 -238 0.436363 -238C41.2343 -238 92.8071 -227.227 140.697 -192.41L-139.207 192.596C-91.4876 227.289 -40.1382 238 0.436363 238C41.011 238 92.3603 227.289 140.08 192.596L-139.824 -192.41ZM-139.843 -182.031L-132.716 -187.214L147.226 197.765L140.099 202.948L-139.843 -182.031ZM147.225 -187.215L147.842 -186.766L-132.098 198.215L-132.715 197.766L147.225 -187.215ZM147.844 198.213L140.717 203.396L-139.227 -181.582L-132.1 -186.764L147.844 198.213ZM-132.715 198.214L-139.842 193.032L140.098 -191.948L147.225 -186.766L-132.715 198.214ZM140.716 -192.396L147.843 -187.214L-132.099 197.765L-139.226 192.582L140.716 -192.396ZM147.842 197.766L147.225 198.215L-132.715 -186.766L-132.098 -187.215L147.842 197.766Z" fill="#4E5154" mask="url(#path-1-inside-1_544_4167)"/>
</svg>
