<svg width="22" height="22" viewBox="0 0 22 22" fill="none" xmlns="http://www.w3.org/2000/svg">
<circle cx="11" cy="11" r="10.5" fill="white" stroke="#4E5154"/>
<path d="M9.91397 9.39231L10.1366 9.29065C10.3953 9.16402 10.5979 8.94621 10.7056 8.67914C10.8133 8.41207 10.8184 8.1146 10.72 7.84399M9.91397 9.39231L8.33998 13.6307C6.61052 11.8974 5.50124 9.6419 5.18414 7.21399C5.14988 6.96372 5.1702 6.70901 5.24371 6.46734C5.31721 6.22567 5.44216 6.00279 5.60998 5.81399C5.77438 5.63018 5.97578 5.48319 6.20096 5.38266C6.42615 5.28213 6.67004 5.23033 6.91664 5.23065H8.67248C9.08938 5.22459 9.49476 5.36758 9.81559 5.63388C10.1364 5.90017 10.3516 6.27227 10.4225 6.68315C10.44 6.81149 10.4633 6.94565 10.4925 7.07399C10.5513 7.33537 10.6273 7.59259 10.72 7.84399M9.91397 9.39231C9.91325 9.39103 9.91253 9.38976 9.9118 9.38849L9.86831 9.41315L9.88908 9.45864L9.89322 9.45675C10.2098 10.0065 10.5933 10.5151 11.035 10.9707C11.4906 11.4124 11.9991 11.7959 12.549 12.1124L9.91397 9.39231ZM10.72 7.84399L10.6731 7.86128C10.6731 7.86124 10.673 7.86121 10.673 7.86118M10.72 7.84399L10.673 7.86108C10.673 7.86111 10.673 7.86115 10.673 7.86118M8.37529 13.5953C10.1005 15.3166 12.3453 16.4208 14.7618 16.7367C14.8345 16.7422 14.9076 16.7422 14.9803 16.7366L14.9842 16.7363V16.7365C15.4021 16.7371 15.8055 16.5838 16.1176 16.3058C16.2961 16.1461 16.4388 15.9505 16.5365 15.7318C16.6341 15.513 16.6845 15.2761 16.6841 15.0366L16.6841 15.0365L16.6841 13.2869C16.6841 13.2868 16.6841 13.2868 16.6841 13.2868C16.6811 12.8953 16.5429 12.5168 16.2931 12.2154C16.0443 11.9151 15.6998 11.7096 15.3175 11.6331C15.2105 11.6323 15.0991 11.6051 14.9968 11.5801C14.9707 11.5737 14.9452 11.5675 14.9206 11.5619L14.9316 11.5132L14.9207 11.5619C14.6589 11.5034 14.4014 11.4268 14.1502 11.3326C13.8912 11.2384 13.6066 11.2433 13.351 11.3464C13.0955 11.4494 12.887 11.6433 12.7658 11.8908C12.7658 11.8908 12.7658 11.8909 12.7657 11.891L12.6376 12.1589L12.6145 12.2073L12.5678 12.1808C11.9976 11.8574 11.4708 11.4628 11.0002 11.0066L10.9991 11.0055L10.9991 11.0055C10.5428 10.5348 10.1482 10.008 9.82482 9.43782L9.79789 9.39034L9.84755 9.36767L10.1153 9.24545C10.3625 9.1242 10.5563 8.91586 10.6593 8.66044C10.7623 8.40485 10.7672 8.12017 10.673 7.86118M8.37529 13.5953L10.673 7.86118M8.37529 13.5953C6.65365 11.8698 5.54939 9.62448 5.23372 7.20751L5.23368 7.2072C5.2004 6.96409 5.22013 6.71665 5.29154 6.48189C5.36294 6.24716 5.4843 6.03066 5.64729 5.84727C5.80699 5.66874 6.00262 5.52597 6.22135 5.42832C6.4401 5.33066 6.67702 5.28034 6.91658 5.28065H6.91664H8.67248V5.28066L8.67321 5.28065C9.0782 5.27476 9.47199 5.41367 9.78366 5.67235C10.0951 5.93085 10.3041 6.29198 10.3731 6.69079C10.3907 6.82006 10.4142 6.95538 10.4437 7.08507L8.37529 13.5953ZM15.6583 15.0817L15.6583 15.0833C15.6581 15.1716 15.6394 15.259 15.6034 15.3397C15.5674 15.4204 15.5149 15.4927 15.4493 15.5519M15.6583 15.0817L6.91664 6.39149M15.6583 15.0817L15.6058 13.2805C15.6091 13.1346 15.5618 12.992 15.472 12.8769C15.382 12.7614 15.2547 12.6807 15.1118 12.6485L15.1118 12.6484L15.1081 12.6479C14.9516 12.6247 14.7896 12.5957 14.6396 12.5611L14.6391 12.561C14.3284 12.4925 14.0226 12.4035 13.7238 12.2945L13.6801 12.2786L13.661 12.321L13.2937 13.1373C13.2937 13.1373 13.2937 13.1374 13.2937 13.1374C13.2347 13.2657 13.1274 13.3654 12.995 13.4146L12.995 13.4146L12.9935 13.4152C12.864 13.4684 12.7188 13.4686 12.5892 13.4157C10.8024 12.5812 9.3661 11.1449 8.53163 9.35809M15.6583 15.0817L8.53163 9.35809M15.4493 15.5519L15.4158 15.5148L15.4495 15.5518C15.4494 15.5518 15.4494 15.5519 15.4493 15.5519ZM15.4493 15.5519C15.3799 15.6151 15.2974 15.6621 15.2076 15.6894C15.118 15.7168 15.0233 15.7239 14.9306 15.7102M14.9306 15.7102C14.9307 15.7102 14.9309 15.7102 14.931 15.7102L14.9375 15.6607L14.9302 15.7101C14.9303 15.7101 14.9304 15.7102 14.9306 15.7102ZM14.9306 15.7102C12.743 15.4244 10.7101 14.4274 9.14474 12.8728L9.14462 12.8727C7.57796 11.306 6.57231 9.26596 6.28379 7.06923C6.27011 6.97648 6.2772 6.88184 6.30455 6.79215C6.33192 6.70237 6.3789 6.6198 6.4421 6.5504C6.50202 6.48404 6.5753 6.43111 6.65714 6.3951C6.73895 6.35911 6.82746 6.34083 6.91683 6.34149M6.91683 6.34149C6.9169 6.34149 6.91696 6.34149 6.91703 6.34149L6.91664 6.39149M6.91683 6.34149H6.91664V6.39149M6.91683 6.34149H8.66605M6.91664 6.39149H8.66665M8.66605 6.34149C8.66584 6.34149 8.66563 6.3415 8.66542 6.3415L8.66665 6.39149M8.66605 6.34149C8.81223 6.33806 8.95511 6.38532 9.07042 6.47526C9.18589 6.56533 9.26658 6.69263 9.29876 6.8355L9.30123 6.84649H9.29998C9.29998 6.95965 9.32827 7.0745 9.35782 7.19447C9.36749 7.23372 9.3773 7.27351 9.38629 7.31397L9.3863 7.31405C9.4532 7.61725 9.54218 7.91516 9.65255 8.20538L9.669 8.24864L9.62713 8.26838L8.81047 8.65338L8.81001 8.6536L8.81 8.65359C8.68167 8.71251 8.58193 8.81992 8.53267 8.95226L8.53209 8.95383L8.53206 8.95382C8.47886 9.08331 8.47872 9.22851 8.53163 9.35809M8.66605 6.34149H8.66665V6.39149M8.66665 6.39149L8.53163 9.35809" fill="#4E5154" stroke="white" stroke-width="0.1"/>
</svg>
