<svg width="22" height="22" viewBox="0 0 22 22" fill="none" xmlns="http://www.w3.org/2000/svg">
<circle cx="11" cy="11" r="10.5" fill="white" stroke="#4E5154"/>
<path d="M15.694 8.12569L15.718 8.11108V8.08301C15.718 7.91504 15.6512 7.75395 15.5325 7.63517C15.4137 7.5164 15.2526 7.44967 15.0846 7.44967H6.91797C6.75 7.44967 6.58891 7.5164 6.47013 7.63517C6.35136 7.75395 6.28464 7.91504 6.28464 8.08301V8.11108L6.3086 8.12569L10.9753 10.9724L11.0013 10.9882L11.0273 10.9724L15.694 8.12569ZM6.3607 9.37034L6.28464 9.32387V9.41301V13.9163C6.28464 14.0843 6.35136 14.2454 6.47013 14.3642C6.58891 14.4829 6.75 14.5497 6.91797 14.5497H15.0846C15.2526 14.5497 15.4137 14.4829 15.5325 14.3642C15.6512 14.2454 15.718 14.0843 15.718 13.9163V9.41301V9.32411L15.642 9.37028L11.2563 12.0355C11.2561 12.0356 11.256 12.0357 11.2558 12.0358C11.1749 12.0824 11.0831 12.107 10.9896 12.107C10.8962 12.107 10.8044 12.0825 10.7235 12.0358L6.3607 9.37034ZM6.91797 6.38301H15.0846C15.5355 6.38301 15.9679 6.56211 16.2867 6.88093C16.6055 7.19974 16.7846 7.63214 16.7846 8.08301V13.9163C16.7846 14.3672 16.6055 14.7996 16.2867 15.1184C15.9679 15.4372 15.5355 15.6163 15.0846 15.6163H6.91797C6.4671 15.6163 6.0347 15.4372 5.71589 15.1184C5.39708 14.7996 5.21797 14.3672 5.21797 13.9163V8.08301C5.21797 7.63214 5.39708 7.19974 5.71589 6.88093C6.0347 6.56211 6.4671 6.38301 6.91797 6.38301Z" fill="#4E5154" stroke="white" stroke-width="0.1"/>
</svg>
