<svg width="27" height="27" viewBox="0 0 27 27" fill="none" xmlns="http://www.w3.org/2000/svg">
<circle cx="13.5" cy="13.5" r="13" stroke="white"/>
<path d="M8.28182 16.2632V16.1632H8.18182H7.59091C7.46006 16.1632 7.33497 16.1122 7.24306 16.0222C7.15121 15.9322 7.1 15.8106 7.1 15.6842V12.7904C7.10111 12.7355 7.1119 12.6812 7.1319 12.6298L7.16419 12.5718L7.16825 12.5645L7.17105 12.5566C7.17804 12.537 7.18752 12.5182 7.19928 12.5007L8.61577 10.6503C8.7714 10.4469 8.97336 10.2817 9.20575 10.1679C9.43815 10.0541 9.69452 9.99474 9.95455 9.99474H11.1364H11.2364V9.89474V8.73684C11.2364 8.30339 11.4121 7.88727 11.7256 7.58014C12.0391 7.27294 12.4648 7.1 12.9091 7.1H18.2273C18.6716 7.1 19.0972 7.27294 19.4108 7.58014C19.7243 7.88727 19.9 8.30339 19.9 8.73684V15.6842C19.9 15.8106 19.8488 15.9322 19.7569 16.0222C19.665 16.1122 19.5399 16.1632 19.4091 16.1632H18.8182H18.7182V16.2632C18.7182 16.6966 18.5425 17.1127 18.229 17.4199C17.9154 17.7271 17.4897 17.9 17.0455 17.9C16.6012 17.9 16.1755 17.7271 15.8619 17.4199C15.5485 17.1127 15.3727 16.6966 15.3727 16.2632V16.1632H15.2727H11.7273H11.6273V16.2632C11.6273 16.6966 11.4515 17.1127 11.1381 17.4199C10.8245 17.7271 10.3988 17.9 9.95455 17.9C9.51026 17.9 9.08457 17.7271 8.77102 17.4199C8.45754 17.1127 8.28182 16.6966 8.28182 16.2632ZM18.8182 15.2053H18.9182V15.1053V8.73684C18.9182 8.55611 18.8449 8.3832 18.7151 8.25603C18.5854 8.12894 18.4099 8.05789 18.2273 8.05789H12.9091C12.7265 8.05789 12.551 8.12894 12.4213 8.25603C12.2915 8.3832 12.2182 8.55611 12.2182 8.73684V15.1053V15.2053H12.3182H15.7336H15.7773L15.8069 15.1733C15.9636 15.0044 16.1547 14.8694 16.368 14.7769C16.5813 14.6844 16.8121 14.6366 17.0455 14.6366C17.2788 14.6366 17.5096 14.6844 17.7229 14.7769C17.9362 14.8694 18.1273 15.0044 18.284 15.1733L18.3136 15.2053H18.3573H18.8182ZM11.1364 12.3105H11.2364V12.2105V11.0526V10.9526H11.1364H9.95455C9.84762 10.9526 9.74209 10.977 9.64629 11.0239C9.55048 11.0709 9.46694 11.1391 9.40241 11.2234L8.69332 12.1497L8.57024 12.3105H8.77273H11.1364ZM8.18182 13.2684H8.08182V13.3684V15.1053V15.2053H8.18182H8.64273H8.68639L8.71607 15.1732C9.01256 14.8534 9.4265 14.6608 9.86787 14.6383C10.3093 14.6158 10.7415 14.7651 11.0705 15.0531L11.2364 15.1984V14.9779V13.3684V13.2684H11.1364H8.18182ZM16.4715 15.8852C16.3953 15.9969 16.3545 16.1284 16.3545 16.2632C16.3545 16.4439 16.4278 16.6168 16.5576 16.744C16.6874 16.8711 16.8629 16.9421 17.0455 16.9421C17.1817 16.9421 17.315 16.9025 17.4285 16.8282C17.5421 16.7538 17.6309 16.6479 17.6835 16.5237C17.736 16.3993 17.7498 16.2624 17.723 16.1303C17.6962 15.9982 17.63 15.8772 17.5333 15.7823C17.4365 15.6876 17.3135 15.6232 17.1799 15.5972C17.0462 15.5711 16.9077 15.5845 16.7817 15.6356C16.6557 15.6868 16.5477 15.7735 16.4715 15.8852ZM9.38061 15.8852C9.30443 15.9969 9.26364 16.1284 9.26364 16.2632C9.26364 16.4439 9.33694 16.6168 9.46673 16.744C9.59645 16.8711 9.77196 16.9421 9.95455 16.9421C10.0907 16.9421 10.224 16.9025 10.3376 16.8282C10.4512 16.7538 10.54 16.6479 10.5926 16.5237C10.6451 16.3993 10.6589 16.2624 10.6321 16.1303C10.6053 15.9982 10.5391 15.8772 10.4424 15.7823C10.3456 15.6876 10.2226 15.6232 10.089 15.5972C9.95533 15.5711 9.8168 15.5845 9.69081 15.6356C9.5648 15.6868 9.45677 15.7735 9.38061 15.8852Z" fill="white" stroke="white" stroke-width="0.2"/>
</svg>
