<svg width="24" height="24" viewBox="0 0 24 24" fill="none" xmlns="http://www.w3.org/2000/svg">
<path fill-rule="evenodd" clip-rule="evenodd" d="M4.76483 2.44438C6.72645 0.939824 9.1612 0.15212 11.6294 0.0229196C11.5394 2.24642 11.5729 4.51367 10.9574 6.67048C10.7329 7.51947 10.3257 8.30975 9.76391 8.98656C9.20217 9.66338 8.49935 10.2106 7.70412 10.5903C5.28402 11.6322 2.58548 11.553 0.00209236 11.6572C0.00209236 8.07293 1.88625 4.57202 4.76483 2.44438ZM12.3622 0C14.5394 0.183381 16.7209 0.750195 18.5464 1.98593C20.172 3.03944 21.5165 4.46982 22.4645 6.15431C23.4126 7.8388 23.9359 9.72711 23.9895 11.6572C21.5987 11.5738 19.1389 11.6072 16.8486 10.8236C16.0186 10.5378 15.2629 10.0715 14.6365 9.45879C14.01 8.84603 13.5285 8.10212 13.2268 7.28106C12.3894 4.95754 12.402 2.43814 12.3601 0H12.3622ZM17.284 13.0471C19.4696 12.4491 21.7516 12.4324 24 12.3782C23.9117 15.4501 22.6308 18.3684 20.4264 20.5199C18.2672 22.6444 15.3856 23.8848 12.3517 23.9958C12.4103 21.5139 12.3685 18.9424 13.277 16.5877C13.9239 14.8497 15.5024 13.5514 17.2756 13.0451L17.284 13.0471ZM0 12.3845C2.72156 12.4803 5.61898 12.3553 8.0977 13.6515C9.79344 14.5142 10.792 16.3105 11.1479 18.1151C11.5541 20.0511 11.5666 22.0328 11.6169 24C10.0086 23.9376 8.42845 23.5596 6.96731 22.8877C5.50617 22.2157 4.19278 21.2631 3.10258 20.0844C1.20796 17.9922 0 15.2206 0 12.3845Z" fill="white"/>
</svg>
