<svg width="122" height="122" viewBox="0 0 122 122" fill="none" xmlns="http://www.w3.org/2000/svg">
<circle cx="61" cy="61" r="60.5" stroke="#C6D6E7"/>
<path d="M62.93 59.4057C64.0521 60.1434 65.0311 61.0913 65.8166 62.2007C66.5583 62.9942 66.9812 64.0493 67 65.1528C66.9002 65.9199 66.5369 66.6243 65.9765 67.1373C64.4333 68.6754 62.1064 68.9317 59.9635 68.9814C55.7783 69.0885 51.594 68.7337 47.4816 67.9229C45.3786 67.5095 43.2996 66.972 41.2126 66.4675C33.7843 64.6483 25.9721 62.333 18.4638 60.8859C18.3713 59.9144 18.2164 58.9503 18 58C27.3272 59.5035 36.7647 60.151 46.2022 59.935C50.0563 59.8357 61.7946 58.7029 62.93 59.4057Z" fill="#94BADF"/>
<path d="M65.9172 68.5536C67.1347 67.8734 68.0818 66.7926 68.599 65.4933C69.0208 64.5275 69.1128 63.4487 68.8609 62.4249C68.361 60.9106 66.671 60.0977 65.1 60.034C63.5368 60.1105 61.9887 60.3781 60.49 60.8309C56.5855 61.5734 52.5625 61.3933 48.7391 60.3049C44.9166 59.2161 41.1841 57.8305 37.5753 56.1606L23.2933 50L22 52.7018C25.8191 55.4434 29.6805 58.1 33.5843 60.6715C37.6526 63.4525 41.8929 65.9707 46.2794 68.211C49.4532 69.8049 52.9047 71.1119 56.4435 70.9924C58.9745 70.9446 63.1163 70.307 65.9172 68.5536Z" fill="#C6D6E7"/>
<path d="M71 49.4883C68.6638 48.6127 66.5667 47.1677 64.8867 45.276C59.9019 39.3859 57.1453 31.8337 57.1248 24.0104C57.1248 22.7557 57.1248 21.5009 57.0302 20.2543C57.0321 20.2102 57.0247 20.1661 57.0083 20.1253C56.992 20.0845 56.9671 20.0479 56.9355 20.018C56.9094 20.0061 56.8812 20 56.8527 20C56.8242 20 56.796 20.0061 56.7699 20.018C55.5078 20.2869 55.2396 23.7578 55.1291 24.76C54.2536 32.9077 57.9373 41.3243 62.9305 47.4514C63.9626 48.7184 65.0831 49.9057 66.2829 51.0038C66.8982 51.5579 70.2743 52.8941 70.227 53C70.5504 51.4682 70.7081 50.9794 71 49.4883Z" fill="#F9EACF"/>
<path d="M60.1022 46.2166C61.2109 47.7844 62.4578 49.2529 63.8284 50.6051C64.8256 51.6953 65.9901 52.625 67.2794 53.3605C67.8812 53.7114 68.5556 53.9242 69.2524 53.9832C69.9492 54.0421 70.6506 53.9457 71.3043 53.701C72.2697 53.129 73.0223 52.2659 73.4505 51.2398C73.8505 50.6112 74.0402 49.8749 73.9929 49.1345L64.8739 41C64.3557 42.0736 63.712 43.0841 62.9558 44.0108C62.1887 44.9317 61.1593 45.6056 60 45.9457L60.1022 46.2166Z" fill="#FFD68B"/>
<path d="M75.1555 44.1843L73.0738 42.3109C73.2729 41.4005 73.6547 40.5384 74.1966 39.7753C75.9341 37.3044 78.8026 36.295 80.6057 37.5224C82.4088 38.7498 82.4743 41.7537 80.7368 44.2247C78.9993 46.6956 76.1308 47.705 74.3277 46.4776C73.9645 46.218 73.6592 45.8876 73.4308 45.507C73.2025 45.1265 73.0558 44.7037 73 44.265C73.341 44.4175 73.7133 44.4896 74.0874 44.4756C74.4616 44.4616 74.8273 44.3618 75.1555 44.1843Z" fill="#F9EACF"/>
<path d="M73.1445 49.7131C72.953 50.2841 72.9518 50.9146 73.1412 51.4865C73.3306 52.0585 73.6977 52.5328 74.1737 52.8209C74.5105 52.9747 74.8759 53.0308 75.2367 52.984C75.5975 52.9371 75.9422 52.7889 76.2394 52.5528C77.0687 51.824 77.1427 50.534 77.3944 49.4617C77.5596 48.7475 77.7699 48.0476 78.0238 47.3675C78.153 47.0291 78.2988 46.6991 78.4606 46.379C78.5791 46.1361 78.9123 45.7675 78.9641 45.5414C79.0052 45.3973 79.0111 45.2434 78.9812 45.0959C78.9512 44.9484 78.8864 44.8129 78.7938 44.7037C78.6149 44.5058 78.4037 44.3493 78.1719 44.2429C77.9413 44.1084 77.6899 44.0259 77.4315 44C77.1451 44.0153 76.866 44.1071 76.617 44.2681C75.8303 44.7533 75.2293 45.5496 74.9289 46.5047C74.7756 46.8635 74.5973 47.2081 74.3958 47.5351C74.1959 47.9036 73.996 48.2722 73.7813 48.6408C73.5482 48.9818 73.3355 49.34 73.1445 49.7131Z" fill="#F9EACF"/>
<path d="M85.172 38.1142C84.8133 37.5642 84.3511 37.0948 83.8132 36.7341C83.2753 36.3733 82.6727 36.1286 82.0414 36.0146C80.7843 35.9286 79.5304 36.2244 78.4333 36.8658C78.3209 36.909 78.2211 36.9816 78.1437 37.0765C78.0475 37.2331 78.0061 37.4191 78.0263 37.6035C77.9104 39.282 78.1785 40.9652 78.809 42.5161C79.5369 44.032 81.157 45.2723 82.7223 44.9481C83.4354 44.7909 84.09 44.4251 84.6085 43.8942C85.1761 43.3504 85.5929 42.6592 85.8159 41.8924C86.0388 41.1255 86.0597 40.3109 85.8764 39.5328C85.7186 39.023 85.4806 38.5437 85.172 38.1142Z" fill="#4E5154"/>
<path d="M83.0038 37.2638C82.8848 35.0931 85.5736 34.4853 87.5485 35.4325C88.8766 36.1726 90.0205 37.2005 90.8955 38.44C91.7647 39.6791 92.785 40.8059 93.9332 41.7948C94.9295 42.5416 96.0927 43.0373 97.3233 43.2393C98.554 43.4414 99.8155 43.3439 101 42.9552C100.469 45.6785 97.8275 47.6913 95.0594 47.9834C93.6656 48.0644 92.2704 47.8486 90.967 47.3504C89.6636 46.8522 88.482 46.083 87.5009 45.0943C85.5759 43.1614 84.1121 40.8225 83.218 38.2505C83.0965 37.9344 83.0243 37.6017 83.0038 37.2638Z" fill="#4E5154"/>
<g style="mix-blend-mode:multiply">
<path d="M74.9405 46C74.9405 46 76.0801 47.0436 77 46.2806C77 46.2806 74.8924 48.3239 74 47.9556L74.9405 46Z" fill="#E6E6E6"/>
</g>
<path d="M79.5494 42.3181C79.0586 42.7185 78.8582 43.3499 79.107 43.7273C79.3559 44.1046 79.9573 44.0892 80.4481 43.6887C80.9389 43.2883 81.1394 42.6492 80.8974 42.2719C80.6555 41.8946 80.0472 41.91 79.5494 42.3181Z" fill="#F9EACF"/>
<path d="M77.7879 52.6826C80.0599 53.6927 82.5439 54.1374 85.0263 53.9785C92.5607 53.3511 99.6145 50.032 104.891 44.6317C105.749 43.7677 106.568 42.8802 107.49 42.0947C107.518 42.0629 107.554 42.0378 107.593 42.0215C107.633 42.0052 107.675 41.998 107.718 42.0005C107.746 42.0075 107.773 42.0202 107.796 42.0377C107.819 42.0553 107.838 42.0774 107.852 42.1026C108.577 43.163 106.434 45.7549 105.836 46.5247C100.976 52.769 92.6822 56.0443 84.9791 56.8297C83.3885 56.9959 81.7876 57.0405 80.1902 56.9632C79.4026 56.924 76.0473 55.5102 76 55.5965C76.7798 54.387 77.0003 53.9078 77.7879 52.6826Z" fill="#F9EACF"/>
<path d="M88.3922 58.7264C86.6341 58.9797 84.8552 59.0574 83.0817 58.9584C80.8907 58.8125 78.723 58.4207 76.6195 57.7906C75.3639 57.2547 76.3476 53.0314 76.6995 51.9276C76.8685 51.19 77.2526 50.5192 77.8032 50L89 51.2878C88.5828 52.4697 88.2906 53.6922 88.1283 54.9351C87.9614 56.1864 88.1326 57.4596 88.6241 58.6224L88.3922 58.7264Z" fill="#FFD68B"/>
<path d="M72.079 50.663C69.4205 53.3818 66.1062 55.4338 62.4269 56.639C61.6969 56.8644 60.9425 56.9965 60.1963 57.1674C59.7178 57.2762 58.3632 57.4316 58.0794 57.8591C57.7955 58.2865 58.3551 59.6309 58.4768 60.0894C58.712 60.9131 58.9878 61.7291 59.2879 62.5373C59.5635 63.5666 59.927 64.5725 60.3748 65.5447C61.4937 67.7611 63.3596 69.5516 65.6713 70.627C66.1647 70.8579 66.704 70.9851 67.2529 71C70.2459 70.9301 71.933 67.2543 73.1902 65.125C75.6235 60.9597 77.9432 56.3126 78 51.4246C78 50.2745 77.5863 50.4221 76.5725 50.6475C75.4616 50.8859 74.3651 51.1817 73.2875 51.5334C73.2875 51.5334 73.2875 49.6372 73.2875 49C72.9326 49.5849 72.5284 50.1411 72.079 50.663Z" fill="#FFD68B"/>
<path d="M23 50.0704C22.6519 48.4371 22.7602 44.8421 22.621 44.1248C22.4818 43.4075 22.2575 42.2927 21.9094 43.6149C21.4453 45.4038 20.2155 52.9481 21.7392 53L23 50.0704Z" fill="#FFD68B"/>
<path d="M17.7227 58.0003C16.7369 56.9354 15.2735 54.1319 14.8499 53.6577C14.4263 53.1835 13.7717 52.4514 14.0797 53.6577C14.4802 55.2799 16.76 61.7023 18 60.9369L17.7227 58.0003Z" fill="#FFD68B"/>
<path d="M34.0119 57.9942V75.1304C34.0174 75.8856 34.3061 76.6112 34.8207 77.1639C35.3354 77.7166 36.0387 78.0562 36.7916 78.1154L74.381 80.9583L79.5297 90.5214C79.6114 90.6737 79.6523 90.8444 79.6485 91.0171C79.6447 91.1898 79.5964 91.3586 79.5083 91.5072C79.4201 91.6557 79.295 91.779 79.1452 91.865C78.9954 91.951 78.8259 91.9969 78.6532 91.9981H37.0127C36.874 91.9858 36.7343 92.0024 36.6025 92.047C36.4706 92.0916 36.3495 92.1632 36.2468 92.2572C36.1441 92.3511 36.0621 92.4654 36.006 92.5928C35.9498 92.7202 35.9209 92.8579 35.9209 92.9971C35.9209 93.1363 35.9498 93.274 36.006 93.4014C36.0621 93.5287 36.1441 93.643 36.2468 93.737C36.3495 93.831 36.4706 93.9025 36.6025 93.9471C36.7343 93.9917 36.874 94.0084 37.0127 93.996H78.6374C79.1561 93.9951 79.6656 93.8598 80.1164 93.6033C80.5671 93.3468 80.9437 92.9778 81.2094 92.5324C81.4751 92.0869 81.6208 91.5802 81.6323 91.0617C81.6437 90.5432 81.5207 90.0306 81.275 89.5738L76.063 79.8922L85.5867 48.4627C85.6426 48.286 85.7458 48.1279 85.8849 48.0055C86.0241 47.883 86.194 47.8008 86.3764 47.7678L90.1985 46.9781C90.4582 46.9258 90.6865 46.7724 90.8331 46.5517C90.9797 46.3311 91.0326 46.0612 90.9803 45.8015C90.9279 45.5418 90.7746 45.3135 90.5539 45.1669C90.3332 45.0203 90.0634 44.9673 89.8037 45.0197L85.9815 45.8094C85.4497 45.9158 84.9566 46.1644 84.5547 46.5287C84.1528 46.893 83.8572 47.3594 83.6993 47.8784L78.1715 66.0411H73.4886L76.1735 53.5957C76.201 53.4676 76.203 53.3354 76.1794 53.2065C76.1558 53.0777 76.107 52.9548 76.0359 52.8448C75.9648 52.7348 75.8727 52.6399 75.7648 52.5655C75.657 52.4911 75.5356 52.4387 75.4075 52.4112C75.2795 52.3837 75.1473 52.3817 75.0184 52.4053C74.8896 52.4289 74.7666 52.4777 74.6567 52.5488C74.5467 52.62 74.4517 52.7121 74.3773 52.8199C74.3029 52.9277 74.2505 53.0491 74.223 53.1772L71.4512 65.9543H66.7762L68.2766 54.109C68.3091 53.8461 68.2358 53.5812 68.0729 53.3724C67.91 53.1635 67.6708 53.028 67.408 52.9955C67.1451 52.9631 66.8801 53.0364 66.6713 53.1993C66.4625 53.3622 66.327 53.6013 66.2945 53.8642L64.7625 65.9543H60.5455L60.9957 55.0566C61.002 54.9253 60.9823 54.794 60.9376 54.6703C60.8929 54.5466 60.8241 54.4331 60.7353 54.3362C60.6464 54.2392 60.5393 54.1609 60.4199 54.1056C60.3006 54.0504 60.1715 54.0193 60.0401 54.0142C59.7765 54.0076 59.5205 54.1035 59.3261 54.2817C59.1317 54.4599 59.014 54.7065 58.9977 54.9697L58.5871 65.9543H54.5439V55.8305C54.5439 55.5645 54.4382 55.3094 54.2501 55.1213C54.062 54.9333 53.8069 54.8276 53.541 54.8276C53.275 54.8276 53.0199 54.9333 52.8318 55.1213C52.6437 55.3094 52.538 55.5645 52.538 55.8305V65.9543H48.2737V56.6597C48.2515 56.4101 48.1366 56.1778 47.9517 56.0087C47.7669 55.8395 47.5253 55.7457 47.2747 55.7457C47.0241 55.7457 46.7826 55.8395 46.5977 56.0087C46.4129 56.1778 46.298 56.4101 46.2758 56.6597V65.9543H42.0035V57.3704C42.0159 57.2318 41.9992 57.092 41.9546 56.9602C41.91 56.8283 41.8385 56.7072 41.7445 56.6045C41.6505 56.5018 41.5362 56.4198 41.4088 56.3637C41.2814 56.3076 41.1438 56.2786 41.0046 56.2786C40.8654 56.2786 40.7277 56.3076 40.6003 56.3637C40.4729 56.4198 40.3586 56.5018 40.2647 56.6045C40.1707 56.7072 40.0991 56.8283 40.0545 56.9602C40.0099 57.092 39.9933 57.2318 40.0056 57.3704V65.9543H36.0019V57.9942C36.0142 57.8556 35.9976 57.7159 35.953 57.584C35.9084 57.4522 35.8368 57.331 35.7428 57.2283C35.6489 57.1256 35.5346 57.0436 35.4072 56.9875C35.2798 56.9314 35.1421 56.9024 35.0029 56.9024C34.8637 56.9024 34.726 56.9314 34.5987 56.9875C34.4713 57.0436 34.3569 57.1256 34.263 57.2283C34.169 57.331 34.0975 57.4522 34.0529 57.584C34.0083 57.7159 33.9916 57.8556 34.0039 57.9942H34.0119ZM70.7642 78.6603L73.0622 67.9917H77.5792L74.2625 78.9209L70.7642 78.6603ZM65.2363 78.2418L66.5393 67.9759H71.0405L68.7662 78.4945L65.2363 78.2418ZM60.0717 77.8549L60.4745 67.9917H64.5256L63.2384 78.0918L60.0717 77.8549ZM54.5439 77.4442V67.968H58.4923L58.0896 77.6811L54.5281 77.4205L54.5439 77.4442ZM48.2816 67.968H52.5459V77.2705L48.2816 76.9467V67.968ZM42.0588 67.968H46.2837V76.7967L42.0588 76.4808V67.968ZM36.0572 67.968H40.0609V76.3308L36.9811 76.1018C36.7304 76.082 36.4963 75.9687 36.3251 75.7844C36.154 75.6001 36.0584 75.3582 36.0572 75.1067V67.968Z" fill="#A2A2A2"/>
<path d="M79 99C79 99.5933 78.8241 100.173 78.4944 100.667C78.1648 101.16 77.6962 101.545 77.1481 101.772C76.5999 101.999 75.9967 102.058 75.4147 101.942C74.8328 101.827 74.2982 101.541 73.8787 101.121C73.4591 100.702 73.1734 100.167 73.0576 99.5853C72.9419 99.0033 73.0013 98.4001 73.2284 97.852C73.4554 97.3038 73.8399 96.8352 74.3333 96.5056C74.8266 96.1759 75.4067 96 76 96C76.394 96 76.7841 96.0776 77.1481 96.2284C77.512 96.3791 77.8428 96.6001 78.1213 96.8787C78.3999 97.1573 78.6209 97.488 78.7716 97.852C78.9224 98.2159 79 98.606 79 99Z" fill="#A2A2A2"/>
<path d="M42 99C42 99.5937 41.8239 100.174 41.4939 100.668C41.1639 101.161 40.6949 101.546 40.1462 101.772C39.5976 101.999 38.994 102.058 38.4118 101.942C37.8297 101.825 37.2951 101.539 36.8759 101.119C36.4566 100.698 36.1715 100.163 36.0567 99.5804C35.9418 98.998 36.0024 98.3945 36.2306 97.8465C36.4589 97.2984 36.8447 96.8305 37.339 96.5018C37.8334 96.1731 38.4142 95.9984 39.0079 96C39.8022 96.0021 40.5632 96.3191 41.1241 96.8815C41.685 97.4439 42 98.2057 42 99Z" fill="#A2A2A2"/>
<path d="M74.7905 99.0125L74 95H78L77.2095 99.0125C77.1546 99.2906 77.0048 99.5411 76.7856 99.7211C76.5665 99.9012 76.2916 99.9997 76.0079 99.9998C75.7211 100.005 75.4417 99.9087 75.219 99.728C74.9962 99.5474 74.8445 99.294 74.7905 99.0125Z" fill="#A2A2A2"/>
<path d="M38.8 99.0126L38 95H42L41.2 99.0126C41.1447 99.2894 40.9943 99.5389 40.7742 99.7188C40.554 99.8987 40.2777 99.9981 39.992 100C39.709 99.9945 39.4365 99.8935 39.2196 99.7139C39.0028 99.5343 38.8547 99.2868 38.8 99.0126Z" fill="#A2A2A2"/>
<path d="M32.0076 58.112C32.0349 58.3559 32.1513 58.5812 32.3346 58.745C32.5178 58.9088 32.7551 58.9996 33.0012 59H33.0966L81.3561 53.1011L82 51L32.8502 57.002C32.5925 57.0413 32.3604 57.1792 32.2031 57.3865C32.0457 57.5937 31.9756 57.854 32.0076 58.112Z" fill="#A2A2A2"/>
</svg>
