<svg width="410" height="331" viewBox="0 0 410 331" fill="none" xmlns="http://www.w3.org/2000/svg">
<path opacity="0.31" d="M400.24 269.41H8.74C6.42017 269.405 4.19717 268.479 2.55867 266.837C0.920174 265.195 -6.04613e-06 262.97 0 260.65C-1.51091e-06 258.326 0.922604 256.096 2.56514 254.452C4.20767 252.808 6.43578 251.883 8.76 251.88H400.26C402.584 251.883 404.812 252.808 406.455 254.452C408.097 256.096 409.02 258.326 409.02 260.65C409.02 261.802 408.793 262.943 408.351 264.007C407.91 265.071 407.263 266.038 406.447 266.851C405.632 267.665 404.664 268.31 403.598 268.749C402.533 269.188 401.392 269.413 400.24 269.41Z" fill="#7E8F9A"/>
<path d="M15.2188 256.32V148.18H75.3387V164.65H32.9287V193.54H69.4388V209.69H32.9287V239.52H75.3387V256.32H15.2188Z" fill="#C6D6E7"/>
<path d="M136.381 256.32L120.231 211.32H106.401V256.32H88.6914V148.18H123.491C127.713 148.146 131.911 148.801 135.921 150.12C139.636 151.313 143.032 153.33 145.857 156.021C148.681 158.713 150.86 162.008 152.231 165.66C153.865 170.001 154.655 174.613 154.561 179.25C154.719 185.436 153.217 191.551 150.211 196.96C147.224 202.018 142.707 205.996 137.311 208.32L155.801 256.32H136.381ZM137.161 179.32C137.161 174.253 135.865 170.5 133.271 168.06C130.678 165.62 126.951 164.373 122.091 164.32H106.401V195.23H121.941C126.608 195.23 130.308 193.897 133.041 191.23C135.775 188.563 137.148 184.57 137.161 179.25V179.32Z" fill="#C6D6E7"/>
<path d="M218.401 256.32L202.241 211.32H188.421V256.32H170.711V148.18H205.501C209.722 148.145 213.921 148.8 217.931 150.12C221.645 151.313 225.042 153.33 227.866 156.021C230.691 158.713 232.87 162.008 234.241 165.66C235.874 170.001 236.665 174.613 236.571 179.25C236.733 185.436 235.231 191.553 232.221 196.96C229.235 202.016 224.722 205.994 219.331 208.32L237.811 256.32H218.401ZM219.171 179.32C219.171 174.253 217.878 170.5 215.291 168.06C212.704 165.62 208.978 164.373 204.111 164.32H188.421V195.23H204.001C208.668 195.23 212.371 193.897 215.111 191.23C217.851 188.563 219.204 184.57 219.171 179.25V179.32Z" fill="#C6D6E7"/>
<path d="M316.1 223.52C316.177 228.296 315.359 233.044 313.69 237.52C312.188 241.508 309.86 245.133 306.86 248.16C303.879 251.127 300.304 253.431 296.37 254.92C287.092 258.206 276.935 258.011 267.79 254.37C263.778 252.638 260.237 249.975 257.46 246.6C254.777 243.254 252.797 239.4 251.64 235.27C250.375 230.848 249.745 226.269 249.77 221.67V180.8C249.79 176.85 250.394 172.924 251.56 169.15C252.765 165.092 254.814 161.334 257.571 158.122C260.328 154.91 263.732 152.316 267.56 150.51C271.754 148.443 276.904 147.41 283.01 147.41C288.086 147.268 293.129 148.262 297.77 150.32C301.711 152.137 305.229 154.756 308.1 158.01C310.821 161.135 312.882 164.778 314.16 168.72C315.431 172.594 316.086 176.643 316.1 180.72V223.52ZM298.1 180.52C298.066 178.914 297.831 177.318 297.4 175.77C296.914 173.9 296.098 172.132 294.99 170.55C293.777 168.821 292.217 167.364 290.41 166.27C288.167 164.993 285.609 164.372 283.03 164.48C280.423 164.393 277.835 164.956 275.5 166.12C273.621 167.082 271.978 168.448 270.69 170.12C269.516 171.685 268.644 173.455 268.12 175.34C267.625 177.06 267.366 178.84 267.35 180.63L267.5 222.03C267.341 226.65 268.586 231.211 271.07 235.11C273.45 238.643 277.49 240.407 283.19 240.4C287.077 240.462 290.832 238.997 293.65 236.32C296.61 233.573 298.087 229.81 298.08 225.03L298.1 180.52Z" fill="#C6D6E7"/>
<path d="M380.561 256.32L364.411 211.32H350.581V256.32H332.871V148.18H367.671C371.889 148.145 376.085 148.8 380.091 150.12C383.808 151.311 387.207 153.328 390.033 156.019C392.859 158.71 395.04 162.006 396.411 165.66C398.044 170.001 398.835 174.613 398.741 179.25C398.898 185.436 397.396 191.551 394.391 196.96C391.404 202.018 386.887 205.996 381.491 208.32L400.001 256.32H380.561ZM381.341 179.32C381.341 174.253 380.044 170.5 377.451 168.06C374.858 165.62 371.131 164.373 366.271 164.32H350.581V195.23H366.121C370.788 195.23 374.488 193.897 377.221 191.23C379.954 188.563 381.328 184.57 381.341 179.25V179.32Z" fill="#C6D6E7"/>
<path d="M136.32 32.73V54.84" stroke="#4E5154" stroke-width="3" stroke-miterlimit="10"/>
<path d="M178.331 0H94.3008V38.92H178.331V0Z" fill="#C6D6E7"/>
<path d="M125.54 25.5799V29.0799H121.72V25.5799H113V22.2099L119.74 4.91992H123.74L117.11 21.9699H121.69V15.8599H125.51V21.9699H127.28V25.5799H125.54Z" fill="white"/>
<path d="M142.651 23.22C142.667 24.099 142.497 24.9716 142.151 25.78C141.832 26.4966 141.37 27.1399 140.792 27.6698C140.214 28.1997 139.533 28.6048 138.791 28.86C137.254 29.3797 135.588 29.3797 134.051 28.86C133.31 28.6083 132.629 28.2066 132.051 27.68C131.476 27.1451 131.017 26.4985 130.701 25.78C130.35 24.973 130.18 24.0995 130.201 23.22V10.83C130.18 9.94076 130.35 9.05743 130.701 8.23996C131.023 7.50591 131.5 6.85073 132.101 6.31996C132.683 5.79758 133.362 5.39643 134.101 5.13996C134.855 4.86909 135.65 4.73367 136.451 4.73996C137.265 4.73535 138.073 4.87065 138.841 5.13996C139.581 5.39394 140.261 5.79538 140.841 6.31996C141.414 6.85998 141.873 7.50945 142.191 8.22996C142.537 9.04887 142.707 9.93117 142.691 10.82L142.651 23.22ZM138.831 10.83C138.852 10.5024 138.806 10.174 138.695 9.86508C138.584 9.55612 138.411 9.27317 138.187 9.03372C137.962 8.79426 137.691 8.6034 137.39 8.47292C137.089 8.34244 136.764 8.27512 136.436 8.27512C136.108 8.27512 135.783 8.34244 135.482 8.47292C135.181 8.6034 134.909 8.79426 134.685 9.03372C134.461 9.27317 134.288 9.55612 134.177 9.86508C134.066 10.174 134.02 10.5024 134.041 10.83V23.18C134.019 23.511 134.066 23.843 134.18 24.1547C134.293 24.4664 134.471 24.7509 134.701 24.99C135.178 25.4157 135.802 25.6382 136.441 25.61C137.077 25.6377 137.698 25.4151 138.171 24.99C138.401 24.7509 138.579 24.4664 138.692 24.1547C138.806 23.843 138.853 23.511 138.831 23.18V10.83Z" fill="white"/>
<path d="M157.819 25.5799V29.0799H153.999V25.5799H145.289V22.2099L151.999 4.91992H155.999L149.369 21.9699H153.999V15.8599H157.819V21.9699H159.589V25.5799H157.819Z" fill="white"/>
<path d="M294.218 141.05C295.035 142.077 295.631 143.262 295.968 144.53C296.708 146.65 297.408 148.78 298.098 150.92C298.788 153.06 299.508 155.32 299.098 157.55C299.056 158 298.914 158.435 298.685 158.824C298.455 159.213 298.142 159.546 297.768 159.8C297.238 160.062 296.633 160.129 296.058 159.99C295.322 159.75 294.651 159.343 294.1 158.799C293.548 158.256 293.13 157.592 292.878 156.86C292.288 155.44 292.048 153.86 291.498 152.45C290.498 149.92 288.578 147.33 285.768 147.03C284.328 146.87 282.458 146.72 281.468 145.52C280.478 144.32 280.368 141.52 281.788 140.6C282.268 140.306 282.802 140.112 283.358 140.03C285.137 139.789 286.94 139.789 288.718 140.03C290.268 140.16 291.958 139.86 293.428 140.52C293.722 140.646 293.99 140.826 294.218 141.05Z" fill="white" stroke="#4E5154" stroke-miterlimit="10"/>
<path d="M141.159 62.4099C141.439 61.1499 141.699 59.8799 141.959 58.6099C142.499 55.9299 143.959 53.1499 141.889 50.7899C140.039 48.6899 136.209 49.4099 134.009 50.6899C132.913 51.2851 132.025 52.2028 131.467 53.3188C130.909 54.4349 130.707 55.6954 130.889 56.9299C131.137 57.9778 131.717 58.9176 132.542 59.6095C133.368 60.3014 134.394 60.7084 135.469 60.7699C134.889 62.6399 134.359 64.5299 133.879 66.4199C133.199 69.1299 134.879 70.0899 137.279 69.5699C137.899 69.4864 138.491 69.2605 139.009 68.9099C139.665 68.2613 140.087 67.4138 140.209 66.4999C140.539 65.1399 140.849 63.7799 141.159 62.4099Z" fill="white" stroke="#4E5154" stroke-miterlimit="10"/>
<path d="M285.719 137.79L284.639 137.56C273.189 135.45 260.749 131.94 249.059 133.02C246.539 133.25 244.059 133.73 241.529 133.88C233.019 134.42 224.859 131.4 216.659 129.61C213.319 128.89 209.989 128.5 206.659 127.81C202.589 126.96 198.389 127.81 194.289 127.29C190.709 126.82 187.199 125.29 183.609 125.72C178.969 126.3 174.879 129.18 173.609 133.78C173.107 136.119 173.183 138.546 173.829 140.85C174.339 143.02 175.209 145.33 177.139 146.44C181.189 148.75 188.839 147.25 193.329 147.33C199.409 147.43 205.489 147.64 211.569 147.84C223.569 148.24 235.569 148.65 247.509 148.35C259.849 148.04 272.179 148.35 284.509 148.77C284.962 145.137 285.366 141.477 285.719 137.79Z" fill="#4E5154"/>
<path d="M83.1288 161.82C81.4439 163.84 80.2829 166.244 79.7488 168.82C79.2951 170.291 79.2536 171.858 79.6288 173.35C80.1788 175.18 81.8788 176.87 83.9188 176.46C84.5775 176.282 85.1589 175.891 85.573 175.349C85.987 174.806 86.2105 174.142 86.2088 173.46C86.1961 173.099 86.1087 172.745 85.952 172.42C85.7954 172.094 85.573 171.805 85.2988 171.57C85.3556 170.948 85.4524 170.33 85.5888 169.72C85.6218 169.49 85.7149 169.273 85.8588 169.09C86.4488 168.51 86.6188 169.42 86.5788 169.82C86.5388 170.22 86.1188 171.35 86.6388 171.61C86.9788 171.74 87.2488 171.3 87.3388 170.95C87.6301 169.672 87.8074 168.37 87.8688 167.06L88.1488 163.47C88.1988 163.078 88.1988 162.682 88.1488 162.29C88.0215 161.701 87.6892 161.177 87.2111 160.811C86.733 160.444 86.1403 160.26 85.5388 160.29C84.5895 160.522 83.7428 161.06 83.1288 161.82Z" fill="white" stroke="#4E5154" stroke-miterlimit="10"/>
<path opacity="0.31" d="M317.169 96.93L316.259 97.36C316.132 97.4199 315.987 97.4337 315.85 97.3991C315.713 97.3645 315.593 97.2835 315.509 97.17C314.759 96.1638 313.822 95.3116 312.749 94.66C312.63 94.5877 312.54 94.4768 312.492 94.3458C312.445 94.2149 312.444 94.0716 312.489 93.94L312.929 92.64C312.981 92.4874 312.971 92.3206 312.902 92.175C312.833 92.0294 312.71 91.9164 312.559 91.86L309.909 90.86C309.758 90.8076 309.592 90.8159 309.447 90.883C309.301 90.9501 309.188 91.0709 309.129 91.22L308.639 92.52C308.592 92.646 308.505 92.7532 308.391 92.8254C308.277 92.8975 308.143 92.9308 308.009 92.92C306.744 92.813 305.469 92.8972 304.229 93.17C304.084 93.2091 303.93 93.2022 303.788 93.1503C303.647 93.0984 303.525 93.0039 303.439 92.88L302.859 91.67C302.719 91.36 302.479 90.91 302.169 91.06L299.619 92.32C299.464 92.4449 299.353 92.6162 299.303 92.8088C299.252 93.0014 299.265 93.2052 299.339 93.39L299.909 94.61C299.976 94.7277 300 94.8651 299.976 94.9985C299.952 95.1318 299.883 95.2526 299.779 95.34C298.874 96.0691 298.094 96.9405 297.469 97.92C297.397 98.0386 297.285 98.1284 297.154 98.174C297.023 98.2196 296.88 98.2182 296.749 98.17L295.529 97.71C295.374 97.6556 295.204 97.6651 295.056 97.7364C294.907 97.8077 294.794 97.9349 294.739 98.09L293.819 100.69C293.767 100.841 293.775 101.007 293.842 101.152C293.909 101.298 294.03 101.412 294.179 101.47L295.509 101.99C295.638 102.038 295.747 102.129 295.817 102.247C295.888 102.365 295.917 102.504 295.899 102.64C295.721 103.884 295.789 105.152 296.099 106.37C296.135 106.507 296.123 106.652 296.065 106.781C296.006 106.911 295.906 107.016 295.779 107.08L294.639 107.62C294.482 107.681 294.353 107.8 294.281 107.952C294.208 108.105 294.197 108.279 294.249 108.44L295.449 111C295.599 111.3 295.999 111.29 296.309 111.15L297.439 110.61C297.572 110.559 297.717 110.551 297.854 110.589C297.991 110.627 298.112 110.708 298.199 110.82C298.958 111.754 299.855 112.566 300.859 113.23C300.977 113.308 301.065 113.424 301.107 113.559C301.149 113.694 301.143 113.839 301.089 113.97L300.689 115.06C300.659 115.137 300.645 115.219 300.647 115.301C300.65 115.383 300.669 115.464 300.703 115.539C300.738 115.614 300.787 115.681 300.848 115.736C300.91 115.791 300.981 115.833 301.059 115.86L303.629 116.76C303.707 116.787 303.789 116.798 303.87 116.793C303.952 116.787 304.032 116.766 304.106 116.73C304.179 116.693 304.245 116.643 304.298 116.581C304.352 116.519 304.393 116.448 304.419 116.37L304.769 115.29C304.814 115.155 304.904 115.039 305.025 114.963C305.145 114.886 305.288 114.853 305.429 114.87C306.609 115.015 307.805 114.968 308.969 114.73C309.103 114.704 309.241 114.726 309.359 114.792C309.478 114.858 309.57 114.963 309.619 115.09L310.169 116.25C310.319 116.56 310.719 116.54 311.029 116.4L313.579 115.19C313.889 115.04 313.839 114.89 313.699 114.58L313.149 113.42C313.109 113.276 313.114 113.124 313.162 112.983C313.21 112.842 313.3 112.719 313.419 112.63C314.429 111.832 315.306 110.881 316.019 109.81C316.1 109.695 316.215 109.609 316.348 109.564C316.481 109.519 316.625 109.517 316.759 109.56L317.939 109.96C318.094 110.012 318.264 110.001 318.411 109.93C318.559 109.859 318.673 109.733 318.729 109.58L319.669 106.98C319.699 106.902 319.712 106.819 319.707 106.736C319.703 106.653 319.681 106.571 319.643 106.497C319.606 106.423 319.553 106.357 319.489 106.304C319.424 106.251 319.349 106.212 319.269 106.19L318.269 105.86C318.135 105.819 318.019 105.733 317.94 105.617C317.862 105.5 317.826 105.36 317.839 105.22C317.959 104.014 317.894 102.797 317.649 101.61C317.621 101.472 317.637 101.328 317.694 101.199C317.752 101.07 317.848 100.962 317.969 100.89L318.869 100.47C319.179 100.32 319.119 100.17 318.979 99.86L317.739 97.32C317.589 96.99 317.479 96.79 317.169 96.93ZM309.169 109.26C308.111 109.753 306.931 109.923 305.777 109.747C304.623 109.571 303.546 109.058 302.683 108.272C301.82 107.486 301.208 106.462 300.925 105.33C300.642 104.197 300.7 103.006 301.092 101.907C301.484 100.807 302.192 99.8478 303.128 99.1496C304.063 98.4514 305.184 98.0455 306.35 97.9828C307.516 97.9201 308.674 98.2034 309.679 98.7972C310.684 99.391 311.492 100.269 311.999 101.32C312.342 102.024 312.541 102.788 312.586 103.57C312.631 104.351 312.52 105.134 312.261 105.872C312.001 106.61 311.598 107.29 311.074 107.872C310.55 108.453 309.917 108.925 309.209 109.26H309.169Z" fill="#7E8F9A"/>
<path opacity="0.31" d="M349.061 114L347.841 114.58C347.667 114.65 347.476 114.661 347.295 114.613C347.115 114.564 346.955 114.458 346.841 114.31C345.834 112.947 344.566 111.798 343.111 110.93C342.947 110.829 342.823 110.674 342.761 110.491C342.699 110.309 342.702 110.11 342.771 109.93L343.361 108.18C343.432 107.973 343.419 107.746 343.326 107.548C343.233 107.35 343.066 107.197 342.861 107.12L339.291 105.83C339.085 105.756 338.858 105.765 338.66 105.857C338.461 105.949 338.307 106.115 338.231 106.32L337.561 108.07C337.499 108.242 337.382 108.388 337.228 108.486C337.074 108.584 336.892 108.627 336.711 108.61C335.003 108.463 333.283 108.578 331.611 108.95C331.414 109.002 331.206 108.992 331.015 108.922C330.823 108.853 330.658 108.726 330.541 108.56L329.761 106.92C329.571 106.51 329.241 105.92 328.831 106.09L325.381 107.73C325.173 107.901 325.026 108.134 324.959 108.395C324.893 108.655 324.911 108.93 325.011 109.18L325.781 110.82C325.873 110.981 325.906 111.17 325.873 111.353C325.84 111.536 325.743 111.701 325.601 111.82C324.38 112.808 323.326 113.987 322.481 115.31C322.382 115.477 322.226 115.602 322.043 115.663C321.859 115.723 321.659 115.715 321.481 115.64L319.831 115.03C319.728 114.992 319.619 114.975 319.51 114.98C319.401 114.984 319.294 115.011 319.195 115.057C319.097 115.104 319.008 115.17 318.935 115.251C318.862 115.332 318.806 115.427 318.771 115.53L317.521 119.05C317.464 119.248 317.482 119.46 317.573 119.644C317.664 119.829 317.819 119.974 318.011 120.05L319.811 120.75C319.981 120.817 320.125 120.939 320.219 121.096C320.313 121.254 320.352 121.438 320.331 121.62C320.096 123.289 320.191 124.988 320.611 126.62C320.664 126.813 320.648 127.019 320.566 127.201C320.483 127.384 320.34 127.532 320.161 127.62L318.631 128.35C318.416 128.431 318.242 128.592 318.143 128.799C318.044 129.006 318.029 129.242 318.101 129.46L319.731 132.9C319.931 133.32 320.471 133.3 320.881 133.11L322.411 132.38C322.587 132.317 322.778 132.312 322.957 132.364C323.137 132.416 323.295 132.523 323.411 132.67C324.439 133.929 325.653 135.025 327.011 135.92C327.167 136.028 327.283 136.185 327.341 136.366C327.399 136.546 327.395 136.741 327.331 136.92L326.781 138.39C326.741 138.494 326.722 138.604 326.726 138.715C326.73 138.826 326.756 138.935 326.802 139.036C326.849 139.136 326.915 139.227 326.997 139.301C327.08 139.376 327.176 139.433 327.281 139.47L330.751 140.69C330.855 140.726 330.965 140.741 331.075 140.733C331.186 140.726 331.293 140.697 331.392 140.648C331.491 140.598 331.578 140.53 331.65 140.446C331.722 140.362 331.777 140.265 331.811 140.16L332.291 138.7C332.352 138.516 332.475 138.36 332.639 138.258C332.804 138.155 332.999 138.114 333.191 138.14C334.78 138.333 336.391 138.269 337.961 137.95C338.14 137.916 338.326 137.945 338.486 138.033C338.647 138.12 338.772 138.261 338.841 138.43L339.591 140C339.781 140.42 340.331 140.39 340.741 140.2L344.191 138.56C344.601 138.37 344.541 138.16 344.351 137.75L343.601 136.17C343.549 135.977 343.557 135.772 343.623 135.583C343.689 135.394 343.81 135.229 343.971 135.11C345.331 134.03 346.515 132.744 347.481 131.3C347.589 131.144 347.745 131.027 347.925 130.966C348.105 130.905 348.299 130.903 348.481 130.96L350.081 131.5C350.288 131.571 350.514 131.559 350.712 131.465C350.91 131.372 351.064 131.205 351.141 131L352.411 127.48C352.448 127.375 352.464 127.264 352.457 127.152C352.451 127.041 352.422 126.932 352.373 126.833C352.323 126.733 352.254 126.644 352.17 126.571C352.085 126.499 351.987 126.444 351.881 126.41L350.471 125.97C350.29 125.913 350.134 125.796 350.03 125.637C349.926 125.478 349.88 125.289 349.901 125.1C350.055 123.473 349.971 121.833 349.651 120.23C349.598 120.039 349.612 119.836 349.69 119.655C349.768 119.473 349.906 119.323 350.081 119.23L351.291 118.66C351.701 118.46 351.631 118.25 351.441 117.84L349.801 114.39C349.641 114.08 349.481 113.8 349.061 114ZM338.321 130.64C336.89 131.316 335.292 131.553 333.727 131.321C332.163 131.088 330.702 130.397 329.53 129.335C328.358 128.273 327.527 126.887 327.142 125.353C326.757 123.818 326.836 122.204 327.369 120.715C327.901 119.225 328.863 117.927 330.133 116.984C331.403 116.041 332.924 115.496 334.504 115.417C336.084 115.339 337.652 115.73 339.009 116.542C340.367 117.354 341.453 118.551 342.131 119.98C342.581 120.93 342.84 121.96 342.892 123.01C342.944 124.06 342.789 125.11 342.435 126.1C342.081 127.09 341.536 128 340.83 128.779C340.124 129.559 339.271 130.191 338.321 130.64Z" fill="#7E8F9A"/>
<path opacity="0.31" d="M20.5188 316.97C17.7388 316.52 14.8988 316.33 12.2988 315.27C9.15877 313.99 6.37877 310.85 7.02877 307.54C7.58877 304.67 10.5388 302.79 13.4388 302.46C16.3388 302.13 19.2188 302.96 22.0488 303.68C26.847 304.888 31.7215 305.77 36.6388 306.32C43.7788 307.13 51.5188 307.44 57.1088 311.95C60.8088 314.95 63.5188 319.72 68.1988 320.61C69.1811 320.709 70.1564 320.869 71.1188 321.09C71.605 321.205 72.0496 321.453 72.4028 321.806C72.7561 322.159 73.004 322.604 73.1188 323.09C73.3988 325.09 68.4388 325.34 67.0288 325.73C62.9388 326.85 59.0288 328.34 55.0288 329.5C50.7888 330.71 46.2488 330.35 41.9188 329.95C37.5888 329.55 32.6688 328.85 30.1488 325.29C28.8288 323.43 28.3688 321.01 26.7588 319.41C25.4731 318.299 23.8991 317.574 22.2188 317.32C21.6588 317.16 21.0888 317.06 20.5188 316.97Z" fill="#7E8F9A"/>
<path d="M8.56987 299.48C8.11687 301.526 8.49426 303.668 9.61919 305.436C10.7441 307.204 12.5246 308.454 14.5699 308.91C15.5848 309.167 16.642 309.211 17.6747 309.039C18.7075 308.867 19.6933 308.483 20.5699 307.91L63.9999 317.32L66.4499 306.32L22.8899 296.93C21.6904 295.262 19.9699 294.042 17.9999 293.46C16.979 293.228 15.9221 293.203 14.8915 293.387C13.8609 293.571 12.8777 293.96 11.9999 294.53C10.2494 295.664 9.01681 297.443 8.56987 299.48ZM14.5699 299.11L14.6899 299.04C14.8654 298.956 15.0499 298.892 15.2399 298.85H15.3499C15.7594 298.77 16.1804 298.77 16.5899 298.85C17.1226 299.002 17.5893 299.327 17.9156 299.775C18.2418 300.222 18.4088 300.766 18.3899 301.32C18.3549 301.873 18.1407 302.399 17.7799 302.82C17.419 303.24 16.9311 303.532 16.3899 303.65L16.7699 303.51C16.228 303.736 15.6262 303.774 15.0599 303.62C14.5937 303.478 14.1793 303.203 13.8682 302.827C13.5571 302.452 13.3629 301.994 13.3097 301.51C13.2565 301.025 13.3466 300.536 13.5688 300.102C13.791 299.669 14.1356 299.31 14.5599 299.07L14.5699 299.11Z" fill="#4E5154"/>
<path d="M21.0312 304.53L64.4912 313.9" stroke="white" stroke-miterlimit="10"/>
<path d="M22.0312 300.21L65.4912 309.58" stroke="white" stroke-miterlimit="10"/>
<path d="M58.8584 311.18C58.5492 312.54 58.5146 313.948 58.7567 315.322C58.9989 316.696 59.5128 318.007 60.2684 319.18C60.3791 319.363 60.4993 319.54 60.6284 319.71C62.1162 321.756 64.2842 323.204 66.7435 323.796C69.2029 324.388 71.7927 324.085 74.0484 322.94L75.4884 322.2L67.4284 316.64L71.7884 310.32L79.7184 315.79L79.8084 314.08C80.0623 311.359 79.2565 308.645 77.5589 306.503C75.8613 304.362 73.4028 302.958 70.6957 302.584C67.9886 302.21 65.2416 302.895 63.0271 304.497C60.8126 306.098 59.3014 308.492 58.8084 311.18H58.8584Z" fill="white" stroke="#4E5154" stroke-miterlimit="10"/>
<path opacity="0.31" d="M184.305 314.93C178.865 314.31 172.355 312.36 171.155 307.01C170.155 302.38 174.155 297.87 178.715 296.52C183.275 295.17 188.145 296.08 192.845 296.76C199.775 297.76 249.295 298.43 247.845 308.23C247.145 313.17 223.495 314.23 218.915 314.69C207.421 316.021 195.816 316.102 184.305 314.93Z" fill="#7E8F9A"/>
<path d="M225.896 299.24L225.096 302.39L187.566 295.81L188.366 292.66L225.896 299.24Z" fill="#4E5154"/>
<path d="M253.105 299.98L253.325 300.28C253.808 300.956 254.15 301.722 254.332 302.533C254.514 303.344 254.532 304.182 254.385 305C254.053 306.679 253.074 308.16 251.659 309.123C250.245 310.087 248.509 310.456 246.825 310.15L210.305 303.96L212.185 291.91L248.995 297.54C250.618 297.821 252.081 298.69 253.105 299.98Z" fill="white" stroke="#4E5154" stroke-miterlimit="10"/>
<path d="M195.013 288.04L199.853 294.93L198.923 297.73L192.663 301.95L178.453 295.95L179.923 288L195.013 288.04Z" fill="white" stroke="#4E5154" stroke-miterlimit="10"/>
<path d="M220.785 297.47L254.465 302.86" stroke="#4E5154" stroke-miterlimit="10"/>
<path d="M220.055 301.64L253.735 307.03" stroke="#4E5154" stroke-miterlimit="10"/>
<path d="M213.234 304.46L215.614 292.26" stroke="#4E5154" stroke-miterlimit="10"/>
<path d="M182.914 295.62L190.854 298.66" stroke="#4E5154" stroke-miterlimit="10"/>
<path d="M117.998 130.32C114.228 129.79 110.338 130.95 106.738 131.52L102.318 132.39C100.441 132.653 98.6017 133.136 96.8381 133.83C94.2181 135.06 92.3481 137.46 90.8381 139.94C89.3476 142.525 88.0119 145.197 86.8381 147.94C84.8381 152.34 83.1181 156.77 81.3081 161.19C81.2571 161.316 81.2567 161.458 81.3069 161.584C81.3572 161.711 81.4543 161.813 81.5781 161.87C84.2481 163.11 86.8681 164.46 89.4681 165.87C89.4948 165.887 89.525 165.897 89.5564 165.9C89.5878 165.903 89.6194 165.898 89.6486 165.886C89.6778 165.875 89.7039 165.856 89.7247 165.832C89.7454 165.809 89.7603 165.781 89.7681 165.75C90.4681 163.53 99.4881 148.75 101.608 147.75C102.913 147.311 104.25 146.976 105.608 146.75C108.33 145.97 110.982 144.967 113.538 143.75C115.895 142.628 118.165 141.331 120.328 139.87C121.063 139.389 121.651 138.714 122.028 137.92C123.738 134.14 121.828 130.9 117.998 130.32Z" fill="white" stroke="#4E5154" stroke-miterlimit="10"/>
<path d="M232.309 183.32C231.522 182.077 230.805 180.792 230.159 179.47C229.856 178.665 229.397 177.928 228.809 177.3C227.794 176.557 226.577 176.139 225.319 176.1C223.522 175.76 221.677 175.76 219.879 176.1C219.133 176.242 218.441 176.588 217.879 177.1C216.379 178.62 217.809 181.33 219.269 182.37C220.729 183.41 222.759 183.72 224.269 184.99C225.704 186.354 226.826 188.012 227.559 189.85L230.049 195C230.209 195.32 230.399 195.68 230.739 195.79C230.936 195.84 231.143 195.84 231.339 195.79C233.459 195.31 234.719 192.99 234.789 190.79C234.919 187.91 233.679 185.61 232.309 183.32Z" fill="white" stroke="#4E5154" stroke-miterlimit="10"/>
<path d="M101.4 144.88C102.75 146.14 104.362 147.086 106.12 147.65C107.058 147.968 108.067 148.009 109.028 147.77C109.989 147.531 110.861 147.02 111.54 146.3C112.68 144.89 113.09 142.51 114.89 142.24C115.422 142.195 115.957 142.277 116.45 142.48C118.96 143.31 121.45 144.69 124.07 144.31C125.753 144.006 127.277 143.126 128.38 141.82C129.06 141.118 129.571 140.271 129.876 139.342C130.181 138.414 130.271 137.428 130.14 136.46C129.38 132.62 124.42 131.81 121.26 131.62C116.99 131.36 112.61 131.41 108.44 130.47C105.34 129.78 102.72 129.92 100.27 132.47C99.166 133.718 98.4547 135.265 98.2252 136.915C97.9957 138.566 98.2584 140.248 98.9802 141.75C99.5785 142.939 100.4 144.002 101.4 144.88Z" fill="white" stroke="#4E5154" stroke-miterlimit="10"/>
<path d="M125.431 121.15C120.321 121.67 118.691 125.07 116.061 128.93C113.881 132.13 111.821 136.87 114.641 140.23C116.911 142.93 119.911 144.15 122.871 145.86C125.381 147.3 127.411 148.42 130.591 148.29C138.341 147.97 146.181 148.84 154.021 148.79C159.021 148.79 163.841 148.79 168.661 147.29C172.881 145.96 174.401 141.85 175.511 137.78C176.621 133.71 177.231 127.67 174.341 124.02C173.962 123.539 173.525 123.106 173.041 122.73C172.29 122.187 171.469 121.746 170.601 121.42C169.017 120.611 167.221 120.314 165.461 120.57C165.081 120.66 164.701 120.8 164.321 120.91C160.863 121.879 157.32 122.516 153.741 122.81C149.589 123.108 145.417 122.981 141.291 122.43C136.091 121.9 130.651 120.62 125.431 121.15Z" fill="white" stroke="#4E5154" stroke-miterlimit="10"/>
<path d="M221.401 180.8C221.631 179.44 222.101 175.8 221.191 174.9C220.262 174.21 219.156 173.797 218.001 173.71C216.551 173.38 215.131 172.88 213.701 172.47L204.881 169.91C200.144 168.488 195.49 166.802 190.941 164.86C184.711 162.28 178.241 159.36 171.531 160.04C169.972 160.317 168.43 160.681 166.911 161.13C165.12 161.463 163.417 162.164 161.911 163.19C160.885 163.998 160.153 165.121 159.83 166.386C159.506 167.652 159.609 168.989 160.121 170.19C162.401 176.19 168.591 176.52 173.931 177.95C176.754 178.572 179.624 178.951 182.511 179.08C192.091 179.9 201.638 181.027 211.151 182.46C213.565 182.82 215.968 183.2 218.361 183.6C219.021 183.71 219.851 183.97 220.641 184.05C221.001 182.95 221.221 181.89 221.401 180.8Z" fill="#4E5154"/>
<path d="M163.999 174.62C164.419 174.73 164.86 174.73 165.279 174.62C170.359 173.32 174.779 168.79 177.829 164.76C182.719 158.3 185.699 150.76 190.299 144.14C191.709 142.14 193.599 140.72 194.779 138.54C196.941 134.457 197.72 129.783 196.999 125.22C195.449 116.88 185.769 114.42 178.419 115.65C173.599 116.46 169.299 119.26 164.489 120.16C163.877 120.211 163.287 120.41 162.769 120.74C162.591 120.922 162.47 121.151 162.419 121.4C162.419 127.25 162.419 133.09 162.419 138.95C162.419 142.6 162.789 147.26 162.299 150.25C161.999 152.09 160.539 154.13 159.959 155.95C158.433 160.206 158.335 164.843 159.679 169.16C160.299 170.93 161.899 174.05 163.999 174.62Z" fill="#4E5154"/>
<path d="M137.891 136.95L138.171 137.52L137.891 136.95Z" fill="#4E5154"/>
<path d="M136.358 130.76C138.111 127.876 139.588 124.832 140.768 121.67C142.342 117.582 143.393 113.311 143.898 108.96C144.202 105.119 144.185 101.259 143.848 97.4199C143.168 86.1399 142.998 74.6799 141.768 63.4199C140.608 63.9999 132.218 64.7799 132.248 64.4999C130.715 76.9999 129.182 89.4999 127.648 102C127.389 104.961 126.822 107.886 125.958 110.73C124.842 113.602 123.474 116.37 121.868 119C119.328 123.58 113.438 131.68 114.578 137" fill="white"/>
<path d="M136.358 130.76C138.111 127.876 139.588 124.832 140.768 121.67C142.342 117.582 143.393 113.311 143.898 108.96C144.202 105.119 144.185 101.259 143.848 97.4199C143.168 86.1399 142.998 74.6799 141.768 63.4199C140.608 63.9999 132.218 64.7799 132.248 64.4999C130.715 76.9999 129.182 89.4999 127.648 102C127.389 104.961 126.822 107.886 125.958 110.73C124.842 113.602 123.474 116.37 121.868 119C119.328 123.58 113.438 131.68 114.578 137" stroke="#4E5154" stroke-miterlimit="10"/>
<path d="M162.68 149.32C165.857 143.26 169.679 137.56 174.08 132.32" stroke="white" stroke-miterlimit="10"/>
<path d="M138.809 134.99C138.609 133.37 138.289 131.82 138.119 130.19C138.067 129.385 137.933 128.588 137.719 127.81C137.696 127.739 137.67 127.668 137.639 127.6C136.059 130.87 133.219 133.38 130.309 135.52L138.459 140.1C139.219 140.53 138.879 135.58 138.809 134.99Z" fill="#4E5154"/>
<path d="M109.999 136.45C109.912 137.018 109.646 137.544 109.239 137.95C113.999 140.35 114.839 150.07 114.379 154.66C114.069 157.76 113.159 160.78 112.909 163.88C112.519 168.49 113.709 173.38 116.909 176.76C118.893 178.756 121.412 180.136 124.162 180.734C126.912 181.331 129.776 181.122 132.409 180.13C135.017 179.07 137.324 177.382 139.124 175.218C140.924 173.053 142.162 170.478 142.729 167.72C145.539 154.23 132.399 142.32 123.999 133.63C120.689 130.2 116.489 127.78 111.589 127.98C110.109 128.069 108.639 128.293 107.199 128.65C103.529 129.5 100.199 130.83 98.2794 134.2C97.1294 136.2 95.0894 137.78 94.4794 140.04C94.2494 140.878 94.2517 141.763 94.486 142.599C94.7203 143.436 95.1778 144.193 95.8094 144.79C96.4577 145.369 97.2698 145.732 98.1334 145.828C98.9969 145.925 99.8692 145.751 100.629 145.33C103.919 143.38 102.849 136.14 107.289 136.33C107.25 136.124 107.285 135.911 107.387 135.728C107.489 135.545 107.653 135.404 107.849 135.33C108.23 135.19 108.637 135.139 109.039 135.18C109.224 135.17 109.408 135.201 109.579 135.27C109.999 135.51 109.999 136.08 109.999 136.45Z" fill="#4E5154"/>
<path d="M107.521 146.58C107.358 146.058 107.331 145.502 107.443 144.967C107.555 144.431 107.802 143.933 108.161 143.52" fill="white"/>
<path d="M107.521 146.58C107.358 146.058 107.331 145.502 107.443 144.967C107.555 144.431 107.802 143.933 108.161 143.52" stroke="#4E5154" stroke-miterlimit="10"/>
<path d="M195.999 133.72C194.099 138.57 190.379 142.54 188.539 147.41" stroke="white" stroke-miterlimit="10"/>
<path opacity="0.31" d="M329.729 296.65C329.314 297.38 329.113 298.211 329.148 299.05C329.235 299.868 329.54 300.647 330.03 301.307C330.521 301.966 331.18 302.482 331.939 302.8C333.467 303.411 335.118 303.654 336.759 303.51C341.926 303.21 347.002 302.012 351.759 299.97C355.999 298.32 360.999 296.58 364.319 293.32C365.139 292.5 365.699 291.16 365.069 290.2C364.784 289.876 364.437 289.612 364.049 289.423C363.661 289.234 363.239 289.124 362.808 289.1C356.372 288.022 349.782 288.298 343.458 289.91C339.898 290.83 331.939 292.64 329.729 296.65Z" fill="#7E8F9A"/>
<path d="M356.532 247.83C356.532 247.65 356.532 247.48 356.582 247.31C356.892 245.44 358.372 244.02 359.372 242.41C360.357 240.841 360.915 239.042 360.992 237.19C361.142 233.74 361.042 229.31 362.522 226.11C363.862 223.23 367.052 221.66 368.692 218.96C369.474 217.385 370.007 215.699 370.272 213.96C370.818 211.222 372.011 208.653 373.752 206.47C375.23 204.897 376.911 203.528 378.752 202.4C380.456 201.18 382.303 200.172 384.252 199.4C386.862 198.48 389.752 198.17 390.962 200.86C391.962 203.02 391.442 206.1 390.422 208.14C389.417 209.861 388.19 211.441 386.772 212.84C384.459 215.4 382.343 218.131 380.442 221.01C379.86 221.781 379.46 222.673 379.272 223.62C379.246 224.555 379.34 225.489 379.552 226.4C380.142 231.1 378.202 234.9 374.552 237.76C371.692 240.02 369.902 241.3 369.182 245.21C368.732 247.63 368.532 250.21 367.182 252.26C366.592 253.077 365.951 253.855 365.262 254.59C362.832 257.455 361.344 260.999 361.002 264.74C360.842 266.6 360.442 270.74 357.462 269.95C353.802 268.95 354.252 258.24 355.322 255.72C355.888 254.698 356.344 253.619 356.682 252.5C357.002 250.96 356.442 249.37 356.532 247.83Z" fill="#4E5154"/>
<path d="M341.06 255.61C341.034 254.171 341.251 252.737 341.7 251.37C342.28 249.59 343.23 247.81 342.94 245.96C342.47 242.91 338.94 241.24 337.85 238.35C336.35 234.35 339.85 230.41 340.67 226.25C341.34 222.73 339.99 219.17 339.08 215.7C338.69 214.21 336.46 205.7 340.89 207.03C341.225 207.175 341.528 207.385 341.782 207.648C342.036 207.91 342.236 208.22 342.37 208.56C344.52 212.65 345.07 217.83 348.5 221.19C349.9 222.57 351.71 223.49 353.04 224.93C354.041 226.136 354.761 227.549 355.151 229.067C355.54 230.586 355.587 232.171 355.29 233.71C354.46 239.1 349.14 242.71 351.29 248.23C352.332 250.462 353.549 252.609 354.93 254.65C357.5 259.06 362.73 276.76 352.21 270.65C346.6 267.4 341.2 262.13 341.06 255.61Z" fill="white" stroke="#4E5154" stroke-miterlimit="10"/>
<path d="M361.801 255.98L361.981 255.63C363.291 253.13 364.981 250.88 366.381 248.4C367.471 246.4 368.301 244.23 369.521 242.29C370.652 240.273 372.463 238.724 374.631 237.92C375.41 237.703 376.229 237.666 377.025 237.814C377.82 237.961 378.571 238.288 379.221 238.77C379.571 239.1 379.841 239.51 380.171 239.85C380.829 240.417 381.555 240.901 382.331 241.29C386.121 243.58 387.741 247.9 389.131 251.88C390.641 256.24 392.481 259.94 393.081 264.53C393.226 265.035 393.258 265.565 393.175 266.084C393.092 266.602 392.896 267.096 392.601 267.53C392.274 267.828 391.871 268.028 391.436 268.108C391.001 268.187 390.552 268.143 390.141 267.98C389.326 267.647 388.59 267.146 387.981 266.51C387.102 265.774 386.366 264.883 385.811 263.88C385.381 263.02 385.181 262.04 384.701 261.21C384.037 260.261 383.223 259.427 382.291 258.74C379.741 256.54 378.181 253.9 376.361 251.15C374.531 251.9 372.731 254.29 370.751 255.34C369.031 256.26 366.131 256.59 365.171 258.51C364.211 260.43 364.661 263.14 363.981 265.21C362.461 269.82 358.911 269.16 359.411 264.21C359.698 261.344 360.508 258.554 361.801 255.98Z" fill="white" stroke="#4E5154" stroke-miterlimit="10"/>
<path d="M373 264.78H339.02V269.02H341.75L345.75 291.68H366.27L370.27 269.02H373V264.78Z" fill="#4E5154"/>
<path d="M340.789 269.38H371.229" stroke="white" stroke-miterlimit="10"/>
<path d="M340.682 236.38C341.14 236.38 341.512 236.008 341.512 235.55C341.512 235.092 341.14 234.72 340.682 234.72C340.223 234.72 339.852 235.092 339.852 235.55C339.852 236.008 340.223 236.38 340.682 236.38Z" fill="#4E5154"/>
<path d="M349 238.86C349.002 239.025 348.955 239.186 348.865 239.324C348.775 239.462 348.646 239.57 348.494 239.634C348.343 239.698 348.176 239.716 348.014 239.685C347.852 239.654 347.704 239.576 347.587 239.46C347.469 239.345 347.389 239.197 347.357 239.036C347.324 238.874 347.34 238.707 347.402 238.555C347.465 238.403 347.571 238.272 347.708 238.181C347.844 238.089 348.005 238.04 348.17 238.04C348.388 238.04 348.598 238.126 348.753 238.28C348.909 238.433 348.997 238.642 349 238.86Z" fill="#4E5154"/>
<path d="M347.308 247.98C347.308 248.144 347.26 248.305 347.169 248.441C347.077 248.578 346.948 248.684 346.796 248.747C346.644 248.81 346.478 248.826 346.317 248.794C346.156 248.762 346.008 248.683 345.892 248.567C345.775 248.451 345.696 248.303 345.664 248.142C345.632 247.981 345.649 247.814 345.712 247.662C345.774 247.511 345.881 247.381 346.017 247.29C346.154 247.199 346.314 247.15 346.478 247.15C346.699 247.15 346.91 247.237 347.065 247.393C347.221 247.549 347.308 247.76 347.308 247.98Z" fill="#4E5154"/>
<path d="M352.281 229.75C352.281 229.914 352.232 230.075 352.141 230.211C352.05 230.348 351.92 230.454 351.769 230.517C351.617 230.58 351.45 230.596 351.289 230.564C351.128 230.532 350.98 230.453 350.864 230.337C350.748 230.221 350.669 230.073 350.637 229.912C350.605 229.751 350.621 229.584 350.684 229.432C350.747 229.281 350.853 229.151 350.99 229.06C351.126 228.969 351.287 228.92 351.451 228.92C351.671 228.92 351.882 229.007 352.038 229.163C352.194 229.319 352.281 229.53 352.281 229.75Z" fill="#4E5154"/>
<path d="M342.34 213.18C342.34 213.344 342.291 213.505 342.2 213.641C342.109 213.778 341.979 213.884 341.827 213.947C341.676 214.01 341.509 214.026 341.348 213.994C341.187 213.962 341.039 213.883 340.923 213.767C340.807 213.651 340.728 213.503 340.696 213.342C340.664 213.181 340.68 213.014 340.743 212.862C340.806 212.711 340.912 212.581 341.049 212.49C341.185 212.399 341.346 212.35 341.51 212.35C341.73 212.35 341.941 212.438 342.097 212.593C342.252 212.749 342.34 212.96 342.34 213.18Z" fill="#4E5154"/>
<path d="M353.111 258.75C353.57 258.75 353.941 258.379 353.941 257.92C353.941 257.462 353.57 257.09 353.111 257.09C352.653 257.09 352.281 257.462 352.281 257.92C352.281 258.379 352.653 258.75 353.111 258.75Z" fill="#4E5154"/>
<path d="M346.48 256.32C346.48 256.484 346.432 256.645 346.34 256.781C346.249 256.918 346.12 257.024 345.968 257.087C345.816 257.15 345.649 257.166 345.488 257.134C345.327 257.102 345.18 257.023 345.063 256.907C344.947 256.791 344.868 256.643 344.836 256.482C344.804 256.321 344.821 256.154 344.883 256.002C344.946 255.851 345.053 255.721 345.189 255.63C345.326 255.539 345.486 255.49 345.65 255.49C345.87 255.49 346.082 255.577 346.237 255.733C346.393 255.889 346.48 256.1 346.48 256.32Z" fill="#4E5154"/>
<path d="M345.648 225.61C345.648 225.83 345.561 226.041 345.405 226.197C345.25 226.353 345.038 226.44 344.818 226.44C344.598 226.44 344.387 226.353 344.231 226.197C344.076 226.041 343.988 225.83 343.988 225.61C343.988 225.39 344.076 225.179 344.231 225.023C344.387 224.867 344.598 224.78 344.818 224.78C345.038 224.78 345.25 224.867 345.405 225.023C345.561 225.179 345.648 225.39 345.648 225.61Z" fill="#4E5154"/>
</svg>
