<svg width="42" height="41" viewBox="0 0 42 41" fill="none" xmlns="http://www.w3.org/2000/svg">
<circle cx="20.5067" cy="20.5063" r="19.5669" fill="#D9D9D9"/>
<path d="M37.7117 9.34471C37.3 8.71137 36.8541 8.10089 36.376 7.51597C34.4514 5.16837 32.0294 3.27697 29.2846 1.97825C26.5399 0.679522 23.5409 0.00585938 20.504 0.00585938C17.4672 0.00585938 14.4682 0.679522 11.7234 1.97825C8.9787 3.27697 6.55664 5.16837 4.63201 7.51597C4.15478 8.10155 3.70892 8.71198 3.29632 9.34471C1.28673 12.4397 0.150023 16.0192 0.00608154 19.7059C-0.13786 23.3926 0.716289 27.0498 2.47846 30.2918C4.24064 33.5339 6.84554 36.2407 10.0185 38.1268C13.1914 40.0129 16.8149 41.0085 20.5067 41.0085C24.1985 41.0085 27.822 40.0129 30.9949 38.1268C34.1679 36.2407 36.7728 33.5339 38.5349 30.2918C40.2971 27.0498 41.1513 23.3926 41.0073 19.7059C40.8634 16.0192 39.7267 12.4397 37.7171 9.34471H37.7117ZM38.9139 20.5067C38.9139 21.1225 38.8845 21.7311 38.8257 22.3327H21.5525V18.6512C24.4082 18.5083 27.2023 17.7693 29.7549 16.4818C32.3075 15.1944 34.562 13.387 36.3734 11.1761C38.0398 14.0014 38.9172 17.2217 38.9139 20.5013V20.5067ZM20.5027 11.8275C19.7477 11.828 19.0095 11.6048 18.3814 11.1861C17.7533 10.7673 17.2636 10.1718 16.9742 9.47493C16.6848 8.77804 16.6087 8.01102 16.7554 7.27089C16.9022 6.53075 17.2653 5.85073 17.7988 5.31682C18.3323 4.78292 19.0123 4.41911 19.7527 4.27139C20.4931 4.12367 21.2607 4.19868 21.9584 4.48694C22.6562 4.7752 23.2527 5.26375 23.6726 5.89083C24.0925 6.51791 24.3169 7.25533 24.3174 8.00987C24.3178 8.51086 24.2194 9.00701 24.0279 9.47C23.8363 9.93298 23.5555 10.3537 23.2012 10.7082C22.847 11.0627 22.4264 11.344 21.9633 11.5361C21.5003 11.7281 21.004 11.8272 20.5027 11.8275ZM35.1419 9.33937C33.5324 11.4508 31.4842 13.1885 29.1382 14.4328C26.7923 15.6772 24.2043 16.3986 21.5525 16.5475V13.8324C23.0045 13.5676 24.3049 12.7701 25.1988 11.5964C26.0926 10.4227 26.5152 8.9575 26.3837 7.4884C26.2523 6.01931 25.5761 4.65235 24.4881 3.65578C23.4 2.65922 21.9786 2.10498 20.5027 2.10186C23.3364 2.09961 26.1322 2.7522 28.6717 4.00864C31.2112 5.26508 33.4256 7.09134 35.1419 9.34471V9.33937ZM20.5027 2.10186C19.0266 2.10432 17.6047 2.65808 16.5161 3.65444C15.4276 4.6508 14.751 6.01779 14.6191 7.48708C14.4873 8.95637 14.9098 10.4218 15.8036 11.5958C16.6974 12.7698 17.998 13.5676 19.4502 13.8324V16.5529C16.7984 16.404 14.2105 15.6825 11.8645 14.4382C9.51853 13.1938 7.47029 11.4561 5.86084 9.34471C7.57767 7.09128 9.79255 5.26502 12.3325 4.0086C14.8724 2.75218 17.6686 2.0996 20.5027 2.10186ZM2.08885 20.5013C2.0822 17.2154 2.95966 13.9881 4.62934 11.1574C6.44068 13.3684 8.69521 15.1757 11.2478 16.4632C13.8004 17.7506 16.5945 18.4896 19.4502 18.6325V38.8554C14.7595 38.587 10.3489 36.5369 7.12136 33.1248C3.89381 29.7127 2.09344 25.1967 2.08885 20.5013ZM21.5525 38.8741V24.4257H38.4945C37.634 28.3512 35.5127 31.8877 32.454 34.4962C29.3953 37.1048 25.5669 38.6422 21.5525 38.8741Z" fill="#4E5154"/>
</svg>
