<svg width="11" height="6" viewBox="0 0 11 6" fill="none" xmlns="http://www.w3.org/2000/svg">
<path id="Vector" d="M10.6913 0.279313C10.4958 0.100415 10.2314 0 9.95568 0C9.68001 0 9.41553 0.100415 9.22002 0.279313L5.47391 3.67957L1.77998 0.279313C1.58447 0.100415 1.31999 0 1.04432 0C0.768644 0 0.504171 0.100415 0.308661 0.279313C0.210857 0.368606 0.133227 0.474841 0.080251 0.59189C0.0272746 0.708939 0 0.834485 0 0.961285C0 1.08809 0.0272746 1.21363 0.080251 1.33068C0.133227 1.44773 0.210857 1.55396 0.308661 1.64326L4.73304 5.71588C4.83004 5.80591 4.94545 5.87736 5.07261 5.92613C5.19977 5.97489 5.33616 6 5.47391 6C5.61166 6 5.74805 5.97489 5.87521 5.92613C6.00237 5.87736 6.11778 5.80591 6.21479 5.71588L10.6913 1.64326C10.7891 1.55396 10.8668 1.44773 10.9197 1.33068C10.9727 1.21363 11 1.08809 11 0.961285C11 0.834485 10.9727 0.708939 10.9197 0.59189C10.8668 0.474841 10.7891 0.368606 10.6913 0.279313Z" fill="#4E5154"/>
</svg>
