<svg width="15" height="15" viewBox="0 0 15 15" fill="none" xmlns="http://www.w3.org/2000/svg">
<path fill-rule="evenodd" clip-rule="evenodd" d="M9.375 6.56321C9.84613 6.56313 10.3047 6.41104 10.6824 6.12954C11.0602 5.84803 11.3371 5.45215 11.4719 5.00071H13.125C13.2908 5.00071 13.4497 4.93487 13.5669 4.81766C13.6842 4.70045 13.75 4.54148 13.75 4.37571C13.75 4.20995 13.6842 4.05098 13.5669 3.93377C13.4497 3.81656 13.2908 3.75071 13.125 3.75071H11.4719C11.3369 3.29951 11.0599 2.9039 10.6821 2.62263C10.3044 2.34137 9.84597 2.18945 9.375 2.18945C8.90403 2.18945 8.44562 2.34137 8.06786 2.62263C7.6901 2.9039 7.41315 3.29951 7.27812 3.75071H1.875C1.70924 3.75071 1.55027 3.81656 1.43306 3.93377C1.31585 4.05098 1.25 4.20995 1.25 4.37571C1.25 4.54148 1.31585 4.70045 1.43306 4.81766C1.55027 4.93487 1.70924 5.00071 1.875 5.00071H7.27812C7.41292 5.45215 7.68979 5.84803 8.06757 6.12954C8.44534 6.41104 8.90387 6.56313 9.375 6.56321ZM1.875 10.0007C1.70924 10.0007 1.55027 10.0666 1.43306 10.1838C1.31585 10.301 1.25 10.46 1.25 10.6257C1.25 10.7915 1.31585 10.9504 1.43306 11.0677C1.55027 11.1849 1.70924 11.2507 1.875 11.2507H3.21562C3.35065 11.7019 3.6276 12.0975 4.00536 12.3788C4.38312 12.6601 4.84153 12.812 5.3125 12.812C5.78347 12.812 6.24188 12.6601 6.61964 12.3788C6.99739 12.0975 7.27435 11.7019 7.40937 11.2507H13.125C13.2908 11.2507 13.4497 11.1849 13.5669 11.0677C13.6842 10.9504 13.75 10.7915 13.75 10.6257C13.75 10.46 13.6842 10.301 13.5669 10.1838C13.4497 10.0666 13.2908 10.0007 13.125 10.0007H7.40937C7.27435 9.54951 6.99739 9.1539 6.61964 8.87263C6.24188 8.59137 5.78347 8.43945 5.3125 8.43945C4.84153 8.43945 4.38312 8.59137 4.00536 8.87263C3.6276 9.1539 3.35065 9.54951 3.21562 10.0007H1.875Z" fill="#4E5154"/>
</svg>
