<svg width="24" height="24" viewBox="0 0 24 24" fill="none" xmlns="http://www.w3.org/2000/svg">
<path d="M14.7736 14.0899L14.6804 14.037C13.7018 13.482 12.7978 12.8048 11.9901 12.0218L11.9879 12.0196L11.9879 12.0196C11.2048 11.2119 10.5277 10.3079 9.9727 9.32933L9.91884 9.23437L10.0182 9.18903L10.4769 8.9796C10.8975 8.77329 11.2271 8.41883 11.4023 7.98429C11.5777 7.54944 11.586 7.0651 11.4258 6.62446C11.4258 6.62437 11.4257 6.62428 11.4257 6.62419L14.7736 14.0899ZM14.7736 14.0899L14.8199 13.9931L15.0395 13.534C15.0396 13.5338 15.0396 13.5337 15.0397 13.5336C15.246 13.1126 15.6006 12.7827 16.0354 12.6074C16.4702 12.432 16.9544 12.4236 17.395 12.5838L14.7736 14.0899ZM5.00004 4C4.84483 3.99887 4.69113 4.03061 4.54906 4.09312C4.407 4.15563 4.27979 4.24748 4.17576 4.36265C4.06592 4.48321 3.98427 4.62669 3.93671 4.78269C3.88923 4.93842 3.87691 5.10275 3.90064 5.26382C4.39568 9.03272 6.12106 12.5328 8.80897 15.2207L8.80922 15.221C11.4948 17.8882 14.9827 19.5987 18.7359 20.089L4.99968 4.1M5.00004 4C5.00018 4 5.00031 4 5.00044 4L4.99968 4.1M5.00004 4H4.99968V4.1M5.00004 4H7.99849M4.99968 4.1H7.99968M7.99849 4C7.99808 4.00001 7.99766 4.00002 7.99724 4.00003L7.99968 4.1M7.99849 4C8.25234 3.99409 8.50042 4.07617 8.70065 4.23235C8.90121 4.38878 9.04136 4.60989 9.09724 4.85803L9.09968 4.86888V4.88C9.09968 5.07211 9.14759 5.26663 9.19813 5.47182C9.21478 5.53939 9.23171 5.60812 9.2473 5.67831L9.24734 5.67846C9.36186 6.19756 9.51421 6.70758 9.70315 7.20446L9.73606 7.29098L9.65233 7.33045L8.25233 7.99045L8.25141 7.99089L8.2514 7.99088C8.03483 8.0903 7.86653 8.27155 7.7834 8.49488L7.78223 8.49802L7.78218 8.498C7.69246 8.71641 7.69217 8.9613 7.78131 9.17988M7.99849 4H7.99968V4.1M7.99968 4.1L15.9187 15.6586M8.20968 7.9C7.96905 8.01046 7.78204 8.21185 7.68968 8.46C7.58967 8.70346 7.58967 8.97654 7.68968 9.22M8.20968 7.9L19.0297 14.91C18.7597 14.87 18.4797 14.82 18.2197 14.76C17.6834 14.6418 17.1556 14.4881 16.6397 14.3L16.0097 15.7M8.20968 7.9L9.60968 7.24L8.20968 7.9ZM7.68968 9.22C9.12888 12.3028 11.6069 14.7808 14.6897 16.22M7.68968 9.22L7.78218 9.182C7.78189 9.18129 7.7816 9.18059 7.78131 9.17988M7.68968 9.22L7.7803 9.1777C7.78064 9.17842 7.78097 9.17915 7.78131 9.17988M14.6897 16.22C14.9331 16.32 15.2062 16.32 15.4497 16.22C15.6978 16.1276 15.8992 15.9406 16.0097 15.7M14.6897 16.22L14.732 16.1294C14.7313 16.129 14.7305 16.1287 14.7298 16.1284M14.6897 16.22L14.7277 16.1275C14.7284 16.1278 14.7291 16.1281 14.7298 16.1284M16.0097 15.7L15.9185 15.659L15.9187 15.6586M16.0097 15.7L15.9188 15.6583L16.5485 14.259L16.5866 14.1742L16.6739 14.2061C17.1857 14.3927 17.7093 14.5451 18.2412 14.6623L18.2422 14.6626C18.4989 14.7218 18.7762 14.7714 19.0443 14.8111L19.0517 14.8122L19.0517 14.8124C19.2998 14.8683 19.5209 15.0085 19.6773 15.209C19.8332 15.4089 19.9153 15.6564 19.9097 15.9097M15.9187 15.6586L19.9097 15.9097M15.9187 15.6586C15.8192 15.875 15.638 16.0432 15.4148 16.1263L15.4148 16.1262L15.4117 16.1275C15.1933 16.2172 14.9484 16.2175 14.7298 16.1284M19.9097 15.9097L19.9096 15.9071L19.8097 15.91L19.9097 15.9124C19.9097 15.9115 19.9097 15.9106 19.9097 15.9097ZM14.7298 16.1284C11.6701 14.6993 9.21039 12.2396 7.78131 9.17988M10.9108 4.61527C10.9411 4.83709 10.9815 5.06931 11.0321 5.29197L17.4297 12.49C17.8568 12.6501 18.2945 12.7805 18.7397 12.88L18.7175 12.9775C18.7176 12.9775 18.7177 12.9776 18.7179 12.9776C18.7595 12.9871 18.8028 12.9976 18.8471 13.0085C19.0222 13.0512 19.2147 13.0983 19.3996 13.1C20.0513 13.2305 20.6384 13.581 21.0626 14.0929C21.4887 14.6071 21.7244 15.2525 21.7297 15.9203V18.92V18.9201C21.7302 19.3288 21.6444 19.733 21.4778 20.1061C21.3112 20.4792 21.0677 20.8129 20.7632 21.0853C20.2309 21.5595 19.5427 21.821 18.8298 21.82V21.8197L18.8221 21.8203C18.6982 21.8298 18.5738 21.8298 18.45 21.8205C14.3107 21.2793 10.4656 19.3879 7.51047 16.4394C4.56123 13.4836 2.66958 9.63736 2.12884 5.49705L2.12876 5.49644C2.07198 5.08171 2.10565 4.65961 2.22746 4.25914C2.34926 3.85871 2.55629 3.48939 2.83433 3.17655C3.10675 2.872 3.44045 2.62847 3.81357 2.4619C4.18673 2.29531 4.59089 2.20946 4.99955 2.21H4.99968H8.00968V2.21001L8.01114 2.20999C8.70201 2.19994 9.37377 2.4369 9.90544 2.87819C10.4367 3.3191 10.7931 3.93505 10.9108 4.61527ZM19.9997 19.0002H19.9997L18.7497 19.99C18.8963 20.0117 19.046 20.0006 19.1878 19.9573C19.3297 19.9141 19.4601 19.8399 19.5697 19.74L19.6367 19.8142C19.6368 19.8141 19.6369 19.814 19.637 19.8139C19.7508 19.7111 19.8419 19.5857 19.9043 19.4456C19.9668 19.3055 19.9993 19.1537 19.9997 19.0002ZM13.4697 3.9V3.89964L13.4612 3.90036C13.2224 3.92066 12.9854 3.84526 12.8021 3.69077C12.6189 3.53627 12.5046 3.31532 12.4843 3.07653C12.464 2.83774 12.5394 2.60067 12.6939 2.41747C12.8475 2.23532 13.0668 2.12125 13.304 2.1H13.3051H13.3064H13.3078H13.3091H13.3105H13.3118H13.3132H13.3145H13.3159H13.3172H13.3186H13.3199H13.3213H13.3226H13.324H13.3253H13.3267H13.328H13.3294H13.3307H13.3321H13.3334H13.3348H13.3362H13.3375H13.3389H13.3402H13.3416H13.3429H13.3443H13.3456H13.347H13.3483H13.3497H13.3511H13.3524H13.3538H13.3551H13.3565H13.3578H13.3592H13.3605H13.3619H13.3633H13.3646H13.366H13.3673H13.3687H13.3701H13.3714H13.3728H13.3741H13.3755H13.3768H13.3782H13.3796H13.3809H13.3823H13.3836H13.385H13.3864H13.3877H13.3891H13.3904H13.3918H13.3932H13.3945H13.3959H13.3973H13.3986H13.4H13.4013H13.4027H13.4041H13.4054H13.4068H13.4082H13.4095H13.4109H13.4122H13.4136H13.415H13.4163H13.4177H13.4191H13.4204H13.4218H13.4232H13.4245H13.4259H13.4273H13.4286H13.43H13.4313H13.4327H13.4341H13.4354H13.4368H13.4382H13.4395H13.4409H13.4423H13.4436H13.445H13.4464H13.4477H13.4491H13.4505H13.4518H13.4532H13.4546H13.456H13.4573H13.4587H13.4601H13.4614H13.4628H13.4642H13.4655H13.4669H13.4683H13.4696H13.471H13.4724H13.4737H13.4751H13.4765H13.4779H13.4792H13.4806H13.482H13.4833H13.4847H13.4861H13.4874H13.4888H13.4902H13.4916H13.4929H13.4943H13.4957H13.497H13.4984H13.4998H13.5012H13.5025H13.5039H13.5053H13.5066H13.508H13.5094H13.5108H13.5121H13.5135H13.5149H13.5163H13.5176H13.519H13.5204H13.5217H13.5231H13.5245H13.5259H13.5272H13.5286H13.53H13.5314H13.5327H13.5341H13.5355H13.5369H13.5382H13.5396H13.541H13.5424H13.5437H13.5451H13.5465H13.5478H13.5492H13.5506H13.552H13.5533H13.5547H13.5561H13.5575H13.5588H13.5602H13.5616H13.563H13.5643H13.5657H13.5671H13.5685H13.5698H13.5712H13.5726H13.574H13.5754H13.5767H13.5781H13.5795H13.5809H13.5822H13.5836H13.585H13.5864H13.5877H13.5891H13.5905H13.5919H13.5932H13.5946H13.596H13.5974H13.5987H13.6001H13.6015H13.6029H13.6042H13.6056H13.607H13.6084H13.6098H13.6111H13.6125H13.6139H13.6153H13.6166H13.618H13.6194H13.6208H13.6221H13.6235H13.6249H13.6263H13.6277H13.629H13.6304H13.6318H13.6332H13.6345H13.6359H13.6373H13.6387H13.64H13.6414H13.6428H13.6442H13.6456H13.6469H13.6483H13.6497H13.6511H13.6524H13.6538H13.6552H13.6566H13.6579H13.6593H13.6607H13.6621H13.6635H13.6648H13.6662H13.6676H13.669H13.6703H13.6717H13.6731H13.6745H13.6758H13.6772H13.6786H13.68H13.6814H13.6827H13.6841H13.6855H13.6869H13.6882H13.6896H13.691H13.6924H13.6937H13.6951H13.6965H13.6979H13.6992H13.7006H13.702H13.7034H13.7048H13.7061H13.7075H13.7089H13.7103H13.7116H13.713H13.7144H13.7158H13.7171H13.7185H13.7199H13.7213H13.7226H13.724H13.7254H13.7268H13.7281H13.7295H13.7309H13.7323H13.7336H13.735H13.7364H13.7378H13.7391H13.7405H13.7419H13.7433H13.7446H13.746H13.7474H13.7488H13.7501H13.7515H13.7529H13.7543H13.7556H13.757H13.7584H13.7598H13.7611H13.7625H13.7639H13.7653H13.7666H13.768H13.7694H13.7708H13.7721H13.7735H13.7749H13.7762H13.7776H13.779H13.7804H13.7817H13.7831H13.7845H13.7859H13.7872H13.7886H13.79H13.7913H13.7927H13.7941H13.7955H13.7968H13.7982H13.7996H13.801H13.8023H13.8037H13.8051H13.8064H13.8078H13.8092H13.8105H13.8119H13.8133H13.8147H13.816H13.8174H13.8188H13.8201H13.8215H13.8229H13.8243H13.8256H13.827H13.8284H13.8297H13.8311H13.8325H13.8338H13.8352H13.8366H13.8379H13.8393H13.8407H13.842H13.8434H13.8448H13.8462H13.8475H13.8489H13.8503H13.8516H13.853H13.8544H13.8557H13.8571H13.8585H13.8598H13.8612H13.8626H13.8639H13.8653H13.8667H13.868H13.8694H13.8708H13.8721H13.8735H13.8748H13.8762H13.8776H13.8789H13.8803H13.8817H13.883H13.8844H13.8858H13.8871H13.8885H13.8899H13.8912H13.8926H13.8939H13.8953H13.8967H13.898H13.8994H13.9008H13.9021H13.9035H13.9048H13.9062H13.9076H13.9089H13.9103H13.9116H13.913H13.9144H13.9157H13.9171H13.9184H13.9198H13.9212H13.9225H13.9239H13.9252H13.9266H13.928H13.9293H13.9307H13.932H13.9334H13.9347H13.9361H13.9375H13.9388H13.9402H13.9415H13.9429H13.9442H13.9456H13.947H13.9483H13.9497H13.951H13.9524H13.9537H13.9551H13.9564H13.9578H13.9592H13.9605H13.9619H13.9632H13.9646H13.9659H13.9673H13.9686H13.97H13.9713H13.9727H13.974H13.9754H13.9767H13.9781H13.9794H13.9808H13.9821H13.9835H13.9848H13.9862H13.9875H13.9889H13.9902H13.9916H13.9929H13.9943H13.9956H13.997H13.9983H13.9996C16.0931 2.10263 18.0999 2.9361 19.5793 4.41734C21.0587 5.8986 21.8897 7.9065 21.8897 10V10.0013V10.0027V10.004V10.0054V10.0067V10.0081V10.0094V10.0108V10.0121V10.0135V10.0148V10.0162V10.0175V10.0189V10.0202V10.0216V10.0229V10.0243V10.0256V10.027V10.0283V10.0297V10.0311V10.0324V10.0338V10.0351V10.0365V10.0378V10.0392V10.0405V10.0419V10.0432V10.0446V10.0459V10.0473V10.0487V10.05V10.0514V10.0527V10.0541V10.0554V10.0568V10.0581V10.0595V10.0609V10.0622V10.0636V10.0649V10.0663V10.0676V10.069V10.0704V10.0717V10.0731V10.0744V10.0758V10.0772V10.0785V10.0799V10.0812V10.0826V10.084V10.0853V10.0867V10.088V10.0894V10.0908V10.0921V10.0935V10.0948V10.0962V10.0976V10.0989V10.1003V10.1017V10.103V10.1044V10.1057V10.1071V10.1085V10.1098V10.1112V10.1126V10.1139V10.1153V10.1166V10.118V10.1194V10.1207V10.1221V10.1235V10.1248V10.1262V10.1276V10.1289V10.1303V10.1317V10.133V10.1344V10.1358V10.1371V10.1385V10.1399V10.1412V10.1426V10.144V10.1453V10.1467V10.1481V10.1494V10.1508V10.1522V10.1535V10.1549V10.1563V10.1576V10.159V10.1604V10.1617V10.1631V10.1645V10.1658V10.1672V10.1686V10.17V10.1713V10.1727V10.1741V10.1754V10.1768V10.1782V10.1795V10.1809V10.1823V10.1837V10.185V10.1864V10.1878V10.1891V10.1905V10.1919V10.1932V10.1946V10.196V10.1974V10.1987V10.2001V10.2015V10.2028V10.2042V10.2056V10.207V10.2083V10.2097V10.2111V10.2125V10.2138V10.2152V10.2166V10.2179V10.2193V10.2207V10.2221V10.2234V10.2248V10.2262V10.2276V10.2289V10.2303V10.2317V10.2331V10.2344V10.2358V10.2372V10.2385V10.2399V10.2413V10.2427V10.244V10.2454V10.2468V10.2482V10.2495V10.2509V10.2523V10.2537V10.255V10.2564V10.2578V10.2592V10.2605V10.2619V10.2633V10.2647V10.266V10.2674V10.2688V10.2702V10.2715V10.2729V10.2743V10.2757V10.277V10.2784V10.2798V10.2812V10.2825V10.2839V10.2853V10.2867V10.2881V10.2894V10.2908V10.2922V10.2936V10.2949V10.2963V10.2977V10.2991V10.3004V10.3018V10.3032V10.3046V10.3059V10.3073V10.3087V10.3101V10.3114V10.3128V10.3142V10.3156V10.317V10.3183V10.3197V10.3211V10.3225V10.3238V10.3252V10.3266V10.328V10.3293V10.3307V10.3321V10.3335V10.3349V10.3362V10.3376V10.339V10.3404V10.3417V10.3431V10.3445V10.3459V10.3472V10.3486V10.35V10.3514V10.3528V10.3541V10.3555V10.3569V10.3583V10.3596V10.361V10.3624V10.3638V10.3651V10.3665V10.3679V10.3693V10.3707V10.372V10.3734V10.3748V10.3762V10.3775V10.3789V10.3803V10.3817V10.383V10.3844V10.3858V10.3872V10.3886V10.3899V10.3913V10.3927V10.3941V10.3954V10.3968V10.3982V10.3996V10.4009V10.4023V10.4037V10.4051V10.4064V10.4078V10.4092V10.4106V10.4119V10.4133V10.4147V10.4161V10.4175V10.4188V10.4202V10.4216V10.423V10.4243V10.4257V10.4271V10.4285V10.4298V10.4312V10.4326V10.434V10.4353V10.4367V10.4381V10.4395V10.4408V10.4422V10.4436V10.445V10.4463V10.4477V10.4491V10.4505V10.4518V10.4532V10.4546V10.456V10.4573V10.4587V10.4601V10.4615V10.4628V10.4642V10.4656V10.4669V10.4683V10.4697V10.4711V10.4724V10.4738V10.4752V10.4766V10.4779V10.4793V10.4807V10.4821V10.4834V10.4848V10.4862V10.4875V10.4889V10.4903V10.4917V10.493V10.4944V10.4958V10.4972V10.4985V10.4999V10.5013V10.5026V10.504V10.5054V10.5068V10.5081V10.5095V10.5109V10.5122V10.5136V10.515V10.5163V10.5177V10.5191V10.5205V10.5218V10.5232V10.5246V10.5259V10.5273V10.5287V10.53V10.5314V10.5328V10.5342V10.5355V10.5369V10.5383V10.5396V10.541V10.5424V10.5437V10.5451V10.5465V10.5478V10.5492V10.5506V10.5519V10.5533V10.5547V10.556V10.5574V10.5588V10.5601V10.5615V10.5629V10.5642V10.5656V10.567V10.5683V10.5697V10.5711V10.5724V10.5738V10.5752V10.5765V10.5779V10.5793V10.5806V10.582V10.5834V10.5847V10.5861V10.5874V10.5888V10.5902V10.5915V10.5929V10.5943V10.5956V10.597V10.5983V10.5997V10.6011V10.6024V10.6038V10.6052V10.6065V10.6079V10.6092V10.6106V10.612V10.6133V10.6147V10.616V10.6174V10.6188V10.6201V10.6215V10.6228V10.6242V10.6256V10.6269V10.6283V10.6296V10.631V10.6323V10.6337V10.6351V10.6364V10.6378V10.6391V10.6405V10.6419V10.6432V10.6446V10.6459V10.6473V10.6486V10.65V10.6513V10.6527V10.6541V10.6554V10.6568V10.6581V10.6595V10.6608V10.6622V10.6635V10.6649V10.6662V10.6676V10.6689V10.6703V10.6716V10.673V10.6744V10.6757V10.6771V10.6784V10.6798V10.6811V10.6825V10.6838V10.6852V10.6865V10.6879V10.6892V10.6906V10.6919V10.6933V10.6946V10.6954C21.8685 10.9181 21.765 11.125 21.5995 11.2757C21.4328 11.4273 21.2154 11.5109 20.9901 11.51H20.9897H20.9141C20.6784 11.4884 20.4605 11.3748 20.3079 11.1937C20.1544 11.0115 20.0794 10.7758 20.0993 10.5384L20.0997 10.5384V10.53V10.5289V10.5279V10.5268V10.5258V10.5247V10.5237V10.5226V10.5216V10.5205V10.5195V10.5184V10.5174V10.5163V10.5153V10.5142V10.5132V10.5121V10.5111V10.51V10.509V10.5079V10.5069V10.5058V10.5048V10.5037V10.5027V10.5016V10.5006V10.4995V10.4985V10.4974V10.4964V10.4953V10.4943V10.4932V10.4922V10.4911V10.4901V10.489V10.488V10.4869V10.4859V10.4848V10.4838V10.4828V10.4817V10.4807V10.4796V10.4786V10.4775V10.4765V10.4754V10.4744V10.4734V10.4723V10.4713V10.4702V10.4692V10.4681V10.4671V10.4661V10.465V10.464V10.4629V10.4619V10.4608V10.4598V10.4588V10.4577V10.4567V10.4556V10.4546V10.4536V10.4525V10.4515V10.4504V10.4494V10.4484V10.4473V10.4463V10.4452V10.4442V10.4432V10.4421V10.4411V10.44V10.439V10.438V10.4369V10.4359V10.4349V10.4338V10.4328V10.4317V10.4307V10.4297V10.4286V10.4276V10.4266V10.4255V10.4245V10.4235V10.4224V10.4214V10.4203V10.4193V10.4183V10.4172V10.4162V10.4152V10.4141V10.4131V10.4121V10.411V10.41V10.409V10.4079V10.4069V10.4059V10.4048V10.4038V10.4028V10.4017V10.4007V10.3997V10.3986V10.3976V10.3966V10.3955V10.3945V10.3935V10.3924V10.3914V10.3904V10.3893V10.3883V10.3873V10.3862V10.3852V10.3842V10.3831V10.3821V10.3811V10.3801V10.379V10.378V10.377V10.3759V10.3749V10.3739V10.3728V10.3718V10.3708V10.3697V10.3687V10.3677V10.3667V10.3656V10.3646V10.3636V10.3625V10.3615V10.3605V10.3595V10.3584V10.3574V10.3564V10.3553V10.3543V10.3533V10.3522V10.3512V10.3502V10.3492V10.3481V10.3471V10.3461V10.3451V10.344V10.343V10.342V10.3409V10.3399V10.3389V10.3379V10.3368V10.3358V10.3348V10.3337V10.3327V10.3317V10.3307V10.3296V10.3286V10.3276V10.3266V10.3255V10.3245V10.3235V10.3224V10.3214V10.3204V10.3194V10.3183V10.3173V10.3163V10.3153V10.3142V10.3132V10.3122V10.3112V10.3101V10.3091V10.3081V10.3071V10.306V10.305V10.304V10.3029V10.3019V10.3009V10.2999V10.2988V10.2978V10.2968V10.2958V10.2947V10.2937V10.2927V10.2917V10.2906V10.2896V10.2886V10.2876V10.2865V10.2855V10.2845V10.2835V10.2824V10.2814V10.2804V10.2794V10.2783V10.2773V10.2763V10.2753V10.2742V10.2732V10.2722V10.2712V10.2701V10.2691V10.2681V10.2671V10.266V10.265V10.264V10.2629V10.2619V10.2609V10.2599V10.2588V10.2578V10.2568V10.2558V10.2547V10.2537V10.2527V10.2517V10.2506V10.2496V10.2486V10.2476V10.2465V10.2455V10.2445V10.2435V10.2424V10.2414V10.2404V10.2394V10.2383V10.2373V10.2363V10.2353V10.2342V10.2332V10.2322V10.2312V10.2301V10.2291V10.2281V10.2271V10.226V10.225V10.224V10.2229V10.2219V10.2209V10.2199V10.2188V10.2178V10.2168V10.2158V10.2147V10.2137V10.2127V10.2117V10.2106V10.2096V10.2086V10.2076V10.2065V10.2055V10.2045V10.2034V10.2024V10.2014V10.2004V10.1993V10.1983V10.1973V10.1963V10.1952V10.1942V10.1932V10.1921V10.1911V10.1901V10.1891V10.188V10.187V10.186V10.1849V10.1839V10.1829V10.1819V10.1808V10.1798V10.1788V10.1778V10.1767V10.1757V10.1747V10.1736V10.1726V10.1716V10.1705V10.1695V10.1685V10.1675V10.1664V10.1654V10.1644V10.1633V10.1623V10.1613V10.1603V10.1592V10.1582V10.1572V10.1561V10.1551V10.1541V10.153V10.152V10.151V10.1499V10.1489V10.1479V10.1469V10.1458V10.1448V10.1438V10.1427V10.1417V10.1407V10.1396V10.1386V10.1376V10.1365V10.1355V10.1345V10.1334V10.1324V10.1314V10.1303V10.1293V10.1283V10.1272V10.1262V10.1252V10.1241V10.1231V10.1221V10.121V10.12V10.119V10.1179V10.1169V10.1159V10.1148V10.1138V10.1128V10.1117V10.1107V10.1097V10.1086V10.1076V10.1065V10.1055V10.1045V10.1034V10.1024V10.1014V10.1003V10.0993V10.0983V10.0972V10.0962V10.0951V10.0941V10.0931V10.092V10.091V10.09V10.0889V10.0879V10.0868V10.0858V10.0848V10.0837V10.0827V10.0816V10.0806V10.0796V10.0785V10.0775V10.0764V10.0754V10.0744V10.0733V10.0723V10.0712V10.0702V10.0692V10.0681V10.0671V10.066V10.065V10.0639V10.0629V10.0619V10.0608V10.0598V10.0587V10.0577V10.0566V10.0556V10.0546V10.0535V10.0525V10.0514V10.0504V10.0493V10.0483V10.0472V10.0462V10.0452V10.0441V10.0431V10.042V10.041V10.0399V10.0389V10.0378V10.0368V10.0357V10.0347V10.0336V10.0326V10.0315V10.0305V10.0294V10.0284V10.0273V10.0263V10.0252V10.0242V10.0231V10.0221V10.021V10.02V10.0189V10.0179V10.0168V10.0158V10.0147V10.0137V10.0126V10.0116V10.0105V10.0095V10.0084V10.0074V10.0063V10.0053V10.0042V10.0032V10.0021V10.0011V10C20.0997 8.38218 19.457 6.83062 18.313 5.68665C17.1691 4.54268 15.6175 3.9 13.9997 3.9H13.4697ZM16.3633 10.6364C16.1945 10.4676 16.0997 10.2387 16.0997 10C16.0997 9.44305 15.8784 8.9089 15.4846 8.51508C15.0908 8.12125 14.5566 7.9 13.9997 7.9C13.761 7.9 13.5321 7.80518 13.3633 7.6364C13.1945 7.46761 13.0997 7.23869 13.0997 7C13.0997 6.76131 13.1945 6.53239 13.3633 6.3636C13.5321 6.19482 13.761 6.1 13.9997 6.1C15.034 6.1 16.026 6.51089 16.7574 7.24228C17.4888 7.97368 17.8997 8.96566 17.8997 10C17.8997 10.2387 17.8049 10.4676 17.6361 10.6364C17.4673 10.8052 17.2384 10.9 16.9997 10.9C16.761 10.9 16.5321 10.8052 16.3633 10.6364Z" fill="white" stroke="#4E5154" stroke-width="0.2"/>
</svg>
