<svg width="11" height="6" viewBox="0 0 11 6" fill="none" xmlns="http://www.w3.org/2000/svg">
<path d="M10.5901 0.389976L10.5902 0.39009C10.6734 0.466086 10.7388 0.555818 10.7831 0.65374C10.8274 0.751622 10.85 0.856106 10.85 0.961285C10.85 1.06646 10.8274 1.17095 10.7831 1.26883C10.7388 1.36672 10.6735 1.45643 10.5903 1.53241C10.5903 1.53243 10.5902 1.53246 10.5902 1.53248L6.11384 5.60493L6.11384 5.60492L6.11275 5.60593C6.03019 5.68255 5.93131 5.74397 5.8215 5.78607C5.71169 5.82819 5.59352 5.85 5.47391 5.85C5.35431 5.85 5.23614 5.82819 5.12632 5.78607C5.01652 5.74397 4.91763 5.68255 4.83508 5.60593L4.83463 5.60552L0.410249 1.53289L0.41025 1.53289L0.409798 1.53248C0.326557 1.45648 0.261226 1.36675 0.216906 1.26883C0.172605 1.17095 0.15 1.06647 0.15 0.961285C0.15 0.856105 0.172605 0.751621 0.216906 0.65374C0.261226 0.555818 0.326557 0.466087 0.409798 0.39009L0.409922 0.389976C0.576577 0.23748 0.804466 0.15 1.04432 0.15C1.28409 0.15 1.51192 0.237425 1.67856 0.389832C1.67861 0.38988 1.67866 0.389928 1.67871 0.389976L5.37232 3.78993L5.4732 3.88279L5.57473 3.79064L9.32084 0.390383L9.32129 0.389976C9.48794 0.23748 9.71583 0.15 9.95568 0.15C10.1955 0.15 10.4234 0.23748 10.5901 0.389976Z" fill="white" stroke="white" stroke-width="0.3"/>
</svg>
