<svg width="16" height="11" viewBox="0 0 16 11" fill="none" xmlns="http://www.w3.org/2000/svg">
<path id="Vector" d="M14.7104 0.295798C14.6175 0.20207 14.5069 0.127675 14.385 0.0769067C14.2632 0.026138 14.1324 0 14.0004 0C13.8684 0 13.7377 0.026138 13.6159 0.0769067C13.494 0.127675 13.3834 0.20207 13.2904 0.295798L5.84044 7.7558L2.71044 4.6158C2.61392 4.52256 2.49998 4.44925 2.37512 4.40004C2.25026 4.35084 2.11694 4.32671 1.98276 4.32903C1.84858 4.33135 1.71617 4.36008 1.59309 4.41357C1.47001 4.46706 1.35868 4.54428 1.26544 4.6408C1.1722 4.73732 1.09889 4.85126 1.04968 4.97612C1.00048 5.10097 0.976347 5.2343 0.978669 5.36848C0.98099 5.50266 1.00972 5.63507 1.06321 5.75814C1.1167 5.88122 1.19392 5.99256 1.29044 6.0858L5.13044 9.9258C5.2234 10.0195 5.334 10.0939 5.45586 10.1447C5.57772 10.1955 5.70843 10.2216 5.84044 10.2216C5.97245 10.2216 6.10316 10.1955 6.22502 10.1447C6.34687 10.0939 6.45748 10.0195 6.55044 9.9258L14.7104 1.7658C14.8119 1.67216 14.893 1.5585 14.9484 1.432C15.0038 1.30551 15.0324 1.1689 15.0324 1.0308C15.0324 0.892697 15.0038 0.756091 14.9484 0.629592C14.893 0.503092 14.8119 0.389441 14.7104 0.295798Z" fill="#A2A2A2"/>
</svg>
