<svg width="42" height="42" viewBox="0 0 42 42" fill="none" xmlns="http://www.w3.org/2000/svg">
<path d="M37.9049 10.2705C37.4931 9.63715 37.0472 9.02667 36.5692 8.44175C34.6445 6.09415 32.2225 4.20275 29.4777 2.90403C26.733 1.6053 23.734 0.931641 20.6971 0.931641C17.6603 0.931641 14.6613 1.6053 11.9166 2.90403C9.17181 4.20275 6.74975 6.09415 4.82513 8.44175C4.34789 9.02733 3.90204 9.63776 3.48944 10.2705C1.47984 13.3655 0.343138 16.945 0.199197 20.6317C0.0552553 24.3184 0.909404 27.9756 2.67158 31.2176C4.43375 34.4597 7.03865 37.1665 10.2116 39.0526C13.3846 40.9387 17.008 41.9343 20.6998 41.9343C24.3916 41.9343 28.0151 40.9387 31.188 39.0526C34.361 37.1665 36.9659 34.4597 38.7281 31.2176C40.4902 27.9756 41.3444 24.3184 41.2004 20.6317C41.0565 16.945 39.9198 13.3655 37.9102 10.2705H37.9049ZM39.107 21.4324C39.107 22.0482 39.0776 22.6569 39.0188 23.2585H21.7457V19.577C24.6013 19.434 27.3954 18.6951 29.948 17.4076C32.5006 16.1202 34.7552 14.3128 36.5665 12.1019C38.2329 14.9271 39.1103 18.1475 39.107 21.4271V21.4324ZM20.6958 12.7533C19.9408 12.7538 19.2026 12.5306 18.5745 12.1118C17.9465 11.6931 17.4568 11.0976 17.1673 10.4007C16.8779 9.70382 16.8018 8.9368 16.9486 8.19667C17.0953 7.45653 17.4584 6.77651 17.9919 6.24261C18.5254 5.7087 19.2054 5.34489 19.9458 5.19717C20.6862 5.04945 21.4538 5.12446 22.1515 5.41272C22.8493 5.70098 23.4458 6.18953 23.8657 6.81661C24.2856 7.44369 24.51 8.18112 24.5105 8.93565C24.5109 9.43664 24.4125 9.93279 24.221 10.3958C24.0295 10.8588 23.7486 11.2795 23.3943 11.634C23.0401 11.9885 22.6195 12.2698 22.1565 12.4619C21.6934 12.6539 21.1971 12.7529 20.6958 12.7533ZM35.335 10.2652C33.7255 12.3765 31.6773 14.1142 29.3313 15.3586C26.9854 16.603 24.3974 17.3244 21.7457 17.4733V14.7582C23.1976 14.4934 24.4981 13.6959 25.3919 12.5222C26.2857 11.3484 26.7083 9.88328 26.5768 8.41418C26.4454 6.94509 25.7693 5.57813 24.6812 4.58157C23.5932 3.585 22.1717 3.03076 20.6958 3.02764C23.5295 3.02539 26.3253 3.67798 28.8648 4.93442C31.4043 6.19086 33.6187 8.01712 35.335 10.2705V10.2652ZM20.6958 3.02764C19.2197 3.03011 17.7978 3.58387 16.7092 4.58022C15.6207 5.57658 14.9441 6.94357 14.8122 8.41286C14.6804 9.88215 15.1029 11.3476 15.9967 12.5216C16.8905 13.6956 18.1912 14.4934 19.6433 14.7582V17.4786C16.9915 17.3298 14.4036 16.6083 12.0576 15.3639C9.71164 14.1196 7.66341 12.3819 6.05396 10.2705C7.77078 8.01706 9.98567 6.19081 12.5256 4.93438C15.0655 3.67796 17.8617 3.02538 20.6958 3.02764ZM2.28197 21.4271C2.27532 18.1412 3.15277 14.9139 4.82245 12.0832C6.63379 14.2941 8.88833 16.1015 11.4409 17.3889C13.9935 18.6764 16.7876 19.4154 19.6433 19.5583V39.7812C14.9526 39.5128 10.542 37.4627 7.31448 34.0506C4.08692 30.6385 2.28655 26.1224 2.28197 21.4271ZM21.7457 39.7998V25.3515H38.6876C37.8271 29.2769 35.7058 32.8135 32.6471 35.422C29.5884 38.0306 25.76 39.568 21.7457 39.7998Z" fill="#241D13"/>
</svg>
