<svg width="71" height="59" viewBox="0 0 71 59" fill="none" xmlns="http://www.w3.org/2000/svg">
<g clip-path="url(#clip0_1503_7323)">
<path d="M40.7998 51.8692C40.3959 51.431 39.8836 51.1069 39.3145 50.9295C38.5863 50.7125 37.8448 50.543 37.0946 50.4223C36.416 50.2941 35.8844 50.1793 35.5158 50.0805C35.1845 49.9997 34.8752 49.8466 34.6102 49.632C34.494 49.5349 34.4022 49.4117 34.3424 49.2726C34.2825 49.1335 34.2562 48.9823 34.2656 48.8311C34.2661 48.6167 34.325 48.4065 34.4361 48.2231C34.5472 48.0396 34.7062 47.8899 34.896 47.79C35.3314 47.523 35.9779 47.3788 36.8194 47.3788C37.9513 47.3517 39.0662 47.6581 40.0251 48.2598L40.1266 48.3266L41.1043 46.5032L41.0242 46.4524C40.4408 46.096 39.8027 45.8381 39.1355 45.6889C38.3877 45.5084 37.6208 45.4188 36.8515 45.422C35.3982 45.422 34.2228 45.7423 33.3546 46.3724C32.9387 46.6563 32.6 47.0393 32.3692 47.4867C32.1383 47.9341 32.0225 48.4319 32.0323 48.9353C31.9904 49.6403 32.222 50.3345 32.6788 50.8734C33.0954 51.324 33.6219 51.6589 34.2068 51.8452C34.9402 52.0674 35.6894 52.2334 36.4481 52.3418C37.1106 52.4539 37.6288 52.558 37.9841 52.6488C38.299 52.7236 38.5936 52.8667 38.847 53.0679C38.9537 53.1555 39.0385 53.2667 39.0946 53.3928C39.1507 53.5188 39.1766 53.6562 39.1702 53.7941C39.1702 54.7578 38.3287 55.225 36.595 55.225C35.8772 55.2249 35.1633 55.1188 34.4766 54.91C33.8416 54.7287 33.2405 54.4447 32.6975 54.0691L32.5933 53.9943L31.6289 55.7963L31.701 55.8551C32.3133 56.3058 33.006 56.6356 33.742 56.8268C34.617 57.0804 35.5237 57.208 36.4347 57.2059C37.9574 57.2059 39.1809 56.8936 40.0678 56.2769C40.4925 56.0036 40.8404 55.6265 41.0783 55.1813C41.3163 54.736 41.4365 54.2374 41.4275 53.7327C41.4653 53.054 41.2405 52.3869 40.7998 51.8692Z" fill="white"/>
<path d="M59.2586 54.3737C59.2586 54.6279 59.3596 54.8716 59.5395 55.0514C59.7193 55.2311 59.9633 55.3321 60.2176 55.3321C60.472 55.3321 60.7159 55.2311 60.8958 55.0514C61.0756 54.8716 61.1766 54.6279 61.1766 54.3737H63.1481C63.087 55.1128 62.7484 55.8014 62.2002 56.3013C61.652 56.8011 60.9348 57.0752 60.1928 57.0684C59.4507 57.0617 58.7387 56.7746 58.1997 56.2648C57.6607 55.7551 57.3347 55.0604 57.2871 54.3203V41.0039H59.2773C59.2719 45.4605 59.2657 49.9171 59.2586 54.3737Z" fill="white"/>
<path d="M67.1126 43.8788C67.1126 43.6246 67.2137 43.3809 67.3935 43.2011C67.5734 43.0214 67.8173 42.9204 68.0717 42.9204C68.3254 42.9225 68.5681 43.0241 68.7475 43.2034C68.9269 43.3827 69.0286 43.6253 69.0307 43.8788H71.0022C70.9951 43.1 70.6787 42.3558 70.1226 41.8101C69.5665 41.2644 68.8163 40.9618 68.0369 40.9689C67.2576 40.976 66.513 41.2921 65.9669 41.8479C65.4208 42.4036 65.118 43.1534 65.1251 43.9322V57.2513H67.118C67.118 54.2666 67.1135 51.2819 67.1046 48.2972H70.1153V46.3082H67.1153L67.1126 43.8788Z" fill="white"/>
<path d="M52.9597 52.3101H55.014C55.1508 51.656 55.1752 50.9834 55.0862 50.3212C55.0595 50.1369 55.0274 49.9527 54.9847 49.7739C54.9847 49.7338 54.966 49.6965 54.9553 49.6564C54.9446 49.6164 54.9205 49.5256 54.9018 49.4615L54.8858 49.4081L54.8297 49.2266L54.7656 49.0504L54.7496 49.005C54.671 48.8012 54.5818 48.6016 54.4824 48.407C54.4157 48.2762 54.3435 48.14 54.2634 48.0199C54.2287 47.9638 54.1939 47.9078 54.1565 47.8517C54.1519 47.8418 54.1455 47.8328 54.1378 47.825C54.1004 47.7663 54.0604 47.7102 54.0176 47.6515C53.9749 47.5927 53.9401 47.5447 53.8974 47.4913L53.7745 47.3391L53.665 47.211C53.4652 46.982 53.2472 46.7695 53.0132 46.5756L52.8716 46.4608L52.7273 46.3513C52.6285 46.2793 52.5297 46.2072 52.4255 46.1431C52.3774 46.1111 52.3266 46.0817 52.2759 46.0523C52.2305 46.023 52.1824 45.9963 52.1343 45.9696L52.0942 45.9482C52.0568 45.9242 52.0168 45.9055 51.9794 45.8841L51.795 45.7907L51.6 45.7026L51.3916 45.6145L51.1779 45.5371C50.9541 45.4593 50.7257 45.3951 50.4941 45.3449L50.3338 45.3128L50.0186 45.2621H49.9384H49.8235L49.6633 45.2461H49.6125H49.4389H49.0221H48.9286H48.731H48.6535L48.4585 45.2701L48.1913 45.3102L48.0471 45.3369L47.9135 45.3662L47.8253 45.3876L47.7399 45.4089C47.534 45.4618 47.3315 45.5269 47.1335 45.6038L47.0319 45.6412L46.8049 45.74L46.6927 45.7907L46.5832 45.8468L46.4736 45.9028C46.2027 46.0447 45.9437 46.2081 45.6989 46.3914L45.5654 46.4528C45.528 46.4848 45.4906 46.5115 45.4558 46.5436L45.3463 46.6343C45.2742 46.6984 45.2047 46.7598 45.1353 46.8265L45.0338 46.9253L44.9349 47.0268C44.7404 47.2318 44.5618 47.4514 44.4006 47.6835L44.3205 47.801L44.2404 47.9184C44.1896 47.9985 44.1415 48.0786 44.0934 48.1614L44.024 48.2842C43.9438 48.4337 43.869 48.5859 43.8022 48.7434C43.7515 48.8608 43.7034 48.9783 43.658 49.1011C43.5711 49.3483 43.4997 49.6006 43.4443 49.8566C43.4256 49.9341 43.4122 50.0088 43.3989 50.0862C43.3855 50.1636 43.3855 50.1636 43.3802 50.201L43.3615 50.3185C43.3615 50.3719 43.3481 50.4279 43.3428 50.4813C43.3417 50.4875 43.3417 50.4938 43.3428 50.5C43.3428 50.5508 43.3428 50.6015 43.3428 50.6495C43.3428 50.6976 43.3428 50.743 43.3428 50.791C43.3415 50.799 43.3415 50.8071 43.3428 50.815C43.3428 50.9112 43.3428 51.0073 43.3428 51.106C43.3428 51.106 43.3428 51.1327 43.3428 51.1488C43.3428 51.1648 43.3428 51.2449 43.3428 51.2929V51.4851C43.3428 51.5359 43.3428 51.5866 43.3561 51.64C43.3695 51.6934 43.3695 51.7761 43.3775 51.8429L43.3935 51.9684C43.4096 52.0805 43.4283 52.1899 43.4523 52.2967L43.4683 52.3661C43.4683 52.4035 43.4763 52.4382 43.4924 52.4703C43.4924 52.4889 43.4924 52.5076 43.5057 52.5263C43.5191 52.5851 43.5351 52.6411 43.5485 52.6945V52.7132C43.5672 52.7799 43.5859 52.844 43.6072 52.9081C43.6286 52.9722 43.65 53.0416 43.6767 53.1083C43.7221 53.2391 43.7755 53.3753 43.8316 53.4981L43.9198 53.6876L44.016 53.8772C44.048 53.9359 44.0827 53.9973 44.1201 54.0587C44.1575 54.1201 44.1843 54.1682 44.2163 54.2216L44.235 54.2483L44.2965 54.347C44.3098 54.3657 44.3205 54.3844 44.3339 54.4004C44.351 54.4282 44.3697 54.4549 44.39 54.4805C44.4781 54.6087 44.5743 54.7475 44.6731 54.857L44.7666 54.9637C44.8281 55.0358 44.8922 55.1052 44.9563 55.1746L45.0551 55.2761C45.1219 55.3428 45.1914 55.4096 45.2608 55.471L45.3677 55.5671C45.4398 55.6312 45.5119 55.6899 45.5867 55.746L45.6989 55.8341L45.8138 55.9168C45.8539 55.9462 45.8913 55.9729 45.9313 55.9969L46.0462 56.0743C46.1246 56.1242 46.2047 56.1722 46.2866 56.2185C46.3255 56.2429 46.3656 56.2652 46.4068 56.2852C46.5038 56.3412 46.6037 56.392 46.706 56.4374L46.7354 56.4508C46.861 56.5095 46.9892 56.5655 47.1228 56.6136C47.4001 56.7193 47.6849 56.8041 47.9749 56.8672L48.1326 56.8993L48.2715 56.9233C48.389 56.942 48.5039 56.958 48.6214 56.9687L48.771 56.982H48.9206H49.2171H49.3988C49.5698 56.982 49.7407 56.966 49.9117 56.9446L50.08 56.9233L50.2323 56.8993L50.3311 56.8806L50.4299 56.8619L50.7345 56.7898C51.1111 56.6906 51.477 56.5547 51.8271 56.384C52.0034 56.2959 52.1744 56.1998 52.3427 56.0984L52.4655 56.0183C52.4968 55.9994 52.5272 55.9789 52.5564 55.9569C52.7193 55.8474 52.8769 55.7273 53.0292 55.6018L53.1521 55.495L53.1681 55.4817C53.2429 55.4149 53.315 55.3455 53.3845 55.2761C53.454 55.2067 53.454 55.2094 53.486 55.1746C53.6009 55.0545 53.7131 54.929 53.8173 54.7982L52.1289 53.7143L52.0595 53.7864L51.99 53.8585C51.9152 53.9332 51.8351 54.0053 51.755 54.0721L51.6935 54.1228C51.5973 54.2002 51.4985 54.2723 51.3997 54.339L51.3195 54.3924C51.307 54.398 51.2954 54.4051 51.2848 54.4138L51.1459 54.4939L51.0604 54.5419L50.8814 54.63L50.7933 54.6701L50.6998 54.7075L50.6143 54.7422H50.6009L50.5154 54.7715C50.4513 54.7955 50.3872 54.8169 50.3204 54.8356L50.2296 54.8596C50.1414 54.8836 50.0533 54.905 49.9625 54.921C49.6432 54.983 49.3173 55.0037 48.9927 54.9824H48.8752L48.7603 54.9691H48.6829H48.6054L48.5012 54.9504L48.397 54.929C48.2652 54.9016 48.135 54.8668 48.007 54.8249H47.9856L47.7586 54.7395L47.6197 54.6808L47.5368 54.6434C47.4487 54.6007 47.3605 54.5553 47.2697 54.5072L47.0827 54.3924L46.9812 54.3257L46.9171 54.2776C46.861 54.2376 46.8049 54.1975 46.7515 54.1522L46.674 54.0881C46.6023 54.0284 46.5336 53.9651 46.4683 53.8985L46.3801 53.8078L46.292 53.7143L46.2092 53.6182L46.1317 53.5221L46.1183 53.5061C45.8367 53.1446 45.6214 52.736 45.4825 52.2994H52.9624L52.9597 52.3101ZM45.3757 50.3265V50.2864C45.3757 50.2304 45.4024 50.1743 45.4158 50.1183C45.4291 50.0622 45.4478 50.0035 45.4638 49.9501C45.4986 49.8406 45.536 49.7312 45.5787 49.627C45.6028 49.5737 45.6241 49.5229 45.6482 49.4722C45.6722 49.4215 45.6936 49.3761 45.715 49.3307L45.731 49.304L45.7978 49.1759C45.8485 49.0878 45.9046 48.9997 45.9634 48.9089C45.9782 48.885 45.9943 48.8618 46.0115 48.8395C46.0285 48.8133 46.0472 48.7883 46.0676 48.7647C46.0785 48.7468 46.091 48.7298 46.105 48.714C46.1477 48.6553 46.1958 48.5992 46.2439 48.5431C46.2629 48.5188 46.2835 48.4956 46.3053 48.4737L46.3695 48.4043L46.4362 48.3376L46.5965 48.1854C46.6259 48.1587 46.658 48.1293 46.6927 48.1027L46.7621 48.0466C46.8049 48.0119 46.845 47.9798 46.8877 47.9505C46.9759 47.8864 47.064 47.8277 47.1548 47.7716C47.2457 47.7182 47.3365 47.6675 47.422 47.6194L47.5662 47.55L47.7105 47.4886L47.8628 47.4326L48.0043 47.3872C48.1026 47.3552 48.2024 47.3285 48.3035 47.3071L48.3757 47.2911L48.4772 47.2697L48.5733 47.2537C48.6401 47.2537 48.7042 47.235 48.771 47.2297H48.8699H49.0702C49.1832 47.223 49.2965 47.223 49.4095 47.2297C49.4469 47.2297 49.487 47.2297 49.5244 47.2297H49.6339L49.7247 47.243H49.7995C49.8274 47.2468 49.855 47.2522 49.8823 47.259L49.9892 47.2777L50.1334 47.3124C50.2758 47.3485 50.4158 47.393 50.5528 47.4459C50.8889 47.5717 51.2054 47.7443 51.4932 47.9585L51.5733 48.0172C51.6321 48.0653 51.6935 48.1133 51.7496 48.1667L51.8164 48.2255C51.9308 48.33 52.0388 48.4415 52.1396 48.5592C52.1637 48.5859 52.185 48.6152 52.2091 48.6446C52.2301 48.6683 52.2498 48.6933 52.2679 48.7193C52.628 49.1916 52.8764 49.7392 52.9945 50.3212H45.3757V50.3265Z" fill="white"/>
<path d="M52.7117 9.34471C52.3 8.71137 51.8541 8.10089 51.376 7.51597C49.4514 5.16837 47.0294 3.27697 44.2846 1.97825C41.5399 0.679522 38.5409 0.00585938 35.504 0.00585938C32.4672 0.00585938 29.4682 0.679522 26.7234 1.97825C23.9787 3.27697 21.5566 5.16837 19.632 7.51597C19.1548 8.10155 18.7089 8.71198 18.2963 9.34471C16.2867 12.4397 15.15 16.0192 15.0061 19.7059C14.8621 23.3926 15.7163 27.0498 17.4785 30.2918C19.2406 33.5339 21.8455 36.2407 25.0185 38.1268C28.1914 40.0129 31.8149 41.0085 35.5067 41.0085C39.1985 41.0085 42.822 40.0129 45.9949 38.1268C49.1679 36.2407 51.7728 33.5339 53.5349 30.2918C55.2971 27.0498 56.1513 23.3926 56.0073 19.7059C55.8634 16.0192 54.7267 12.4397 52.7171 9.34471H52.7117ZM53.9139 20.5067C53.9139 21.1225 53.8845 21.7311 53.8257 22.3327H36.5525V18.6512C39.4082 18.5083 42.2023 17.7693 44.7549 16.4818C47.3075 15.1944 49.562 13.387 51.3734 11.1761C53.0398 14.0014 53.9172 17.2217 53.9139 20.5013V20.5067ZM35.5027 11.8275C34.7477 11.828 34.0095 11.6048 33.3814 11.1861C32.7533 10.7673 32.2636 10.1718 31.9742 9.47493C31.6848 8.77804 31.6087 8.01102 31.7554 7.27089C31.9022 6.53075 32.2653 5.85073 32.7988 5.31682C33.3323 4.78292 34.0123 4.41911 34.7527 4.27139C35.4931 4.12367 36.2607 4.19868 36.9584 4.48694C37.6562 4.7752 38.2527 5.26375 38.6726 5.89083C39.0925 6.51791 39.3169 7.25533 39.3174 8.00987C39.3178 8.51086 39.2194 9.00701 39.0279 9.47C38.8363 9.93298 38.5555 10.3537 38.2012 10.7082C37.847 11.0627 37.4264 11.344 36.9633 11.5361C36.5003 11.7281 36.004 11.8272 35.5027 11.8275ZM50.1419 9.33937C48.5324 11.4508 46.4842 13.1885 44.1382 14.4328C41.7923 15.6772 39.2043 16.3986 36.5525 16.5475V13.8324C38.0045 13.5676 39.3049 12.7701 40.1988 11.5964C41.0926 10.4227 41.5152 8.9575 41.3837 7.4884C41.2523 6.01931 40.5761 4.65235 39.4881 3.65578C38.4 2.65922 36.9786 2.10498 35.5027 2.10186C38.3364 2.09961 41.1322 2.7522 43.6717 4.00864C46.2112 5.26508 48.4256 7.09134 50.1419 9.34471V9.33937ZM35.5027 2.10186C34.0266 2.10432 32.6047 2.65808 31.5161 3.65444C30.4276 4.6508 29.751 6.01779 29.6191 7.48708C29.4873 8.95637 29.9098 10.4218 30.8036 11.5958C31.6974 12.7698 32.998 13.5676 34.4502 13.8324V16.5529C31.7984 16.404 29.2105 15.6825 26.8645 14.4382C24.5185 13.1938 22.4703 11.4561 20.8608 9.34471C22.5777 7.09128 24.7926 5.26502 27.3325 4.0086C29.8724 2.75218 32.6686 2.0996 35.5027 2.10186ZM17.0889 20.5013C17.0822 17.2154 17.9597 13.9881 19.6293 11.1574C21.4407 13.3684 23.6952 15.1757 26.2478 16.4632C28.8004 17.7506 31.5945 18.4896 34.4502 18.6325V38.8554C29.7595 38.587 25.3489 36.5369 22.1214 33.1248C18.8938 29.7127 17.0934 25.1967 17.0889 20.5013ZM36.5525 38.8741V24.4257H53.4945C52.634 28.3512 50.5127 31.8877 47.454 34.4962C44.3953 37.1048 40.5669 38.6422 36.5525 38.8741Z" fill="white"/>
<path d="M5.91711 45.4249C4.47036 45.423 3.07349 45.9533 1.99285 46.9146V41.0039H0V56.9179H1.99285V55.7592C2.70946 56.3939 3.56952 56.8451 4.49915 57.0743C5.42878 57.3034 6.40018 57.3036 7.32989 57.0747C8.25959 56.8459 9.11981 56.3949 9.83662 55.7605C10.5534 55.1261 11.1054 54.3273 11.4451 53.4327C11.7848 52.5381 11.9021 51.5744 11.7869 50.6245C11.6717 49.6745 11.3275 48.7668 10.7838 47.9791C10.24 47.1915 9.51311 46.5476 8.66541 46.1027C7.81771 45.6577 6.8746 45.4252 5.91711 45.4249ZM5.91711 55.26C5.14033 55.26 4.38099 55.0298 3.73515 54.5984C3.08931 54.1671 2.58599 53.554 2.28885 52.8368C1.99171 52.1195 1.9141 51.3303 2.06583 50.569C2.21757 49.8076 2.59184 49.1084 3.1413 48.5596C3.69076 48.0109 4.39072 47.6374 5.15265 47.4862C5.91457 47.3351 6.70423 47.4132 7.42174 47.7106C8.13924 48.0081 8.75236 48.5115 9.18354 49.1572C9.61471 49.8029 9.84457 50.562 9.84405 51.3382C9.8444 51.8537 9.74307 52.3642 9.54584 52.8405C9.34862 53.3168 9.05938 53.7495 8.69466 54.114C8.32994 54.4785 7.8969 54.7676 7.4203 54.9647C6.94371 55.1618 6.43291 55.263 5.91711 55.2627V55.26Z" fill="white"/>
<path d="M28.6429 53.0521C29.1932 53.0521 29.6393 52.6063 29.6393 52.0563C29.6393 51.5064 29.1932 51.0605 28.6429 51.0605C28.0926 51.0605 27.6465 51.5064 27.6465 52.0563C27.6465 52.6063 28.0926 53.0521 28.6429 53.0521Z" fill="white"/>
<path d="M23.4329 52.5303H25.4872C25.6239 51.8762 25.6483 51.2036 25.5593 50.5413C25.5341 50.3572 25.4994 50.1745 25.4551 49.9941C25.4488 49.9544 25.4399 49.9151 25.4284 49.8766C25.4124 49.8098 25.3937 49.7458 25.375 49.6817L25.359 49.6283L25.3029 49.4468L25.2388 49.2706L25.2227 49.2252C25.1446 49.0212 25.0554 48.8215 24.9556 48.6272C24.8888 48.4964 24.8167 48.3602 24.7365 48.2401L24.6297 48.0692L24.611 48.0452C24.5709 47.9865 24.5335 47.9277 24.4908 47.8717L24.3706 47.7115L24.2477 47.5593L24.1382 47.4312C23.9384 47.2022 23.7204 46.9897 23.4863 46.7958L23.3448 46.681L23.2005 46.5715C23.1017 46.4968 23.0028 46.4274 22.8986 46.3633L22.749 46.2699L22.5914 46.1844C22.5787 46.1754 22.5653 46.1674 22.5514 46.1604L22.4365 46.099C22.375 46.0643 22.3136 46.0349 22.2495 46.0055L22.0571 45.9175L21.8488 45.8294L21.6351 45.7519C21.4103 45.6742 21.181 45.61 20.9485 45.5597L20.7909 45.5277C20.6867 45.509 20.5825 45.4903 20.4757 45.477H20.3955H20.2807L20.1177 45.4609H20.0696H19.8933H19.6529H19.4793H19.3858L19.1907 45.4743H19.1133L18.9183 45.4956L18.6511 45.5384L18.5069 45.5651L18.3733 45.5944L18.2852 45.6158L18.197 45.6371C17.9924 45.6903 17.7909 45.7545 17.5933 45.8294L17.4918 45.8694L17.2647 45.9682L17.1525 46.0189L17.043 46.0723L16.9334 46.131C16.6625 46.2729 16.4035 46.4363 16.1587 46.6196L16.0465 46.705L15.9343 46.7958L15.8275 46.8865C15.7553 46.948 15.6859 47.012 15.6164 47.0761L15.5149 47.1775L15.4161 47.279C15.221 47.4835 15.0423 47.7031 14.8818 47.9357L14.8017 48.0532L14.7215 48.1707C14.6708 48.2508 14.6227 48.3308 14.5746 48.4136L14.5051 48.5364C14.425 48.6859 14.3502 48.8381 14.2834 48.9956C14.2166 49.1531 14.1846 49.2305 14.1392 49.3533C14.0514 49.6004 13.9791 49.8528 13.9228 50.1089C13.9068 50.1863 13.8907 50.261 13.8774 50.3384C13.8774 50.3758 13.8774 50.4159 13.8587 50.4532L13.8426 50.5707C13.8426 50.6241 13.8426 50.6802 13.8239 50.7336C13.8226 50.7397 13.8226 50.7461 13.8239 50.7522C13.8239 50.803 13.8239 50.8537 13.8106 50.9018C13.8079 50.9489 13.8079 50.9961 13.8106 51.0432C13.8094 51.0503 13.8094 51.0575 13.8106 51.0646C13.8106 51.1607 13.8106 51.2595 13.8106 51.3583C13.8106 51.3716 13.8106 51.385 13.8106 51.3983C13.8106 51.4117 13.8106 51.4944 13.8106 51.5425V51.7374C13.8106 51.7881 13.8106 51.8388 13.8106 51.8895C13.8106 51.9403 13.8239 52.0257 13.832 52.0951L13.848 52.2206C13.864 52.3309 13.8827 52.4404 13.9041 52.5489C13.9041 52.573 13.9041 52.5997 13.9201 52.621C13.9361 52.6424 13.9201 52.6904 13.9442 52.7251C13.9429 52.7438 13.9429 52.7625 13.9442 52.7812C13.9575 52.8373 13.9735 52.8933 13.9869 52.9494C13.9878 52.9556 13.9878 52.9619 13.9869 52.9681C14.0056 53.0348 14.027 53.0989 14.0483 53.163C14.0697 53.227 14.0911 53.2965 14.1151 53.3632C14.1632 53.494 14.2166 53.6302 14.2727 53.753L14.3609 53.9425L14.4571 54.1294C14.4891 54.1908 14.5238 54.2522 14.5586 54.3136C14.5933 54.375 14.6227 54.4231 14.6574 54.4765L14.6734 54.5032L14.7376 54.6019C14.7376 54.6179 14.7616 54.6366 14.775 54.6553L14.8284 54.7354C14.9192 54.8636 15.0154 54.989 15.1142 55.1118L15.2077 55.2186C15.2665 55.2907 15.3306 55.3601 15.3974 55.4295L15.4962 55.531C15.563 55.5977 15.6325 55.6645 15.7019 55.7259C15.7714 55.7873 15.7714 55.7899 15.8088 55.8193C15.8462 55.8487 15.953 55.9448 16.0278 56.0008L16.14 56.0889L16.2549 56.1717C16.295 56.2011 16.3324 56.2278 16.3724 56.2518L16.4873 56.3292C16.5648 56.3799 16.6449 56.4307 16.7277 56.476C16.7651 56.5001 16.8052 56.5214 16.8453 56.5428C16.9414 56.5962 17.043 56.6469 17.1445 56.695L17.1712 56.7083C17.2994 56.767 17.4383 56.8204 17.5585 56.8712C17.8368 56.976 18.1226 57.0599 18.4134 57.1221C18.4668 57.1355 18.5176 57.1461 18.571 57.1541L18.7072 57.1808C18.8248 57.1995 18.9423 57.2129 19.0599 57.2262L19.2094 57.2396H19.359H19.6556H19.8372C20.0082 57.2396 20.1792 57.2236 20.3475 57.2022L20.5158 57.1808L20.668 57.1568L20.7695 57.1381L20.8684 57.1194L21.1729 57.0474C21.5493 56.9463 21.9152 56.8096 22.2655 56.6389C22.4418 56.5535 22.6128 56.4574 22.7811 56.3559L22.904 56.2758L22.9948 56.2144C23.1577 56.1045 23.3146 55.9859 23.465 55.8593L23.5878 55.7526L23.6065 55.7392C23.6813 55.6725 23.7535 55.6031 23.8229 55.5336L23.9244 55.4295C24.0393 55.3094 24.1515 55.1866 24.2557 55.0558L22.5914 53.9799L22.5246 54.052L22.4552 54.1214C22.3804 54.1988 22.3002 54.2682 22.2201 54.3376L22.156 54.3884C22.0625 54.4658 21.9636 54.5379 21.8648 54.6046L21.7847 54.6553L21.7499 54.6794L21.611 54.7594L21.5255 54.8075L21.3466 54.8956L21.2557 54.9356L21.1649 54.973L21.0794 55.0077H21.0661L20.9779 55.0371C20.9138 55.0611 20.8497 55.0798 20.7856 55.0985L20.6947 55.1252C20.6066 55.1492 20.5158 55.1706 20.4276 55.1866C20.1075 55.2487 19.7806 55.2693 19.4552 55.248H19.3403L19.2255 55.2346H19.1453H19.0705L18.9664 55.216L18.8622 55.1946C18.7303 55.1672 18.6001 55.1324 18.4721 55.0905H18.4508C18.3733 55.0665 18.2985 55.0371 18.221 55.0077L18.0848 54.949L18.002 54.9116C17.9112 54.8689 17.8257 54.8235 17.7348 54.7755L17.5478 54.6607L17.4463 54.5912L17.3822 54.5459L17.2166 54.4204C17.1896 54.3996 17.1637 54.3773 17.1391 54.3537C17.0675 54.2949 16.9988 54.2325 16.9334 54.1668C16.904 54.1374 16.872 54.108 16.8453 54.076L16.7571 53.9826L16.6743 53.8865L16.5942 53.7877V53.7743C16.3132 53.412 16.0972 53.0037 15.9557 52.5676H23.4356L23.4329 52.5303ZM15.8488 50.5467V50.5066C15.8488 50.4506 15.8756 50.3945 15.8889 50.3358C15.9023 50.277 15.921 50.2236 15.937 50.1703C15.9717 50.0608 16.0091 49.9513 16.0519 49.8472C16.0759 49.7938 16.0973 49.7404 16.1213 49.6897C16.1454 49.639 16.1641 49.5963 16.1881 49.5509C16.1918 49.5411 16.1973 49.5321 16.2041 49.5242L16.2709 49.396C16.3217 49.3079 16.3778 49.2198 16.4339 49.1291L16.4846 49.0597C16.5007 49.033 16.5194 49.0089 16.5381 48.9823L16.5755 48.9342C16.6209 48.8755 16.6663 48.8194 16.7171 48.7633C16.7361 48.739 16.7566 48.7158 16.7785 48.6939L16.8426 48.6245C16.8629 48.6003 16.8852 48.578 16.9094 48.5578C16.9628 48.5044 17.0136 48.4537 17.0697 48.4056C17.1258 48.3575 17.1311 48.3495 17.1658 48.3228C17.1878 48.3018 17.211 48.2822 17.2353 48.2641L17.3609 48.168C17.4463 48.1066 17.5372 48.0452 17.628 47.9918C17.7188 47.9384 17.8096 47.8877 17.8951 47.8396L18.0394 47.7702L18.1836 47.7061L18.3359 47.6501L18.4775 47.602C18.5763 47.5727 18.6752 47.546 18.774 47.5246L18.8488 47.5059L18.9503 47.4872L19.0465 47.4712C19.1133 47.4712 19.1774 47.4525 19.2442 47.4472H19.343H19.5434C19.6564 47.4405 19.7696 47.4405 19.8826 47.4472C19.9209 47.4445 19.9593 47.4445 19.9975 47.4472H20.107H20.1204H20.2112L20.286 47.4605L20.3688 47.4739L20.4757 47.4952L20.6199 47.5299C20.7623 47.566 20.9024 47.6105 21.0393 47.6634C21.3754 47.7892 21.6919 47.9618 21.9797 48.176L22.0598 48.2347C22.1186 48.2828 22.18 48.3308 22.2361 48.3842L22.3029 48.443C22.4172 48.5469 22.5242 48.6584 22.6235 48.7767C22.6502 48.8034 22.6716 48.8327 22.6956 48.8594L22.7544 48.9369C23.1145 49.4091 23.3629 49.9568 23.481 50.5387H15.8488V50.5467Z" fill="white"/>
</g>
<defs>
<clipPath id="clip0_1503_7323">
<rect width="71" height="59" fill="white"/>
</clipPath>
</defs>
</svg>
