<svg width="131" height="30" viewBox="0 0 131 30" fill="none" xmlns="http://www.w3.org/2000/svg">
<path d="M74.8397 20.0367C74.0981 19.2186 73.1574 18.6135 72.1124 18.2823C70.7753 17.8771 69.4137 17.5608 68.0362 17.3354C66.7902 17.0961 65.8141 16.8818 65.1372 16.6974C64.5288 16.5465 63.9609 16.2606 63.4743 15.8601C63.2609 15.6786 63.0924 15.4488 62.9825 15.1891C62.8726 14.9293 62.8243 14.647 62.8415 14.3648C62.8424 13.9645 62.9507 13.5721 63.1547 13.2296C63.3586 12.8871 63.6506 12.6076 63.9991 12.421C64.7987 11.9226 65.9858 11.6535 67.5309 11.6535C69.6094 11.6028 71.6565 12.1748 73.4172 13.2982L73.6036 13.4228L75.3989 10.0187L75.2518 9.92401C74.1806 9.25862 73.009 8.77704 71.7838 8.49856C70.4106 8.16158 69.0024 7.99423 67.5898 8.00015C64.9213 8.00015 62.763 8.59824 61.1688 9.77449C60.4051 10.3046 59.7832 11.0196 59.3593 11.8549C58.9354 12.6902 58.7228 13.6196 58.7407 14.5592C58.6638 15.8756 59.089 17.1714 59.9278 18.1777C60.6928 19.0189 61.6596 19.644 62.7336 19.9919C64.0802 20.4067 65.4561 20.7166 66.8491 20.9189C68.0656 21.1283 69.0172 21.3226 69.6696 21.4921C70.2478 21.6319 70.7887 21.899 71.254 22.2746C71.45 22.438 71.6057 22.6457 71.7087 22.881C71.8117 23.1164 71.8593 23.373 71.8475 23.6303C71.8475 25.4295 70.3024 26.3017 67.1189 26.3017C65.8008 26.3016 64.49 26.1034 63.229 25.7136C62.0629 25.3752 60.9593 24.8449 59.9621 24.1436L59.7708 24.0041L58 27.3683L58.1325 27.478C59.2567 28.3194 60.5287 28.9351 61.8801 29.2922C63.4868 29.7656 65.1517 30.0039 66.8246 30C69.6206 30 71.8672 29.4168 73.4957 28.2655C74.2756 27.7554 74.9143 27.0513 75.3512 26.2201C75.7882 25.3888 76.0089 24.4579 75.9925 23.5156C76.0618 22.2487 75.6491 21.0031 74.8397 20.0367Z" fill="#4E5154"/>
<path d="M109.227 24.4754C109.227 24.9395 109.415 25.3846 109.748 25.7128C110.082 26.041 110.534 26.2254 111.005 26.2254C111.477 26.2254 111.929 26.041 112.263 25.7128C112.596 25.3846 112.783 24.9395 112.783 24.4754H116.439C116.325 25.8249 115.698 27.0823 114.681 27.995C113.665 28.9077 112.335 29.4081 110.959 29.3958C109.584 29.3834 108.263 28.8592 107.264 27.9284C106.265 26.9976 105.66 25.7292 105.572 24.3779V0.0634766H109.262C109.252 8.20078 109.241 16.3381 109.227 24.4754Z" fill="#4E5154"/>
<path d="M123.789 5.31351C123.789 4.84939 123.976 4.40428 124.309 4.0761C124.643 3.74791 125.095 3.56354 125.567 3.56354C126.037 3.56736 126.487 3.75296 126.82 4.08032C127.152 4.40768 127.341 4.85057 127.345 5.31351H131C130.987 3.89141 130.4 2.5327 129.369 1.53626C128.338 0.539827 126.947 -0.0127063 125.502 0.000221866C124.057 0.0131501 122.677 0.590479 121.664 1.6052C120.652 2.61992 120.091 3.98891 120.104 5.41101V29.7303H123.799C123.799 24.2805 123.79 18.8307 123.774 13.381H129.356V9.74939H123.794L123.789 5.31351Z" fill="#4E5154"/>
<path d="M97.5488 20.7077H101.358C101.611 19.5134 101.656 18.2854 101.491 17.0761C101.442 16.7398 101.382 16.4035 101.303 16.0769C101.303 16.0037 101.268 15.9355 101.249 15.8624C101.229 15.7893 101.184 15.6235 101.15 15.5065L101.12 15.409L101.016 15.0776L100.897 14.7559L100.867 14.673C100.721 14.3008 100.556 13.9364 100.372 13.5811C100.248 13.3422 100.114 13.0936 99.9658 12.8743C99.9015 12.7719 99.8371 12.6695 99.7677 12.5672C99.7591 12.5491 99.7473 12.5326 99.7331 12.5184C99.6637 12.4112 99.5894 12.3088 99.5102 12.2016C99.4309 12.0943 99.3665 12.0066 99.2873 11.9091L99.0595 11.6312L98.8564 11.3973C98.486 10.9791 98.0818 10.5911 97.6479 10.2371L97.3854 10.0275L97.118 9.82764C96.9347 9.69603 96.7514 9.56441 96.5583 9.44742C96.4691 9.38893 96.375 9.33531 96.2809 9.28169C96.1967 9.22807 96.1076 9.17932 96.0184 9.13058L95.9441 9.09157C95.8748 9.0477 95.8005 9.01358 95.7312 8.97459L95.3894 8.80397L95.0278 8.64312L94.6415 8.48225L94.2453 8.3409C93.8302 8.19885 93.4068 8.08165 92.9774 7.98993L92.6802 7.93143L92.0958 7.83882H91.9472H91.7342L91.437 7.80957H91.3429H91.021H90.2484H90.075H89.7085H89.5649L89.2033 7.85344L88.708 7.92656L88.4406 7.9753L88.1929 8.02892L88.0295 8.06792L87.871 8.10691C87.4894 8.20341 87.1139 8.32225 86.7467 8.46276L86.5585 8.531L86.1375 8.71136L85.9295 8.80397L85.7264 8.90635L85.5233 9.00871C85.0211 9.26779 84.5408 9.56609 84.087 9.90076L83.8394 10.0129C83.77 10.0714 83.7007 10.1201 83.6363 10.1786L83.4332 10.3443C83.2995 10.4613 83.1707 10.5735 83.042 10.6953L82.8538 10.8757L82.6705 11.0609C82.3099 11.4354 81.9788 11.8362 81.6799 12.2601L81.5313 12.4745L81.3828 12.689C81.2887 12.8353 81.1995 12.9815 81.1103 13.1326L80.9816 13.3568C80.833 13.6298 80.6943 13.9077 80.5705 14.1953C80.4764 14.4097 80.3872 14.6242 80.303 14.8485C80.142 15.2998 80.0096 15.7605 79.9068 16.228C79.8721 16.3693 79.8474 16.5058 79.8226 16.6472C79.7979 16.7885 79.7979 16.7886 79.7879 16.8568L79.7533 17.0713C79.7533 17.1688 79.7285 17.2711 79.7186 17.3686C79.7166 17.3799 79.7166 17.3915 79.7186 17.4027C79.7186 17.4954 79.7186 17.588 79.7186 17.6757C79.7186 17.7635 79.7186 17.8463 79.7186 17.9341C79.7162 17.9486 79.7162 17.9634 79.7186 17.9779C79.7186 18.1534 79.7186 18.3289 79.7186 18.5093C79.7186 18.5093 79.7186 18.558 79.7186 18.5873C79.7186 18.6165 79.7186 18.7628 79.7186 18.8505V19.2015C79.7186 19.2941 79.7186 19.3867 79.7434 19.4842C79.7681 19.5817 79.7681 19.7328 79.783 19.8547L79.8127 20.0838C79.8424 20.2885 79.8771 20.4884 79.9217 20.6833L79.9514 20.8101C79.9514 20.8783 79.9662 20.9417 79.996 21.0002C79.996 21.0343 79.996 21.0684 80.0207 21.1026C80.0455 21.2098 80.0752 21.3122 80.1 21.4097V21.4438C80.1346 21.5656 80.1693 21.6826 80.2089 21.7996C80.2486 21.9166 80.2882 22.0433 80.3377 22.1652C80.4219 22.4041 80.521 22.6527 80.625 22.8769L80.7884 23.223L80.9667 23.5691C81.0262 23.6763 81.0905 23.7884 81.1599 23.9006C81.2292 24.0127 81.2788 24.1004 81.3382 24.1979L81.3728 24.2467L81.4868 24.427C81.5115 24.4611 81.5314 24.4953 81.5561 24.5245C81.5879 24.5752 81.6227 24.624 81.6601 24.6708C81.8236 24.9047 82.0019 25.1582 82.1851 25.3581L82.3585 25.5531C82.4724 25.6847 82.5913 25.8114 82.7101 25.9381L82.8934 26.1234C83.0172 26.2452 83.146 26.3671 83.2747 26.4792L83.4729 26.6547C83.6066 26.7717 83.7403 26.8789 83.879 26.9813L84.087 27.1422L84.3 27.2933C84.3743 27.3469 84.4436 27.3956 84.5179 27.4395L84.7309 27.5809C84.8762 27.6719 85.0248 27.7596 85.1766 27.8441C85.2487 27.8886 85.3231 27.9293 85.3995 27.966C85.5793 28.0682 85.7644 28.161 85.9542 28.2438L86.0087 28.2682C86.2415 28.3754 86.4792 28.4778 86.7269 28.5655C87.241 28.7586 87.7691 28.9134 88.3068 29.0286L88.599 29.0871L88.8566 29.131C89.0745 29.1651 89.2875 29.1944 89.5054 29.2139L89.7828 29.2382H90.0601H90.6099H90.9467C91.2637 29.2382 91.5807 29.209 91.8976 29.17L92.2097 29.131L92.492 29.0871L92.6752 29.053L92.8585 29.0189L93.4231 28.8873C94.1214 28.7061 94.7999 28.4579 95.4488 28.1463C95.7757 27.9855 96.0927 27.81 96.4047 27.6247L96.6326 27.4785C96.6906 27.444 96.7468 27.4066 96.801 27.3664C97.1031 27.1665 97.3953 26.9472 97.6776 26.7181L97.9055 26.5231L97.9352 26.4987C98.0738 26.3769 98.2076 26.2501 98.3363 26.1234C98.4651 25.9966 98.4651 26.0015 98.5246 25.9381C98.7375 25.7188 98.9456 25.4897 99.1387 25.2508L96.0085 23.2717L95.8797 23.4034L95.751 23.535C95.6123 23.6715 95.4637 23.8031 95.3151 23.9249L95.2012 24.0176C95.0229 24.1589 94.8396 24.2905 94.6564 24.4124L94.5078 24.5099C94.4847 24.52 94.463 24.5331 94.4434 24.5489L94.1859 24.6951L94.0274 24.7829L93.6955 24.9437L93.5321 25.0168L93.3587 25.0851L93.2002 25.1485H93.1755L93.017 25.2021C92.8981 25.246 92.7793 25.2849 92.6554 25.3191L92.487 25.3629C92.3236 25.4068 92.1601 25.4458 91.9918 25.4751C91.3998 25.5883 90.7956 25.626 90.1939 25.5872H89.976L89.763 25.5628H89.6193H89.4757L89.2825 25.5287L89.0894 25.4897C88.845 25.4396 88.6035 25.3761 88.3663 25.2996H88.3266L87.9057 25.1436L87.6481 25.0363L87.4946 24.9681C87.3311 24.8901 87.1677 24.8072 86.9993 24.7195L86.6526 24.5099L86.4644 24.388L86.3455 24.3003C86.2415 24.2272 86.1375 24.154 86.0384 24.0712L85.8948 23.9542C85.7619 23.8452 85.6346 23.7297 85.5134 23.6081L85.35 23.4423L85.1865 23.2717L85.033 23.0963L84.8894 22.9208L84.8646 22.8915C84.3424 22.2315 83.9433 21.4855 83.6858 20.6882H97.5538L97.5488 20.7077ZM83.4877 17.0859V17.0128C83.4877 16.9104 83.5372 16.8081 83.562 16.7057C83.5868 16.6033 83.6214 16.4961 83.6512 16.3986C83.7155 16.1987 83.7849 15.9989 83.8641 15.8088C83.9087 15.7113 83.9483 15.6186 83.9929 15.526C84.0375 15.4334 84.0771 15.3505 84.1167 15.2677L84.1464 15.2189L84.2703 14.985C84.3644 14.8241 84.4684 14.6632 84.5773 14.4975C84.6048 14.4538 84.6346 14.4115 84.6665 14.3708C84.698 14.323 84.7327 14.2774 84.7705 14.2343C84.7908 14.2014 84.814 14.1704 84.8398 14.1416C84.9191 14.0344 85.0082 13.932 85.0974 13.8297C85.1327 13.7852 85.1708 13.7429 85.2113 13.7029L85.3302 13.5762L85.454 13.4543L85.7512 13.1765C85.8056 13.1277 85.8651 13.0741 85.9295 13.0254L86.0583 12.923C86.1375 12.8596 86.2118 12.8011 86.291 12.7475C86.4545 12.6305 86.6179 12.5233 86.7863 12.4209C86.9547 12.3234 87.1231 12.2308 87.2816 12.1431L87.549 12.0163L87.8165 11.9042L88.0988 11.8019L88.3613 11.719C88.5435 11.6606 88.7286 11.6118 88.916 11.5727L89.0498 11.5435L89.238 11.5045L89.4163 11.4753C89.5401 11.4753 89.659 11.4411 89.7828 11.4314H89.966H90.3375C90.547 11.4192 90.757 11.4192 90.9665 11.4314C91.0359 11.4314 91.1102 11.4314 91.1795 11.4314H91.3826L91.551 11.4557H91.6896C91.7413 11.4627 91.7926 11.4725 91.8432 11.485L92.0413 11.5191L92.3087 11.5825C92.5727 11.6483 92.8324 11.7297 93.0863 11.8262C93.7093 12.0559 94.2963 12.371 94.8297 12.7621L94.9783 12.8694C95.0873 12.9571 95.2012 13.0449 95.3052 13.1424L95.429 13.2496C95.6412 13.4405 95.8413 13.644 96.0283 13.8589C96.0729 13.9077 96.1125 13.9613 96.1571 14.0149C96.1961 14.0582 96.2325 14.1038 96.2661 14.1514C96.9337 15.0137 97.3943 16.0136 97.6132 17.0761H83.4877V17.0859Z" fill="#4E5154"/>
<path d="M10.9171 8.07242C8.24781 8.06893 5.6706 9.03716 3.67682 10.7925V0H0V29.0578H3.67682V26.9422C4.99895 28.101 6.58578 28.925 8.30094 29.3433C10.0161 29.7617 11.8083 29.762 13.5237 29.3442C15.239 28.9264 16.8261 28.1029 18.1486 26.9445C19.4711 25.7862 20.4895 24.3276 21.1163 22.6941C21.7431 21.0605 21.9595 19.3009 21.7469 17.5664C21.5344 15.8319 20.8992 14.1744 19.8961 12.7362C18.8929 11.2981 17.5517 10.1223 15.9877 9.30994C14.4237 8.49758 12.6837 8.0729 10.9171 8.07242ZM10.9171 26.0306C9.48391 26.0306 8.08293 25.6102 6.89136 24.8226C5.69978 24.035 4.77115 22.9156 4.22293 21.606C3.6747 20.2963 3.53151 18.8553 3.81147 17.4651C4.09142 16.075 4.78195 14.7982 5.7957 13.7962C6.80945 12.7943 8.10089 12.1122 9.50664 11.8363C10.9124 11.5603 12.3693 11.7029 13.6931 12.246C15.0169 12.7891 16.1481 13.7083 16.9436 14.8874C17.7392 16.0664 18.1633 17.4523 18.1623 18.8698C18.1629 19.811 17.976 20.7431 17.6121 21.6127C17.2482 22.4824 16.7146 23.2726 16.0417 23.9381C15.3687 24.6037 14.5698 25.1315 13.6905 25.4913C12.8111 25.8512 11.8687 26.0361 10.9171 26.0355V26.0306Z" fill="#4E5154"/>
<path d="M52.8462 21.9988C53.8615 21.9988 54.6846 21.1847 54.6846 20.1806C54.6846 19.1764 53.8615 18.3623 52.8462 18.3623C51.8309 18.3623 51.0078 19.1764 51.0078 20.1806C51.0078 21.1847 51.8309 21.9988 52.8462 21.9988Z" fill="#4E5154"/>
<path d="M43.2354 21.0487H47.0256C47.2778 19.8544 47.3228 18.6263 47.1586 17.4171C47.1122 17.0809 47.048 16.7473 46.9664 16.4178C46.9547 16.3453 46.9382 16.2736 46.9171 16.2033C46.8876 16.0814 46.8531 15.9644 46.8186 15.8474L46.789 15.7499L46.6855 15.4185L46.5672 15.0967L46.5376 15.0139C46.3935 14.6413 46.229 14.2768 46.0447 13.922C45.9215 13.6831 45.7885 13.4345 45.6406 13.2151L45.4434 12.9032L45.4089 12.8593C45.335 12.752 45.266 12.6448 45.1871 12.5424L44.9654 12.2499L44.7386 11.9721L44.5366 11.7381C44.168 11.32 43.7658 10.932 43.334 10.5779L43.0727 10.3683L42.8066 10.1685C42.6242 10.032 42.4419 9.90525 42.2496 9.78826L41.9736 9.61764L41.6828 9.46165C41.6593 9.44525 41.6346 9.43059 41.6089 9.41778L41.397 9.30566C41.2836 9.24229 41.1703 9.18866 41.052 9.13504L40.6971 8.97419L40.3127 8.81333L39.9184 8.67196C39.5036 8.52994 39.0807 8.41273 38.6517 8.32098L38.3609 8.26249C38.1687 8.22837 37.9765 8.19424 37.7793 8.16987H37.6314H37.4195L37.1189 8.14062H37.0301H36.7048H36.2613H35.9409H35.7684L35.4086 8.16499H35.2657L34.9059 8.204L34.413 8.28198L34.1468 8.33073L33.9004 8.38436L33.7378 8.42335L33.5751 8.46235C33.1977 8.55945 32.8259 8.67661 32.4612 8.81333L32.2739 8.88645L31.855 9.06681L31.648 9.15942L31.4459 9.25691L31.2438 9.36415C30.7441 9.62323 30.2661 9.92155 29.8145 10.2562L29.6075 10.4122L29.4005 10.5779L29.2034 10.7437C29.0703 10.8558 28.9421 10.9728 28.814 11.0898L28.6267 11.275L28.4443 11.4603C28.0843 11.8337 27.7547 12.2347 27.4586 12.6594L27.3107 12.8739L27.1629 13.0884C27.0692 13.2346 26.9805 13.3809 26.8918 13.532L26.7637 13.7562C26.6158 14.0292 26.4778 14.3071 26.3546 14.5947C26.2314 14.8823 26.1722 15.0236 26.0884 15.2479C25.9265 15.6991 25.7932 16.1598 25.6892 16.6274C25.6596 16.7688 25.6301 16.9052 25.6054 17.0466C25.6054 17.1148 25.6054 17.188 25.5709 17.2562L25.5413 17.4707C25.5413 17.5682 25.5413 17.6706 25.5068 17.7681C25.5044 17.7793 25.5044 17.7909 25.5068 17.8022C25.5068 17.8948 25.5068 17.9874 25.4822 18.0752C25.4773 18.1612 25.4773 18.2475 25.4822 18.3335C25.4801 18.3464 25.4801 18.3596 25.4822 18.3725C25.4822 18.548 25.4822 18.7284 25.4822 18.9087C25.4822 18.9331 25.4822 18.9575 25.4822 18.9818C25.4822 19.0062 25.4822 19.1573 25.4822 19.2451V19.6009C25.4822 19.6935 25.4822 19.7862 25.4822 19.8788C25.4822 19.9714 25.5068 20.1274 25.5216 20.2541L25.5512 20.4832C25.5808 20.6847 25.6153 20.8846 25.6547 21.0828C25.6547 21.1267 25.6547 21.1754 25.6843 21.2144C25.7138 21.2534 25.6843 21.3412 25.7286 21.4045C25.7264 21.4386 25.7264 21.4728 25.7286 21.5069C25.7533 21.6093 25.7828 21.7116 25.8075 21.814C25.8091 21.8253 25.8091 21.8368 25.8075 21.8481C25.842 21.97 25.8814 22.087 25.9208 22.204C25.9603 22.321 25.9997 22.4477 26.0441 22.5696C26.1328 22.8084 26.2314 23.057 26.3349 23.2813L26.4975 23.6274L26.6749 23.9686C26.7341 24.0807 26.7982 24.1928 26.8622 24.305C26.9263 24.4171 26.9805 24.5048 27.0446 24.6023L27.0742 24.6511L27.1925 24.8314C27.1925 24.8607 27.2368 24.8948 27.2615 24.9289L27.36 25.0751C27.5276 25.3091 27.705 25.5382 27.8874 25.7625L28.0599 25.9575C28.1683 26.0891 28.2866 26.2158 28.4098 26.3426L28.5922 26.5278C28.7154 26.6497 28.8436 26.7715 28.9717 26.8836C29.0999 26.9958 29.0999 27.0006 29.1689 27.0543C29.2379 27.1079 29.435 27.2834 29.573 27.3857L29.78 27.5466L29.992 27.6977C30.0659 27.7513 30.1349 27.8001 30.2088 27.8439L30.4207 27.9853C30.5637 28.0779 30.7115 28.1705 30.8643 28.2534C30.9333 28.2973 31.0073 28.3363 31.0812 28.3753C31.2586 28.4728 31.4459 28.5654 31.6332 28.6531L31.6825 28.6775C31.9191 28.7848 32.1754 28.8822 32.3972 28.9749C32.9106 29.1663 33.4378 29.3195 33.9743 29.4331C34.0729 29.4575 34.1666 29.477 34.2651 29.4916L34.5165 29.5403C34.7334 29.5744 34.9502 29.5988 35.1671 29.6232L35.4431 29.6476H35.7191H36.2662H36.6013C36.9168 29.6476 37.2322 29.6183 37.5427 29.5793L37.8532 29.5403L38.1342 29.4965L38.3215 29.4623L38.5038 29.4282L39.0657 29.2966C39.7602 29.1121 40.4352 28.8624 41.0815 28.5508C41.4068 28.3948 41.7223 28.2193 42.0328 28.0341L42.2595 27.8878L42.4271 27.7757C42.7276 27.5749 43.0172 27.3585 43.2945 27.1274L43.5213 26.9324L43.5557 26.908C43.6937 26.7862 43.8268 26.6594 43.955 26.5327L44.1423 26.3426C44.3542 26.1232 44.5612 25.899 44.7534 25.6601L41.6828 23.6956L41.5596 23.8272L41.4315 23.954C41.2935 24.0953 41.1456 24.2221 40.9977 24.3488L40.8795 24.4414C40.707 24.5828 40.5246 24.7144 40.3422 24.8363L40.1944 24.9289L40.1303 24.9728L39.874 25.119L39.7163 25.2068L39.3861 25.3676L39.2185 25.4407L39.0509 25.509L38.8932 25.5724H38.8686L38.7059 25.626C38.5876 25.6699 38.4693 25.704 38.351 25.7381L38.1835 25.7868C38.0208 25.8307 37.8532 25.8697 37.6906 25.899C37.0999 26.0123 36.497 26.05 35.8965 26.0111H35.6846L35.4727 25.9867H35.3248H35.1868L34.9946 25.9526L34.8024 25.9136C34.5591 25.8635 34.3189 25.8 34.0828 25.7235H34.0434C33.9004 25.6796 33.7624 25.626 33.6195 25.5724L33.3681 25.4651L33.2153 25.3969C33.0478 25.3189 32.89 25.236 32.7225 25.1483L32.3774 24.9387L32.1902 24.8119L32.0719 24.7291L31.7663 24.4999C31.7164 24.462 31.6687 24.4213 31.6234 24.3781C31.4911 24.2707 31.3645 24.1568 31.2438 24.0368C31.1896 23.9832 31.1305 23.9296 31.0812 23.8711L30.9186 23.7005L30.7658 23.525L30.6179 23.3447V23.3203C30.0996 22.6586 29.701 21.9131 29.4399 21.1169H43.2403L43.2354 21.0487ZM29.2428 17.4268V17.3537C29.2428 17.2513 29.2921 17.149 29.3167 17.0417C29.3414 16.9345 29.3759 16.837 29.4054 16.7395C29.4695 16.5396 29.5385 16.3398 29.6174 16.1497C29.6617 16.0522 29.7012 15.9547 29.7455 15.8621C29.7899 15.7694 29.8244 15.6914 29.8687 15.6086C29.8756 15.5907 29.8856 15.5742 29.8983 15.5598L30.0215 15.3259C30.1152 15.165 30.2187 15.0041 30.3222 14.8384L30.4158 14.7116C30.4454 14.6629 30.4799 14.619 30.5144 14.5703L30.5834 14.4825C30.6672 14.3753 30.751 14.2729 30.8446 14.1706C30.8798 14.1261 30.9176 14.0837 30.958 14.0438L31.0763 13.9171C31.1136 13.8729 31.1549 13.8322 31.1995 13.7952C31.2981 13.6977 31.3917 13.6051 31.4952 13.5174C31.5987 13.4296 31.6086 13.415 31.6726 13.3662C31.7131 13.3279 31.7559 13.2921 31.8008 13.259L32.0324 13.0835C32.1902 12.9714 32.3577 12.8593 32.5253 12.7618C32.6929 12.6643 32.8605 12.5717 33.0182 12.4839L33.2843 12.3572L33.5505 12.2402L33.8314 12.1378L34.0926 12.0501C34.275 11.9965 34.4574 11.9477 34.6397 11.9087L34.7777 11.8746L34.965 11.8405L35.1425 11.8112C35.2657 11.8112 35.384 11.7771 35.5072 11.7674H35.6895H36.0592C36.2677 11.7552 36.4767 11.7552 36.6851 11.7674C36.7557 11.7625 36.8265 11.7625 36.8971 11.7674H37.0992H37.1238H37.2914L37.4294 11.7917L37.5822 11.8161L37.7793 11.8551L38.0455 11.9185C38.3081 11.9843 38.5665 12.0657 38.8193 12.1622C39.4392 12.3919 40.0233 12.707 40.5542 13.0981L40.702 13.2054C40.8105 13.2931 40.9238 13.3809 41.0273 13.4784L41.1505 13.5856C41.3613 13.7753 41.5589 13.9789 41.742 14.1949C41.7913 14.2437 41.8307 14.2973 41.8751 14.346L41.9835 14.4874C42.6479 15.3497 43.1062 16.3497 43.3241 17.4122H29.2428V17.4268Z" fill="#4E5154"/>
</svg>
