<svg width="1068" height="201" viewBox="0 0 1068 201" fill="none" xmlns="http://www.w3.org/2000/svg">
<g opacity="0.2">
<path d="M30.0859 196.874V3.50338H99.2631C138.002 3.50338 155.158 28.6415 155.158 49.0835C155.158 72.2879 133.298 92.7299 107.564 93.0061V94.1111C124.167 94.9398 165.95 100.188 165.95 142.177C165.95 168.697 149.071 196.874 99.5398 196.874H30.0859ZM55.2664 184.719H95.3892C119.186 184.719 138.556 170.078 138.556 144.387C138.556 120.63 121.677 100.188 85.7044 100.188H55.2664V184.719ZM55.2664 88.0338H88.4715C110.608 88.0338 129.148 72.2879 129.148 50.741C129.148 33.6139 117.526 15.6581 89.0249 15.6581H55.2664V88.0338Z" fill="#C6D6E7"/>
<path d="M218.561 3.50338H343.634V18.6968H243.742V88.0338H329.521V100.741H243.742V181.68H343.634V196.874H218.561V3.50338Z" fill="#C6D6E7"/>
<path d="M367.586 147.979H386.402C387.233 160.409 393.597 188.034 440.084 188.034C469.138 188.034 488.231 177.26 488.231 153.503C488.231 96.0448 375.334 116.763 375.334 51.2934C375.334 17.868 404.665 0.188477 438.7 0.188477C471.352 0.188477 499.853 16.2106 504.28 43.8349H485.464C482.697 22.2879 463.881 12.3432 440.084 12.3432C411.306 12.3432 395.534 26.9841 395.534 44.3874C395.534 91.3487 511.475 76.4316 511.475 145.216C511.475 178.642 484.081 200.188 441.467 200.188C399.684 200.188 368.97 179.47 367.586 147.979Z" fill="#C6D6E7"/>
<path d="M569.03 3.50338H694.102V18.6968H594.211V88.0338H679.99V100.741H594.211V181.68H694.102V196.874H569.03V3.50338Z" fill="#C6D6E7"/>
<path d="M866.094 196.874H741.022V3.50338H766.202V181.68H866.094V196.874Z" fill="#C6D6E7"/>
<path d="M913.014 3.50338H1038.09V18.6968H938.194V88.0338H1023.97V100.741H938.194V196.874H913.014V3.50338Z" fill="#C6D6E7"/>
</g>
</svg>
