<svg width="70" height="25" viewBox="0 0 70 25" fill="none" xmlns="http://www.w3.org/2000/svg">
<g id="logo2 (2) 3" clip-path="url(#clip0_1503_7284)">
<path id="Vector" d="M12 2C12.5523 2 13 1.55228 13 1C13 0.447715 12.5523 0 12 0C11.4477 0 11 0.447715 11 1C11 1.55228 11.4477 2 12 2Z" fill="#33AD43"/>
<path id="Vector_2" d="M31.1232 14.861H29L31.8717 0L36.6222 10.7363L41.4184 0L44 14.861H41.8767L40.4867 6.5345L36.5153 15L32.5743 6.51904L31.1232 14.861Z" fill="white"/>
<path id="Vector_3" d="M45 0.140333H47.368L51.144 9.48026L55 0L58.728 9.48026L62.632 0.155925H65L58.6 15L54.872 5.11433L51.096 15L45 0.140333Z" fill="white"/>
<path id="Vector_4" d="M68 0H70V15H68V0Z" fill="white"/>
<path id="Vector_5" fill-rule="evenodd" clip-rule="evenodd" d="M30.5389 23C31.0518 23 31.3938 22.7888 31.5026 22.6198V22.9578H32V19H31.5026V20.3522C31.316 20.1831 31.0207 20.0705 30.5699 20.0705C29.715 20.0705 29 20.6761 29 21.5493C29 22.4507 29.6373 23 30.5389 23ZM31.5026 20.8873V22.0281C31.3782 22.2536 31.0674 22.5634 30.601 22.5634C29.9792 22.5634 29.5285 22.1831 29.5285 21.5353C29.5285 20.9014 30.0414 20.493 30.6321 20.493C31.0363 20.493 31.316 20.6338 31.5026 20.8873Z" fill="white"/>
<path id="Vector_6" fill-rule="evenodd" clip-rule="evenodd" d="M34 19.2667C34 19.1123 33.7805 19 33.5122 19C33.2195 19 33 19.1123 33 19.2667C33 19.435 33.2195 19.5474 33.5122 19.5474C33.7805 19.5474 34 19.435 34 19.2667ZM33.8781 20.1789H33.0975V23H33.8781V20.1789Z" fill="white"/>
<path id="Vector_7" fill-rule="evenodd" clip-rule="evenodd" d="M35.601 24C36.3938 24 37 23.6084 37 22.6573V20.056H36.487V20.3077C36.3471 20.1539 36.0207 20 35.5544 20C34.6995 20 34 20.5455 34 21.4545C34 22.3636 34.6218 22.9091 35.5544 22.9091C36.0829 22.9091 36.3005 22.7692 36.5026 22.5594V22.7273C36.5026 23.2447 36.1917 23.5524 35.5855 23.5524C35.0881 23.5524 34.7928 23.3426 34.6684 23.1329L34.2177 23.3147C34.3886 23.7342 34.9171 24 35.601 24ZM36.5026 20.8391V21.972C36.3938 22.2377 36.0829 22.5034 35.6321 22.4895C34.9638 22.4895 34.5285 22.1118 34.5285 21.4685C34.5285 20.7972 35.0415 20.4336 35.6321 20.4336C36.0518 20.4336 36.3627 20.6154 36.5026 20.8391Z" fill="white"/>
<path id="Vector_8" fill-rule="evenodd" clip-rule="evenodd" d="M39 19.2667C39 19.1123 38.7805 19 38.5122 19C38.2195 19 38 19.1123 38 19.2667C38 19.435 38.2195 19.5474 38.5122 19.5474C38.7805 19.5474 39 19.435 39 19.2667ZM38.8781 20.1789H38.0976V23H38.8781V20.1789Z" fill="white"/>
<path id="Vector_9" d="M39 20.8032H39.7875V20H40.3876V20.8032H41.6813V21.2913H40.3876V22.6772C40.3876 23.3071 40.5938 23.5118 41.0438 23.5118C41.3065 23.5118 41.5127 23.4173 41.719 23.2913L42 23.6693C41.7752 23.874 41.4003 24 40.9313 24C40.2 24 39.7875 23.5905 39.7875 22.8032V21.2913H39V20.8032Z" fill="white"/>
<path id="Vector_10" fill-rule="evenodd" clip-rule="evenodd" d="M43.5943 20C43.0974 20 42.5487 20.1731 42.223 20.4183L42.4973 20.7645C42.8231 20.5626 43.1314 20.4471 43.5259 20.4471C44.2458 20.4471 44.4513 20.7933 44.4513 21.3125C44.2802 21.2693 43.903 21.2259 43.6457 21.2259C42.6515 21.2259 42 21.4856 42 22.1202C42 22.6538 42.4973 23 43.2516 23C43.8517 23 44.2458 22.7836 44.4513 22.5384V22.9711H45V21.1683C45 20.4327 44.5201 20 43.5943 20ZM44.4513 21.7308V22.0192C44.3315 22.25 43.9544 22.5817 43.3713 22.5817C42.9084 22.5817 42.5831 22.4086 42.5831 22.1058C42.5831 21.7596 43.0116 21.6442 43.7145 21.6442C43.9884 21.6442 44.2802 21.6874 44.4513 21.7308Z" fill="white"/>
<path id="Vector_11" d="M46 19H47V23H46V19Z" fill="white"/>
<path id="Vector_12" fill-rule="evenodd" clip-rule="evenodd" d="M50.5943 20C50.0974 20 49.5487 20.1731 49.223 20.4183L49.4973 20.7645C49.8231 20.5626 50.1314 20.4471 50.5259 20.4471C51.2458 20.4471 51.4513 20.7933 51.4513 21.3125C51.2802 21.2693 50.903 21.2259 50.6457 21.2259C49.6515 21.2259 49 21.4856 49 22.1202C49 22.6538 49.4973 23 50.2516 23C50.8517 23 51.2458 22.7836 51.4513 22.5384V22.9711H52V21.1683C52 20.4327 51.5201 20 50.5943 20ZM51.4513 21.7308V22.0192C51.3315 22.25 50.9544 22.5817 50.3713 22.5817C49.9088 22.5817 49.5831 22.4086 49.5831 22.1058C49.5831 21.7596 50.0116 21.6442 50.7145 21.6442C50.9888 21.6442 51.2802 21.6874 51.4513 21.7308Z" fill="white"/>
<path id="Vector_13" fill-rule="evenodd" clip-rule="evenodd" d="M53.6013 24C54.3938 24 55 23.6084 55 22.6573V20.056H54.487V20.3077C54.3472 20.1539 54.0211 20 53.5547 20C52.6998 20 52 20.5455 52 21.4545C52 22.3636 52.622 22.9091 53.5547 22.9091C54.0831 22.9091 54.3006 22.7692 54.5028 22.5594V22.7273C54.5028 23.2447 54.1921 23.5524 53.5855 23.5524C53.0883 23.5524 52.7929 23.3426 52.6686 23.1329L52.2176 23.3147C52.3886 23.7342 52.9173 24 53.6013 24ZM54.487 20.8391V21.972C54.3938 22.2377 54.0831 22.5034 53.6167 22.4895C52.9481 22.4895 52.513 22.1118 52.513 21.4685C52.513 20.7972 53.0259 20.4336 53.6167 20.4336C54.0365 20.4336 54.3472 20.6154 54.487 20.8391Z" fill="white"/>
<path id="Vector_14" fill-rule="evenodd" clip-rule="evenodd" d="M57.6462 23C58.1539 23 58.5846 22.799 58.8769 22.3971L58.5537 22.1244C58.3692 22.3684 58.0307 22.555 57.6614 22.555C57.0306 22.555 56.569 22.2392 56.5386 21.6506H58.9691C59 21.5215 59 21.4067 59 21.3062C59 20.5024 58.3844 20 57.5692 20C56.5386 20 56 20.6603 56 21.5072C56 22.4115 56.6617 23 57.6462 23ZM58.4771 21.2345H56.5229C56.5999 20.7608 56.9693 20.4163 57.5383 20.4307C58.0925 20.4307 58.4462 20.7178 58.4771 21.2345Z" fill="white"/>
<path id="Vector_15" d="M60 20.0585H60.5276V20.439C60.7419 20.1463 61.187 20 61.6648 20C62.5218 20 63 20.3951 63 21.3317V23H62.4724V21.3902C62.4724 20.7463 62.1592 20.4537 61.5002 20.4537C61.0882 20.4537 60.7089 20.6878 60.5276 21.0536V23H60V20.0585Z" fill="white"/>
<path id="Vector_16" d="M66 22.3541C65.7633 22.7703 65.1949 23 64.6895 23C63.6791 23 63 22.4115 63 21.5072C63 20.6603 63.6631 20 64.6578 20C65.2262 20 65.7317 20.2297 65.937 20.5885L65.5423 20.8325C65.3213 20.5598 65.0525 20.445 64.6578 20.445C64.0104 20.445 63.5211 20.89 63.5211 21.5072C63.5211 22.1388 63.9948 22.5694 64.7212 22.5694C65.0999 22.5694 65.416 22.3971 65.6053 22.1244L66 22.3541Z" fill="white"/>
<path id="Vector_17" d="M66.6439 23.5177C66.6877 23.5319 66.7171 23.5461 66.761 23.5461C66.9803 23.5461 67.1268 23.4043 67.3316 22.9503L67.4193 22.7376L66 20H66.5561L67.6535 22.156L68.4877 20H69L67.8877 22.8085C67.4926 23.7731 67.1851 24 66.7755 24C66.6584 24 66.5413 23.9716 66.4535 23.9291L66.6439 23.5177Z" fill="white"/>
<path id="Vector_18" d="M19.6288 15.3403H23.1875L24 14.0079H18.6863L16.3625 20.3208L14.8838 17.7196L12.365 22.2084V3H11V25H12.365L14.8838 20.305L16.4438 23.4931L16.8175 22.5256L17.1425 21.7008" fill="white"/>
<path id="Vector_19" d="M4.37124 12.6597H0.796249L0 13.9921H5.31376L7.63749 7.6633L9.10002 10.2805L11.6188 5.79166V25H13V3H11.6188L9.11624 7.69501L7.55625 4.50685L7.18249 5.47442H7.16627L6.85749 6.28336V6.2992" fill="white"/>
</g>
<defs>
<clipPath id="clip0_1503_7284">
<rect width="70" height="25" fill="white"/>
</clipPath>
</defs>
</svg>
