<svg width="4" height="7" viewBox="0 0 4 7" fill="none" xmlns="http://www.w3.org/2000/svg">
<path id="Vector" d="M0.186209 0.196422C0.0669431 0.320837 0 0.489138 0 0.664567C0 0.839995 0.0669431 1.0083 0.186209 1.13271L2.45305 3.5166L0.186209 5.86729C0.0669431 5.9917 0 6.16001 0 6.33543C0 6.51086 0.0669431 6.67916 0.186209 6.80358C0.245738 6.86582 0.316561 6.91522 0.394593 6.94893C0.472626 6.98264 0.556323 7 0.640857 7C0.72539 7 0.809088 6.98264 0.88712 6.94893C0.965153 6.91522 1.03598 6.86582 1.0955 6.80358L3.81059 3.98807C3.8706 3.92634 3.91824 3.85289 3.95075 3.77197C3.98326 3.69106 4 3.60426 4 3.5166C4 3.42894 3.98326 3.34215 3.95075 3.26123C3.91824 3.18031 3.8706 3.10687 3.81059 3.04514L1.0955 0.196422C1.03598 0.134182 0.965153 0.0847821 0.88712 0.0510697C0.809088 0.0173578 0.72539 0 0.640857 0C0.556323 0 0.472626 0.0173578 0.394593 0.0510697C0.316561 0.0847821 0.245738 0.134182 0.186209 0.196422Z" fill="#4E5154"/>
</svg>
