<svg width="16" height="16" viewBox="0 0 16 16" fill="none" xmlns="http://www.w3.org/2000/svg">
<path d="M9.42474 0.756714C12.7645 0.756714 15.4763 3.46802 15.4763 6.8083" stroke="#4E5154" stroke-miterlimit="1.5" stroke-linecap="round" stroke-linejoin="round"/>
<path d="M9.54425 3.92926C11.0037 3.92926 12.1887 5.11407 12.1887 6.57373" stroke="#4E5154" stroke-miterlimit="1.5" stroke-linecap="round" stroke-linejoin="round"/>
<path fill-rule="evenodd" clip-rule="evenodd" d="M4.12389 0.500092C5.23344 0.500092 6.20881 1.23305 6.51832 2.29734C6.66459 2.80322 6.81651 3.32607 6.93612 3.73821C7.07026 4.19964 6.88117 4.69501 6.47388 4.94956C6.03023 5.22675 5.53565 5.53625 5.53565 5.53625C6.60236 7.90726 8.16608 9.49844 10.2575 10.2581C10.2575 10.2581 10.567 9.76431 10.8442 9.31985C11.0987 8.91256 11.5941 8.72346 12.0555 8.8576C12.4677 8.9772 12.9905 9.12913 13.4964 9.2754C14.5607 9.5849 15.2936 10.5603 15.2936 11.6698C15.2936 12.1911 15.2936 12.76 15.2936 13.2885C15.2936 13.8332 15.0601 14.3512 14.6512 14.7116C14.2431 15.072 13.6992 15.2393 13.1594 15.1714C9.93262 14.6744 7.03793 13.1624 4.83501 10.9587C2.63129 8.75579 1.11931 5.86111 0.652221 2.63108C0.585147 2.09934 0.75 1.56438 1.10476 1.16194C1.45872 0.760304 1.96945 0.52918 2.50523 0.52918C3.03454 0.500088 3.60266 0.500092 4.12389 0.500092Z" stroke="#4E5154" stroke-miterlimit="1.5" stroke-linecap="round" stroke-linejoin="round"/>
</svg>
