<svg width="15" height="16" viewBox="0 0 15 16" fill="none" xmlns="http://www.w3.org/2000/svg">
<path d="M7.42488 7.85479C5.78725 7.85479 4.21663 8.53305 3.05869 9.74003C1.90075 10.9462 1.25027 12.6851 1.25027 14.3922C1.25027 14.8433 1.58532 15.2094 1.99881 15.2094H12.8501C13.2636 15.2094 13.5987 14.8433 13.5987 14.3922C13.5987 12.6851 12.9482 10.9462 11.7902 9.74003C10.6323 8.53305 9.06169 7.85479 7.42488 7.85479ZM7.42488 7.85479C8.36055 7.85479 9.25781 7.46745 9.91973 6.77775C10.5808 6.08805 10.9526 5.15238 10.9526 4.17749C10.9526 3.20259 10.5808 2.26692 9.91973 1.57723C9.25781 0.887526 8.36055 0.500183 7.42488 0.500183C6.48839 0.500183 5.59113 0.887526 4.93003 1.57723C4.26812 2.26692 3.8963 3.20259 3.8963 4.17749C3.8963 5.15238 4.26812 6.08805 4.93003 6.77775C5.59113 7.46745 6.48839 7.85479 7.42488 7.85479Z" stroke="#4E5154" stroke-linecap="round" stroke-linejoin="round"/>
</svg>
