<svg width="28" height="26" viewBox="0 0 28 26" fill="none" xmlns="http://www.w3.org/2000/svg">
<path d="M13.2286 21.0472L13.712 20.7904L14.1888 21.0593L21.0211 24.9117C21.0576 24.9155 21.0894 24.9161 21.1169 24.9147L19.6901 16.7468L19.599 16.2254L19.9789 15.8569L25.9139 10.1001L17.871 8.88265L17.3581 8.805L17.1262 8.34092L13.483 1.05028L9.86588 8.33848L9.63434 8.805L9.11935 8.88272L1.05175 10.1002L6.9866 15.8569L7.36651 16.2254L7.27544 16.7468L5.85411 24.8833C5.85918 24.9108 5.8681 24.9314 5.87992 24.9503L13.2286 21.0472ZM26.0846 10.126L26.0843 10.1259L26.093 10.0699L26.0958 10.0514L26.0965 10.0473L26.237 9.13767L26.0988 10.0505L26.0987 10.0514L26.0963 10.0669L26.0873 10.1264L26.0846 10.126Z" fill="#94BADF" stroke="#94BADF" stroke-width="2"/>
</svg>
