<svg width="8" height="15" viewBox="0 0 8 15" fill="none" xmlns="http://www.w3.org/2000/svg">
<path id="Vector" d="M0.744959 14.8732C0.574516 15.0423 0.298211 15.0423 0.127768 14.8732C-0.0425887 14.7042 -0.0425887 14.4303 0.127768 14.2613L0.744959 14.8732ZM7.56364 7.5L7.87219 7.19401C7.95402 7.27518 8 7.38525 8 7.5C8 7.61475 7.95402 7.72483 7.87219 7.80592L7.56364 7.5ZM0.127768 0.738652C-0.0425887 0.569669 -0.0425887 0.295706 0.127768 0.126731C0.298211 -0.0422437 0.574516 -0.0422437 0.744959 0.126731L0.127768 0.738652ZM0.127768 14.2613L7.25508 7.19401L7.87219 7.80592L0.744959 14.8732L0.127768 14.2613ZM7.25508 7.80592L0.127768 0.738652L0.744959 0.126731L7.87219 7.19401L7.25508 7.80592Z" fill="white"/>
</svg>
