<svg width="255" height="222" viewBox="0 0 255 222" fill="none" xmlns="http://www.w3.org/2000/svg">
<path d="M125.596 50.3675C124.164 93.8417 122.733 137.323 121.301 180.811C121.285 181.138 121.399 181.458 121.618 181.7C121.837 181.943 122.144 182.089 122.471 182.105C122.797 182.121 123.117 182.007 123.36 181.788C123.602 181.569 123.748 181.262 123.764 180.935C125.203 137.447 126.638 93.9663 128.069 50.4921C128.056 50.1825 127.928 49.8889 127.71 49.6689C127.491 49.4489 127.199 49.3184 126.889 49.3028C126.58 49.2872 126.276 49.3877 126.036 49.5846C125.797 49.7816 125.64 50.0608 125.596 50.3675Z" fill="#4E5154"/>
<path d="M133.042 53.4031L140.176 44.9513L205.313 48.2323L216.434 61.6187L220.163 64.5099C220.163 64.5099 206.481 128.012 214.978 167.449L197.469 183.689L129.438 166.495L133.042 53.4031Z" fill="#C6D6E7"/>
<path d="M11.3223 59.6679L29.7389 60.5955L87.531 46.3047L103.85 47.1268C103.85 47.1268 94.3034 154.963 100.544 175.783L28.3536 188.087L4.65925 177.041C4.65925 177.041 17.8311 122.074 11.3223 59.6679Z" fill="#C6D6E7"/>
<path d="M217.004 55.9165C211.06 101.89 207.235 148.064 205.529 194.437C205.512 194.764 205.626 195.084 205.845 195.326C206.065 195.569 206.371 195.715 206.698 195.731C207.025 195.747 207.344 195.633 207.587 195.414C207.83 195.195 207.975 194.888 207.992 194.561C209.703 148.231 213.528 102.058 219.467 56.0406C219.676 54.4621 217.212 54.3487 217.004 55.9165Z" fill="#4E5154"/>
<path d="M230.078 58.2614C222.89 99.2919 220.744 141.047 223.686 182.598C223.801 184.161 226.263 184.306 226.15 182.722C223.207 141.171 225.353 99.4159 232.541 58.3855C232.813 56.8317 230.349 56.7183 230.078 58.2614Z" fill="#4E5154"/>
<path d="M207.583 195.411C212.926 190.639 218.963 186.708 225.488 183.751C226.948 183.116 225.802 180.922 224.354 181.547C217.638 184.593 211.425 188.642 205.926 193.556C204.737 194.57 206.393 196.435 207.584 195.389L207.583 195.411Z" fill="#4E5154"/>
<path d="M122.451 182.104C138 183.961 153.669 185.362 168.921 189.051C181.894 192.184 193.344 197.421 207.001 195.704C208.578 195.504 208.034 193.093 206.467 193.293C191.546 195.172 178.01 188.306 163.696 185.363C150.129 182.532 136.322 181.257 122.575 179.631C120.995 179.454 120.882 181.918 122.451 182.104Z" fill="#4E5154"/>
<path d="M127.406 51.5217C134.068 48.6364 143.907 51.1075 150.945 51.6338L173.314 53.2222C188.29 54.3093 203.188 55.4677 218.098 56.7877C219.68 56.9318 219.804 54.4581 218.222 54.3247C201.891 52.8686 185.538 51.6047 169.181 50.448L145.73 48.7944C139.364 48.3557 132.325 46.7879 126.258 49.3703C124.799 49.984 125.945 52.1782 127.403 51.5753L127.406 51.5217Z" fill="#4E5154"/>
<path d="M217.487 56.5533C219.486 57.792 221.265 59.3524 223.264 60.5912C224.607 61.4211 225.967 59.3638 224.614 58.5119C222.615 57.2732 220.836 55.7127 218.837 54.474C217.494 53.6441 216.134 55.7121 217.487 56.5533Z" fill="#4E5154"/>
<path d="M224.198 60.7565C226.634 60.1384 229.146 60.1468 231.571 59.5281C231.891 59.4574 232.169 59.2626 232.345 58.9865C232.521 58.7105 232.58 58.3759 232.51 58.0562C232.439 57.7366 232.244 57.4582 231.968 57.2822C231.692 57.1062 231.357 57.0471 231.038 57.1178C228.612 57.7365 226.089 57.7382 223.664 58.3461C222.131 58.7413 222.654 61.1511 224.198 60.7565Z" fill="#4E5154"/>
<path d="M153.533 55.2003C153.871 38.0393 151.841 7.57496 176.287 6.53019C203.734 5.35748 201.176 43.1383 196.546 60.4589C196.136 61.995 198.48 62.768 198.89 61.2319C203.892 42.5022 206.063 6.01162 178.752 4.0562C168.728 3.33659 159.669 9.25761 155.493 18.2053C150.205 29.3945 151.353 43.0552 151.123 55.0789C151.097 56.6666 153.56 56.7906 153.586 55.203L153.533 55.2003Z" fill="#4E5154"/>
<path d="M162.997 50.4051C164.048 34.2248 166.857 10.4245 186.891 7.23566C196.307 5.73448 203.931 12.324 207.369 20.5816C211.564 30.6488 209.214 42.1471 207.142 52.371C206.828 53.9119 209.172 54.6957 209.487 53.144C211.716 42.1335 214.056 30.216 209.563 19.4467C206.172 11.3096 198.91 4.57723 189.724 4.49031C166.26 4.38205 161.683 32.5918 160.524 50.259C160.537 50.5687 160.666 50.8622 160.884 51.0822C161.102 51.3022 161.395 51.4328 161.704 51.4484C162.014 51.464 162.318 51.3635 162.557 51.1665C162.797 50.9696 162.954 50.6904 162.998 50.3836L162.997 50.4051Z" fill="#4E5154"/>
<path d="M143.618 180.035C143.635 179.703 147.608 179.689 151.979 180.317C155.641 180.813 159.26 181.595 162.801 182.655C166.24 183.75 169.589 185.111 172.817 186.724C176.673 188.614 179.838 190.782 179.674 191.063C179.509 191.345 176.104 189.681 172.177 188.141C168.25 186.601 163.868 185.135 162.186 184.642C160.503 184.15 155.958 182.729 151.708 181.849C147.458 180.97 143.601 180.389 143.618 180.035Z" fill="#4E5154"/>
<path d="M212.944 184.633C213.156 184.912 212.333 185.891 211.515 186.999C210.697 188.106 209.852 189.33 209.528 189.786C209.205 190.243 208.374 191.392 207.588 192.502C206.802 193.611 206.19 194.664 205.863 194.562C205.535 194.46 205.707 193.169 206.205 191.82C206.608 190.679 207.157 189.595 207.838 188.596C208.574 187.599 209.435 186.7 210.399 185.922C211.542 184.971 212.733 184.344 212.944 184.633Z" fill="#4E5154"/>
<path d="M215.976 181.801C215.775 181.534 216.469 180.753 217.55 180.184C218.441 179.736 219.416 179.478 220.412 179.427C221.392 179.446 222.357 179.67 223.245 180.085C224.295 180.567 224.996 181.343 224.81 181.624C224.625 181.904 223.735 181.666 222.794 181.576C221.212 181.463 219.622 181.491 218.045 181.659C217.072 181.782 216.176 182.091 215.976 181.801Z" fill="#4E5154"/>
<path d="M214.229 173.017C214.058 173.009 213.813 170.398 213.558 166.295C213.303 162.191 213.123 156.61 213.096 150.758C212.936 139.015 213.587 126.089 213.912 121.328C214.086 118.942 214.422 114.622 214.928 109.472C215.435 104.323 216.142 98.3678 216.975 92.7195C217.807 87.0712 218.687 81.7474 219.432 77.8126C220.178 73.8777 220.773 71.4384 220.945 71.447C221.116 71.4556 220.816 74.0065 220.328 77.9436C219.839 81.8807 219.141 87.2244 218.502 92.8824C217.862 98.5404 217.305 104.482 216.854 109.612C216.402 114.743 216.141 119.067 215.971 121.378C215.647 126.118 214.827 138.981 214.635 150.685C214.49 156.54 214.49 162.09 214.444 166.189C214.399 170.288 214.401 173.004 214.229 173.017Z" fill="#4E5154"/>
<path d="M212.828 68.9229C212.512 68.7889 212.829 67.3985 213.217 65.8827C213.605 64.3669 214.053 62.7039 214.244 62.123C214.434 61.5421 215.005 60.0141 215.551 58.5493C216.097 57.0845 216.631 55.866 216.971 55.9368C217.311 56.0076 217.272 57.4121 217.056 58.9472C216.87 60.2365 216.59 61.5106 216.219 62.7594C215.79 64.0172 215.273 65.2432 214.671 66.4283C213.944 67.8626 213.143 69.0569 212.828 68.9229Z" fill="#4E5154"/>
<path d="M154.185 112.178C153.828 112.225 153.175 109.207 152.038 105.993C151.12 103.313 150.033 100.695 148.782 98.1528C147.62 95.6519 146.308 93.2232 144.854 90.8797C143.117 88.0652 141.249 85.7273 141.508 85.4826C141.767 85.238 144.037 87.2742 146.122 90.0096C147.893 92.2721 149.429 94.7093 150.705 97.2834C151.951 99.9487 152.918 102.735 153.593 105.599C154.368 108.977 154.509 112.13 154.185 112.178Z" fill="#4E5154"/>
<path d="M155.648 105.552C155.3 105.642 154.52 103.649 153.566 101.497C152.611 99.3442 151.483 97.0113 151.076 96.1533C150.668 95.2954 149.613 93.0091 148.567 90.9702C147.521 88.9313 146.539 87.1103 146.818 86.8989C147.097 86.6875 148.544 88.2313 149.874 90.1664C151.026 91.7791 152.046 93.4821 152.924 95.2587C153.765 97.1053 154.462 99.0141 155.009 100.968C155.686 103.31 155.974 105.472 155.648 105.552Z" fill="#4E5154"/>
<path d="M172.203 179.672C172.532 179.527 173.642 181.365 175.185 183.139C176.427 184.619 177.795 185.988 179.273 187.232C180.698 188.486 182.224 189.618 183.837 190.618C185.762 191.842 187.675 192.647 187.574 192.954C187.473 193.26 185.341 192.949 183.126 191.957C181.245 191.149 179.491 190.073 177.918 188.763C176.344 187.383 174.978 185.78 173.864 184.007C172.572 181.945 171.949 179.809 172.203 179.672Z" fill="#4E5154"/>
<path d="M152.152 54.3142C152.138 54.582 151.702 54.721 151.352 55.0577C150.925 55.4239 150.635 55.924 150.529 56.4764C150.478 56.6639 150.488 56.8627 150.558 57.0439C150.629 57.2251 150.755 57.3792 150.918 57.4837C151.157 57.6238 151.425 57.7071 151.701 57.7271C151.964 57.7618 152.232 57.7424 152.487 57.6701C152.664 57.6007 152.816 57.479 152.921 57.3213C153.027 57.1635 153.082 56.9772 153.079 56.7873C153.113 56.2439 152.975 55.7036 152.685 55.2429C152.448 54.8337 152.117 54.5809 152.152 54.3142C152.187 54.0476 152.68 53.8362 153.461 54.1225C153.942 54.3347 154.367 54.6571 154.701 55.0637C155.034 55.4703 155.268 55.9496 155.382 56.4631C155.539 57.1159 155.504 57.7999 155.283 58.4336C155.063 59.1077 154.635 59.6948 154.061 60.1113C153.267 60.673 152.296 60.9256 151.33 60.8219C150.358 60.7117 149.459 60.2547 148.797 59.5348C148.31 58.9941 148.007 58.3139 147.928 57.5908C147.865 56.8953 148.008 56.1965 148.341 55.5824C148.589 55.1013 148.947 54.6858 149.387 54.3701C149.826 54.0545 150.334 53.8476 150.87 53.7665C151.764 53.6935 152.206 54.0808 152.152 54.3142Z" fill="#4E5154"/>
<path d="M196.55 59.2889C196.562 59.0533 197.122 58.7917 197.999 59.0827C198.543 59.2934 199.031 59.625 199.428 60.0523C199.825 60.4796 200.12 60.9915 200.29 61.5494C200.526 62.2702 200.539 63.0453 200.328 63.7737C200.105 64.5432 199.624 65.2126 198.966 65.6698C198.071 66.2832 196.975 66.5279 195.904 66.3531C195.372 66.2631 194.864 66.0682 194.409 65.7798C193.953 65.4915 193.56 65.1154 193.251 64.6734C192.782 63.9948 192.587 63.1647 192.702 62.3482C192.79 61.865 192.978 61.4056 193.255 61.0001C193.532 60.5945 193.891 60.2518 194.309 59.9943C194.727 59.7368 195.195 59.5703 195.682 59.5056C196.168 59.441 196.663 59.4796 197.134 59.619C198.049 60.0086 198.155 60.6796 197.998 60.8005C197.842 60.9215 197.364 60.8222 196.916 60.9608C196.339 61.1015 195.84 61.4614 195.524 61.9642C195.205 62.5387 195.398 62.7524 195.603 62.9559C195.847 63.1291 196.128 63.2426 196.423 63.2872C196.748 63.3427 197.08 63.3189 197.393 63.2179C197.608 63.1207 197.785 62.9553 197.896 62.7474C198.008 62.5395 198.047 62.3007 198.009 62.068C197.98 61.4026 197.729 60.7663 197.295 60.2605C196.932 59.7913 196.526 59.5561 196.55 59.2889Z" fill="#4E5154"/>
<path d="M184.729 59.7991C184.605 60.1256 182.33 59.4742 179.79 58.9491C177.251 58.4239 174.472 57.9618 173.406 57.8115C172.34 57.6612 169.636 57.2029 167.124 56.9691C164.613 56.7352 162.343 56.6101 162.318 56.2546C162.293 55.899 164.579 55.4881 167.17 55.4253C169.36 55.345 171.553 55.4555 173.724 55.7555C175.93 56.1313 178.1 56.6968 180.209 57.4456C182.754 58.2931 184.863 59.473 184.729 59.7991Z" fill="#4E5154"/>
<path d="M221.78 67.2054C221.477 67.0291 221.695 66.1274 221.884 65.1385C222.073 64.1496 222.266 63.1071 222.35 62.7141C222.434 62.3211 222.648 61.4837 222.929 60.3813C223.17 59.4379 223.354 58.5453 223.699 58.5198C224.044 58.4942 224.374 59.4019 224.481 60.4702C224.565 61.3681 224.519 62.2733 224.346 63.1582C224.115 64.0514 223.762 64.9081 223.294 65.7034C222.741 66.6633 222.072 67.3704 221.78 67.2054Z" fill="#4E5154"/>
<path d="M6.71324 46.2696C7.22066 90.3353 5.86914 134.361 2.65869 178.347C2.64224 178.673 2.75621 178.993 2.97553 179.236C3.19486 179.478 3.50157 179.624 3.8282 179.64C4.15482 179.657 4.47461 179.543 4.7172 179.323C4.95979 179.104 5.10533 178.797 5.12178 178.471C8.33008 134.528 9.6816 90.5022 9.17633 46.3936C9.15924 44.8146 6.68598 44.6792 6.71324 46.2696Z" fill="#4E5154"/>
<path d="M26.2814 48.0922L24.9854 192.333C24.9703 193.91 27.4436 194.046 27.4592 192.458C27.8839 144.381 28.3123 96.3001 28.7445 48.2163C28.7595 46.6388 26.297 46.504 26.2814 48.0922Z" fill="#4E5154"/>
<path d="M3.21683 179.448C10.111 184.96 17.818 189.256 25.2913 193.927C26.634 194.767 27.9836 192.699 26.6415 191.848C19.1681 187.177 11.4612 182.88 4.56695 177.369C3.31808 176.372 1.97867 178.452 3.21683 179.448Z" fill="#4E5154"/>
<path d="M7.91904 47.3389C14.4747 47.1572 21.0334 47.5666 27.5155 48.5622C29.0806 48.8235 29.1939 46.3599 27.6396 46.0991C21.1574 45.1035 14.5987 44.6941 8.0431 44.8759C6.46347 44.9036 6.31799 47.3656 7.91904 47.3389Z" fill="#4E5154"/>
<path d="M27.8291 48.5249C57.1748 44.9423 86.7765 43.9187 116.3 45.4658C116.626 45.4822 116.946 45.3682 117.189 45.1489C117.431 44.9296 117.577 44.6229 117.593 44.2962C117.61 43.9696 117.496 43.6498 117.276 43.4072C117.057 43.1646 116.75 43.0191 116.424 43.0027C86.6814 41.4709 56.8622 42.5302 27.3036 46.1686C25.7373 46.3582 26.2708 48.7685 27.8478 48.5795L27.8291 48.5249Z" fill="#4E5154"/>
<path d="M115.128 44.1503C113.962 67.314 112.87 90.4816 111.778 113.649C111.245 125.074 110.693 136.47 110.12 147.836C109.581 158.545 108.524 169.303 110.913 179.848C110.984 180.168 111.178 180.446 111.455 180.622C111.731 180.798 112.065 180.857 112.385 180.787C112.704 180.716 112.983 180.521 113.159 180.245C113.335 179.969 113.394 179.634 113.323 179.315C110.758 167.998 112.167 156.238 112.744 144.768C113.301 133.717 113.836 122.671 114.349 111.631C115.401 89.2563 116.448 66.7629 117.581 44.2738C117.597 43.9472 117.483 43.6274 117.264 43.3848C117.045 43.1422 116.738 42.9967 116.411 42.9802C116.085 42.9638 115.765 43.0778 115.522 43.2971C115.28 43.5164 115.134 43.8231 115.118 44.1498L115.128 44.1503Z" fill="#4E5154"/>
<path d="M25.9057 194.119C54.9068 191.725 83.841 186.397 112.391 180.814C113.941 180.516 113.408 178.106 111.847 178.403C98.119 181.093 84.2662 183.284 70.4937 185.8C55.7782 188.495 40.9569 190.446 26.0298 191.656C24.4662 191.792 24.3207 194.254 25.9057 194.119Z" fill="#4E5154"/>
<path d="M8.21573 47.3545C15.9407 46.3909 23.2864 44.4311 31.1001 43.837C38.9138 43.2428 46.7124 42.9485 54.5324 42.87C68.8968 42.6702 83.4458 42.8555 97.6857 44.9148C99.2631 45.1445 99.3765 42.6809 97.8098 42.4517C83.0264 40.3114 67.8632 40.1703 52.9697 40.4293C45.222 40.5651 37.4652 40.883 29.7361 41.5029C22.1901 42.1106 15.1063 43.9869 7.68115 44.9656C6.1036 45.1653 6.64781 47.5762 8.21465 47.376L8.21573 47.3545Z" fill="#4E5154"/>
<path d="M54.655 55.1692C53.5381 46.2233 52.4557 36.8068 53.4882 27.8188C54.5691 18.2965 60.0049 7.14698 70.9982 6.73444C82.4219 6.30065 86.3304 18.8657 86.8341 28.0491C87.2979 36.5326 87.0479 45.1198 87.0384 53.6224C87.034 55.2004 89.5073 55.3357 89.5014 53.7465C89.4852 39.7885 94.0689 3.14036 70.7817 4.21126C61.8179 4.61865 55.0704 12.1807 52.5063 20.2433C48.9708 31.3919 50.8203 44.3364 52.2469 55.6599C52.4466 57.2374 54.8574 56.6932 54.6572 55.1263L54.655 55.1692Z" fill="#4E5154"/>
<path d="M44.7652 42.0233C44.3723 28.508 44.0443 7.52359 61.0553 3.80679C69.7396 1.91445 76.2927 8.8688 78.3942 16.5974C80.6219 24.8047 79.123 33.8873 78.531 42.2317C78.5145 42.5583 78.6285 42.8781 78.8478 43.1207C79.0671 43.3633 79.3738 43.5088 79.7005 43.5253C80.0271 43.5417 80.3469 43.4278 80.5895 43.2084C80.8321 42.9891 80.9776 42.6824 80.994 42.3558C81.6932 32.5244 83.6137 21.4662 79.402 12.1497C76.3593 5.41508 70.0036 0.295861 62.3291 1.11175C42.6409 3.20137 41.838 27.0276 42.3021 41.8992C42.3513 43.4799 44.8139 43.6147 44.7652 42.0233Z" fill="#4E5154"/>
<path d="M15.9963 176.807C15.979 177.149 14.7104 177.397 13.2817 177.625C11.853 177.854 10.2969 178.055 9.72552 178.101C9.15416 178.148 7.57291 178.207 6.21925 178.225C4.86559 178.243 3.53713 178.187 3.47943 177.84C3.42172 177.494 4.59402 177.027 6.01795 176.68C7.17845 176.379 8.35905 176.162 9.55064 176.031C10.777 175.963 12.0066 175.978 13.2309 176.077C14.6959 176.194 16.0028 176.463 15.9963 176.807Z" fill="#4E5154"/>
<path d="M18.8911 178.627C19.1487 178.415 20.4243 179.521 21.5729 181.017C22.5368 182.264 23.3617 183.612 24.0329 185.038C24.6383 186.438 25.0867 187.901 25.37 189.4C25.7088 191.199 25.6905 192.841 25.366 192.889C25.0415 192.937 24.5264 191.44 23.8668 189.829C23.2071 188.218 22.4437 186.536 22.1457 185.845C21.8477 185.154 21.0879 183.398 20.2661 181.81C19.4442 180.223 18.6217 178.861 18.8911 178.627Z" fill="#4E5154"/>
<path d="M16.5077 121.058C16.165 121.041 15.8224 113.347 15.7929 104.767C15.7634 96.1875 15.8323 86.7216 15.9326 83.2374C16.0329 79.7532 16.3785 70.5481 16.9267 62.2229C17.4749 53.8977 18.1282 46.4689 18.4709 46.4862C18.8136 46.5035 18.6502 54.0106 18.48 62.2904C18.3099 70.5702 18.08 79.8241 18.0022 83.288C17.9243 86.7518 17.6119 96.1518 17.349 104.781C17.0861 113.411 16.8509 121.065 16.5077 121.058Z" fill="#4E5154"/>
<path d="M102.153 140.821C102.499 140.763 103.412 144.599 104.508 148.841C105.604 153.084 106.863 157.721 107.335 159.43C107.807 161.14 108.974 165.686 110.132 169.77C111.289 173.855 112.371 177.527 112.043 177.651C111.715 177.774 110.13 174.28 108.658 170.255C107.186 166.229 105.782 161.703 105.321 159.973C104.861 158.243 103.714 153.515 102.98 149.119C102.246 144.723 101.828 140.869 102.153 140.821Z" fill="#4E5154"/>
<path d="M79.179 93.4977C79.4718 93.652 77.4167 98.0041 74.432 102.481C71.976 106.231 69.2305 109.783 66.2205 113.104C65.4823 113.905 64.111 115.339 62.3975 116.959C60.6839 118.58 58.6174 120.387 56.5623 121.969C52.4803 125.21 48.4543 127.552 48.2745 127.285C48.0947 127.018 51.7776 124.24 55.5593 120.781C57.4806 119.084 59.3902 117.194 61.0395 115.57C62.6888 113.946 63.9643 112.497 64.6917 111.696C67.6892 108.475 70.5149 105.098 73.1569 101.579C76.3739 97.3932 78.8658 93.3209 79.179 93.4977Z" fill="#4E5154"/>
<path d="M72.7685 99.692C72.9291 99.7001 72.8351 100.501 72.5407 101.656C72.1271 103.114 71.5631 104.525 70.8578 105.866C69.5377 108.415 67.8265 110.741 65.7865 112.761C64.9471 113.557 64.0599 114.301 63.1298 114.989C61.8008 115.953 60.3895 116.798 58.9121 117.514C57.6032 118.159 56.2321 118.669 54.8201 119.036C53.7341 119.282 52.9678 119.362 52.9116 119.198C52.8554 119.034 53.5072 118.67 54.5077 118.205C55.5081 117.74 56.8331 117.012 58.1646 116.156C59.4776 115.34 60.7352 114.439 61.9293 113.457C63.0488 112.548 63.8737 111.73 64.3472 111.282C66.2928 109.419 68.0248 107.346 69.5114 105.1C70.4275 103.75 71.1407 102.38 71.6958 101.377C72.251 100.374 72.5993 99.6405 72.7685 99.692Z" fill="#4E5154"/>
<path d="M31.5792 63.9803C31.261 64.1146 30.3106 62.5207 29.4921 60.6543C28.8032 59.0761 28.2285 57.4505 27.7723 55.7901C27.3791 54.1483 27.1043 52.4804 26.9501 50.7992C26.7715 48.804 26.8407 47.0038 27.1427 46.9761C27.4447 46.9484 27.9281 48.6476 28.4452 50.531C28.9623 52.4144 29.5216 54.5254 29.7205 55.2655C29.9195 56.0055 30.4054 58.0806 30.9021 60.1563C31.3988 62.2319 31.8973 63.846 31.5792 63.9803Z" fill="#4E5154"/>
<path d="M52.5476 54.8587C52.6096 55.1195 52.3594 55.3967 52.2211 55.7978C52.0388 56.222 51.9926 56.6923 52.0889 57.1439C52.2167 57.5905 52.4582 57.6993 52.6499 57.7304C52.8493 57.7807 53.0568 57.7911 53.2603 57.7611C53.4531 57.743 53.6412 57.6907 53.8156 57.6066C53.98 57.5397 54.1825 57.3567 54.195 56.8957C54.1711 56.4468 54.026 56.0128 53.7751 55.6398C53.5557 55.3067 53.2559 55.0769 53.2694 54.8091C53.2829 54.5414 53.6819 54.2931 54.3619 54.4347C54.8179 54.5544 55.2404 54.777 55.5971 55.0853C55.9537 55.3935 56.2351 55.7794 56.4196 56.2132C56.6572 56.7609 56.7455 57.3618 56.6754 57.9547C56.5832 58.5796 56.3154 59.1656 55.9032 59.6443C55.3286 60.2964 54.54 60.7218 53.6796 60.8438C52.8191 60.9658 51.9433 60.7764 51.2101 60.3097C50.6736 59.9739 50.2481 59.4873 49.9868 58.9107C49.7256 58.3342 49.6402 57.6934 49.7415 57.0686C49.8069 56.5928 49.9836 56.1391 50.2572 55.7444C50.5308 55.3497 50.8935 55.025 51.316 54.7967C52.0208 54.4456 52.5059 54.6204 52.5476 54.8587Z" fill="#4E5154"/>
<path d="M89.1468 53.0845C89.2647 52.8757 89.7809 52.8587 90.3906 53.3296C90.7668 53.6507 91.0703 54.0482 91.281 54.4957C91.4917 54.9432 91.6048 55.4304 91.6126 55.9249C91.6352 56.5556 91.4926 57.1813 91.1991 57.74C90.887 58.3265 90.4114 58.8098 89.83 59.1312C89.0354 59.5814 88.1074 59.7362 87.2097 59.5682C86.2982 59.4011 85.4814 58.9007 84.9185 58.1644C84.5226 57.6261 84.3042 56.9778 84.2936 56.3097C84.283 55.6415 84.4807 54.9866 84.8594 54.436C85.1406 54.0096 85.5243 53.6606 85.9752 53.4207C86.4262 53.1808 86.93 53.0578 87.4408 53.0629C88.2654 53.1045 88.5726 53.6138 88.4766 53.813C88.3807 54.0121 87.9876 54.1426 87.6738 54.406C87.3038 54.6941 87.0384 55.0956 86.9183 55.5489C86.8683 55.7239 86.8817 55.9108 86.9562 56.0769C87.0137 56.1705 87.0901 56.2511 87.1804 56.3137C87.3708 56.4277 87.5829 56.5005 87.8031 56.5275C88.0467 56.5979 88.3033 56.6108 88.5527 56.5653C88.7351 56.5133 88.9003 56.4138 89.0317 56.2771C89.1631 56.1404 89.2558 55.9712 89.3005 55.787C89.4605 55.2675 89.4698 54.7132 89.3274 54.1886C89.1921 53.6772 89.0064 53.3136 89.1468 53.0845Z" fill="#4E5154"/>
<path d="M68.9719 48.4498C68.9546 48.7925 67.8659 49.092 66.7761 49.4129C65.6863 49.7337 64.3593 50.0749 63.8816 50.1796C63.404 50.2844 62.1691 50.5014 61.0098 50.7114C59.8504 50.9214 58.7901 51.0827 58.6558 50.7646C58.5216 50.4465 59.4139 49.7828 60.515 49.237C62.3812 48.2398 64.4827 47.7668 66.5962 47.8685C67.8299 47.8877 68.957 48.1055 68.9719 48.4498Z" fill="#4E5154"/>
<path d="M16.4108 161.346C17.0961 161.38 17.1774 167.44 17.1089 168.8C17.0404 170.16 16.3925 175.989 15.675 175.953C14.9575 175.917 14.8986 170.052 14.9671 168.692C15.0356 167.332 15.7254 161.311 16.4108 161.346Z" fill="#4E5154"/>
<path d="M25.9267 67.4965C25.5733 67.4787 25.8221 63.8194 26.0356 59.7933C26.2491 55.7673 26.4617 51.3331 26.5437 49.7054C26.6257 48.0776 26.8399 43.8261 27.04 39.853C27.2401 35.88 27.4143 32.4209 27.7388 32.3728C28.0634 32.3248 28.4647 35.8665 28.5987 39.8134C28.7328 43.7604 28.6744 48.1164 28.5806 49.765C28.4868 51.4137 28.1436 55.8842 27.5547 59.9021C26.9658 63.92 26.2228 67.5865 25.9267 67.4965Z" fill="#4E5154"/>
<circle cx="208.23" cy="174.699" r="46" fill="white" stroke="#FFC9C9"/>
<rect width="57" height="48" transform="translate(180.73 156.199)" fill="white"/>
<path d="M221.787 159.28C216.672 158.641 211.166 161.837 209.23 166.615C207.295 161.837 201.729 158.641 196.674 159.28C189.938 160.105 185.617 167.792 186.982 175.21C188.843 185.303 198.984 189.811 209.23 201.199C219.432 189.811 229.618 185.286 231.479 175.21C232.844 167.792 228.523 160.105 221.787 159.28Z" stroke="#FFC9C9" stroke-width="1.5" stroke-linecap="round" stroke-linejoin="round"/>
<path d="M210.591 195.295C209.846 195.531 208.618 195.531 207.872 195.295C201.515 193.354 187.309 185.254 187.309 171.526C187.309 165.466 192.767 160.563 199.498 160.563C203.488 160.563 207.017 162.289 209.232 164.956C210.358 163.594 211.825 162.488 213.515 161.725C215.206 160.962 217.072 160.564 218.966 160.563C225.696 160.563 231.155 165.466 231.155 171.526C231.155 185.254 216.949 193.354 210.591 195.295Z" fill="#FFC9C9"/>
</svg>
