<svg width="8" height="15" viewBox="0 0 8 15" fill="none" xmlns="http://www.w3.org/2000/svg">
<path d="M7.25503 0.126731C7.42547 -0.0422437 7.70178 -0.0422437 7.87222 0.126731C8.04259 0.295706 8.04259 0.569669 7.87222 0.738652L7.25503 0.126731ZM0.436341 7.5L0.127832 7.80592C-0.0426111 7.63699 -0.0426111 7.36301 0.127832 7.19401L0.436341 7.5ZM7.87222 14.2613C8.04259 14.4303 8.04259 14.7042 7.87222 14.8732C7.70178 15.0423 7.42547 15.0423 7.25503 14.8732L7.87222 14.2613ZM7.87222 0.738652L0.744936 7.80592L0.127832 7.19401L7.25503 0.126731L7.87222 0.738652ZM0.744936 7.19401L7.87222 14.2613L7.25503 14.8732L0.127832 7.80592L0.744936 7.19401Z" fill="white"/>
</svg>
