<svg width="24" height="24" viewBox="0 0 24 24" fill="none" xmlns="http://www.w3.org/2000/svg">
<path fill-rule="evenodd" clip-rule="evenodd" d="M0.42376 11.3547L5.95456 13.4895L8.09416 20.6055C8.23216 21.0615 8.77096 21.2295 9.12856 20.9271L12.2114 18.3291C12.3667 18.1971 12.5623 18.1219 12.7661 18.116C12.9698 18.1101 13.1695 18.1739 13.3322 18.2967L18.8918 22.4691C19.2758 22.7571 19.817 22.5411 19.913 22.0611L23.9858 1.81231C24.0914 1.28911 23.5946 0.853508 23.1134 1.04671L0.41776 10.0947C-0.14264 10.3191 -0.13784 11.1387 0.42376 11.3547ZM7.48576 12.3819L18.2918 5.65831C18.4862 5.53831 18.6854 5.80231 18.5198 5.95831L9.60016 14.3343C9.28816 14.6283 9.08416 15.0231 9.02776 15.4503L8.72416 17.7267C8.68336 18.0303 8.26096 18.0603 8.17816 17.7663L7.01056 13.6191C6.94547 13.3894 6.9566 13.1448 7.04228 12.922C7.12795 12.6991 7.28356 12.51 7.48576 12.3831V12.3819Z" fill="white"/>
</svg>
