<svg width="17" height="18" viewBox="0 0 17 18" fill="none" xmlns="http://www.w3.org/2000/svg">
<path d="M1.45734 4.22028H15.8822" stroke="#4E5154" stroke-miterlimit="1.5" stroke-linecap="round" stroke-linejoin="round"/>
<path d="M6.08371 4.22026V2.45618C6.08371 1.4671 6.88496 0.665771 7.87405 0.665771C8.38952 0.665771 8.95051 0.665771 9.46598 0.665771C10.4539 0.665771 11.2563 1.4671 11.2563 2.45618C11.2563 3.34002 11.2563 4.22026 11.2563 4.22026" stroke="#4E5154" stroke-miterlimit="1.5" stroke-linecap="round" stroke-linejoin="round"/>
<path d="M3.25461 4.22028V14.8048C3.25461 15.2988 3.45074 15.7712 3.79997 16.1204C4.14801 16.4696 4.62166 16.6658 5.11561 16.6658C7.10335 16.6658 10.2356 16.6658 12.2234 16.6658C12.7173 16.6658 13.191 16.4696 13.5402 16.1204C13.8894 15.7712 14.0856 15.2988 14.0856 14.8048C14.0856 11.3329 14.0856 4.22028 14.0856 4.22028" stroke="#4E5154" stroke-miterlimit="1.5" stroke-linecap="round" stroke-linejoin="round"/>
</svg>
