<svg width="34" height="29" viewBox="0 0 34 29" fill="none" xmlns="http://www.w3.org/2000/svg">
<path d="M20.2656 4.1879H10.1876C9.19259 4.1879 8.30457 4.81288 7.96857 5.74988C7.59457 6.79188 7.13859 8.06588 6.94159 8.61288C6.88359 8.77488 6.73059 8.8829 6.55759 8.8829C6.01859 8.8829 4.79957 8.8829 3.61157 8.8829C1.99757 8.8829 0.688568 10.1919 0.688568 11.8059C0.688568 15.3979 0.688568 21.4569 0.688568 25.0489C0.688568 25.8239 0.996586 26.5679 1.54459 27.1159C2.09359 27.6639 2.83657 27.9719 3.61157 27.9719C9.08457 27.9719 20.8166 27.9719 26.2886 27.9719C27.0636 27.9719 27.8076 27.6639 28.3556 27.1159C28.9036 26.5679 29.2116 25.8239 29.2116 25.0489C29.2116 20.8879 29.2116 13.7549 29.2116 13.7549" stroke="#4E5154" stroke-miterlimit="1.5" stroke-linecap="round" stroke-linejoin="round"/>
<path d="M29.2116 7.81989V1.04388" stroke="#4E5154" stroke-miterlimit="1.5" stroke-linecap="round" stroke-linejoin="round"/>
<path d="M25.8236 4.43149H32.5996" stroke="#4E5154" stroke-miterlimit="1.5" stroke-linecap="round" stroke-linejoin="round"/>
<path d="M14.95 21.8605C17.6286 21.8605 19.8 19.689 19.8 17.0105C19.8 14.3319 17.6286 12.1605 14.95 12.1605C12.2714 12.1605 10.1 14.3319 10.1 17.0105C10.1 19.689 12.2714 21.8605 14.95 21.8605Z" stroke="#4E5154" stroke-miterlimit="1.5" stroke-linecap="round" stroke-linejoin="round"/>
</svg>
