<svg width="24" height="24" viewBox="0 0 24 24" fill="none" xmlns="http://www.w3.org/2000/svg">
<g clip-path="url(#clip0_1504_9125)">
<path d="M15.6875 0H8.325C1.59997 0 0 1.59997 0 8.31247V15.675C0 22.4 1.58753 24 8.31247 24H15.675C22.4 24 24 22.4125 24 15.6875V8.325C24 1.59997 22.4125 0 15.6875 0ZM19.375 17.125H17.625C16.9625 17.125 16.7625 16.5875 15.575 15.4C14.5375 14.4 14.1 14.275 13.8375 14.275C13.475 14.275 13.375 14.375 13.375 14.875V16.45C13.375 16.875 13.2375 17.125 12.125 17.125C11.0455 17.0524 9.99863 16.7245 9.07066 16.1681C8.14268 15.6118 7.36015 14.843 6.7875 13.925C5.42803 12.2328 4.48213 10.2469 4.02503 8.12497C4.02503 7.86247 4.125 7.62496 4.62503 7.62496H6.375C6.825 7.62496 6.98753 7.82497 7.1625 8.2875C8.01247 10.7875 9.46253 12.9625 10.05 12.9625C10.275 12.9625 10.375 12.8625 10.375 12.3V9.72496C10.3 8.55 9.675 8.44996 9.675 8.025C9.68323 7.91288 9.73483 7.80839 9.81885 7.73369C9.90287 7.659 10.0127 7.62 10.125 7.62496H12.875C13.25 7.62496 13.375 7.81246 13.375 8.26246V11.7375C13.375 12.1125 13.5375 12.2375 13.65 12.2375C13.875 12.2375 14.05 12.1125 14.4625 11.7C15.3489 10.619 16.0732 9.4147 16.6125 8.12497C16.6675 7.96978 16.7719 7.83689 16.9096 7.7466C17.0473 7.6563 17.2108 7.61358 17.375 7.62496H19.125C19.65 7.62496 19.7625 7.88746 19.65 8.26246C19.0132 9.68843 18.2254 11.042 17.3 12.3C17.1125 12.5875 17.0375 12.7375 17.3 13.075C17.475 13.3375 18.0875 13.85 18.5 14.3375C19.1 14.9359 19.5982 15.6284 19.975 16.3875C20.125 16.875 19.875 17.125 19.375 17.125Z" fill="white"/>
</g>
<defs>
<clipPath id="clip0_1504_9125">
<rect width="24" height="24" fill="white"/>
</clipPath>
</defs>
</svg>
