<svg width="28" height="24" viewBox="0 0 28 24" fill="none" xmlns="http://www.w3.org/2000/svg">
<g clip-path="url(#clip0_1504_9128)">
<path d="M27.9938 8.8815C28.0567 6.93065 27.6585 4.99441 26.8362 3.25255C26.2782 2.53782 25.5039 2.05549 24.6482 1.88961C21.1087 1.5455 17.5545 1.40446 14.0009 1.4671C10.4603 1.40162 6.91887 1.5381 3.39177 1.87598C2.69444 2.01189 2.04911 2.36233 1.53453 2.88455C0.389664 4.0158 0.262456 5.95117 0.135249 7.5867C-0.0493146 10.5273 -0.0493146 13.4779 0.135249 16.4186C0.17205 17.3391 0.299975 18.2528 0.516872 19.1444C0.670253 19.8328 0.980574 20.4697 1.42005 20.998C1.93812 21.5479 2.59848 21.9183 3.31544 22.0611C6.05794 22.4238 8.82128 22.5742 11.584 22.5109C16.0362 22.5791 19.9415 22.5109 24.5592 22.1293C25.2937 21.9952 25.9727 21.6244 26.5054 21.0662C26.8616 20.6845 27.1276 20.2172 27.2814 19.7032C27.7363 18.2076 27.9598 16.6422 27.9429 15.0692C27.9938 14.306 27.9938 9.69926 27.9938 8.8815ZM11.126 15.887V7.45041L18.6567 11.6892C16.5451 12.9431 13.7592 14.3605 11.126 15.887Z" fill="white"/>
</g>
<defs>
<clipPath id="clip0_1504_9128">
<rect width="28" height="24" fill="white"/>
</clipPath>
</defs>
</svg>
