<svg width="63" height="49" viewBox="0 0 63 49" fill="none" xmlns="http://www.w3.org/2000/svg">
<path d="M13.5676 35.5409C17.8645 35.5409 21.3478 32.0575 21.3478 27.7607C21.3478 23.4638 17.8645 19.9805 13.5676 19.9805C9.27072 19.9805 5.78743 23.4638 5.78743 27.7607C5.78743 32.0575 9.27072 35.5409 13.5676 35.5409Z" stroke="#4E5154" stroke-width="2.5" stroke-miterlimit="1.5" stroke-linecap="round" stroke-linejoin="round"/>
<path d="M1.77307 47.3367C1.77307 40.8263 7.05842 35.5409 13.5688 35.5409C20.0792 35.5409 25.3646 40.8263 25.3646 47.3367" stroke="#4E5154" stroke-width="2.5" stroke-miterlimit="1.5" stroke-linecap="round" stroke-linejoin="round"/>
<path d="M49.7683 35.5409C54.0652 35.5409 57.5485 32.0575 57.5485 27.7607C57.5485 23.4638 54.0652 19.9805 49.7683 19.9805C45.4714 19.9805 41.9881 23.4638 41.9881 27.7607C41.9881 32.0575 45.4714 35.5409 49.7683 35.5409Z" stroke="#4E5154" stroke-width="2.5" stroke-miterlimit="1.5" stroke-linecap="round" stroke-linejoin="round"/>
<path d="M37.9731 47.3367C37.9731 40.8263 43.2585 35.5409 49.7689 35.5409C56.2793 35.5409 61.5646 40.8263 61.5646 47.3367" stroke="#4E5154" stroke-width="2.5" stroke-miterlimit="1.5" stroke-linecap="round" stroke-linejoin="round"/>
<path d="M18.022 8.14919H44.4805" stroke="#4E5154" stroke-width="2.5" stroke-miterlimit="1.5" stroke-linecap="round" stroke-linejoin="round"/>
<path d="M24.8699 1.33673L18.0221 8.18446" stroke="#4E5154" stroke-width="2.5" stroke-miterlimit="1.5" stroke-linecap="round" stroke-linejoin="round"/>
<path d="M24.8699 15.0332L18.0221 8.18549" stroke="#4E5154" stroke-width="2.5" stroke-miterlimit="1.5" stroke-linecap="round" stroke-linejoin="round"/>
<path d="M38.4635 1.33673L45.3112 8.18446" stroke="#4E5154" stroke-width="2.5" stroke-miterlimit="1.5" stroke-linecap="round" stroke-linejoin="round"/>
<path d="M38.4635 15.0332L45.3112 8.18549" stroke="#4E5154" stroke-width="2.5" stroke-miterlimit="1.5" stroke-linecap="round" stroke-linejoin="round"/>
</svg>
