<svg width="49" height="37" viewBox="0 0 49 37" fill="none" xmlns="http://www.w3.org/2000/svg">
<path fill-rule="evenodd" clip-rule="evenodd" d="M47.2927 7.09905C47.2927 5.62382 46.7119 4.20977 45.6648 3.16627C44.6266 2.12365 43.21 1.53723 41.7318 1.53723C32.889 1.53723 15.705 1.53723 6.85344 1.53723C5.37525 1.53723 3.96747 2.12365 2.92041 3.16627C1.88216 4.20977 1.29266 5.62382 1.29266 7.09905C1.29266 13.3233 1.29266 23.3502 1.29266 29.5744C1.29266 31.0497 1.88216 32.4646 2.92041 33.5072C3.96747 34.5507 5.37525 35.1363 6.85344 35.1363C15.705 35.1363 32.889 35.1363 41.7318 35.1363C43.21 35.1363 44.6266 34.5507 45.6648 33.5072C46.7119 32.4646 47.2927 31.0497 47.2927 29.5744C47.2927 23.3502 47.2927 13.3233 47.2927 7.09905Z" stroke="#4E5154" stroke-width="2.5" stroke-miterlimit="1.5" stroke-linecap="round" stroke-linejoin="round"/>
<path d="M34.5567 27.1492C37.4025 27.1492 39.7095 24.8423 39.7095 21.9965C39.7095 19.1506 37.4025 16.8437 34.5567 16.8437C31.7109 16.8437 29.4039 19.1506 29.4039 21.9965C29.4039 24.8423 31.7109 27.1492 34.5567 27.1492Z" stroke="#4E5154" stroke-width="2.5" stroke-miterlimit="1.5" stroke-linecap="round" stroke-linejoin="round"/>
<path d="M30.5405 25.2174C29.5955 26.395 28.1424 27.1492 26.5199 27.1492C23.676 27.1492 21.3671 24.8403 21.3671 21.9965C21.3671 19.1526 23.676 16.8437 26.5199 16.8437C28.1424 16.8437 29.5955 17.5979 30.5405 18.7746" stroke="#4E5154" stroke-width="2.5" stroke-miterlimit="1.5" stroke-linecap="round" stroke-linejoin="round"/>
</svg>
