<svg width="65" height="65" viewBox="0 0 65 65" fill="none" xmlns="http://www.w3.org/2000/svg">
<path d="M17.743 32.6484C28.521 35.4664 38.773 35.4834 48.489 32.6484" stroke="#4E5154" stroke-width="1.5" stroke-miterlimit="1.5" stroke-linecap="round" stroke-linejoin="round"/>
<path d="M33.161 64.1484V46.8694" stroke="#4E5154" stroke-width="1.5" stroke-miterlimit="1.5" stroke-linecap="round" stroke-linejoin="round"/>
<path d="M17.108 34.3134C22.687 37.9874 28.055 42.1334 33.161 46.8694" stroke="#4E5154" stroke-width="1.5" stroke-miterlimit="1.5" stroke-linecap="round" stroke-linejoin="round"/>
<path d="M49.2161 34.3134C43.2691 38.1414 37.9301 42.3334 33.1631 46.8694" stroke="#4E5154" stroke-width="1.5" stroke-miterlimit="1.5" stroke-linecap="round" stroke-linejoin="round"/>
<path d="M1.63007 22.5824H14.489" stroke="#4E5154" stroke-width="1.5" stroke-miterlimit="1.5" stroke-linecap="round" stroke-linejoin="round"/>
<path d="M11.217 19.3107L14.489 22.5817" stroke="#4E5154" stroke-width="1.5" stroke-miterlimit="1.5" stroke-linecap="round" stroke-linejoin="round"/>
<path d="M11.217 25.8584L14.489 22.5874" stroke="#4E5154" stroke-width="1.5" stroke-miterlimit="1.5" stroke-linecap="round" stroke-linejoin="round"/>
<path d="M64.254 22.5824H51.395" stroke="#4E5154" stroke-width="1.5" stroke-miterlimit="1.5" stroke-linecap="round" stroke-linejoin="round"/>
<path d="M54.667 19.3107L51.395 22.5817" stroke="#4E5154" stroke-width="1.5" stroke-miterlimit="1.5" stroke-linecap="round" stroke-linejoin="round"/>
<path d="M54.667 25.8584L51.395 22.5874" stroke="#4E5154" stroke-width="1.5" stroke-miterlimit="1.5" stroke-linecap="round" stroke-linejoin="round"/>
<path d="M19.0001 1.14838C19.0001 1.14838 27.0641 11.2024 17.7431 32.6484C12.1041 45.6224 21.377 64.1484 21.377 64.1484" stroke="#4E5154" stroke-width="1.5" stroke-miterlimit="1.5" stroke-linecap="round" stroke-linejoin="round"/>
<path d="M47.324 1.14838C47.324 1.14838 39.26 11.2024 48.581 32.6484C54.22 45.6224 44.9471 64.1484 44.9471 64.1484" stroke="#4E5154" stroke-width="1.5" stroke-miterlimit="1.5" stroke-linecap="round" stroke-linejoin="round"/>
</svg>
