<svg width="56" height="59" viewBox="0 0 56 59" fill="none" xmlns="http://www.w3.org/2000/svg">
<path d="M36.812 11.5449L40.379 15.0709L43.863 11.5449" stroke="#4E5154" stroke-width="1.5" stroke-miterlimit="1.5" stroke-linecap="round" stroke-linejoin="round"/>
<path d="M25.861 1.49286C36.157 1.88886 40.996 6.41486 40.379 15.0709" stroke="#4E5154" stroke-width="1.5" stroke-miterlimit="1.5" stroke-linecap="round" stroke-linejoin="round"/>
<path d="M18.4221 21.5009L14.8551 17.9749L11.3711 21.5009" stroke="#4E5154" stroke-width="1.5" stroke-miterlimit="1.5" stroke-linecap="round" stroke-linejoin="round"/>
<path d="M29.3731 31.5529C19.0771 31.1569 14.2381 26.6309 14.8551 17.9749" stroke="#4E5154" stroke-width="1.5" stroke-miterlimit="1.5" stroke-linecap="round" stroke-linejoin="round"/>
<path d="M1.14905 43.8838C1.14905 43.8838 5.76804 41.0848 8.86304 39.2108C10.567 38.1788 12.6751 38.0698 14.4771 38.9228C16.8261 40.0348 20.115 41.5908 22.379 42.6618C24.01 43.4338 25.9051 43.4218 27.5261 42.6278C29.7531 41.5388 32.966 39.9668 35.222 38.8628C36.901 38.0408 38.868 38.0588 40.532 38.9088C42.53 39.9298 45.2721 41.3318 47.3361 42.3868C49.1571 43.3178 51.33 43.2459 53.085 42.1949C53.855 41.7349 54.481 41.3598 54.481 41.3598" stroke="#4E5154" stroke-width="1.5" stroke-miterlimit="1.5" stroke-linecap="round" stroke-linejoin="round"/>
<path d="M1.14905 47.9773C1.14905 47.9773 5.76804 45.1783 8.86304 43.3043C10.567 42.2723 12.6751 42.1633 14.4771 43.0163C16.8261 44.1283 20.115 45.6843 22.379 46.7553C24.01 47.5273 25.9051 47.5153 27.5261 46.7213C29.7531 45.6323 32.966 44.0603 35.222 42.9563C36.901 42.1343 38.868 42.1523 40.532 43.0023C42.53 44.0233 45.2721 45.4253 47.3361 46.4803C49.1571 47.4113 51.33 47.3393 53.085 46.2883C53.855 45.8283 54.481 45.4533 54.481 45.4533" stroke="#4E5154" stroke-width="1.5" stroke-miterlimit="1.5" stroke-linecap="round" stroke-linejoin="round"/>
<path d="M1.14905 57.8039C1.31705 57.7349 55.149 57.8039 55.149 57.8039" stroke="#4E5154" stroke-width="1.5" stroke-miterlimit="1.5" stroke-linecap="round" stroke-linejoin="round"/>
<path fill-rule="evenodd" clip-rule="evenodd" d="M28.1487 8.09464C28.1487 8.09464 34.0598 13.5087 34.0598 19.1487C34.0598 22.4117 31.4117 25.0597 28.1487 25.0597C24.8867 25.0597 22.2378 22.4117 22.2378 19.1487C22.2378 13.3977 28.1487 8.09464 28.1487 8.09464Z" stroke="#4E5154" stroke-width="1.5" stroke-miterlimit="1.5" stroke-linecap="round" stroke-linejoin="round"/>
</svg>
