<svg width="62" height="68" viewBox="0 0 62 68" fill="none" xmlns="http://www.w3.org/2000/svg">
<path d="M29.2661 19.7174V7.87439H24.416L31.366 0.923401L38.249 7.8064H33.351V19.7174" stroke="#4E5154" stroke-width="1.5" stroke-miterlimit="1.5" stroke-linecap="round" stroke-linejoin="round"/>
<path d="M4.73834 34.4149C4.73834 34.4149 9.35733 31.616 12.4523 29.742C14.1563 28.71 16.2643 28.601 18.0663 29.454C20.4153 30.566 23.7043 32.122 25.9683 33.193C27.5993 33.965 29.4944 33.953 31.1154 33.159C33.3424 32.07 36.5553 30.498 38.8113 29.394C40.4903 28.572 42.4573 28.59 44.1213 29.44C46.1193 30.461 48.8614 31.8629 50.9254 32.9179C52.7464 33.8489 54.9193 33.777 56.6743 32.726C57.4443 32.266 58.0703 31.891 58.0703 31.891" stroke="#4E5154" stroke-width="1.5" stroke-miterlimit="1.5" stroke-linecap="round" stroke-linejoin="round"/>
<path d="M4.73834 38.5084C4.73834 38.5084 9.35733 35.7094 12.4523 33.8354C14.1563 32.8034 16.2643 32.6944 18.0663 33.5474C20.4153 34.6594 23.7043 36.2154 25.9683 37.2864C27.5993 38.0584 29.4944 38.0464 31.1154 37.2524C33.3424 36.1634 36.5553 34.5914 38.8113 33.4874C40.4903 32.6654 42.4573 32.6834 44.1213 33.5334C46.1193 34.5544 48.8614 35.9564 50.9254 37.0114C52.7464 37.9424 54.9193 37.8704 56.6743 36.8194C57.4443 36.3594 58.0703 35.9844 58.0703 35.9844" stroke="#4E5154" stroke-width="1.5" stroke-miterlimit="1.5" stroke-linecap="round" stroke-linejoin="round"/>
<path d="M42.3288 20.7702L50.7031 12.3959L47.2736 8.96639L57.1031 8.9657V18.6997L53.6397 15.2363L45.2173 23.6587" stroke="#4E5154" stroke-width="1.5" stroke-miterlimit="1.5" stroke-linecap="round" stroke-linejoin="round"/>
<path d="M17.5948 23.7406L9.22056 15.3663L5.79107 18.7958L5.79038 8.96633H15.5244L12.061 12.4298L20.4833 20.8521" stroke="#4E5154" stroke-width="1.5" stroke-miterlimit="1.5" stroke-linecap="round" stroke-linejoin="round"/>
<path d="M29.2661 47.5793V59.4224H24.416L31.366 66.3734L38.249 59.4904H33.351V47.5793" stroke="#4E5154" stroke-width="1.5" stroke-miterlimit="1.5" stroke-linecap="round" stroke-linejoin="round"/>
<path d="M42.3288 46.5256L50.7031 54.8999L47.2736 58.3294L57.1031 58.33V48.596L53.6397 52.0594L45.2173 43.6371" stroke="#4E5154" stroke-width="1.5" stroke-miterlimit="1.5" stroke-linecap="round" stroke-linejoin="round"/>
<path d="M17.5948 43.5572L9.22056 51.9315L5.79107 48.502L5.79038 58.3315H15.5244L12.061 54.868L20.4833 46.4457" stroke="#4E5154" stroke-width="1.5" stroke-miterlimit="1.5" stroke-linecap="round" stroke-linejoin="round"/>
</svg>
