<svg width="60" height="59" viewBox="0 0 60 59" fill="none" xmlns="http://www.w3.org/2000/svg">
<path d="M1.21606 28.1357H6.96802" stroke="#4E5154" stroke-width="1.5" stroke-miterlimit="1.5" stroke-linecap="round" stroke-linejoin="round"/>
<path d="M28.013 1.13177V6.88373" stroke="#4E5154" stroke-width="1.5" stroke-miterlimit="1.5" stroke-linecap="round" stroke-linejoin="round"/>
<path d="M8.97778 8.95663L13.045 13.0239" stroke="#4E5154" stroke-width="1.5" stroke-miterlimit="1.5" stroke-linecap="round" stroke-linejoin="round"/>
<path d="M46.7103 8.95663L42.643 13.0239" stroke="#4E5154" stroke-width="1.5" stroke-miterlimit="1.5" stroke-linecap="round" stroke-linejoin="round"/>
<path d="M13.0504 42.9096L8.98311 46.9769" stroke="#4E5154" stroke-width="1.5" stroke-miterlimit="1.5" stroke-linecap="round" stroke-linejoin="round"/>
<path d="M53.4321 52.4158C54.9561 52.4158 56.4181 51.8107 57.4951 50.7327C58.5731 49.6547 59.178 48.1937 59.178 46.6697V46.6667C59.178 45.1427 58.5731 43.6808 57.4951 42.6038C56.4181 41.5258 54.9561 40.9207 53.4321 40.9207C47.1931 40.9207 38.106 40.9207 38.106 40.9207" stroke="#4E5154" stroke-width="1.5" stroke-miterlimit="1.5" stroke-linecap="round" stroke-linejoin="round"/>
<path d="M56.4348 23.9837V23.9867C56.4348 25.5107 55.8298 26.9727 54.7518 28.0497C53.6748 29.1277 52.2128 29.7327 50.6888 29.7327C44.4498 29.7327 35.3628 29.7327 35.3628 29.7327" stroke="#4E5154" stroke-width="1.5" stroke-miterlimit="1.5" stroke-linecap="round" stroke-linejoin="round"/>
<path d="M45.4066 58.165V58.162C45.4066 56.638 44.8016 55.1761 43.7236 54.0991C42.6466 53.0211 41.1846 52.416 39.6606 52.416C37.7776 52.416 35.6356 52.416 33.5616 52.416" stroke="#4E5154" stroke-width="1.5" stroke-miterlimit="1.5" stroke-linecap="round" stroke-linejoin="round"/>
<path d="M28.3963 41.729C21.1448 41.729 15.2585 35.8419 15.2585 28.5913C15.2585 21.3407 21.1448 15.4544 28.3963 15.4544C31.8048 15.4544 34.9128 16.7558 37.2489 18.8883" stroke="#4E5154" stroke-width="1.5" stroke-miterlimit="1.5" stroke-linecap="round" stroke-linejoin="round"/>
</svg>
