<svg width="61" height="49" viewBox="0 0 61 49" fill="none" xmlns="http://www.w3.org/2000/svg">
<path d="M52.6898 38.9864H59.1854V6.86442C59.1854 5.39823 58.6027 3.99203 57.5659 2.95566C56.5292 1.91929 55.1234 1.33673 53.6572 1.33673C46.4827 1.33673 34.0328 1.33673 26.8572 1.33673C25.391 1.33673 23.9852 1.91929 22.9484 2.95566C21.9117 3.99203 21.3301 5.39823 21.3301 6.86442C21.3301 17.3263 21.3301 38.9864 21.3301 38.9864H42.423" stroke="#4E5154" stroke-width="2.5" stroke-miterlimit="1.5" stroke-linecap="round" stroke-linejoin="round"/>
<path d="M21.3301 14.7385H13.4622C11.3462 14.7385 9.3421 15.6925 8.00786 17.3343C5.4501 20.4837 1.47421 25.3778 1.47421 25.3778V38.9864H7.72266" stroke="#4E5154" stroke-width="2.5" stroke-miterlimit="1.5" stroke-linecap="round" stroke-linejoin="round"/>
<path d="M17.9883 38.9864H21.3301" stroke="#4E5154" stroke-width="2.5" stroke-miterlimit="1.5" stroke-linecap="round" stroke-linejoin="round"/>
<path d="M12.8555 47.3367C16.0328 47.3367 18.6086 44.761 18.6086 41.5837C18.6086 38.4064 16.0328 35.8307 12.8555 35.8307C9.67825 35.8307 7.10257 38.4064 7.10257 41.5837C7.10257 44.761 9.67825 47.3367 12.8555 47.3367Z" stroke="#4E5154" stroke-width="2.5" stroke-miterlimit="1.5" stroke-linecap="round" stroke-linejoin="round"/>
<path d="M47.5564 47.3367C50.7336 47.3367 53.3094 44.761 53.3094 41.5837C53.3094 38.4064 50.7336 35.8307 47.5564 35.8307C44.3791 35.8307 41.8034 38.4064 41.8034 41.5837C41.8034 44.761 44.3791 47.3367 47.5564 47.3367Z" stroke="#4E5154" stroke-width="2.5" stroke-miterlimit="1.5" stroke-linecap="round" stroke-linejoin="round"/>
<path d="M1.47421 25.3778H21.3301" stroke="#4E5154" stroke-width="2.5" stroke-miterlimit="1.5" stroke-linecap="round" stroke-linejoin="round"/>
</svg>
