<svg width="48" height="49" viewBox="0 0 48 49" fill="none" xmlns="http://www.w3.org/2000/svg">
<path d="M8.73596 17.4C18.0151 34.9476 30.7508 43.8551 46.538 45.1333L36.4377 43.1287M36.4377 43.1287C36.4377 43.1287 36.4275 39.7195 36.4154 36.2016C36.4015 31.8106 33.9649 27.7855 30.081 25.7372C20.4322 20.7181 13.1484 12.747 8.59013 2.78882C8.15446 1.83666 7.16791 1.25885 6.12378 1.34524C5.07966 1.43256 4.20184 2.16457 3.92874 3.17618C-0.636973 19.962 2.90688 33.9201 14.4117 43.647C19.2022 47.7148 25.9723 48.4923 31.5599 45.6145C34.1841 44.2898 36.4377 43.1287 36.4377 43.1287Z" stroke="#4E5154" stroke-width="2.5" stroke-miterlimit="1.5" stroke-linecap="round" stroke-linejoin="round"/>
</svg>
