<svg width="45" height="49" viewBox="0 0 45 49" fill="none" xmlns="http://www.w3.org/2000/svg">
<path d="M14.1465 1.33673H9.53606V16.3417C9.53606 18.7379 8.44232 21.0035 6.56634 22.4927C5.91466 23.01 5.22009 23.5617 4.55221 24.0923C2.40946 25.794 1.22042 28.4265 1.36143 31.159C1.50339 33.9343 2.71624 36.5477 4.74466 38.4466C4.7923 38.4914 4.83993 38.5361 4.88757 38.5799C6.28145 39.8862 7.0389 41.7326 6.96364 43.641C6.89408 45.4226 6.81881 47.3367 6.81881 47.3367" stroke="#4E5154" stroke-width="2.5" stroke-miterlimit="1.5" stroke-linecap="round" stroke-linejoin="round"/>
<path d="M30.0375 1.33673H34.6479V16.3417C34.6479 18.7379 35.7417 21.0035 37.6176 22.4927C38.2693 23.01 38.9639 23.5617 39.6318 24.0923C41.7745 25.794 42.9636 28.4265 42.8225 31.159C42.6806 33.9343 41.4677 36.5477 39.4393 38.4466C39.3917 38.4914 39.344 38.5361 39.2964 38.5799C37.9025 39.8862 37.1451 41.7326 37.2203 43.641C37.2899 45.4226 37.3652 47.3367 37.3652 47.3367" stroke="#4E5154" stroke-width="2.5" stroke-miterlimit="1.5" stroke-linecap="round" stroke-linejoin="round"/>
<path d="M6.81882 47.3367H37.3651" stroke="#4E5154" stroke-width="2.5" stroke-miterlimit="1.5" stroke-linecap="round" stroke-linejoin="round"/>
<path d="M6.94269 42.794H37.2403" stroke="#4E5154" stroke-width="2.5" stroke-miterlimit="1.5" stroke-linecap="round" stroke-linejoin="round"/>
<path d="M14.1465 1.33673L22.0915 8.48051L30.0375 1.33673" stroke="#4E5154" stroke-width="2.5" stroke-miterlimit="1.5" stroke-linecap="round" stroke-linejoin="round"/>
<path d="M14.1465 22.0725L22.0915 14.9288L30.0375 22.0725" stroke="#4E5154" stroke-width="2.5" stroke-miterlimit="1.5" stroke-linecap="round" stroke-linejoin="round"/>
<path d="M14.1465 7.04757L18.5901 11.4903L14.2274 15.8529" stroke="#4E5154" stroke-width="2.5" stroke-miterlimit="1.5" stroke-linecap="round" stroke-linejoin="round"/>
<path d="M30.0375 7.04757L25.5939 11.4903L29.9565 15.8529" stroke="#4E5154" stroke-width="2.5" stroke-miterlimit="1.5" stroke-linecap="round" stroke-linejoin="round"/>
<path d="M14.1465 1.33673V27.3289H30.0375V1.33673" stroke="#4E5154" stroke-width="2.5" stroke-miterlimit="1.5" stroke-linecap="round" stroke-linejoin="round"/>
</svg>
