<svg width="49" height="49" viewBox="0 0 49 49" fill="none" xmlns="http://www.w3.org/2000/svg">
<path d="M1.3349 1.35956V47.3596H47.2156" stroke="#4E5154" stroke-width="2.5" stroke-miterlimit="1.5" stroke-linecap="round" stroke-linejoin="round"/>
<path d="M12.8936 31.0126L23.3726 20.5329L31.7289 28.8892L45.4734 15.1447" stroke="#4E5154" stroke-width="2.5" stroke-miterlimit="1.5" stroke-linecap="round" stroke-linejoin="round"/>
<path d="M12.3661 33.8591C13.779 33.8591 14.9243 32.7138 14.9243 31.3009C14.9243 29.8881 13.779 28.7427 12.3661 28.7427C10.9533 28.7427 9.80789 29.8881 9.80789 31.3009C9.80789 32.7138 10.9533 33.8591 12.3661 33.8591Z" fill="#4E5154"/>
<path d="M23.4027 22.9159C24.8156 22.9159 25.9609 21.7706 25.9609 20.3577C25.9609 18.9448 24.8156 17.7995 23.4027 17.7995C21.9899 17.7995 20.8445 18.9448 20.8445 20.3577C20.8445 21.7706 21.9899 22.9159 23.4027 22.9159Z" fill="#4E5154"/>
<path d="M31.7426 30.7207C33.1555 30.7207 34.3008 29.5753 34.3008 28.1625C34.3008 26.7496 33.1555 25.6043 31.7426 25.6043C30.3298 25.6043 29.1844 26.7496 29.1844 28.1625C29.1844 29.5753 30.3298 30.7207 31.7426 30.7207Z" fill="#4E5154"/>
<path d="M45.475 17.7041C46.8879 17.7041 48.0332 16.5588 48.0332 15.1459C48.0332 13.7331 46.8879 12.5877 45.475 12.5877C44.0622 12.5877 42.9168 13.7331 42.9168 15.1459C42.9168 16.5588 44.0622 17.7041 45.475 17.7041Z" fill="#4E5154"/>
</svg>
