<svg width="51" height="49" viewBox="0 0 51 49" fill="none" xmlns="http://www.w3.org/2000/svg">
<path fill-rule="evenodd" clip-rule="evenodd" d="M26.0168 1.66332C25.3576 1.31969 24.5852 1.2653 23.8834 1.51192C23.1817 1.75853 22.614 2.2844 22.3148 2.96531C20.0491 8.11701 15.2438 19.0433 15.2438 19.0433H6.77724C3.93483 19.0433 1.63007 21.3481 1.63007 24.1914C1.63007 29.3041 1.63007 37.0997 1.63007 42.2124C1.63007 43.5778 2.17228 44.8871 3.13788 45.8518C4.10258 46.8174 5.41179 47.3596 6.77724 47.3596C14.8983 47.3596 30.5756 47.3596 38.5434 47.3596C41.4266 47.3596 43.9381 45.3957 44.6326 42.5977C45.7097 38.2557 47.3245 31.7521 48.602 26.604C49.0825 24.6665 48.6455 22.6165 47.4161 21.0443C46.1857 19.4722 44.3016 18.5537 42.306 18.5537H28.2699C28.2699 18.5537 29.2772 16.4275 30.4649 13.9215C32.5747 9.47066 30.7877 4.1485 26.4194 1.87275C26.2825 1.80112 26.1483 1.73132 26.0168 1.66332Z" stroke="#4E5154" stroke-width="2.5" stroke-miterlimit="1.5" stroke-linecap="round" stroke-linejoin="round"/>
<path d="M14.8189 19.019V47.4775" stroke="#4E5154" stroke-width="2.5"/>
</svg>
