<svg width="49" height="49" viewBox="0 0 49 49" fill="none" xmlns="http://www.w3.org/2000/svg">
<path fill-rule="evenodd" clip-rule="evenodd" d="M46.8338 21.1362C46.8338 19.3043 46.1066 17.5479 44.811 16.2523C43.5155 14.9567 41.7587 14.2294 39.9267 14.2294H8.30452C6.47258 14.2294 4.71582 14.9567 3.42026 16.2523C2.12469 17.5479 1.39746 19.3043 1.39746 21.1362V24.5476H46.8338V21.1362Z" stroke="#4E5154" stroke-width="2.5" stroke-miterlimit="1.5" stroke-linecap="round" stroke-linejoin="round"/>
<path fill-rule="evenodd" clip-rule="evenodd" d="M40.9106 24.666H7.32294V41.6909C7.32294 44.8215 9.86136 47.3596 12.992 47.3596C19.1858 47.3596 29.0478 47.3596 35.2415 47.3596C38.3722 47.3596 40.9106 44.8215 40.9106 41.6909C40.9106 34.9683 40.9106 24.666 40.9106 24.666Z" stroke="#4E5154" stroke-width="2.5" stroke-miterlimit="1.5" stroke-linecap="round" stroke-linejoin="round"/>
<path d="M24.1156 14.1122V47.3582" stroke="#4E5154" stroke-width="2.5" stroke-miterlimit="1.5" stroke-linecap="round" stroke-linejoin="round"/>
<path fill-rule="evenodd" clip-rule="evenodd" d="M24.1156 8.28651C24.1156 6.4494 23.3858 4.68744 22.0868 3.38842C20.7878 2.08939 19.0258 1.35956 17.1887 1.35956C17.0237 1.35956 16.8596 1.35956 16.6955 1.35956C13.1413 1.35956 10.2608 4.24088 10.2608 7.79419C10.2608 11.3484 13.1413 14.2289 16.6955 14.2289C20.3153 14.2289 24.1156 14.2289 24.1156 14.2289V8.28651Z" stroke="#4E5154" stroke-width="2.5" stroke-miterlimit="1.5" stroke-linecap="round" stroke-linejoin="round"/>
<path fill-rule="evenodd" clip-rule="evenodd" d="M24.1157 8.28651C24.1157 6.4494 24.8455 4.68744 26.1445 3.38842C27.4435 2.08939 29.2055 1.35956 31.0426 1.35956C31.2076 1.35956 31.3717 1.35956 31.5358 1.35956C35.09 1.35956 37.9705 4.24088 37.9705 7.79419C37.9705 11.3484 35.09 14.2289 31.5358 14.2289C27.916 14.2289 24.1157 14.2289 24.1157 14.2289V8.28651Z" stroke="#4E5154" stroke-width="2.5" stroke-miterlimit="1.5" stroke-linecap="round" stroke-linejoin="round"/>
</svg>
