<svg width="50" height="44" viewBox="0 0 50 44" fill="none" xmlns="http://www.w3.org/2000/svg">
<path d="M38.0455 12.1775V7.50292C38.0455 4.50677 35.618 2.07846 32.6184 2.07846C25.6395 2.07846 13.6064 2.07846 6.87028 2.07846C5.5612 2.07846 4.30411 2.59863 3.37648 3.52452C2.44885 4.44955 1.92865 5.70575 1.92865 7.01483V7.01656C1.92865 9.7431 4.13942 11.9529 6.87028 11.9529C15.0889 11.9529 31.6128 11.9529 41.0018 11.9529C42.8397 11.9529 44.5996 12.6829 45.9 13.9833C47.2004 15.2829 47.9286 17.0454 47.9286 18.8833C47.9286 23.8985 47.9286 30.6494 47.9286 35.6647C47.9286 37.5026 47.2004 39.2659 45.9 40.5655C44.5996 41.865 42.8397 42.595 41.0018 42.595C32.3237 42.595 17.5423 42.595 8.86419 42.595C7.02627 42.595 5.25779 41.865 3.96605 40.5655C2.66564 39.2659 1.92865 37.5026 1.92865 35.6647V6.85878" stroke="#4E5154" stroke-width="2.5" stroke-miterlimit="1.5" stroke-linecap="round" stroke-linejoin="round"/>
<path d="M47.9287 22.3366H41.4872C38.713 22.3366 36.4677 24.5819 36.4677 27.351V27.3536C36.4677 30.1226 38.713 32.368 41.4872 32.368C44.5649 32.368 47.9287 32.368 47.9287 32.368" stroke="#4E5154" stroke-width="2.5" stroke-miterlimit="1.5" stroke-linecap="round" stroke-linejoin="round"/>
</svg>
